<svg width="34" height="8" viewBox="0 0 34 8" fill="none" xmlns="http://www.w3.org/2000/svg">
<g clip-path="url(#clip0_3_4241)">
<path d="M3.84872 1.4312H5.02697C5.61498 1.4312 5.99953 1.69109 5.90339 2.2425C5.80726 2.79391 5.35787 2.97922 4.57535 2.97922H3.57148L3.84872 1.4312ZM4.05217 4.68996C5.23043 4.68996 5.34222 5.02668 5.17006 6.04589C5.07305 6.49078 5.0362 6.94692 5.06051 7.40182H7.60929L7.64953 7.18035C7.34994 7.18035 7.44161 6.83459 7.62047 5.82442C7.89323 4.2538 7.4349 4.05945 6.67474 3.75662C7.61823 3.50804 8.14587 2.74871 8.30238 1.85154C8.56843 0.326116 7.84404 -0.376709 5.27291 -0.376709H1.63083L0.271484 7.41764H2.80014L3.27413 4.70578L4.05217 4.68996Z" fill="#BF2036"/>
<path d="M9.5077 -0.376709H12.0341L11.227 4.28996C11.0929 5.05832 11.1286 5.71821 12.166 5.71821C13.076 5.71821 13.4471 5.1329 13.5947 4.28996L14.4018 -0.376709H16.9305L16.1614 4.03007C15.7142 6.53177 14.3884 7.62555 11.8284 7.62555C9.44062 7.62555 8.27131 6.70578 8.74083 4.00973L9.5077 -0.376709Z" fill="#BF2036"/>
<path d="M21.0104 4.76679H19.4141L20.684 1.97357L21.0104 4.76679ZM18.1799 7.41764L18.6495 6.38939H21.1669L21.2877 7.41764H23.8052L22.4056 -0.376709H19.83L15.6982 7.41764H18.1799Z" fill="#BF2036"/>
<path d="M30.2038 3.8786L30.4274 2.10233L30.8589 -0.383545H33.2713L31.9119 7.4108H29.5442L27.532 3.16674L27.3085 4.94301L26.877 7.41758H24.4668L25.8261 -0.376765H28.1938L30.2038 3.8786Z" fill="#BF2036"/>
</g>
<defs>
<clipPath id="clip0_3_4241">
<rect width="33" height="8" fill="white" transform="translate(0.271484)"/>
</clipPath>
</defs>
</svg>
