<svg width="21" height="21" viewBox="0 0 21 21" fill="none" xmlns="http://www.w3.org/2000/svg">
<path d="M15.3247 2.59904C17.163 2.59904 18.658 4.09404 18.658 5.93237V15.9324C18.658 17.7707 17.163 19.2657 15.3247 19.2657H5.32471C3.48637 19.2657 1.99137 17.7707 1.99137 15.9324V5.93237C1.99137 4.09404 3.48637 2.59904 5.32471 2.59904H15.3247ZM15.3247 0.932373H5.32471C2.56304 0.932373 0.324707 3.17071 0.324707 5.93237V15.9324C0.324707 18.694 2.56304 20.9324 5.32471 20.9324H15.3247C18.0864 20.9324 20.3247 18.694 20.3247 15.9324V5.93237C20.3247 3.17071 18.0864 0.932373 15.3247 0.932373Z" fill="#757575"/>
</svg>
