<svg width="71" height="128" viewBox="0 0 71 128" fill="none" xmlns="http://www.w3.org/2000/svg">
<path d="M53.3974 24.8334L57.476 25.0733C58.3157 25.1333 59.6952 25.1933 60.4749 25.5531C61.7345 26.0929 62.6941 27.1726 63.114 28.4921L65.4532 35.2697C65.6331 35.8695 65.3932 36.5293 64.7934 36.7692L62.934 37.5489C62.2743 37.7888 61.5545 37.4889 61.3146 36.8292L59.8152 32.4507C59.6952 32.1508 59.5152 32.0908 59.3353 32.0908L53.1575 31.7909C52.3178 29.2118 52.4377 26.9327 53.3974 24.8334Z" fill="#412C3B"/>
<path d="M48.3008 111.146H12.1245V122.624H48.3008V111.146Z" fill="#E54242"/>
<path d="M56.0859 108.797C56.0859 113.227 52.4616 116.852 48.0318 116.852H12.3255C7.89581 116.852 4.27148 113.227 4.27148 108.797V8.05409C4.27148 3.62433 7.89581 0 12.3255 0H48.099C52.5287 0 56.153 3.62433 56.153 8.05409V108.797H56.0859Z" fill="#FFC7C7"/>
<path d="M51.1193 43.3578C51.1193 46.915 48.1662 49.8682 44.6089 49.8682H15.7484C12.1912 49.8682 9.23804 46.915 9.23804 43.3578V15.7725C9.23804 12.2153 12.1912 9.26211 15.7484 9.26211H44.6089C48.1662 9.26211 51.1193 12.2153 51.1193 15.7725V43.3578Z" fill="#FFAAAA"/>
<path d="M39.239 18.1215H37.3597V14.8327C37.3597 14.1616 36.8228 13.5575 36.0845 13.5575H24.2718C23.6006 13.5575 22.9966 14.0945 22.9966 14.8327V18.1215H21.1173C20.4461 18.1215 19.842 18.6585 19.842 19.3967V44.2302C19.842 44.9014 20.379 45.5054 21.1173 45.5054H39.1719C39.8431 45.5054 40.4471 44.9685 40.4471 44.2302V19.3967C40.4471 18.7256 39.9102 18.1215 39.239 18.1215ZM24.406 18.2557V14.967H36.0174V18.2557C36.0174 18.9269 36.5543 19.531 37.2926 19.531H39.1719V44.1631H21.2515V19.531H23.1308C23.802 19.531 24.406 18.9269 24.406 18.2557Z" fill="white"/>
<path d="M36.5546 40.8744C36.5546 41.4785 36.0176 42.0154 35.4136 42.0154H24.9432C24.3392 42.0154 23.8022 41.4785 23.8022 40.8744V39.8677C23.8022 39.2636 24.3392 38.7267 24.9432 38.7267H35.4807C36.0847 38.7267 36.6217 39.2636 36.6217 39.8677V40.8744H36.5546Z" fill="white"/>
<path d="M36.5546 34.968C36.5546 35.572 36.0176 36.109 35.4136 36.109H24.9432C24.3392 36.109 23.8022 35.572 23.8022 34.968V33.9612C23.8022 33.3571 24.3392 32.8202 24.9432 32.8202H35.4807C36.0847 32.8202 36.6217 33.3571 36.6217 33.9612V34.968H36.5546Z" fill="white"/>
<path d="M36.5543 29.0614C36.5543 29.6655 36.0174 30.2024 35.4133 30.2024H24.943C24.3389 30.2024 23.802 29.6655 23.802 29.0614V28.0547C23.802 27.4506 24.3389 26.9137 24.943 26.9137H35.4804C36.0845 26.9137 36.6214 27.4506 36.6214 28.0547V29.0614H36.5543Z" fill="white"/>
<path d="M36.5546 23.9703C36.5546 24.5744 36.0176 25.1113 35.4136 25.1113H24.9432C24.3392 25.1113 23.8022 24.5744 23.8022 23.9703V22.9636C23.8022 22.3595 24.3392 21.8226 24.9432 21.8226H35.4807C36.0847 21.8226 36.6217 22.3595 36.6217 22.9636V23.9703H36.5546Z" fill="white"/>
<path d="M46.3543 79.1987C46.3543 88.1254 39.1056 95.374 30.179 95.374C21.2523 95.374 14.0037 88.1254 14.0037 79.1987C14.0037 70.2721 21.2523 63.0234 30.179 63.0234C39.1056 63.0234 46.3543 70.2721 46.3543 79.1987Z" fill="#E54242"/>
<path d="M30.4561 70.0004C30.3637 70.005 30.2787 70.0527 30.2259 70.1287L23.326 80.0282C23.1872 80.2271 23.3295 80.4999 23.572 80.4999H28.3458L27.7728 87.6771C27.7504 87.9805 28.1417 88.1207 28.3171 87.8722L35.217 77.9733C35.3556 77.7746 35.2137 77.5021 34.9715 77.5016H30.1972L30.7708 70.3238C30.7852 70.1431 30.6372 69.991 30.4561 70.0004Z" fill="white"/>
<path d="M64.1336 100.947C64.9733 100.947 65.813 100.767 66.5928 100.347C69.1718 99.0275 70.6713 95.7287 70.6713 91.3502V91.2902C70.1315 85.2923 69.3518 81.4537 68.4521 77.0152C67.6124 72.8767 67.7923 68.4982 66.8327 60.8209C66.3528 57.1622 65.0933 36.7094 65.0933 36.6494L62.934 37.6091C62.934 37.909 64.2536 57.2822 64.7334 61.1208C65.753 68.8581 65.5131 73.2965 66.4128 77.4351C67.3125 81.8135 68.0922 85.5922 68.5721 91.4102C68.5721 94.889 67.4924 97.588 65.6331 98.5477C64.4935 99.1475 63.174 99.0275 61.9144 98.1278C59.5152 96.4484 57.296 91.83 58.3157 83.8528C60.7748 72.8767 62.2743 64.4796 62.2143 56.5024C62.0344 41.6876 59.9951 38.0889 59.7552 37.729L58.0158 38.8686C58.0158 38.8686 59.9351 42.3474 60.175 56.5024C60.235 64.2997 58.7355 72.5768 56.3364 83.433C56.3364 83.493 56.3364 83.493 56.3364 83.5529C55.3767 91.1103 57.0561 97.2281 60.8348 99.8672C61.7944 100.527 62.994 100.947 64.1336 100.947Z" fill="#D7D7D7"/>
<path d="M56.0964 33.1106V38.9286C56.3963 39.0485 56.6962 39.0485 57.0561 39.0485C57.356 39.0485 57.6559 38.9885 57.9558 38.9286C59.2153 38.5687 60.115 37.3691 60.115 35.9896C60.115 34.6101 59.2153 33.4705 57.9558 33.0506C57.6559 32.9906 57.356 32.9307 57.0561 32.9307C56.6962 32.9906 56.3963 33.0506 56.0964 33.1106Z" fill="#E54242"/>
<ellipse cx="30.2713" cy="122" rx="29.9998" ry="6" fill="url(#paint0_linear_1_5120)" fill-opacity="0.1"/>
<defs>
<linearGradient id="paint0_linear_1_5120" x1="0.271484" y1="116" x2="22.2841" y2="148.428" gradientUnits="userSpaceOnUse">
<stop stop-color="white" stop-opacity="0.15"/>
<stop offset="0.946487" stop-color="#FAFAFA" stop-opacity="0.1"/>
</linearGradient>
</defs>
</svg>
