<svg width="71" height="128" viewBox="0 0 71 128" fill="none" xmlns="http://www.w3.org/2000/svg">
<path d="M53.3975 24.8334L57.476 25.0733C58.3157 25.1333 59.6953 25.1933 60.475 25.5531C61.7345 26.0929 62.6942 27.1726 63.1141 28.4921L65.4532 35.2697C65.6332 35.8695 65.3932 36.5293 64.7935 36.7692L62.9341 37.5489C62.2743 37.7888 61.5546 37.4889 61.3147 36.8292L59.8152 32.4507C59.6953 32.1508 59.5153 32.0908 59.3354 32.0908L53.1575 31.7909C52.3178 29.2118 52.4378 26.9327 53.3975 24.8334Z" fill="#412C3B"/>
<path d="M48.3007 111.146H12.1244V122.624H48.3007V111.146Z" fill="#EA0000"/>
<path d="M56.0859 108.797C56.0859 113.227 52.4616 116.852 48.0318 116.852H12.3255C7.89581 116.852 4.27148 113.227 4.27148 108.797V8.05409C4.27148 3.62433 7.89581 0 12.3255 0H48.099C52.5287 0 56.153 3.62433 56.153 8.05409V108.797H56.0859Z" fill="#FFC7C7"/>
<path d="M51.1194 43.3578C51.1194 46.915 48.1662 49.8682 44.609 49.8682H15.7485C12.1913 49.8682 9.2381 46.915 9.2381 43.3578V15.7725C9.2381 12.2153 12.1913 9.26211 15.7485 9.26211H44.609C48.1662 9.26211 51.1194 12.2153 51.1194 15.7725V43.3578Z" fill="#FFAAAA"/>
<path d="M39.2392 18.1215H37.3599V14.8327C37.3599 14.1616 36.8229 13.5575 36.0847 13.5575H24.272C23.6008 13.5575 22.9967 14.0945 22.9967 14.8327V18.1215H21.1175C20.4463 18.1215 19.8422 18.6585 19.8422 19.3967V44.2302C19.8422 44.9014 20.3792 45.5054 21.1175 45.5054H39.1721C39.8432 45.5054 40.4473 44.9685 40.4473 44.2302V19.3967C40.4473 18.7256 39.9103 18.1215 39.2392 18.1215ZM24.4062 18.2557V14.967H36.0175V18.2557C36.0175 18.9269 36.5545 19.531 37.2928 19.531H39.1721V44.1631H21.2517V19.531H23.131C23.8022 19.531 24.4062 18.9269 24.4062 18.2557Z" fill="white"/>
<path d="M36.5548 40.8744C36.5548 41.4785 36.0179 42.0154 35.4138 42.0154H24.9435C24.3394 42.0154 23.8025 41.4785 23.8025 40.8744V39.8677C23.8025 39.2636 24.3394 38.7267 24.9435 38.7267H35.4809C36.085 38.7267 36.6219 39.2636 36.6219 39.8677V40.8744H36.5548Z" fill="white"/>
<path d="M36.5548 34.968C36.5548 35.572 36.0179 36.109 35.4138 36.109H24.9435C24.3394 36.109 23.8025 35.572 23.8025 34.968V33.9612C23.8025 33.3571 24.3394 32.8202 24.9435 32.8202H35.4809C36.085 32.8202 36.6219 33.3571 36.6219 33.9612V34.968H36.5548Z" fill="white"/>
<path d="M36.5546 29.0614C36.5546 29.6655 36.0177 30.2024 35.4136 30.2024H24.9433C24.3393 30.2024 23.8023 29.6655 23.8023 29.0614V28.0547C23.8023 27.4506 24.3393 26.9137 24.9433 26.9137H35.4807C36.0848 26.9137 36.6217 27.4506 36.6217 28.0547V29.0614H36.5546Z" fill="white"/>
<path d="M36.5548 23.9703C36.5548 24.5744 36.0179 25.1113 35.4138 25.1113H24.9435C24.3394 25.1113 23.8025 24.5744 23.8025 23.9703V22.9636C23.8025 22.3595 24.3394 21.8226 24.9435 21.8226H35.4809C36.085 21.8226 36.6219 22.3595 36.6219 22.9636V23.9703H36.5548Z" fill="white"/>
<path d="M46.3543 79.1987C46.3543 88.1254 39.1057 95.374 30.179 95.374C21.2524 95.374 14.0037 88.1254 14.0037 79.1987C14.0037 70.2721 21.2524 63.0234 30.179 63.0234C39.1057 63.0234 46.3543 70.2721 46.3543 79.1987Z" fill="#FF3D3D"/>
<path d="M30.4562 70.0004C30.3638 70.005 30.2788 70.0527 30.226 70.1287L23.326 80.0282C23.1873 80.2271 23.3296 80.4999 23.5721 80.4999H28.3459L27.7729 87.6771C27.7505 87.9805 28.1417 88.1207 28.3171 87.8722L35.2171 77.9733C35.3557 77.7746 35.2138 77.5021 34.9716 77.5016H30.1972L30.7708 70.3238C30.7852 70.1431 30.6373 69.991 30.4562 70.0004Z" fill="white"/>
<path d="M64.1337 100.947C64.9734 100.947 65.8131 100.767 66.5929 100.347C69.172 99.0275 70.6715 95.7287 70.6715 91.3502V91.2902C70.1316 85.2923 69.3519 81.4537 68.4522 77.0152C67.6125 72.8767 67.7924 68.4982 66.8328 60.8209C66.353 57.1622 65.0934 36.7094 65.0934 36.6494L62.9342 37.6091C62.9342 37.909 64.2537 57.2822 64.7335 61.1208C65.7532 68.8581 65.5133 73.2965 66.4129 77.4351C67.3126 81.8135 68.0924 85.5922 68.5722 91.4102C68.5722 94.889 67.4926 97.588 65.6332 98.5477C64.4936 99.1475 63.1741 99.0275 61.9145 98.1278C59.5154 96.4484 57.2961 91.83 58.3158 83.8528C60.7749 72.8767 62.2744 64.4796 62.2144 56.5024C62.0345 41.6876 59.9952 38.0889 59.7553 37.729L58.0159 38.8686C58.0159 38.8686 59.9352 42.3474 60.1751 56.5024C60.2351 64.2997 58.7356 72.5768 56.3365 83.433C56.3365 83.493 56.3365 83.493 56.3365 83.5529C55.3768 91.1103 57.0562 97.2281 60.8349 99.8672C61.7946 100.527 62.9941 100.947 64.1337 100.947Z" fill="#D7D7D7"/>
<path d="M56.0964 33.1106V38.9286C56.3963 39.0485 56.6962 39.0485 57.056 39.0485C57.3559 39.0485 57.6558 38.9885 57.9557 38.9286C59.2153 38.5687 60.115 37.3691 60.115 35.9896C60.115 34.6101 59.2153 33.4705 57.9557 33.0506C57.6558 32.9906 57.3559 32.9307 57.056 32.9307C56.6962 32.9906 56.3963 33.0506 56.0964 33.1106Z" fill="#E54242"/>
</svg>
