<svg width="25" height="25" viewBox="0 0 25 25" fill="none" xmlns="http://www.w3.org/2000/svg">
<path d="M20.3247 12.4773C20.3247 11.3743 19.4277 10.4773 18.3247 10.4773H17.3247V7.47729C17.3247 4.72029 15.0817 2.47729 12.3247 2.47729C9.56771 2.47729 7.32471 4.72029 7.32471 7.47729V10.4773H6.32471C5.22171 10.4773 4.32471 11.3743 4.32471 12.4773V20.4773C4.32471 21.5803 5.22171 22.4773 6.32471 22.4773H18.3247C19.4277 22.4773 20.3247 21.5803 20.3247 20.4773V12.4773ZM9.32471 7.47729C9.32471 5.82329 10.6707 4.47729 12.3247 4.47729C13.9787 4.47729 15.3247 5.82329 15.3247 7.47729V10.4773H9.32471V7.47729Z" fill="#12741C"/>
</svg>
