<svg width="67" height="120" viewBox="0 0 67 120" fill="none" xmlns="http://www.w3.org/2000/svg">
<path d="M50.0769 23.2816L53.9006 23.5065C54.6878 23.5627 55.9811 23.6189 56.7121 23.9563C57.893 24.4624 58.7926 25.4745 59.1862 26.7116L61.3792 33.0656C61.5479 33.6279 61.323 34.2464 60.7607 34.4714L59.0175 35.2024C58.399 35.4273 57.7243 35.1461 57.4993 34.5276L56.0936 30.4228C55.9811 30.1416 55.8124 30.0854 55.6437 30.0854L49.852 29.8042C49.0648 27.3863 49.1772 25.2496 50.0769 23.2816Z" fill="#412C3B"/>
<path d="M45.2985 104.2H11.3832V114.96H45.2985V104.2Z" fill="#12741C"/>
<path d="M52.5978 101.998C52.5978 106.15 49.2 109.548 45.0471 109.548H11.5722C7.41931 109.548 4.02148 106.15 4.02148 101.998V7.55071C4.02148 3.39781 7.41931 0 11.5722 0H45.11C49.2629 0 52.6608 3.39781 52.6608 7.55071V101.998H52.5978Z" fill="#99DDA0"/>
<path d="M47.9409 40.6481C47.9409 43.983 45.1723 46.7516 41.8374 46.7516H14.7806C11.4457 46.7516 8.67712 43.983 8.67712 40.6481V14.7869C8.67712 11.452 11.4457 8.68341 14.7806 8.68341H41.8374C45.1723 8.68341 47.9409 11.452 47.9409 14.7869V40.6481Z" fill="#70CF79"/>
<path d="M36.8035 16.9887H35.0417V13.9055C35.0417 13.2763 34.5383 12.71 33.8461 12.71H22.7717C22.1425 12.71 21.5762 13.2133 21.5762 13.9055V16.9887H19.8144C19.1851 16.9887 18.6188 17.4921 18.6188 18.1842V41.4656C18.6188 42.0948 19.1222 42.6611 19.8144 42.6611H36.7406C37.3698 42.6611 37.9361 42.1578 37.9361 41.4656V18.1842C37.9361 17.555 37.4327 16.9887 36.8035 16.9887ZM22.8976 17.1145V14.0313H33.7832V17.1145C33.7832 17.7438 34.2866 18.3101 34.9787 18.3101H36.7406V41.4027H19.9402V18.3101H21.7021C22.3313 18.3101 22.8976 17.7438 22.8976 17.1145Z" fill="#169F24"/>
<path d="M34.287 38.3199C34.287 38.8862 33.7837 39.3896 33.2174 39.3896H23.4014C22.8351 39.3896 22.3317 38.8862 22.3317 38.3199V37.3761C22.3317 36.8098 22.8351 36.3064 23.4014 36.3064H33.2803C33.8466 36.3064 34.35 36.8098 34.35 37.3761V38.3199H34.287Z" fill="#169F24"/>
<path d="M34.287 32.7828C34.287 33.3491 33.7837 33.8525 33.2174 33.8525H23.4014C22.8351 33.8525 22.3317 33.3491 22.3317 32.7828V31.839C22.3317 31.2727 22.8351 30.7693 23.4014 30.7693H33.2803C33.8466 30.7693 34.35 31.2727 34.35 31.839V32.7828H34.287Z" fill="#169F24"/>
<path d="M34.287 27.2456C34.287 27.8119 33.7836 28.3153 33.2173 28.3153H23.4014C22.835 28.3153 22.3317 27.8119 22.3317 27.2456V26.3017C22.3317 25.7354 22.835 25.2321 23.4014 25.2321H33.2802C33.8465 25.2321 34.3499 25.7354 34.3499 26.3017V27.2456H34.287Z" fill="#169F24"/>
<path d="M34.287 22.4724C34.287 23.0387 33.7837 23.5421 33.2174 23.5421H23.4014C22.8351 23.5421 22.3317 23.0387 22.3317 22.4724V21.5286C22.3317 20.9623 22.8351 20.4589 23.4014 20.4589H33.2803C33.8466 20.4589 34.35 20.9623 34.35 21.5286V22.4724H34.287Z" fill="#169F24"/>
<path d="M43.4738 74.2487C43.4738 82.6174 36.6782 89.413 28.3095 89.413C19.9407 89.413 13.1451 82.6174 13.1451 74.2487C13.1451 65.88 19.9407 59.0844 28.3095 59.0844C36.6782 59.0844 43.4738 65.88 43.4738 74.2487Z" fill="#169F24"/>
<path d="M60.1422 94.6375C60.9294 94.6375 61.7166 94.4688 62.4476 94.0752C64.8655 92.8381 66.2713 89.7454 66.2713 85.6406V85.5844C65.7652 79.9614 65.0342 76.3626 64.1908 72.2016C63.4036 68.3217 63.5722 64.2169 62.6725 57.0194C62.2227 53.5894 61.0419 34.4149 61.0419 34.3586L59.0176 35.2583C59.0176 35.5395 60.2546 53.7019 60.7045 57.3006C61.6604 64.5543 61.4355 68.7153 62.2789 72.5952C63.1224 76.7 63.8534 80.2425 64.3032 85.6969C64.3032 88.9582 63.2911 91.4886 61.5479 92.3882C60.4796 92.9505 59.2425 92.8381 58.0617 91.9946C55.8125 90.4202 53.7319 86.0905 54.6879 78.6118C56.9933 68.3217 58.3991 60.4495 58.3428 52.9709C58.1741 39.082 56.2623 35.7082 56.0374 35.3708L54.4067 36.4392C54.4067 36.4392 56.2061 39.7005 56.431 52.9709C56.4872 60.2808 55.0815 68.0405 52.8322 78.2182C52.8322 78.2745 52.8322 78.2745 52.8322 78.3307C51.9326 85.4157 53.507 91.1512 57.0495 93.6253C57.9492 94.2438 59.0738 94.6375 60.1422 94.6375Z" fill="#D7D7D7"/>
<path d="M52.6072 31.041V36.4953C52.8884 36.6078 53.1695 36.6078 53.5069 36.6078C53.7881 36.6078 54.0692 36.5516 54.3504 36.4953C55.5312 36.158 56.3747 35.0333 56.3747 33.74C56.3747 32.4467 55.5312 31.3784 54.3504 30.9848C54.0692 30.9285 53.7881 30.8723 53.5069 30.8723C53.1695 30.9285 52.8884 30.9848 52.6072 31.041Z" fill="#2E825C"/>
</svg>
