<svg width="25" height="25" viewBox="0 0 25 25" fill="none" xmlns="http://www.w3.org/2000/svg">
<path d="M13.219 12.5605C14.3295 12.5605 15.2911 12.1622 16.0767 11.3764C16.8624 10.5907 17.2607 9.62939 17.2607 8.51878C17.2607 7.40855 16.8624 6.44708 16.0766 5.66114C15.2908 4.87558 14.3293 4.47729 13.219 4.47729C12.1084 4.47729 11.147 4.87558 10.3613 5.66127C9.57566 6.44695 9.17725 7.40842 9.17725 8.51878C9.17725 9.62939 9.57566 10.5909 10.3615 11.3765C11.1473 12.1621 12.1088 12.5605 13.219 12.5605Z" fill="#12741C"/>
<path d="M20.2908 17.3806C20.2681 17.0536 20.2223 16.697 20.1548 16.3203C20.0867 15.9408 19.999 15.5821 19.894 15.2542C19.7856 14.9154 19.6381 14.5807 19.4558 14.26C19.2666 13.9271 19.0443 13.6373 18.7949 13.3988C18.5342 13.1493 18.2149 12.9487 17.8456 12.8023C17.4777 12.6568 17.0699 12.583 16.6338 12.583C16.4625 12.583 16.2968 12.6533 15.9769 12.8616C15.78 12.99 15.5496 13.1385 15.2926 13.3028C15.0728 13.4428 14.775 13.5741 14.4072 13.6929C14.0483 13.809 13.6839 13.8679 13.3243 13.8679C12.9647 13.8679 12.6005 13.809 12.2412 13.6929C11.8738 13.5742 11.576 13.443 11.3565 13.3029C11.1018 13.1402 10.8714 12.9917 10.6715 12.8615C10.352 12.6532 10.1862 12.5829 10.0149 12.5829C9.57858 12.5829 9.17095 12.6568 8.80313 12.8024C8.43417 12.9485 8.11475 13.1491 7.8537 13.3989C7.60444 13.6376 7.38206 13.9273 7.1931 14.26C7.01092 14.5807 6.86343 14.9152 6.75487 15.2544C6.65002 15.5822 6.56232 15.9408 6.49421 16.3203C6.42674 16.6964 6.38091 17.0532 6.35825 17.381C6.33597 17.7021 6.32471 18.0353 6.32471 18.3719C6.32471 19.2478 6.60316 19.957 7.15226 20.48C7.69457 20.996 8.41215 21.2578 9.28476 21.2578H17.3647C18.2373 21.2578 18.9546 20.9961 19.497 20.48C20.0463 19.9574 20.3247 19.2481 20.3247 18.3718C20.3246 18.0337 20.3132 17.7002 20.2908 17.3806Z" fill="#12741C"/>
</svg>
