<svg width="13" height="12" viewBox="0 0 13 12" fill="none" xmlns="http://www.w3.org/2000/svg">
<g clip-path="url(#clip0_3_8148)">
<path d="M7.33192 5.99998L12.0517 1.28068C12.3447 0.987704 12.3447 0.512692 12.0517 0.219735C11.7588 -0.073245 11.2837 -0.073245 10.9908 0.219735L6.27147 4.93953L1.55217 0.219735C1.25919 -0.073245 0.784176 -0.073245 0.49122 0.219735C0.198263 0.512715 0.198239 0.987727 0.49122 1.28068L5.21101 5.99998L0.49122 10.7193C0.198239 11.0123 0.198239 11.4873 0.49122 11.7803C0.7842 12.0732 1.25921 12.0732 1.55217 11.7803L6.27147 7.06044L10.9908 11.7803C11.2837 12.0732 11.7588 12.0732 12.0517 11.7803C12.3447 11.4873 12.3447 11.0123 12.0517 10.7193L7.33192 5.99998Z" fill="#12741C"/>
</g>
<defs>
<clipPath id="clip0_3_8148">
<rect width="12" height="12" fill="white" transform="translate(0.271484)"/>
</clipPath>
</defs>
</svg>
