<svg width="24" height="18" viewBox="0 0 24 18" fill="none" xmlns="http://www.w3.org/2000/svg">
<path d="M22.6612 0.869757H19.6558C19.3196 0.869757 19.0469 1.15604 19.0469 1.51104C19.0469 1.8656 19.3196 2.15318 19.6558 2.15318L20.3881 2.15625L20.3885 2.1558L22.6612 2.15625C22.9978 2.15625 23.2709 1.86866 23.2709 1.51366C23.2709 1.15822 22.9978 0.869757 22.6612 0.869757Z" fill="#7AB46E"/>
<path d="M2.84536 5.15413C2.4908 5.15413 2.20278 4.86653 2.20278 4.51153C2.20278 4.15654 2.4908 3.86894 2.84536 3.86894H8.48461C8.79714 3.86894 8.97223 3.71795 9.03439 3.50215C9.07466 3.36295 9.30009 3.0027 9.75577 3.0027H18.6106C18.6106 3.0027 18.6447 2.99874 18.6613 3.01494C18.6762 3.03114 18.6797 3.05478 18.6797 3.05478V4.27998C18.6797 4.27998 18.6718 4.31544 18.653 4.32639C18.6233 4.34346 18.5944 4.33908 18.5944 4.33908L16.1895 4.33512C15.8984 4.33512 15.6458 4.55882 15.6458 4.84947V12.9938C15.6458 12.9938 15.6458 13.4114 15.304 13.6395C15.304 13.6395 12.7748 15.2691 12.6233 15.372C12.4981 15.4582 12.2084 15.5764 11.9514 15.3895C11.7689 15.2569 11.747 14.9452 11.747 14.9452V4.9786C11.747 4.48922 11.4541 4.33689 11.0987 4.33689L9.91729 4.33646C9.55879 4.3334 9.4301 4.47126 9.36881 4.68706C9.32854 4.82626 9.14251 5.15151 8.6632 5.15151H8.31389C8.08058 5.15151 7.89324 5.34147 7.89324 5.5739V13.6246C7.89324 13.6246 7.90593 14.2948 7.53867 14.8332C7.24321 15.2665 6.56517 15.6592 6.56517 15.6592L3.74839 17.5317C3.74839 17.5317 2.60505 18.3232 1.31988 17.8482C0.351626 17.4902 0.194045 16.8454 0.299975 16.2645C0.405905 15.685 1.09051 15.3444 1.51423 15.3681C2.03731 15.3969 2.45841 15.5773 2.70967 16.1945C2.91846 16.7062 3.08042 16.8804 3.34349 16.8984C3.60744 16.9163 3.85301 16.5639 3.85301 15.913C3.85301 15.2621 3.85301 5.56909 3.85301 5.56909C3.85301 5.34147 3.66873 5.15632 3.44067 5.15632L2.84536 5.15413Z" fill="#7AB46E"/>
<path d="M22.6612 0.869757H19.6558C19.3196 0.869757 19.0469 1.15604 19.0469 1.51104C19.0469 1.8656 19.3196 2.15318 19.6558 2.15318L20.3881 2.15625L20.3885 2.1558L22.6612 2.15625C22.9978 2.15625 23.2709 1.86866 23.2709 1.51366C23.2709 1.15822 22.9978 0.869757 22.6612 0.869757Z" fill="#00B185"/>
<path d="M2.84536 5.15413C2.4908 5.15413 2.20278 4.86653 2.20278 4.51153C2.20278 4.15654 2.4908 3.86894 2.84536 3.86894H8.48461C8.79714 3.86894 8.97223 3.71795 9.03439 3.50215C9.07466 3.36295 9.30009 3.0027 9.75577 3.0027H18.6106C18.6106 3.0027 18.6447 2.99874 18.6613 3.01494C18.6762 3.03114 18.6797 3.05478 18.6797 3.05478V4.27998C18.6797 4.27998 18.6718 4.31544 18.653 4.32639C18.6233 4.34346 18.5944 4.33908 18.5944 4.33908L16.1895 4.33512C15.8984 4.33512 15.6458 4.55882 15.6458 4.84947V12.9938C15.6458 12.9938 15.6458 13.4114 15.304 13.6395C15.304 13.6395 12.7748 15.2691 12.6233 15.372C12.4981 15.4582 12.2084 15.5764 11.9514 15.3895C11.7689 15.2569 11.747 14.9452 11.747 14.9452V4.9786C11.747 4.48922 11.4541 4.33689 11.0987 4.33689L9.91729 4.33646C9.55879 4.3334 9.4301 4.47126 9.36881 4.68706C9.32854 4.82626 9.14251 5.15151 8.6632 5.15151H8.31389C8.08058 5.15151 7.89324 5.34147 7.89324 5.5739V13.6246C7.89324 13.6246 7.90593 14.2948 7.53867 14.8332C7.24321 15.2665 6.56517 15.6592 6.56517 15.6592L3.74839 17.5317C3.74839 17.5317 2.60505 18.3232 1.31988 17.8482C0.351626 17.4902 0.194045 16.8454 0.299975 16.2645C0.405905 15.685 1.09051 15.3444 1.51423 15.3681C2.03731 15.3969 2.45841 15.5773 2.70967 16.1945C2.91846 16.7062 3.08042 16.8804 3.34349 16.8984C3.60744 16.9163 3.85301 16.5639 3.85301 15.913C3.85301 15.2621 3.85301 5.56909 3.85301 5.56909C3.85301 5.34147 3.66873 5.15632 3.44067 5.15632L2.84536 5.15413Z" fill="#00B185"/>
<path d="M23.1137 3.00595V10.7126C23.1137 10.7126 23.1124 11.1306 22.7705 11.3578C22.7705 11.3578 20.2409 12.9883 20.0903 13.0908C19.9651 13.177 19.6749 13.2956 19.4188 13.1087C19.2354 12.9756 19.2148 12.664 19.2148 12.664V3.00595H23.1137Z" fill="#00B185"/>
</svg>
