<svg width="20" height="22" viewBox="0 0 20 22" fill="none" xmlns="http://www.w3.org/2000/svg">
<path d="M1.9232 21.067L2.06348 20.2992H1.3122L1.62579 18.575H0.722697L0.271484 21.067H1.9232Z" fill="#3776C4"/>
<path d="M2.86302 21.067L2.99643 20.735H3.58438L3.601 21.067H4.47107L4.15217 18.575H3.18525L1.90918 21.067H2.86302ZM3.41086 19.7327C3.4297 19.6837 3.44964 19.6281 3.47091 19.5665C3.49196 19.5045 3.51258 19.4402 3.53252 19.3731C3.53139 19.3948 3.53051 19.4178 3.53007 19.4422C3.52963 19.4666 3.52919 19.5016 3.52919 19.5468C3.52919 19.615 3.53208 19.7047 3.53784 19.8158C3.53872 19.8432 3.53985 19.8642 3.54091 19.8786L3.55088 20.1461H3.23862L3.41086 19.7327Z" fill="#3776C4"/>
<path d="M5.48995 21.0671L5.61538 20.3691L5.61846 20.3487C5.66411 20.0864 5.68916 19.8971 5.69359 19.7799L6.14635 21.067H7.04147L7.49401 18.575H6.6071L6.37174 19.8718C6.34714 19.746 6.30393 19.5967 6.24143 19.4244C6.23257 19.3982 6.22592 19.379 6.22148 19.3665L5.94092 18.575H5.04403L4.59326 21.067L5.48995 21.0671Z" fill="#3776C4"/>
<path d="M8.26382 21.0671C8.56655 21.0671 8.81786 21.0411 9.01709 20.9893C9.21633 20.9379 9.39163 20.854 9.54299 20.7384C9.70433 20.616 9.82976 20.463 9.91885 20.2798C10.0077 20.0966 10.0523 19.8997 10.0523 19.69C10.0523 19.4664 10.0015 19.2699 9.89935 19.1C9.79785 18.9306 9.65048 18.7969 9.45789 18.6993C9.36991 18.6573 9.25733 18.6261 9.1197 18.6058C8.9823 18.5852 8.81121 18.575 8.60599 18.575H7.94491L7.49414 21.067L8.26382 21.0671ZM8.69464 19.3241H8.71148C8.84844 19.3241 8.95659 19.3616 9.03615 19.437C9.11571 19.5125 9.1556 19.6155 9.1556 19.7461C9.1556 19.9231 9.09998 20.0625 8.98873 20.1646C8.87748 20.2667 8.72323 20.318 8.52599 20.318H8.51601L8.69464 19.3241Z" fill="#3776C4"/>
<path d="M10.5266 21.0113C10.7114 21.0881 10.8996 21.1261 11.0913 21.1261C11.394 21.1261 11.6447 21.0394 11.8435 20.865C12.0422 20.6906 12.1415 20.4733 12.1415 20.2121C12.1415 20.0466 12.1021 19.9099 12.023 19.8022C11.9439 19.6942 11.8091 19.5966 11.619 19.5092C11.5964 19.499 11.5658 19.4855 11.527 19.4683C11.3801 19.4048 11.3065 19.3454 11.3065 19.2898C11.3065 19.2566 11.3189 19.2304 11.3442 19.2105C11.369 19.1906 11.4022 19.1807 11.4434 19.1807C11.5115 19.1807 11.5857 19.2021 11.6664 19.2453C11.7471 19.2886 11.837 19.3544 11.9359 19.4429L12.2785 18.8317C12.1557 18.7273 12.0214 18.6489 11.8749 18.5968C11.7287 18.5446 11.5689 18.5186 11.3951 18.5186C11.0944 18.5186 10.8513 18.6006 10.6653 18.7644C10.4794 18.9286 10.3863 19.1405 10.3863 19.4C10.3863 19.5649 10.434 19.7054 10.529 19.8215C10.6243 19.9379 10.7766 20.0402 10.9858 20.129C11.0015 20.1358 11.0233 20.1448 11.0512 20.1561C11.1779 20.208 11.2415 20.257 11.2415 20.3024C11.2415 20.332 11.2267 20.3558 11.1979 20.3738C11.1689 20.3919 11.1303 20.4009 11.0811 20.4009C10.9709 20.4009 10.8601 20.3686 10.7496 20.3033C10.6387 20.238 10.535 20.1441 10.4382 20.0216L10.0005 20.6733C10.1665 20.8222 10.3418 20.9347 10.5266 21.0113" fill="#3776C4"/>
<path d="M13.4042 21.067L13.7198 19.3306H14.2257L14.3627 18.575H12.4406L12.3003 19.3306H12.8231L12.5091 21.067H13.4042Z" fill="#3776C4"/>
<path d="M14.8945 21.067L15.0279 20.735H15.6161L15.6327 21.067H16.5026L16.1835 18.575H15.2168L13.9409 21.067H14.8945ZM15.4424 19.7327C15.4614 19.6837 15.4814 19.6281 15.5024 19.5665C15.5237 19.5045 15.5441 19.4402 15.5643 19.3731C15.5631 19.3948 15.5622 19.4178 15.5616 19.4422C15.5612 19.4666 15.5609 19.5016 15.5609 19.5468C15.5609 19.615 15.5638 19.7047 15.5693 19.8158C15.5702 19.8432 15.5714 19.8642 15.5724 19.8786L15.5824 20.1461H15.2704L15.4424 19.7327Z" fill="#3776C4"/>
<path d="M17.5068 21.067L17.6721 20.1612L17.9376 21.067H18.8445L18.4921 20.1088C18.6836 20.0668 18.8319 19.9773 18.9369 19.8405C19.0422 19.704 19.0949 19.5317 19.0949 19.3241C19.0949 19.079 19.0036 18.8926 18.821 18.7657C18.6386 18.6385 18.3709 18.575 18.0179 18.575H17.0762L16.625 21.067H17.5068ZM17.8459 19.1949H17.8975C18.0077 19.1949 18.0881 19.2114 18.1386 19.2448C18.1894 19.2782 18.2149 19.3311 18.2149 19.4038C18.2149 19.4983 18.1832 19.5676 18.1196 19.6123C18.0562 19.6571 17.9571 19.6799 17.8226 19.6799H17.7572L17.8459 19.1949Z" fill="#3776C4"/>
<path d="M0.685059 6.78755L5.85273 10.9112L3.80964 17.6484L9.97857 13.7283L15.8672 17.8627L13.5836 10.9155L19.2714 6.78755H12.4618L11.392 3.86296L9.97857 0L8.73242 3.40508L8.28963 4.61562L7.49469 6.78755H0.685059Z" fill="#3776C4"/>
<path d="M8.2893 4.61514L8.1202 5.07686C5.18134 5.97794 3.30225 7.79883 3.30225 7.79883C4.91451 5.70166 8.2893 4.61514 8.2893 4.61514Z" fill="#110F0E"/>
<path d="M11.3823 3.47443L11.58 4.00911C11.58 4.00911 12.4465 3.78571 13.8352 3.95737C14.8433 4.08184 16.1746 4.38702 16.8656 4.94406C17.7707 5.67324 17.8232 6.10831 17.9176 6.53117C18.1913 7.75391 16.9496 9.14811 16.9496 9.14811C17.6233 8.54747 18.6966 7.11035 18.4227 6.03782C18.1481 4.96055 17.0969 4.00029 15.0346 3.52818C13.2665 3.12338 11.3823 3.47439 11.3823 3.47439" fill="#110F0E"/>
<path d="M0.967885 11.6641C1.32846 12.848 2.69051 14.3997 6.1043 14.4166C7.43866 14.423 9.47133 14.3308 12.1228 13.4514C15.1742 12.4392 17.4048 10.1053 17.4048 10.1053C14.4378 12.4862 12.228 13.537 7.85087 13.923C6.80062 14.0159 2.28119 14.0353 1.36857 11.3375C0.967884 10.1534 1.28834 9.25525 2.16971 8.03024C0.687538 9.45945 0.633464 10.5661 0.967885 11.6641Z" fill="#110F0E"/>
<path d="M16.2857 17.4466V17.3141H16.3723C16.4163 17.3141 16.4635 17.324 16.4635 17.3769C16.4635 17.4428 16.4154 17.4466 16.3616 17.4466L16.2857 17.4466ZM16.2857 17.5014H16.3587L16.4692 17.686H16.5403L16.4212 17.4985C16.4827 17.4906 16.5299 17.4574 16.5299 17.3809C16.5299 17.2965 16.4808 17.2592 16.382 17.2592H16.2223V17.686H16.2857V17.5014ZM16.3627 17.842C16.5605 17.842 16.7285 17.686 16.7285 17.4718C16.7285 17.2592 16.5605 17.1037 16.3627 17.1037C16.1623 17.1037 15.9932 17.2592 15.9932 17.4718C15.9932 17.686 16.1623 17.842 16.3627 17.842ZM16.0658 17.4718C16.0658 17.2965 16.196 17.1649 16.3627 17.1649C16.5268 17.1649 16.6561 17.2965 16.6561 17.4718C16.6561 17.6499 16.5268 17.7806 16.3627 17.7806C16.196 17.7806 16.0658 17.6499 16.0658 17.4718Z" fill="#100F0D"/>
</svg>
