<svg width="47" height="17" viewBox="0 0 47 17" fill="none" xmlns="http://www.w3.org/2000/svg">
<path d="M11.3939 1.83616C9.75145 0.64167 7.51177 0.193734 5.42141 0.79098L0.494141 2.2841V5.27033L11.3939 1.83616Z" fill="#2C6CBE"/>
<path d="M13.6861 5.05378C13.3875 4.15791 12.7903 3.26204 12.193 2.66479L0.397461 6.24828V9.0852L13.6861 5.05378Z" fill="#2C6CBE"/>
<path d="M13.9931 8.82862C14.1424 7.93275 14.1424 6.88757 13.9931 5.9917L0.405762 10.1724V13.0093L13.9931 8.82862Z" fill="#2C6CBE"/>
<path d="M9.39292 13.9981C11.4833 13.4009 13.1257 11.7584 13.8723 9.81738L0.583496 13.8488V16.6857L9.39292 13.9981Z" fill="#2C6CBE"/>
<path d="M19.2582 6.50365C20.0048 6.50365 20.4527 6.05571 20.4527 5.30915C20.4527 4.5626 20.0048 3.96535 19.2582 3.96535H18.8103V6.50365H19.2582ZM17.6157 2.92017H19.4075C20.9006 2.92017 21.7965 3.81604 21.7965 5.15984C21.7965 6.50365 20.9006 7.39951 19.4075 7.39951H17.6157V2.92017Z" fill="#231F20"/>
<path d="M23.6902 5.06862C23.3916 5.06862 23.093 5.36724 23.093 5.81518C23.093 6.26311 23.2423 6.56174 23.6902 6.56174C23.9888 6.56174 24.2875 6.26311 24.2875 5.81518C24.2875 5.36724 24.1381 5.06862 23.6902 5.06862ZM23.6902 7.60692C22.645 7.60692 21.8984 6.86036 21.8984 5.81518C21.8984 4.77 22.645 4.02344 23.6902 4.02344C24.7354 4.02344 25.482 4.77 25.482 5.81518C25.482 6.86036 24.7354 7.60692 23.6902 7.60692Z" fill="#231F20"/>
<path d="M29.9528 4.08765C30.6993 4.08765 31.1472 4.53558 31.1472 5.28214V7.52182H29.9528V5.58076C29.9528 5.28214 29.8034 5.13283 29.5048 5.13283C29.3555 5.13283 29.0568 5.28214 29.0568 5.43145V7.52182H27.8624V5.58076C27.8624 5.28214 27.7131 5.13283 27.4145 5.13283C27.2651 5.13283 26.9665 5.28214 26.9665 5.43145V7.52182H25.772V4.08765H26.9665V4.38627C27.1159 4.23696 27.4144 4.08765 27.8624 4.08765C28.3103 4.08765 28.6089 4.23696 28.7582 4.53558C29.0568 4.23696 29.5048 4.08765 29.9528 4.08765Z" fill="#231F20"/>
<path d="M32.9132 7.49323H31.7188V4.05908H32.9132V7.49323Z" fill="#231F20"/>
<path d="M33.5137 4.15112H34.7081V4.44975C34.8575 4.30044 35.156 4.15112 35.604 4.15112C36.3505 4.15112 36.7985 4.59906 36.7985 5.34562V7.58529H35.604V5.64424C35.604 5.34562 35.4547 5.19631 35.1561 5.19631C34.8574 5.19631 34.7081 5.34562 34.7081 5.49493V7.58529H33.5137V4.15112Z" fill="#231F20"/>
<path d="M38.7428 7.49323H37.5483V4.05908H38.7428V7.49323Z" fill="#231F20"/>
<path d="M40.905 5.07057C40.6064 5.07057 40.3078 5.3692 40.3078 5.81713C40.3078 6.26507 40.4571 6.56369 40.905 6.56369C41.2037 6.56369 41.5023 6.26507 41.5023 5.81713C41.5023 5.3692 41.2037 5.07057 40.905 5.07057ZM40.905 7.60887C39.8599 7.60887 39.1133 6.86231 39.1133 5.81713C39.1133 4.77195 39.8599 4.02539 40.905 4.02539C41.9502 4.02539 42.6968 4.77195 42.6968 5.81713C42.5475 6.86231 41.9502 7.60887 40.905 7.60887Z" fill="#231F20"/>
<path d="M43.0088 4.14941H44.2034V4.44804C44.3527 4.29873 44.6513 4.14941 45.0992 4.14941C45.8457 4.14941 46.2937 4.59735 46.2937 5.34391V7.58358H45.0992V5.64253C45.0992 5.34391 44.9499 5.1946 44.6513 5.1946C44.3526 5.1946 44.2034 5.34391 44.2034 5.49322V7.58358H43.0088V4.14941Z" fill="#231F20"/>
<path d="M38.7428 3.75872H37.5483V2.86279H38.7428V3.75872Z" fill="#231F20"/>
<path d="M32.9132 3.75872H31.7188V2.86279H32.9132V3.75872Z" fill="#231F20"/>
<path d="M21.4731 9.76465H22.6676V10.0633C22.8169 9.91396 23.1156 9.76465 23.5635 9.76465C24.3101 9.76465 24.758 10.2126 24.758 10.9591V13.1988H23.5635V11.2578C23.5635 10.9591 23.4142 10.8098 23.1155 10.8098C22.8169 10.8098 22.6676 10.9591 22.6676 11.1085V13.1988H21.4731V9.76465Z" fill="#231F20"/>
<path d="M31.4101 10.6844C31.2608 10.6844 31.1115 10.5351 30.9622 10.5351C30.6635 10.5351 30.3649 10.6844 30.3649 10.983V12.9241H29.1704V9.48989H30.3649V9.78851C30.5142 9.48989 30.8128 9.34058 31.1114 9.34058C31.2608 9.34058 31.4101 9.34058 31.4101 9.34058V10.6844Z" fill="#231F20"/>
<path d="M36.2589 14.4541L36.8561 13.1103L35.6616 9.82544H36.8561L37.4534 11.7665L38.0506 9.82544H39.2451L37.4534 14.4541H36.2589Z" fill="#231F20"/>
<path d="M33.449 12.0484C33.001 12.0484 32.8517 11.7498 32.8517 11.3019C32.8517 10.8539 33.001 10.5553 33.449 10.5553C33.7476 10.5553 33.8969 10.7046 34.0462 10.8539V11.7498C33.8969 11.8991 33.7476 12.0484 33.449 12.0484ZM35.0914 9.65942H33.8969V9.95805C33.7476 9.80874 33.449 9.65942 33.1503 9.65942C32.2545 9.65942 31.6572 10.406 31.6572 11.3019C31.6572 12.1977 32.2545 12.9443 33.1503 12.9443C33.449 12.9443 33.7476 12.795 33.8969 12.6457V12.9443C33.8969 13.3922 33.4489 13.5415 33.001 13.5415C32.553 13.5415 32.1051 13.3922 31.8065 13.0936V14.1388C32.1051 14.2881 32.553 14.4374 33.001 14.4374C34.0462 14.4374 34.9421 13.8402 34.9421 12.6457L35.0914 9.65942Z" fill="#231F20"/>
<path d="M18.7449 11.1835H20.5365V10.2876H18.7449V9.54103H20.8352V8.49585H17.5503V13.1245H20.8352V12.0793H18.7449V11.1835Z" fill="#231F20"/>
<path d="M26.3722 11.1013C26.3722 10.6533 26.6709 10.504 26.9695 10.504C27.2681 10.504 27.5667 10.6533 27.5667 11.1013H26.3722ZM26.9695 9.60815C25.9243 9.60815 25.1777 10.3547 25.1777 11.3999C25.1777 12.5944 25.9243 13.1916 27.1188 13.1916C27.5667 13.1916 28.0146 13.0423 28.3132 12.893V11.9971C27.8653 12.1465 27.5667 12.2958 27.268 12.2958C26.6708 12.2958 26.3722 11.9971 26.3722 11.5492H28.6119C28.6119 11.3999 28.6119 11.3999 28.6119 11.3999C28.7612 10.504 28.164 9.60815 26.9695 9.60815Z" fill="#231F20"/>
<path d="M40.2876 9.38794C39.8396 9.38794 39.541 9.68656 39.541 10.1345C39.541 10.5824 39.8396 10.8811 40.2876 10.8811C40.7355 10.8811 41.0341 10.5824 41.0341 10.1345C41.0341 9.68656 40.7355 9.38794 40.2876 9.38794ZM40.2876 10.5824C39.989 10.5824 39.6903 10.2838 39.6903 9.98518C39.6903 9.68656 39.989 9.38794 40.2876 9.38794C40.5862 9.38794 40.8849 9.68656 40.8849 9.98518C40.8849 10.2838 40.7355 10.5824 40.2876 10.5824Z" fill="#231F20"/>
<path d="M40.5913 9.8351C40.5913 9.68554 40.5914 9.68555 40.2923 9.68555H39.9932V10.2838H40.1427V9.98465H40.2923L40.4418 10.2838H40.5913L40.4418 9.98465C40.5914 9.98465 40.5913 9.98465 40.5913 9.8351ZM40.2923 9.98465L40.1427 9.8351H40.2923C40.4418 9.8351 40.4418 9.8351 40.4418 9.98465C40.5914 9.98465 40.4418 9.98465 40.2923 9.98465Z" fill="#231F20"/>
</svg>
