<svg width="30" height="10" viewBox="0 0 30 10" fill="none" xmlns="http://www.w3.org/2000/svg">
<path d="M24.879 3.19012L26.1013 4.53726L27.2781 3.19012H29.791L27.3352 5.95172L29.8246 8.7359H27.2104L25.9995 7.37808L24.7997 8.7359H22.2754L24.7431 5.96321L22.2754 3.19012H24.879Z" fill="#FF5900"/>
<path d="M22.2751 3.19013V5.0639H19.4802V6.78333H22.2751V8.73591H17.4263V0H22.2751V1.94724H19.4802V3.19013H22.2751Z" fill="#FF5900"/>
<path d="M15.3811 0V3.57514H15.3585C14.9054 3.05467 14.3397 2.87366 13.6834 2.87366C12.3387 2.87366 11.3257 3.78817 10.9702 4.99658C10.5643 3.66504 9.51842 2.84862 7.96769 2.84862C6.70838 2.84862 5.71383 3.41383 5.195 4.33491V3.19013H2.59184V1.94724H5.43266V0H0.271484V8.73591H2.59184V5.0639H4.9048C4.83585 5.33357 4.7989 5.62254 4.7989 5.92751C4.7989 7.74956 6.1912 9.02857 7.96769 9.02857C9.46178 9.02857 10.4465 8.32709 10.9669 7.04849H8.97825C8.7094 7.4331 8.5054 7.5468 7.96769 7.5468C7.34419 7.5468 6.80648 7.00293 6.80648 6.35809H10.8557C11.0314 7.80539 12.1589 9.05361 13.706 9.05361C14.3734 9.05361 14.9846 8.72524 15.3581 8.17111H15.3807V8.73673H17.426V0H15.3811ZM6.87134 5.08976C7.00022 4.53481 7.4308 4.17237 7.9681 4.17237C8.55958 4.17237 8.96799 4.52373 9.07553 5.08976C9.12068 5.08976 6.87134 5.08976 6.87134 5.08976ZM14.1394 7.40601C13.3854 7.40601 12.9167 6.70329 12.9167 5.96979C12.9167 5.1858 13.3242 4.43178 14.1394 4.43178C14.9846 4.43178 15.3212 5.1858 15.3212 5.96979C15.3212 6.71314 14.9645 7.40601 14.1394 7.40601Z" fill="#2A007C"/>
</svg>
