<svg width="27" height="12" viewBox="0 0 27 12" fill="none" xmlns="http://www.w3.org/2000/svg">
<path d="M21.3445 2.73193L22.3913 3.88559L23.3991 2.73193H25.551L23.4479 5.0969L25.5799 7.48119H23.3411L22.3041 6.3184L21.2767 7.48119H19.1149L21.2282 5.10674L19.1149 2.73193H21.3445Z" fill="#FF5900"/>
<path d="M19.1149 2.73194V4.33659H16.7215V5.80906H19.1149V7.4812H14.9625V0H19.1149V1.66757H16.7215V2.73194H19.1149Z" fill="#FF5900"/>
<path d="M13.2109 0V3.06166H13.1916C12.8035 2.61594 12.3192 2.46093 11.7571 2.46093C10.6055 2.46093 9.73802 3.24409 9.43361 4.27894C9.08597 3.13864 8.19032 2.43948 6.86231 2.43948C5.78387 2.43948 4.93216 2.92351 4.48785 3.7123V2.73194H2.25857V1.66757H4.69138V0H0.271484V7.4812H2.25857V4.33659H4.23934C4.18028 4.56753 4.14865 4.81499 4.14865 5.07617C4.14865 6.63652 5.34097 7.73183 6.86231 7.73183C8.14181 7.73183 8.98508 7.1311 9.4308 6.03614H7.72773C7.49749 6.36551 7.32279 6.46288 6.86231 6.46288C6.32836 6.46288 5.86789 5.99712 5.86789 5.4449H9.33554C9.48598 6.68433 10.4516 7.75327 11.7764 7.75327C12.348 7.75327 12.8714 7.47206 13.1913 6.99752H13.2106V7.4819H14.9622V0H13.2109ZM5.92342 4.35873C6.0338 3.88349 6.40253 3.57311 6.86266 3.57311C7.36919 3.57311 7.71894 3.874 7.81104 4.35873C7.8497 4.35873 5.92342 4.35873 5.92342 4.35873ZM12.1476 6.34231C11.5019 6.34231 11.1005 5.74052 11.1005 5.11237C11.1005 4.44099 11.4495 3.79526 12.1476 3.79526C12.8714 3.79526 13.1596 4.44099 13.1596 5.11237C13.1596 5.74896 12.8542 6.34231 12.1476 6.34231Z" fill="#2A007C"/>
<path d="M14.9629 11.222V8.541H16.4442V8.74101H15.2072V9.72946H16.3918V9.92947H15.2072V11.0213H16.4993V11.2216L14.9629 11.222Z" fill="#2A007C"/>
<path d="M16.6761 11.222L17.3985 10.2592L16.7134 9.34842H16.9911L17.5504 10.0926L18.0984 9.34842H18.3761L17.6801 10.2592L18.4056 11.222H18.1244L17.5243 10.4254L16.9542 11.222H16.6761Z" fill="#2A007C"/>
<path d="M18.8756 11.925H18.6496V9.90767C18.6496 9.72243 18.6496 9.53402 18.6383 9.34842H18.8608L18.8682 9.62998C19.0084 9.40747 19.1937 9.30413 19.4717 9.30413C20.0493 9.30413 20.2971 9.78148 20.2971 10.2848C20.2971 10.7889 20.0493 11.2663 19.4717 11.2663C19.2123 11.2663 19.0088 11.1664 18.8756 10.9513V11.925ZM20.0567 10.2848C20.0567 9.88518 19.8897 9.49254 19.4457 9.49254C19.0274 9.49254 18.8756 9.83702 18.8756 10.2848C18.8756 10.733 19.0274 11.0772 19.4457 11.0772C19.89 11.0772 20.0567 10.6849 20.0567 10.2848Z" fill="#2A007C"/>
<path d="M21.4584 9.52207C21.0844 9.52207 20.9543 9.83702 20.9543 10.1625V11.222H20.7283V9.89959C20.7283 9.71821 20.7248 9.53367 20.7174 9.34842H20.9403L20.9547 9.61873C21.0658 9.40431 21.2514 9.30413 21.4992 9.30413C21.5326 9.30413 21.5695 9.30765 21.6029 9.31151V9.53753C21.5508 9.52945 21.5101 9.52207 21.4584 9.52207Z" fill="#2A007C"/>
<path d="M21.8795 10.3256C21.8795 10.7474 22.0792 11.0954 22.4901 11.0954C22.8082 11.0954 22.9566 10.8845 23.0121 10.6736H23.2269C23.1267 11.0659 22.8859 11.2663 22.4602 11.2663C21.8901 11.2663 21.6381 10.8441 21.6381 10.3186C21.6381 9.78183 21.901 9.30413 22.4898 9.30413C23.0859 9.30413 23.2452 9.82577 23.2452 10.3256H21.8795ZM21.8866 10.1555H23.0047C23.0047 9.78886 22.8311 9.47426 22.4754 9.47426C22.1534 9.47391 21.9309 9.71821 21.8866 10.1555Z" fill="#2A007C"/>
<path d="M24.1272 11.2663C23.7423 11.2663 23.4537 11.0845 23.4537 10.6736H23.6798C23.6798 10.9548 23.8647 11.0954 24.1388 11.0954C24.3944 11.0954 24.594 10.9731 24.594 10.7221C24.594 10.4961 24.361 10.4367 24.1167 10.3664C23.8207 10.2813 23.4984 10.1885 23.4984 9.82577C23.4984 9.42259 23.8351 9.30413 24.1501 9.30413C24.5125 9.30413 24.7831 9.44438 24.794 9.83315H24.568C24.5571 9.61135 24.3979 9.48551 24.1571 9.48551C23.9683 9.48551 23.7388 9.55933 23.7388 9.80363C23.7388 10.0261 23.9683 10.0891 24.2126 10.1555C24.5093 10.2367 24.8348 10.3256 24.8348 10.6887C24.8345 11.1105 24.509 11.2663 24.1272 11.2663Z" fill="#2A007C"/>
<path d="M25.6934 11.2663C25.3081 11.2663 25.0195 11.0845 25.0195 10.6736H25.2456C25.2456 10.9548 25.4304 11.0954 25.705 11.0954C25.9605 11.0954 26.1602 10.9731 26.1602 10.7221C26.1602 10.4961 25.9268 10.4367 25.6825 10.3664C25.3865 10.2813 25.0645 10.1885 25.0645 9.82577C25.0645 9.42259 25.4013 9.30413 25.7162 9.30413C26.0786 9.30413 26.3493 9.44438 26.3602 9.83315H26.1342C26.1233 9.61135 25.964 9.48551 25.7233 9.48551C25.5345 9.48551 25.305 9.55933 25.305 9.80363C25.305 10.0261 25.5345 10.0891 25.7791 10.1555C26.0755 10.2367 26.4013 10.3256 26.4013 10.6887C26.4006 11.1105 26.0748 11.2663 25.6934 11.2663Z" fill="#2A007C"/>
</svg>
