<svg width="29" height="27" viewBox="0 0 29 27" fill="none" xmlns="http://www.w3.org/2000/svg">
<path d="M9.14748 25.734C9.14748 25.8451 9.03639 25.9562 8.9253 25.9562C8.81421 25.9562 8.70312 25.8451 8.70312 25.734C8.70312 25.6229 8.81421 25.5118 8.9253 25.5118C9.03639 25.5118 9.14748 25.6229 9.14748 25.734ZM8.70312 25.734C8.70312 25.8451 8.81421 25.9562 8.9253 25.9562C9.03639 25.9562 9.14748 25.8451 9.14748 25.734C9.14748 25.6229 9.03639 25.5118 8.9253 25.5118C8.81421 25.5118 8.70312 25.6229 8.70312 25.734ZM8.81422 25.8451L8.70312 25.6229H8.81422H8.9253C8.9253 25.6229 8.9253 25.6229 8.9253 25.734C8.9253 25.734 8.9253 25.734 8.9253 25.8451C8.9253 25.8451 8.9253 25.8451 8.9253 25.9562L8.81422 25.8451C8.92531 25.8451 8.92531 25.8451 8.81422 25.8451C8.92531 25.734 8.92531 25.734 8.81422 25.8451ZM8.81422 25.734C8.92531 25.734 8.92531 25.734 8.81422 25.734C8.92531 25.6229 8.92531 25.734 8.81422 25.734C8.92531 25.6229 8.92531 25.6229 8.81422 25.734Z" fill="#F26523"/>
<path d="M0.374023 10.1859L8.14854 16.4055L5.03873 26.5124L14.2571 20.6259L23.0312 26.8456L19.5882 16.4055L28.1402 10.1859H17.9222L16.3673 5.85435L14.2571 0.0789795L12.369 5.18799L11.7026 6.96499L10.4809 10.1859H0.374023Z" fill="#3776C4"/>
<path d="M11.8144 6.96411L11.5922 7.63054C7.14966 8.96331 4.37305 11.7399 4.37305 11.7399C6.7054 8.519 11.8144 6.96411 11.8144 6.96411Z" fill="#110F0E"/>
<path d="M16.3711 5.18656L16.7043 5.96402C16.7043 5.96402 18.0371 5.63079 20.0362 5.85292C21.5911 6.07505 23.5903 6.51929 24.5899 7.29674C25.9227 8.40739 26.0337 9.07382 26.1448 9.62914C26.589 11.4062 24.7009 13.5164 24.7009 13.5164C25.7005 12.6279 27.3665 10.5176 26.9222 8.85167C26.478 7.18571 24.9231 5.8529 21.8133 5.07545C19.2588 4.6312 16.3711 5.18656 16.3711 5.18656Z" fill="#110F0E"/>
<path d="M0.818433 17.5164C1.37376 19.2934 3.37293 21.6258 8.48189 21.6258C10.4811 21.6258 13.4798 21.5147 17.4781 20.1819C22.0318 18.627 25.3637 15.184 25.3637 15.184C20.9211 18.7381 17.5892 20.293 11.0364 20.8483C9.48148 20.9594 2.70653 21.0704 1.37376 16.961C0.818433 15.184 1.2627 13.8512 2.59547 11.9631C0.374182 14.1844 0.26311 15.8504 0.818433 17.5164Z" fill="#110F0E"/>
<path d="M23.6982 26.1784V25.9563H23.8092C23.9203 25.9563 23.9203 25.9563 23.9203 26.0673C23.9203 26.1784 23.8092 26.1784 23.8092 26.1784H23.6982ZM23.6982 26.1784L23.9203 26.4005H24.0314L23.8092 26.0673C23.9203 26.0673 23.9203 25.9563 23.9203 25.8452C23.9203 25.7341 23.8092 25.623 23.6982 25.623V26.2895H23.8092V26.1784H23.6982ZM23.8092 26.7337C24.1424 26.7337 24.3646 26.5116 24.3646 26.1784C24.3646 25.8452 24.1424 25.623 23.8092 25.623C23.476 25.623 23.2539 25.8452 23.2539 26.1784C23.2539 26.5116 23.5871 26.7337 23.8092 26.7337ZM23.365 26.1784C23.365 25.9562 23.5871 25.7342 23.8092 25.7342C24.0314 25.7342 24.2535 25.9562 24.2535 26.1784C24.2535 26.4005 24.0314 26.6227 23.8092 26.6227C23.5871 26.6227 23.365 26.4005 23.365 26.1784Z" fill="#100F0D"/>
</svg>
