<svg width="46" height="47" viewBox="0 0 46 47" fill="none" xmlns="http://www.w3.org/2000/svg">
<path d="M6.8034 17.5167C7.6198 13.7369 9.90063 10.4544 13.149 8.39665C16.3974 6.33884 20.3397 5.67917 24.1059 6.55595L24.213 6.09586L24.1059 6.55596C27.8712 7.43244 31.1523 9.77241 33.2327 13.0565C35.5927 16.782 36.3739 21.2942 35.4043 25.6002L32.6867 37.6681C32.6175 37.9752 32.4291 38.2427 32.1627 38.4114C31.8964 38.5801 31.574 38.6362 31.2669 38.5676L19.1947 35.8686L19.0916 36.3296L19.1947 35.8686C14.8872 34.9056 11.1414 32.2714 8.78136 28.5459C6.70098 25.2618 5.98724 21.2955 6.8034 17.5167Z" fill="#12741C" stroke="#02590B" stroke-width="0.9448"/>
<path d="M22.3889 13.2724C22.3043 13.2765 22.2266 13.3202 22.1782 13.3897L15.8662 22.4447C15.7393 22.6267 15.8695 22.8762 16.0913 22.8762H20.4583L19.9342 29.4412C19.9137 29.7187 20.2716 29.847 20.4321 29.6196L26.7441 20.5651C26.8708 20.3834 26.7411 20.1341 26.5195 20.1337H22.152L22.6767 13.5682C22.6898 13.4029 22.5545 13.2637 22.3889 13.2724Z" fill="white"/>
</svg>
