<svg width="44" height="24" viewBox="0 0 44 24" fill="none" xmlns="http://www.w3.org/2000/svg">
<path fill-rule="evenodd" clip-rule="evenodd" d="M14.157 5.06457C13.8911 5.42985 13.476 5.47129 13.2774 5.47129C12.181 5.47129 12.1058 4.43318 12.1058 3.92669C12.1058 3.55334 12.1058 2.2332 13.3515 2.2332C14.2728 2.2332 14.4971 3.01385 14.4971 3.76093C14.4971 4.06002 14.4562 4.65784 14.157 5.06457ZM13.56 1.6517C13.2198 1.6517 12.5292 1.75127 12.1395 2.4076L12.1224 1.71846H11.3337C11.351 2.11713 11.36 2.21689 11.36 2.39915V7.48882H12.1313V5.4216C12.3544 5.7867 12.8037 6.04417 13.4102 6.04417C14.4062 6.04417 15.3102 5.36386 15.3102 3.81042C15.3102 2.2662 14.4562 1.6517 13.56 1.6517ZM8.73567 5.37978C7.57247 5.37978 7.57247 4.07633 7.57247 3.80237C7.57247 3.53665 7.57247 2.14188 8.76771 2.14188C9.85628 2.14188 9.93974 3.34576 9.93974 3.76073C9.93974 4.44181 9.69877 5.37978 8.73567 5.37978ZM8.95131 1.61045C8.00452 1.61045 7.69679 2.13363 7.58993 2.32452V0.125122H6.81024V5.13958L6.79297 5.88589H7.54695L7.56364 5.25584C7.64748 5.37978 7.73861 5.52137 7.97171 5.67869C8.32913 5.91965 8.70267 5.94459 8.90066 5.94459C9.47392 5.94459 10.0307 5.70363 10.3632 5.2309C10.5702 4.95694 10.7611 4.51625 10.7611 3.71085C10.7611 2.79802 10.4787 2.38285 10.2716 2.14188C9.89043 1.71021 9.36572 1.61045 8.95131 1.61045Z" fill="#009900"/>
<path fill-rule="evenodd" clip-rule="evenodd" d="M43.3067 14.1003C43.3067 14.9552 42.7428 15.4645 41.8152 15.4645H37.8134V13.7547H41.3604C41.1058 12.3361 40.1417 11.3903 38.8321 11.3903C37.2133 11.3903 36.0673 12.6816 36.0673 14.5187C36.0673 16.5558 37.3405 17.6292 39.5961 17.6292C39.9598 17.6292 40.36 17.5926 40.7238 17.5926C41.3059 17.5926 41.6514 17.9383 41.6514 18.4841C41.6514 19.3935 40.7602 19.4117 39.778 19.4117C36.0673 19.4117 34.1392 17.7382 34.1392 14.5187C34.1392 11.6448 36.0856 9.60756 38.8321 9.60756C41.3423 9.60756 43.3067 11.5721 43.3067 14.1003ZM10.2384 14.5187C10.2384 17.5199 8.21933 19.4117 5.03611 19.4117H4.81778C4.29038 19.4117 3.9084 19.0478 3.9084 18.5204C3.9084 17.9928 4.29038 17.6292 4.81778 17.6292H5.32715C7.12788 17.6292 8.31008 16.3377 8.31008 14.5187C8.31008 12.6816 7.12788 11.3903 5.43631 11.3903C3.56287 11.3903 2.41693 12.6271 2.41693 14.6641V23.2678H0.561523V14.7733C0.561523 11.5721 2.39871 9.60775 5.43631 9.60775C8.25559 9.60775 10.2384 11.6448 10.2384 14.5187ZM33.1571 16.6105C33.1571 18.1931 31.8109 19.3208 29.9194 19.3208H25.3537V17.611H29.9921C30.8106 17.611 31.3017 17.229 31.3017 16.6105C31.3017 16.0466 30.9015 15.7374 30.283 15.5555L27.5728 14.7915C26.6635 14.5369 25.4993 13.9184 25.4993 12.2996C25.4993 10.699 26.8089 9.75318 28.9734 9.75318H30.174C31.0107 9.75318 31.8838 9.82589 31.8838 10.6808C31.8838 11.2084 31.5381 11.5357 30.9744 11.5357C30.1558 11.5357 29.7193 11.4994 28.5369 11.4994C27.8094 11.4994 27.3547 11.8085 27.3547 12.2996C27.3547 12.7908 27.7912 13.0454 28.4277 13.2272L31.1925 13.9911C32.4296 14.3366 33.1571 15.1915 33.1571 16.6105ZM23.7713 6.02433V19.3208H21.9159V6.02433C21.9159 5.4785 22.298 5.07849 22.8435 5.07849C23.3893 5.07849 23.7713 5.4785 23.7713 6.02433ZM20.1516 10.5534V15.2827C20.1516 17.9018 18.5327 19.5025 15.8953 19.5025C13.2578 19.5025 11.6391 17.9018 11.6391 15.2827V9.78944H13.4941V15.3554C13.4941 16.8288 14.4037 17.72 15.8953 17.72C17.3866 17.72 18.2962 16.8288 18.2962 15.3554V10.5534C18.2962 10.0078 18.6782 9.60756 19.224 9.60756C19.7694 9.60756 20.1516 10.0078 20.1516 10.5534Z" fill="#000096"/>
</svg>
