<svg width="67" height="120" viewBox="0 0 67 120" fill="none" xmlns="http://www.w3.org/2000/svg">
<path d="M50.077 23.2816L53.9007 23.5065C54.6879 23.5627 55.9812 23.6189 56.7122 23.9563C57.8931 24.4624 58.7928 25.4745 59.1864 26.7116L61.3793 33.0656C61.548 33.6279 61.3231 34.2464 60.7608 34.4714L59.0177 35.2024C58.3991 35.4273 57.7244 35.1461 57.4995 34.5276L56.0937 30.4228C55.9812 30.1416 55.8125 30.0854 55.6438 30.0854L49.8521 29.8042C49.0649 27.3863 49.1774 25.2496 50.077 23.2816Z" fill="#412C3B"/>
<path d="M45.2984 104.2H11.3831V114.96H45.2984V104.2Z" fill="#12741C"/>
<path d="M52.5978 101.998C52.5978 106.15 49.2 109.548 45.0471 109.548H11.5722C7.41931 109.548 4.02148 106.15 4.02148 101.998V7.55071C4.02148 3.39781 7.41931 0 11.5722 0H45.11C49.2629 0 52.6608 3.39781 52.6608 7.55071V101.998H52.5978Z" fill="#99DDA0"/>
<path d="M47.9408 40.6481C47.9408 43.983 45.1722 46.7516 41.8373 46.7516H14.7805C11.4456 46.7516 8.677 43.983 8.677 40.6481V14.7869C8.677 11.452 11.4456 8.68341 14.7805 8.68341H41.8373C45.1722 8.68341 47.9408 11.452 47.9408 14.7869V40.6481Z" fill="#70CF79"/>
<path d="M36.8033 16.9887H35.0415V13.9055C35.0415 13.2763 34.5381 12.71 33.846 12.71H22.7716C22.1423 12.71 21.576 13.2133 21.576 13.9055V16.9887H19.8142C19.185 16.9887 18.6187 17.4921 18.6187 18.1842V41.4656C18.6187 42.0948 19.122 42.6611 19.8142 42.6611H36.7404C37.3696 42.6611 37.9359 42.1578 37.9359 41.4656V18.1842C37.9359 17.555 37.4326 16.9887 36.8033 16.9887ZM22.8974 17.1145V14.0313H33.783V17.1145C33.783 17.7438 34.2864 18.3101 34.9786 18.3101H36.7404V41.4027H19.94V18.3101H21.7019C22.3311 18.3101 22.8974 17.7438 22.8974 17.1145Z" fill="#169F24"/>
<path d="M34.2869 38.3199C34.2869 38.8862 33.7835 39.3896 33.2172 39.3896H23.4012C22.8349 39.3896 22.3315 38.8862 22.3315 38.3199V37.3761C22.3315 36.8098 22.8349 36.3064 23.4012 36.3064H33.2801C33.8464 36.3064 34.3498 36.8098 34.3498 37.3761V38.3199H34.2869Z" fill="#169F24"/>
<path d="M34.2869 32.7828C34.2869 33.3491 33.7835 33.8525 33.2172 33.8525H23.4012C22.8349 33.8525 22.3315 33.3491 22.3315 32.7828V31.839C22.3315 31.2727 22.8349 30.7693 23.4012 30.7693H33.2801C33.8464 30.7693 34.3498 31.2727 34.3498 31.839V32.7828H34.2869Z" fill="#169F24"/>
<path d="M34.2869 27.2456C34.2869 27.8119 33.7835 28.3153 33.2172 28.3153H23.4012C22.8349 28.3153 22.3315 27.8119 22.3315 27.2456V26.3017C22.3315 25.7354 22.8349 25.2321 23.4012 25.2321H33.2801C33.8464 25.2321 34.3498 25.7354 34.3498 26.3017V27.2456H34.2869Z" fill="#169F24"/>
<path d="M34.2869 22.4724C34.2869 23.0387 33.7835 23.5421 33.2172 23.5421H23.4012C22.8349 23.5421 22.3315 23.0387 22.3315 22.4724V21.5286C22.3315 20.9623 22.8349 20.4589 23.4012 20.4589H33.2801C33.8464 20.4589 34.3498 20.9623 34.3498 21.5286V22.4724H34.2869Z" fill="#169F24"/>
<path d="M43.4738 74.2487C43.4738 82.6174 36.6781 89.413 28.3094 89.413C19.9407 89.413 13.145 82.6174 13.145 74.2487C13.145 65.88 19.9407 59.0844 28.3094 59.0844C36.6781 59.0844 43.4738 65.88 43.4738 74.2487Z" fill="#169F24"/>
<path d="M60.1422 94.6375C60.9294 94.6375 61.7166 94.4688 62.4476 94.0752C64.8655 92.8381 66.2713 89.7454 66.2713 85.6406V85.5844C65.7652 79.9614 65.0342 76.3626 64.1908 72.2016C63.4036 68.3217 63.5722 64.2169 62.6725 57.0194C62.2227 53.5894 61.0419 34.4149 61.0419 34.3586L59.0176 35.2583C59.0176 35.5395 60.2546 53.7019 60.7045 57.3006C61.6604 64.5543 61.4355 68.7153 62.2789 72.5952C63.1224 76.7 63.8534 80.2425 64.3032 85.6969C64.3032 88.9582 63.2911 91.4886 61.5479 92.3882C60.4796 92.9505 59.2425 92.8381 58.0617 91.9946C55.8125 90.4202 53.7319 86.0905 54.6879 78.6118C56.9933 68.3217 58.3991 60.4495 58.3428 52.9709C58.1741 39.082 56.2623 35.7082 56.0374 35.3708L54.4067 36.4392C54.4067 36.4392 56.2061 39.7005 56.431 52.9709C56.4872 60.2808 55.0815 68.0405 52.8322 78.2182C52.8322 78.2745 52.8322 78.2745 52.8322 78.3307C51.9326 85.4157 53.507 91.1512 57.0495 93.6253C57.9492 94.2438 59.0738 94.6375 60.1422 94.6375Z" fill="#D7D7D7"/>
<path d="M52.6072 31.041V36.4953C52.8883 36.6078 53.1695 36.6078 53.5069 36.6078C53.788 36.6078 54.0692 36.5516 54.3503 36.4953C55.5312 36.158 56.3746 35.0333 56.3746 33.74C56.3746 32.4467 55.5312 31.3784 54.3503 30.9848C54.0692 30.9285 53.788 30.8723 53.5069 30.8723C53.1695 30.9285 52.8883 30.9848 52.6072 31.041Z" fill="#2E825C"/>
<path d="M29.4561 65.0004C29.3637 65.005 29.2787 65.0527 29.2259 65.1287L22.326 75.0282C22.1872 75.2271 22.3295 75.4999 22.572 75.4999H27.3458L26.7728 82.6771C26.7504 82.9805 27.1417 83.1207 27.3171 82.8722L34.217 72.9733C34.3556 72.7746 34.2137 72.5021 33.9715 72.5016H29.1972L29.7708 65.3238C29.7852 65.1431 29.6372 64.991 29.4561 65.0004Z" fill="white"/>
</svg>
