<svg width="53" height="14" viewBox="0 0 53 14" fill="none" xmlns="http://www.w3.org/2000/svg">
<path d="M26.051 9.20093H28.3966L28.2234 10.0405H26.9079L26.7521 10.7156H27.9898L27.8167 11.5292H26.5876L26.4145 12.3168H27.782L27.6089 13.1564H25.2114L26.051 9.20093ZM28.3446 10.1617H29.3746L29.2015 12.3168H29.2101L29.9545 10.1617H30.9845L29.6083 13.165H28.4225L28.3446 10.1617ZM31.7029 11.8235L31.6163 12.2216C31.5471 12.5418 31.6596 12.6284 31.7981 12.6284C31.9712 12.6284 32.101 12.5159 32.1962 12.1004H33.0963C32.9319 12.8188 32.5078 13.2256 31.6855 13.2256C30.7248 13.2256 30.4998 12.7842 30.7421 11.6504C30.9845 10.4992 31.4518 10.0751 32.352 10.0751C33.1483 10.0751 33.4772 10.4213 33.2521 11.5205L33.1829 11.8235H31.7029ZM32.3953 11.1484C32.4645 10.8281 32.4299 10.6896 32.2222 10.6896C32.0144 10.6896 31.9192 10.8281 31.85 11.1484L31.8154 11.2782H32.3606L32.3953 11.1484ZM33.7801 10.1617H34.7408L34.6456 10.6464H34.6543C34.836 10.2828 35.1476 10.0924 35.4419 10.0924H35.6064L35.4073 11.0185C35.3207 10.9926 35.2428 10.9926 35.1649 10.9926C34.8187 10.9926 34.5764 11.131 34.4898 11.5292L34.1436 13.1564H33.1483L33.7801 10.1617ZM37.424 9.20093H38.4193L38.1423 10.4992H38.151C38.3154 10.1963 38.5751 10.0838 38.8607 10.0838C39.4406 10.0838 39.7003 10.43 39.4666 11.5898C39.2242 12.6976 38.8867 13.2343 38.2202 13.2343C37.874 13.2343 37.6923 13.0785 37.6403 12.7409H37.6317L37.5451 13.1564H36.5844L37.424 9.20093ZM38.0039 12.4986C38.2376 12.4986 38.3328 12.3168 38.4626 11.6677C38.6011 11.0185 38.5924 10.8281 38.3501 10.8281C38.1164 10.8281 38.0298 11.0099 37.8913 11.6677C37.7615 12.3082 37.7788 12.4986 38.0039 12.4986ZM40.6437 11.8235L40.5572 12.2216C40.4879 12.5418 40.6004 12.6284 40.7389 12.6284C40.912 12.6284 41.0418 12.5159 41.1371 12.1004H42.0372C41.8727 12.8188 41.4486 13.2256 40.6264 13.2256C39.6657 13.2256 39.4406 12.7842 39.683 11.6504C39.9253 10.4992 40.3927 10.0751 41.2928 10.0751C42.0891 10.0751 42.418 10.4213 42.193 11.5205L42.1238 11.8235H40.6437ZM41.3361 11.1484C41.4054 10.8281 41.3707 10.6896 41.163 10.6896C40.9553 10.6896 40.8601 10.8281 40.7908 11.1484L40.7562 11.2782H41.3015L41.3361 11.1484ZM45.4993 10.8281H45.8974L46.0359 10.1617H45.6378L45.8195 9.27882H44.8242L44.6424 10.1617H43.8981L44.0798 9.27882H43.0845L42.9027 10.1617H42.5738L42.4353 10.8281H42.7642L42.4267 12.4293C42.2882 13.0958 42.5046 13.1996 43.1191 13.1996C43.2836 13.1996 43.4826 13.191 43.6644 13.165L43.8029 12.4986H43.6471C43.4826 12.4986 43.4134 12.4293 43.4653 12.2649L43.7769 10.8281H44.5213L44.1837 12.4293C44.0452 13.0958 44.2616 13.1996 44.8761 13.1996C45.0406 13.1996 45.2396 13.191 45.4214 13.165L45.5599 12.4986H45.4041C45.2396 12.4986 45.1704 12.4293 45.2223 12.2649L45.4993 10.8281ZM46.8062 11.8235L46.7197 12.2216C46.6504 12.5418 46.763 12.6284 46.9014 12.6284C47.0745 12.6284 47.2044 12.5159 47.2996 12.1004H48.1911C48.0266 12.8188 47.6025 13.2256 46.7803 13.2256C45.8195 13.2256 45.5945 12.7842 45.8368 11.6504C46.0792 10.4992 46.5466 10.0751 47.4467 10.0751C48.243 10.0751 48.5719 10.4213 48.3469 11.5205L48.2776 11.8235H46.8062ZM47.5073 11.1484C47.5765 10.8281 47.5419 10.6896 47.3342 10.6896C47.1265 10.6896 47.0313 10.8281 46.962 11.1484L46.9274 11.2782H47.4727L47.5073 11.1484ZM48.8921 10.1617H49.8529L49.7577 10.6464H49.7663C49.9481 10.2828 50.2597 10.0924 50.5539 10.0924H50.7184L50.5193 11.0185C50.4328 10.9926 50.3549 10.9926 50.277 10.9926C49.9308 10.9926 49.6884 11.131 49.6019 11.5292L49.2557 13.1564H48.2603L48.8921 10.1617ZM50.0087 12.0658H50.9348L50.7011 13.1564H49.775L50.0087 12.0658ZM51.6878 9.56445H51.4801V10.1357H51.3675V9.56445H51.1598V9.47789H51.6705V9.56445M52.5447 10.127H52.4321V9.58176L52.2158 10.127H52.1465L51.9301 9.58176V10.127H51.8176V9.46924H51.9821L52.1811 9.97124L52.3802 9.46924H52.5447V10.127Z" fill="black"/>
<path d="M14.3576 0.94397H18.815C20.4335 0.94397 21.2818 1.42866 20.9702 2.80484C20.7884 3.6444 20.2777 4.29355 19.1006 4.5532V4.57917C19.8104 4.64841 20.1393 4.95134 20.1739 5.52259C20.2085 6.15442 19.9575 7.19305 20.0527 8.30092H17.1272C17.0753 7.75564 17.1792 6.82087 17.2138 6.18904C17.2398 5.82552 17.0753 5.67838 16.5906 5.67838H16.2531L15.6818 8.29226H12.7563L14.3576 0.94397ZM16.8589 4.01658C17.4302 4.01658 17.8889 3.81751 18.0101 3.27223C18.1312 2.7356 17.7677 2.61443 17.1792 2.61443H16.9195L16.6166 4.00792H16.8589V4.01658Z" fill="#CE2028"/>
<path d="M21.7837 8.45671L20.823 3.19433H23.4974L23.61 5.99863H23.6359L24.9342 3.19433H27.4529L23.4368 10.257H20.7104L21.7837 8.45671ZM30.1447 7.71236C29.5734 8.29226 28.9329 8.45671 28.3617 8.45671C27.0894 8.45671 26.3883 7.50464 26.7864 5.68704C27.2019 3.74827 28.3703 3.03854 29.5128 3.03854C30.0927 3.03854 30.6207 3.20299 30.9323 3.66171L31.5208 0.94397H34.0395L32.4383 8.30092H30.0668L30.1447 7.71236ZM30.5947 4.95134C30.5947 4.65707 30.4389 4.48396 30.1533 4.48396C29.6253 4.48396 29.4609 4.93403 29.2878 5.73897C29.132 6.43139 29.0801 6.99398 29.6167 6.99398C29.9023 6.99398 30.0408 6.87281 30.1447 6.71701C30.2572 6.56122 30.3524 6.25828 30.4649 5.73031C30.5601 5.2889 30.5947 5.15907 30.5947 4.95134ZM39.1028 6.66508C38.6614 7.82488 37.6141 8.45671 35.658 8.45671C34.1261 8.45671 32.897 7.79026 33.3471 5.72166C33.7279 3.95599 35.156 3.03854 37.0256 3.03854C39.0076 3.03854 39.7433 4.02523 39.3452 5.85149L39.2673 6.1977H35.6667L35.6321 6.33618C35.5022 6.92474 35.658 7.17574 36.16 7.17574C36.4457 7.17574 36.7486 7.01129 36.9044 6.64777H39.1028M37.2246 5.11579L37.2333 5.0379C37.3458 4.54455 37.1381 4.29355 36.7399 4.29355C36.3331 4.29355 36.0042 4.54455 35.9004 5.0379L35.8917 5.11579H37.2246ZM42.6861 3.11643L42.4351 4.28489H42.4611C42.9284 3.54919 43.5516 2.99526 44.3652 2.99526C44.521 2.99526 44.6681 3.02123 44.772 3.04719L44.3219 5.12445C44.2094 5.07252 43.993 5.04655 43.7507 5.04655C43.041 5.04655 42.3053 5.66107 42.1408 6.42273L41.734 8.30092H39.1634L40.2886 3.11643H42.6861Z" fill="#CE2028"/>
<path d="M12.869 1.45467C10.4801 1.89608 8.45479 2.59716 7.08726 3.47999L12.1765 4.62248L12.0986 4.95138L0.604492 2.38943H7.84027C9.29435 1.81819 11.0254 1.39408 12.9295 1.15173L12.869 1.45467ZM22.156 12.4814L22.9263 11.1312C21.5328 11.3303 20.0268 11.4342 18.4689 11.4342C11.1033 11.4342 5.13983 9.08858 5.13983 6.20639C5.13983 5.48801 5.51201 4.79559 6.18712 4.16375L5.06194 3.91275C3.87617 4.83021 3.20106 5.90346 3.20106 7.04595C3.20106 10.4042 9.06066 13.1392 16.2705 13.1392C18.3737 13.1392 20.399 12.8969 22.156 12.4814Z" fill="black"/>
<path d="M45.0752 3.54903C45.0752 3.18551 45.3695 2.89124 45.733 2.89124C46.0965 2.89124 46.3908 3.18551 46.3908 3.54903C46.3908 3.91255 46.0965 4.20683 45.733 4.20683C45.3695 4.19818 45.0752 3.91255 45.0752 3.54903ZM46.3129 3.54903C46.3129 3.22879 46.0619 2.97779 45.7416 2.97779C45.4214 2.97779 45.1617 3.22879 45.1617 3.54903C45.1617 3.86928 45.4128 4.12893 45.7416 4.12893C46.0532 4.12028 46.3129 3.86928 46.3129 3.54903ZM46.0619 3.91255H45.9494L45.7416 3.575H45.5772V3.91255H45.4906V3.17686H45.8109C45.8801 3.17686 45.9321 3.17686 45.984 3.21148C46.0359 3.2461 46.0619 3.30669 46.0619 3.36727C46.0619 3.50576 45.9667 3.56634 45.8282 3.56634L46.0619 3.91255ZM45.7243 3.50576C45.8195 3.50576 45.984 3.53172 45.984 3.37593C45.984 3.26341 45.8888 3.2461 45.8022 3.2461H45.5945V3.50576H45.7243Z" fill="#CE2028"/>
</svg>
