<svg width="47" height="46" viewBox="0 0 47 46" fill="none" xmlns="http://www.w3.org/2000/svg">
<rect x="0.771484" y="0.5" width="45" height="45" rx="22.5" fill="#FAFAFA" stroke="#F4F6F8"/>
<path d="M15.2348 22.3947C15.2672 22.0132 15.0568 21.792 14.6521 21.792C14.207 21.792 13.8672 22.1582 13.7296 22.86C13.6325 23.3787 13.6648 23.8593 14.3122 23.8593C14.725 23.8593 14.9677 23.5923 15.081 23.2414H16.3111C16.0198 24.1873 15.1943 24.7594 14.1666 24.7594C12.8799 24.7594 12.2406 24.0119 12.4672 22.8218C12.6937 21.6318 13.681 20.8919 14.7735 20.8919C15.9631 20.8919 16.5215 21.4487 16.4487 22.387L15.2348 22.3947Z" fill="#F26523"/>
<path d="M11.1664 21.9823C11.1745 21.8756 11.1179 21.7764 11.0208 21.723C10.9237 21.6772 10.8104 21.6467 10.6971 21.6543C10.4057 21.6543 10.2601 21.7306 10.2358 21.8679C10.1306 22.44 12.5098 22.0815 12.2508 23.4622C12.089 24.3395 11.2312 24.7667 10.1225 24.7667C9.06237 24.7667 8.47971 24.1793 8.57682 23.5004H9.83925C9.83116 23.6224 9.8959 23.7369 10.0011 23.7979C10.1063 23.8589 10.2277 23.8971 10.3572 23.8894C10.689 23.8894 10.9237 23.7903 10.956 23.6072C11.0693 23.0427 8.68203 23.4394 8.94908 21.99C9.10284 21.1814 9.91209 20.7771 10.9237 20.7771C12.0404 20.7771 12.4531 21.3111 12.4208 21.9823H11.1664Z" fill="#F26523"/>
<path d="M16.9359 20.9683H18.1983L17.9798 22.1965H19.1532L19.3717 20.9683H20.6503L19.9786 24.6757H18.7081L18.959 23.2492H17.7694L17.4942 24.6909H16.2318L16.9359 20.9683Z" fill="#F26523"/>
<path d="M20.4158 24.6749L21.0955 20.9599H22.2851L23.3372 22.7754L23.6447 20.9599H24.8343L24.1383 24.6825H22.973L21.921 23.0653L21.6296 24.6825L20.4158 24.6749Z" fill="#F26523"/>
<path d="M25.3113 20.9599H28.4593L28.3056 21.8219H26.4119L26.3229 22.3635H27.5772L27.4397 23.2179H26.161L26.0639 23.8052H28.0223L27.8605 24.6672H24.6396L25.3113 20.9599Z" fill="#F26523"/>
<path d="M34.6576 20.9599H37.8056L37.6518 21.8219H35.7582L35.6772 22.3635H36.9235L36.7859 23.2179H35.5073L35.4102 23.8052H37.3686L37.2067 24.6672H33.9859L34.6576 20.9599Z" fill="#F26523"/>
<path d="M28.8951 20.9683H30.1576L29.4697 24.6757H28.2234L28.8951 20.9683Z" fill="#F26523"/>
<path d="M30.6202 20.9599H32.4734C32.4734 20.9599 33.8329 20.9446 34.0272 21.9973C34.2214 23.05 33.4769 24.0722 33.0722 24.3164C32.6676 24.5605 32.3682 24.6825 31.4618 24.6825H29.9243L30.6202 20.9599ZM31.3647 23.7519C32.3601 23.7519 32.4734 23.4925 32.611 23.3323C32.7809 23.134 32.9508 22.4703 32.8052 22.1423C32.6271 21.7227 31.737 21.8371 31.737 21.8371L31.3647 23.7519Z" fill="#F26523"/>
<path d="M38.1528 20.9594H40.2487C40.2487 20.9594 41.3331 20.8831 41.4869 21.5544C41.6406 22.2257 41.3412 22.7368 40.7019 22.9351C40.7019 22.9351 41.3331 23.0343 41.236 23.5683C41.1389 24.1022 41.0256 24.6667 41.0256 24.6667H39.7874L39.9331 23.8124C39.9331 23.8124 40.0707 23.3699 39.4637 23.3699H38.9944L38.7516 24.6591H37.4811L38.1528 20.9594ZM39.14 22.569C39.14 22.569 39.7874 22.5995 40.0383 22.5079C40.2892 22.4164 40.4187 22.0807 40.1921 21.9129C40.0302 21.7909 39.2776 21.8214 39.2776 21.8214L39.14 22.569Z" fill="#F26523"/>
<path d="M7.93622 27.1003L8.22755 25.4908H21.475L21.2484 26.7342L22.8264 25.4984H40.9293L40.638 27.1003H7.93622Z" fill="#F26523"/>
<path d="M42.3534 21.2415C42.3615 21.4017 42.2239 21.539 42.054 21.5467C41.884 21.5543 41.7384 21.4246 41.7303 21.2644C41.7222 21.1042 41.8597 20.9669 42.0297 20.9593H42.0378C42.2158 20.9516 42.3534 21.0813 42.3534 21.2415ZM41.8112 21.2415C41.8112 21.3636 41.9083 21.4627 42.0378 21.4704H42.0459C42.1753 21.4704 42.2805 21.3712 42.2805 21.2492V21.2415C42.2886 21.1195 42.1915 21.0127 42.0621 21.005C41.9326 20.9974 41.8193 21.089 41.8112 21.211C41.8112 21.2263 41.8112 21.2339 41.8112 21.2415ZM41.9973 21.3941H41.9245V21.1042C41.9649 21.0966 42.0054 21.0966 42.0378 21.0966C42.0782 21.0966 42.1106 21.1042 42.143 21.1195C42.1592 21.1347 42.1753 21.1576 42.1753 21.1805C42.1753 21.211 42.143 21.2415 42.1106 21.2492C42.143 21.2644 42.1592 21.2873 42.1673 21.3178C42.1673 21.3407 42.1753 21.3636 42.1915 21.3865H42.1187C42.1106 21.3636 42.1025 21.3407 42.0944 21.3178C42.0863 21.2873 42.0701 21.272 42.0297 21.272H41.9973V21.3941ZM41.9973 21.2339H42.0297C42.0701 21.2339 42.1025 21.2186 42.1025 21.1958C42.1025 21.1729 42.0863 21.15 42.0378 21.15C42.0216 21.15 42.0135 21.15 41.9973 21.15V21.2339Z" fill="#F26523"/>
</svg>
