<svg width="55" height="11" viewBox="0 0 55 11" fill="none" xmlns="http://www.w3.org/2000/svg">
<path d="M8.8997 5.65634C8.20674 6.24492 8.49816 7.17426 8.78267 7.70088C9.13948 8.35831 8.68401 9.3278 8.06104 9.87623C9.57544 9.01574 10.6091 7.40947 10.6665 5.55652C10.1961 5.24904 9.4068 5.22493 8.89969 5.65632L8.8997 5.65634Z" fill="#23B2A9"/>
<path d="M5.28886 7.13637C4.29531 6.29423 3.42568 6.70153 2.83252 7.39797C2.23135 8.10358 3.05967 8.3147 4.1909 8.57169C5.04449 8.7656 4.93893 9.92554 5.0181 10.186C6.03804 8.53958 5.74433 7.52189 5.28886 7.13639V7.13637Z" fill="#71BE45"/>
<path d="M6.88595 2.00547C8.57934 3.32031 7.09016 3.9915 7.09016 3.9915C8.05159 4.80839 9.02449 3.24344 10.0685 4.1372C10.345 4.37357 10.5217 4.66038 10.6525 4.96788C10.477 2.83154 8.99696 1.06351 7.00986 0.4646C6.22972 0.807654 5.9188 1.25513 6.88595 2.00547Z" fill="#2CB5E5"/>
<path d="M2.794 6.53939C2.40968 5.48958 2.89841 5.0054 4.56656 3.81791C6.67412 2.31721 3.37797 2.84956 4.71915 1.49801C5.19414 1.01956 5.86185 0.647829 6.35517 0.31281C6.08327 0.269211 5.80448 0.245117 5.51995 0.245117C2.67469 0.245117 0.368652 2.55125 0.368652 5.39549C0.368652 5.51022 0.37324 5.62265 0.381276 5.7351C1.158 6.45561 2.12055 6.92258 2.794 6.53938V6.53939Z" fill="#1B4D4A"/>
<path d="M13.341 2.53979H15.4945C16.3745 2.53979 17.1546 2.5398 17.625 3.21443C17.8292 3.51732 17.9278 3.94987 17.9278 4.31358C17.9278 4.6096 17.867 4.89757 17.7454 5.14769C17.2831 6.10341 16.2975 6.12522 15.569 6.14129H14.6822V7.89326H13.3398V2.53981L13.341 2.53979ZM14.6833 3.52534V5.14767H15.4864C15.9867 5.14767 16.5936 5.13276 16.5936 4.30553C16.5936 3.52419 15.919 3.52419 15.5323 3.52419H14.6833L14.6833 3.52534Z" fill="#1B4D4A"/>
<path d="M18.6641 2.53126H21.0779C21.6401 2.5393 22.3377 2.54618 22.8321 3.07738C23.0823 3.35847 23.2578 3.783 23.2578 4.26946C23.2578 5.34796 22.5212 5.61298 22.1564 5.75066L23.3943 7.8916H21.9143L20.8519 5.97785H20.0087V7.8916H18.6652V2.53125L18.6641 2.53126ZM20.0087 3.53404V4.98426H21.1169C21.3062 4.97623 21.9212 4.96132 21.9212 4.24767C21.9212 3.56386 21.4279 3.54206 21.1468 3.53402H20.0087V3.53404Z" fill="#1B4D4A"/>
<path d="M26.5362 8.04481C24.8382 8.04481 23.8745 6.74028 23.8745 5.19368C23.8745 3.74574 24.7923 2.37354 26.5133 2.37354C26.8311 2.37354 27.1649 2.41943 27.4907 2.53302C29.1279 3.10209 29.2346 4.8839 29.2346 5.2476C29.2346 6.17234 28.8101 7.00647 28.2193 7.48376C27.6961 7.91515 27.0892 8.04481 26.5362 8.04481ZM27.4609 3.88228C27.2338 3.64019 26.885 3.48759 26.5213 3.48759C25.7101 3.48759 25.1939 4.20008 25.1939 5.17073C25.1939 6.44428 25.9063 6.91467 26.5362 6.91467C27.1729 6.91467 27.8556 6.46032 27.8934 5.33823C27.9152 4.77604 27.7638 4.20811 27.4609 3.88228Z" fill="#1B4D4A"/>
<path d="M36.4877 8.02863C34.8574 8.02863 33.811 6.8836 33.811 5.21537C33.811 3.22934 35.1832 2.4021 36.5106 2.4021C38.0112 2.4021 39.2021 3.41864 39.2021 5.16144C39.2021 6.76999 38.2614 8.02863 36.4877 8.02863ZM36.5106 2.97922C35.1614 2.97922 34.5843 4.01756 34.5843 5.22342C34.5843 6.34551 35.1373 7.46761 36.5175 7.46761C37.9585 7.46761 38.4358 6.26979 38.4277 5.17065C38.4208 3.87417 37.7462 2.97925 36.5106 2.97925V2.97922Z" fill="#1B4D4A"/>
<path d="M46.7291 2.53125V7.8916H46.0098V2.53125H46.37H46.7291Z" fill="#1B4D4A"/>
<path d="M49.7341 5.4308C48.9609 5.27132 47.8239 5.01431 47.8239 3.90715C47.8239 3.37708 48.1119 3.04321 48.3161 2.86882C48.7934 2.45922 49.3773 2.41333 49.749 2.41333C50.1276 2.41333 50.7047 2.45119 51.19 2.80802C51.7201 3.19467 51.8268 3.74079 51.8795 4.06665L51.1591 4.11254C51.151 3.94618 51.1292 3.52167 50.7265 3.22565C50.4535 3.02831 50.1127 2.9675 49.7708 2.9675C49.1261 2.9675 48.5582 3.23253 48.5582 3.80964C48.5582 4.40051 49.1502 4.53705 49.6114 4.64374L50.2034 4.7952C50.613 4.89387 50.8321 4.93976 51.0443 5.0304C51.8486 5.36428 51.969 6.00793 51.969 6.36474C51.969 6.86498 51.7648 7.33539 51.2864 7.66123C50.7713 8.01001 50.1575 8.03985 49.8305 8.03985C49.3452 8.03985 47.6851 7.96412 47.5635 6.19724L48.3287 6.09857C48.3368 6.30395 48.3585 6.77321 48.7612 7.13003C49.0641 7.39506 49.4668 7.48685 49.8603 7.48685C50.6187 7.48685 51.1946 7.11511 51.1946 6.41753C51.1946 5.79568 50.7013 5.62932 50.1793 5.52262L49.7341 5.43083V5.4308Z" fill="#1B4D4A"/>
<path d="M39.9707 5.21329C39.9707 3.52097 41.2155 2.40576 42.762 2.40576C43.7304 2.40576 44.3981 2.82913 44.8696 3.41426L44.3327 3.75616C43.9908 3.31674 43.4137 3.00696 42.7621 3.00696C41.5746 3.00696 40.6706 3.90992 40.6706 5.21215C40.6706 6.4983 41.5735 7.41733 42.7621 7.41733C43.4126 7.41733 43.9506 7.10754 44.2272 6.83104V5.66421H42.6909V5.06186H44.8949V7.0846C44.3901 7.65368 43.6501 8.02886 42.7632 8.02886C41.2167 8.02886 39.9707 6.89874 39.9707 5.2133L39.9707 5.21329Z" fill="#1B4D4A"/>
<path d="M30.7608 7.25483H33.5602V7.8916H30.0483V2.53125H30.7608V7.25483Z" fill="#1B4D4A"/>
<path d="M53.3976 3.74889C53.0339 3.74775 52.7391 3.45059 52.7402 3.08687C52.7414 2.72316 53.0385 2.42831 53.4022 2.42945C53.7659 2.43059 54.0608 2.72775 54.0596 3.09146C54.0585 3.45517 53.7613 3.75003 53.3976 3.74889ZM53.4011 2.53156C53.0936 2.53042 52.8435 2.77938 52.8424 3.08687C52.8412 3.39436 53.0902 3.64448 53.3976 3.64562C53.7051 3.64676 53.9552 3.3978 53.9564 3.09031C53.9575 2.78397 53.7086 2.5327 53.4011 2.53156Z" fill="#1B4D4A"/>
<path d="M53.1504 2.7124H53.3844C53.482 2.71354 53.5485 2.71354 53.6128 2.76518C53.6586 2.80304 53.6942 2.86155 53.6942 2.94646C53.6942 3.08757 53.591 3.13577 53.5497 3.14838L53.7137 3.44784H53.5565L53.4108 3.17477H53.2881V3.44784H53.1516V2.7124H53.1504ZM53.2869 2.83173V3.06234H53.3351C53.3821 3.06234 53.3993 3.0612 53.4257 3.06003C53.4556 3.05889 53.5554 3.0543 53.5554 2.94644C53.5554 2.93037 53.5542 2.87646 53.4969 2.84777C53.467 2.83286 53.4326 2.8317 53.3512 2.8317H53.2869V2.83173Z" fill="#1B4D4A"/>
</svg>
