<svg width="46" height="48" viewBox="0 0 46 48" fill="none" xmlns="http://www.w3.org/2000/svg">
<path d="M6.83714 17.607C7.65775 13.8077 9.95036 10.5082 13.2155 8.4398C16.4807 6.37136 20.4433 5.70829 24.229 6.5896L24.3366 6.12713L24.229 6.5896C28.0137 7.47062 31.3118 9.82267 33.4029 13.1237C35.7752 16.8685 36.5604 21.4039 35.5857 25.7322L32.8541 37.8625C32.7846 38.1711 32.5952 38.44 32.3275 38.6096C32.0597 38.7792 31.7357 38.8356 31.4269 38.7665L19.2924 36.0536L19.1888 36.517L19.2924 36.0536C14.9627 35.0857 11.1976 32.4379 8.82532 28.6931C6.73419 25.3921 6.01676 21.4052 6.83714 17.607Z" fill="#12741C" stroke="#02590B" stroke-width="0.94968"/>
<path d="M22.5039 13.341C22.4189 13.3452 22.3407 13.3891 22.2921 13.459L15.9475 22.5608C15.82 22.7437 15.9508 22.9945 16.1738 22.9945H20.5634L20.0365 29.5934C20.0159 29.8723 20.3757 30.0013 20.537 29.7728L26.8816 20.6715C27.009 20.4888 26.8785 20.2382 26.6558 20.2378H22.2657L22.7932 13.6384C22.8064 13.4722 22.6703 13.3324 22.5039 13.341Z" fill="white"/>
</svg>
