<svg width="62" height="65" viewBox="0 0 62 65" fill="none" xmlns="http://www.w3.org/2000/svg">
<path d="M9.17159 24.3847C10.284 19.2346 13.3917 14.762 17.8178 11.9581C22.244 9.15425 27.6156 8.25541 32.7472 9.45008L32.8931 8.82317L32.7472 9.45008C37.8776 10.6443 42.3483 13.8327 45.183 18.3074C48.3987 23.3837 49.4631 29.5317 48.1419 35.3989L44.439 51.8422C44.3448 52.2605 44.088 52.625 43.7251 52.8549C43.3622 53.0848 42.9229 53.1613 42.5044 53.0677L26.0554 49.3902C20.1862 48.0781 15.0824 44.4889 11.8667 39.4126C9.03204 34.9379 8.05953 29.5335 9.17159 24.3847Z" fill="#12741C" stroke="#02590B" stroke-width="1.28734"/>
<path d="M30.4085 18.6015C30.2933 18.6072 30.1873 18.6667 30.1215 18.7614L21.521 31.0994C21.3481 31.3473 21.5255 31.6873 21.8277 31.6873H27.778L27.0638 40.6324C27.0359 41.0106 27.5236 41.1854 27.7422 40.8756L36.3427 28.5384C36.5154 28.2907 36.3386 27.9511 36.0367 27.9505H30.0857L30.8006 19.0046C30.8186 18.7794 30.6341 18.5898 30.4085 18.6015Z" fill="white"/>
</svg>
