<svg width="50" height="22" viewBox="0 0 50 22" fill="none" xmlns="http://www.w3.org/2000/svg">
<path d="M0.484863 13.778V8.06079H5.03532V8.52746H0.951602V10.6277H4.80202V11.0944H0.951602V13.4279H5.03532V13.8947H0.484863V13.778ZM10.2858 13.778L6.20209 8.76083V13.778H5.73535V8.06079H6.31874L10.4025 13.0779V8.06079H10.8692V13.778H10.2858ZM11.8027 13.778V8.06079H16.353V8.52746H12.2693V10.6277H16.1197V11.0944H12.2693V13.4279H16.353V13.8947H11.8027V13.778ZM19.9701 10.861C20.0868 10.861 20.5534 10.861 20.9034 10.7444C21.2535 10.6277 21.4868 10.2776 21.4868 9.69423C21.4868 8.87749 20.9035 8.64418 20.0868 8.64418H17.6366V10.9777L19.9701 10.861ZM21.6035 13.778C21.4868 13.6613 21.4869 13.3113 21.3702 12.3779C21.3702 11.9112 21.2536 11.5611 21.1369 11.4444C20.9035 11.3277 20.5535 11.2111 20.0868 11.2111H17.6366V13.778H17.1698V8.06079H20.0868C20.6701 8.06079 21.1368 8.17745 21.4868 8.41081C21.8369 8.64416 22.0702 8.99417 22.0702 9.69423C22.0702 10.2776 21.7203 10.861 21.1369 11.0944C21.7203 11.2111 21.9536 11.6778 21.9536 12.2612C21.9536 13.3113 21.9535 13.6613 22.0702 13.778V13.8947C22.0702 13.778 21.6035 13.778 21.6035 13.778Z" fill="#231F20"/>
<path d="M5.03532 6.0773L0.951602 1.06018V6.0773H0.484863V0.360107H1.06825L5.15197 5.37726V0.360107H5.61871V6.0773H5.03532ZM6.55218 6.0773V0.360107H11.1025V0.826811H7.01878V2.92699H10.8692V3.39373H7.01878V5.72728H11.1025V6.19395C11.2192 6.07727 6.55218 6.0773 6.55218 6.0773ZM16.4698 0.360107H21.6035V0.826811H19.3867V6.0773H18.92V0.826811H16.7031V0.360107L14.3695 3.16036L16.8197 6.0773H16.1197L14.0194 3.51038L11.9193 6.0773H11.3359L13.7861 3.16036L11.4526 0.360107H12.1526L14.1362 2.81034L16.2363 0.360107C16.003 0.360107 16.4698 0.360107 16.4698 0.360107Z" fill="#6EC72E"/>
<path d="M40.8563 8.06166C40.8563 8.06166 40.9731 8.41168 40.9731 8.99507L38.6395 11.6786L41.7898 9.22844L41.9064 9.92847C41.9064 9.92847 39.4562 12.6121 38.8728 13.4288C38.8728 13.4288 41.9064 10.8619 43.6566 9.81182C42.9565 8.41169 41.4397 7.47827 39.6895 7.47827C37.2393 7.47827 35.2559 9.46178 35.2559 11.912C35.2559 12.0287 35.2559 12.0287 35.2559 12.1454C36.4226 11.3286 39.1061 9.11176 40.8563 8.06166ZM44.3566 12.1454C44.3566 11.6787 44.24 11.2119 44.1233 10.8619C43.0732 11.4453 40.623 12.7287 38.8728 14.2456C40.3896 14.4789 41.7898 14.7123 43.3066 15.0623C44.0067 14.1289 44.3566 13.1955 44.3566 12.1454Z" fill="#2F97DA"/>
<path d="M40.8563 10.6295C40.8563 10.6295 38.2894 12.613 37.9394 12.9631L37.5895 12.3797C37.5895 12.3797 39.3396 10.1628 39.923 9.69604C39.923 9.69604 36.7727 11.9129 35.3726 13.1964C35.3726 13.4297 35.4892 13.7798 35.6059 14.0131C36.4226 14.1298 37.1227 14.1298 37.9394 14.2465C38.0561 14.0131 40.623 10.9796 40.8563 10.6295Z" fill="#2F97DA"/>
<path d="M25.6889 13.8947C24.8721 13.8947 24.0555 13.6613 23.4721 13.0779C22.8887 12.6112 22.6553 11.7945 22.6553 10.861C22.6553 10.161 22.8886 9.46096 23.3553 8.87757C23.822 8.29418 24.6388 7.94409 25.6889 7.94409C27.089 7.94409 28.1391 8.64417 28.3725 9.92763V10.0443H27.9058C27.6724 8.99425 26.739 8.52748 25.6889 8.52748C24.1721 8.52748 23.122 9.69427 23.122 11.0944C23.122 12.4945 23.9387 13.6613 25.6889 13.6613C27.089 13.6613 27.9057 12.8446 28.0224 11.5611H25.8057V11.0944H28.6058V11.2111C28.6058 11.6778 28.4892 12.2612 28.2559 12.6112C27.7891 13.4279 26.739 13.8947 25.6889 13.8947ZM31.4061 13.6613C31.2894 13.6613 31.1728 13.6613 31.0561 13.6613H30.9394H30.8227V11.4444L28.1392 8.06081H28.8392L31.0561 10.9778L33.3897 8.06081H33.9731L31.2894 11.4444L31.4061 13.6613Z" fill="#231F20"/>
<path d="M43.0672 15.1782C41.5504 14.8282 40.0336 14.5948 38.5167 14.3615C38.4001 14.3615 38.1668 14.3615 38.0501 14.2448C37.2334 14.1281 36.4167 14.0114 35.7166 14.0114C34.1998 13.8948 32.683 13.7781 31.1661 13.7781C16.6981 13.7781 6.19711 19.4953 2.69678 21.7122C14.1312 16.5784 24.8656 15.0616 33.383 15.0616C40.7337 15.0616 46.4509 16.1117 49.8346 17.0451C47.7344 16.345 45.4008 15.6449 43.0672 15.1782Z" fill="#6EC72E"/>
<path d="M22.89 2.57695C23.1233 1.41017 23.9399 1.06015 24.5233 1.06015C25.2234 1.06015 26.0401 1.41017 26.2735 2.57695H22.89ZM27.6737 3.3937C27.6737 1.76022 26.8569 0.243394 24.5233 0.243394C22.7732 0.243394 21.4897 1.41014 21.4897 3.27698C21.4897 4.79379 22.3066 6.19392 24.6401 6.19392C26.6236 6.19392 27.207 4.9105 27.5571 4.32711H26.1569C25.9235 4.79382 25.5735 5.14387 24.6401 5.14387C23.3567 5.14387 23.0066 4.09374 22.89 3.51035H27.6737V3.3937ZM36.3079 3.74372C36.3079 5.02718 35.141 5.26052 34.4409 5.26052C33.9742 5.26052 33.3909 5.14383 33.3909 4.44376C33.3909 3.97705 33.6243 3.74375 34.5577 3.62707C35.4911 3.5104 35.8412 3.51034 36.3079 3.27698V3.74372ZM37.8246 5.02715C37.7079 5.02715 37.5913 5.02716 37.5913 4.67713V1.99356C37.5913 1.29349 37.4746 0.126709 34.9077 0.126709C33.3909 0.126709 32.4575 0.593427 32.2242 1.99356H33.5076C33.5076 1.41017 33.9742 1.06015 34.9077 1.06015C35.6077 1.06015 36.3079 1.17681 36.3079 1.87687C36.3079 2.34358 36.0745 2.34359 34.2076 2.57695C33.3909 2.69362 31.9907 2.8103 31.9907 4.32711C31.9907 5.37721 32.6909 6.07727 33.9743 6.07727C35.4911 6.07727 36.0745 5.61055 36.3079 5.26052C36.3079 5.49387 36.4245 5.96063 37.2412 5.96063C37.4746 5.96063 37.8246 5.96063 37.9413 5.96063V4.9105C37.9413 5.02718 37.9413 5.02715 37.8246 5.02715ZM31.9907 0.243394C31.8741 0.243394 31.8741 0.243394 31.7574 0.243394C30.7073 0.243394 30.1239 0.826789 29.7738 1.52685V0.360078H28.3738V6.07727H29.7738V3.27698C29.7738 1.99353 30.7073 1.52685 31.4073 1.52685C31.524 1.52685 31.8741 1.52685 31.9907 1.52685V0.243394Z" fill="#2F97DA"/>
</svg>
