<svg width="45" height="46" viewBox="0 0 45 46" fill="none" xmlns="http://www.w3.org/2000/svg">
<path d="M42.1501 23.5939C41.9656 23.2164 41.9656 22.7835 42.1501 22.4061L43.8603 18.9074C44.8125 16.9594 44.0581 14.6375 42.1427 13.6213L38.7027 11.796C38.3315 11.5992 38.0771 11.2488 38.0045 10.8351L37.3317 6.99931C36.957 4.86364 34.9815 3.42852 32.835 3.73222L28.9791 4.27764C28.563 4.33639 28.1514 4.20259 27.8495 3.91053L25.0506 1.20293C23.4922 -0.30474 21.0508 -0.304829 19.4924 1.20293L16.6935 3.9108C16.3915 4.20295 15.9799 4.33648 15.5638 4.27791L11.708 3.73249C9.56074 3.42861 7.58592 4.86391 7.21129 6.99958L6.53851 10.8352C6.46587 11.249 6.21143 11.5992 5.84038 11.7962L2.40035 13.6214C0.484998 14.6376 -0.269463 16.9596 0.682748 18.9077L2.39291 22.4063C2.57741 22.7838 2.57741 23.2167 2.39291 23.5941L0.682659 27.0927C-0.269552 29.0408 0.484908 31.3626 2.40026 32.3789L5.84029 34.2041C6.21143 34.401 6.46587 34.7514 6.53851 35.165L7.21129 39.0008C7.55234 40.945 9.21942 42.3085 11.1354 42.3083C11.3241 42.3083 11.5156 42.2951 11.708 42.2678L15.5639 41.7224C15.9797 41.6634 16.3915 41.7975 16.6935 42.0895L19.4924 44.7971C20.2718 45.551 21.2715 45.9279 22.2715 45.9278C23.2713 45.9277 24.2716 45.5509 25.0506 44.7971L27.8495 42.0895C28.1515 41.7975 28.5631 41.664 28.9791 41.7224L32.835 42.2678C34.9825 42.5716 36.957 41.1364 37.3317 39.0007L38.0046 35.1651C38.0772 34.7514 38.3316 34.4011 38.7027 34.2041L42.1427 32.3789C44.0581 31.3627 44.8125 29.0407 43.8603 27.0926L42.1501 23.5939ZM16.9819 11.0987C19.6555 11.0987 21.8307 13.2739 21.8307 15.9474C21.8307 18.621 19.6555 20.7962 16.9819 20.7962C14.3084 20.7962 12.1332 18.621 12.1332 15.9474C12.1332 13.2739 14.3084 11.0987 16.9819 11.0987ZM14.4792 32.6623C14.221 32.9205 13.8826 33.0496 13.5442 33.0496C13.2059 33.0496 12.8673 32.9205 12.6092 32.6623C12.0928 32.1458 12.0928 31.3085 12.6092 30.7921L30.0636 13.3377C30.58 12.8213 31.4173 12.8213 31.9338 13.3377C32.4502 13.8541 32.4502 14.6914 31.9338 15.2078L14.4792 32.6623ZM27.5609 34.9015C24.8873 34.9015 22.7121 32.7263 22.7121 30.0527C22.7121 27.3791 24.8873 25.204 27.5609 25.204C30.2344 25.204 32.4096 27.3791 32.4096 30.0527C32.4096 32.7263 30.2344 34.9015 27.5609 34.9015Z" fill="white"/>
<path d="M27.5624 27.849C26.3472 27.849 25.3584 28.8377 25.3584 30.0529C25.3584 31.2682 26.3471 32.2568 27.5624 32.2568C28.7777 32.2568 29.7663 31.2682 29.7663 30.0529C29.7663 28.8377 28.7777 27.849 27.5624 27.849Z" fill="white"/>
<path d="M16.9813 13.7433C15.766 13.7433 14.7773 14.7319 14.7773 15.9472C14.7773 17.1625 15.766 18.1512 16.9813 18.1512C18.1965 18.1512 19.1853 17.1625 19.1853 15.9472C19.1852 14.732 18.1965 13.7433 16.9813 13.7433Z" fill="white"/>
</svg>
