<svg width="53" height="52" viewBox="0 0 53 52" fill="none" xmlns="http://www.w3.org/2000/svg">
<rect x="0.771484" y="0.5" width="51" height="51" rx="25.5" fill="#FAFAFA" stroke="#F4F6F8"/>
<path d="M15.9012 23.9057H14.4889L14.3241 24.6589L13.5473 28.3545C13.4532 28.8253 13.1943 29.1078 12.8176 29.1078C12.441 29.1078 12.2998 28.8253 12.4175 28.3545L13.1943 24.6589L13.359 23.9057H11.9467L11.7819 24.6354L11.0758 27.9308C10.8168 29.1078 10.9581 30.0493 12.6058 30.0493C12.747 30.0493 12.8882 30.0493 13.053 30.0258C14.3241 29.8845 14.7949 29.0607 15.0303 28.0485C15.0303 28.025 15.0538 27.9779 15.0538 27.9544L15.76 24.6589L15.9012 23.9057Z" fill="#313843"/>
<path d="M19.0072 25.2473C18.9366 25.2473 18.8659 25.2473 18.7953 25.2473C18.4187 25.2473 18.0656 25.3885 17.7831 25.6475C17.689 25.7181 17.6184 25.8122 17.5478 25.9064H17.5242L17.6419 25.365H16.3237L15.9 27.3187L15.5234 29.1312L15.3586 29.9316H16.7239L17.2182 27.5777L17.3594 26.9421C17.4536 26.4949 17.7361 26.3066 17.995 26.283C18.2539 26.283 18.3481 26.4713 18.2775 26.8009V26.8244L18.2304 27.0363L17.6184 29.9316H18.9836L19.0542 29.5314L19.6898 26.5184C19.7369 26.3066 19.7604 26.0712 19.7133 25.8593C19.6663 25.5062 19.4073 25.3179 19.0072 25.2473Z" fill="#313843"/>
<path d="M19.7849 29.9316H21.1502L22.1153 25.3651H20.75L19.7849 29.9316Z" fill="#313843"/>
<path d="M25.1284 25.3651L24.0927 28.1191L23.8573 28.7311L23.9044 27.5542L24.0456 25.3651H23.1747H22.6097L22.7745 29.7669V29.9316H24.3987L26.4937 25.3651H25.1284Z" fill="#313843"/>
<path d="M28.4944 26.0947C28.871 26.0947 28.8946 26.4478 28.7533 27.0833H27.7647C27.8824 26.4713 28.0472 26.0947 28.4944 26.0947ZM27.5999 27.8601H29.9067C30.2363 26.3066 30.3304 25.2473 28.6592 25.2473C27.1762 25.2473 26.5878 26.1889 26.3288 27.4835C26.0228 28.8488 25.9051 30.0492 27.647 30.0492C28.7769 30.0492 29.5066 29.5079 29.7655 28.378H28.5179C28.3532 28.9429 28.1884 29.2018 27.8353 29.2018C27.4352 29.2018 27.4116 28.8488 27.5528 28.1426L27.5999 27.8601Z" fill="#313843"/>
<path d="M33.6498 25.2709C33.5792 25.2473 33.5085 25.2473 33.4379 25.2473C32.9201 25.2709 32.4493 25.5533 32.1904 26.0006H32.1668L32.3081 25.365H30.9899L30.0248 29.9316H31.39L31.9314 27.3423C32.0491 26.7538 32.4728 26.5184 33.0142 26.5184C33.1319 26.5184 33.2731 26.5184 33.3908 26.542L33.6498 25.2709Z" fill="#313843"/>
<path d="M37.1091 26.542C37.2503 25.8829 37.0149 25.2473 35.7203 25.2473C34.6139 25.2473 33.8842 25.7181 33.6959 26.6126C33.4841 27.5777 34.0019 27.7895 35.0376 28.1661C35.0847 28.1897 35.1083 28.1897 35.1318 28.2132C35.3436 28.2838 35.4849 28.4957 35.4378 28.7311C35.3907 29.0135 35.1318 29.2018 34.8493 29.2018C34.6846 29.2254 34.5433 29.1312 34.4727 28.99C34.4492 28.8958 34.4492 28.8017 34.4492 28.7075C34.4492 28.6369 34.4727 28.5428 34.4962 28.4721H33.2722L33.2251 28.684C33.1545 28.9429 33.1781 29.2254 33.2722 29.4608C33.3899 29.7432 33.6724 29.908 34.0961 30.0022C34.2844 30.0257 34.4962 30.0492 34.6846 30.0492C35.8144 30.0492 36.5441 29.4843 36.756 28.5663C36.7795 28.4721 36.8031 28.3544 36.8031 28.2368C36.8266 27.8601 36.6383 27.507 36.3087 27.3423C35.7438 27.0127 34.9199 27.0363 35.0141 26.5184C35.0612 26.2595 35.2966 26.0712 35.5555 26.0947C35.838 26.0947 35.9792 26.2124 35.885 26.6126L35.8615 26.7067H37.0855L37.1091 26.6126V26.542Z" fill="#313843"/>
<path d="M39.4626 28.4722C39.4155 28.8253 39.1331 29.0842 38.78 29.1078C38.521 29.1078 38.4269 28.8959 38.4975 28.5193C38.521 28.3074 38.6387 28.1191 38.8035 28.025C38.9447 27.9308 39.1331 27.9073 39.6274 27.6954C39.5803 27.8602 39.5332 28.0956 39.4626 28.4722ZM40.004 25.2474H39.7921C39.3214 25.2238 38.8741 25.318 38.4504 25.5534C38.0738 25.7652 37.8149 26.1419 37.6736 26.7774H38.8977C38.9918 26.3772 39.1331 26.1419 39.5332 26.1419C39.8392 26.1419 39.9334 26.3302 39.8628 26.5891C39.7921 26.9422 39.698 27.0128 39.2508 27.1069C38.8035 27.1776 38.3563 27.3188 37.9326 27.4836C37.5089 27.7425 37.2264 28.1662 37.1558 28.637C36.9439 29.6256 37.3206 30.0258 38.0738 30.0258C38.5446 30.0258 38.9918 29.7904 39.2743 29.3902H39.2978C39.2743 29.555 39.2508 29.7433 39.2743 29.9081H40.5925C40.4748 29.6962 40.5689 29.2725 40.6395 28.9194L41.1339 26.5656C41.3222 25.6946 40.9691 25.2945 40.004 25.2474Z" fill="#313843"/>
<path d="M42.5709 23.9057L42.4061 24.6589L41.2762 29.9316H42.6415L43.7714 24.6589L43.9361 23.9057H42.5709Z" fill="#313843"/>
<path d="M41.017 21.6695C39.7459 18.9154 32.237 19.3862 24.2102 22.7052C23.8101 22.87 23.4099 23.0347 23.0098 23.223L23.3393 23.9763C23.7395 23.788 24.1396 23.6232 24.5633 23.4584C31.3661 20.6573 37.7686 20.2571 38.8514 22.5875C39.1339 23.176 39.0397 23.8821 38.616 24.6825H40.4285C41.1818 23.5291 41.4172 22.4933 41.017 21.6695Z" fill="#CA1F3D"/>
<path d="M28.4708 31.8618C21.6681 34.663 15.2655 35.0631 14.1827 32.7328C13.9002 32.1443 13.9944 31.4146 14.4181 30.6378H12.6056C11.8759 31.7677 11.6405 32.8034 12.0171 33.6273C13.2647 36.3578 20.7971 35.9105 28.8239 32.5915C30.2362 32.0031 31.6015 31.3675 32.9432 30.6378H31.1307C30.2833 31.0615 29.3888 31.4852 28.4708 31.8618Z" fill="#CA1F3D"/>
<path d="M21.0092 24.659C21.1033 24.7767 21.221 24.8944 21.3622 24.9415C21.7859 25.1298 22.2567 24.9415 22.445 24.5178C22.6333 24.0941 22.445 23.6233 22.0213 23.435C21.5976 23.2467 21.1268 23.435 20.9385 23.8587C20.8915 23.9528 20.8679 24.0705 20.8679 24.1882C20.8679 24.2117 20.8679 24.2117 20.8679 24.2353C20.8915 24.3765 20.9385 24.5178 21.0092 24.659Z" fill="#CA1F3D"/>
</svg>
