<svg width="58" height="47" viewBox="0 0 58 47" fill="none" xmlns="http://www.w3.org/2000/svg">
<path d="M56.2437 1.32921C55.8565 0.94094 55.3724 0.746826 54.7914 0.746826H21.6793C21.0984 0.746826 20.6143 0.94094 20.227 1.32921C19.8397 1.71749 19.6461 2.20283 19.6461 2.78524V8.99766H14.5147C13.9337 8.99766 13.256 9.0947 12.5783 9.3859C11.9005 9.67711 11.3196 9.96835 10.9323 10.4537L4.54227 16.8602C4.25181 17.1514 4.05817 17.4426 3.76771 17.8309C3.57407 18.2192 3.38044 18.5104 3.28362 18.8016C3.1868 19.0928 3.08998 19.4811 3.08998 19.9664C3.08998 20.4518 2.99316 20.84 2.99316 21.1313C2.99316 21.3254 2.99316 21.8107 2.99316 22.3931C2.99316 22.9755 2.99316 23.3638 2.99316 23.558V33.9443C2.41224 33.9443 1.92814 34.1384 1.54087 34.5267C1.15359 34.915 0.959961 35.4003 0.959961 35.9827C0.959961 36.274 0.959952 36.5652 1.05677 36.8564C1.15359 37.1476 1.25041 37.3417 1.54087 37.4388C1.73451 37.6329 1.92815 37.73 2.12179 37.8271C2.31543 37.9241 2.50907 38.0212 2.89635 38.0212C3.28362 38.0212 3.47726 38.1183 3.6709 38.1183C3.76772 38.1183 4.05817 38.1183 4.54227 38.1183C4.92955 38.1183 5.22001 38.1183 5.31683 38.1183H7.35002C7.35002 40.4479 8.12458 42.3893 9.7705 44.0394C11.4164 45.6896 13.3528 46.4662 15.5797 46.4662C17.9033 46.4662 19.8397 45.6896 21.3888 44.0394C23.0347 42.3893 23.8093 40.4479 23.8093 38.1183H36.2022C36.2022 40.4479 36.9767 42.3893 38.6226 44.0394C40.2686 45.6896 42.2049 46.4662 44.4318 46.4662C46.7555 46.4662 48.6918 45.6896 50.2409 44.0394C51.8869 42.3893 52.6614 40.4479 52.6614 38.1183C52.7582 38.1183 52.9519 38.1183 53.436 38.1183C53.8233 38.1183 54.1137 38.1183 54.3074 38.1183C54.4042 38.1183 54.6946 38.1182 55.0819 38.0212C55.4692 38.0212 55.6628 37.9241 55.8565 37.8271C56.0501 37.73 56.1469 37.6329 56.4374 37.4388C56.631 37.2446 56.8247 37.0505 56.9215 36.8564C57.0183 36.5652 57.0183 36.274 57.0183 35.9827V2.6882C56.8247 2.29993 56.631 1.81456 56.2437 1.32921ZM18.3874 41.2245C17.6129 42.001 16.6447 42.4864 15.4828 42.4864C14.321 42.4864 13.3528 42.0981 12.5783 41.2245C11.8037 40.4479 11.3196 39.3802 11.3196 38.3124C11.3196 37.1476 11.7069 36.1769 12.5783 35.4004C13.3528 34.6238 14.321 34.1384 15.4828 34.1384C16.6447 34.1384 17.6129 34.5267 18.3874 35.4004C19.162 36.1769 19.6461 37.2447 19.6461 38.3124C19.5493 39.3802 19.162 40.3509 18.3874 41.2245ZM19.5493 21.6166H7.15639V20.6459C7.15639 20.3547 7.25321 20.1606 7.44685 19.9664L13.7401 13.6569C13.9337 13.4628 14.1274 13.3658 14.4178 13.3658H19.5493V21.6166ZM47.3364 41.2245C46.5618 42.001 45.5936 42.4864 44.4318 42.4864C43.27 42.4864 42.3018 42.0981 41.5272 41.2245C40.7527 40.4479 40.2686 39.3802 40.2686 38.3124C40.2686 37.1476 40.6558 36.1769 41.5272 35.4004C42.3018 34.6238 43.27 34.1384 44.4318 34.1384C45.5936 34.1384 46.5618 34.5267 47.3364 35.4004C48.1109 36.1769 48.595 37.2447 48.595 38.3124C48.595 39.3802 48.1109 40.3509 47.3364 41.2245Z" fill="white"/>
</svg>
