<svg width="28" height="29" viewBox="0 0 28 29" fill="none" xmlns="http://www.w3.org/2000/svg">
<path d="M14.6903 3.96606L14.7551 3.68772L14.6903 3.96606C16.9681 4.49629 18.9531 5.91188 20.2116 7.89859C21.6393 10.1524 22.1119 12.8821 21.5253 15.487L19.8813 22.7876C19.8395 22.9733 19.7255 23.1352 19.5643 23.2372C19.4032 23.3393 19.2082 23.3733 19.0224 23.3317L11.7192 21.699C9.11336 21.1164 6.84733 19.5228 5.4196 17.269C4.16106 15.2823 3.72927 12.8828 4.22302 10.5969C4.7169 8.31025 6.09671 6.32447 8.06184 5.0796C10.027 3.83471 12.4119 3.43564 14.6903 3.96606Z" fill="#12741C" stroke="#02590B" stroke-width="0.571564"/>
<path d="M13.6518 8.0295C13.6007 8.03201 13.5537 8.05841 13.5244 8.1005L9.70592 13.5784C9.62915 13.6885 9.70791 13.8394 9.8421 13.8394H12.484L12.1669 17.8109C12.1544 17.9788 12.371 18.0564 12.4681 17.9189L16.2866 12.4413C16.3632 12.3314 16.2847 12.1806 16.1507 12.1803H13.5085L13.826 8.20847C13.8339 8.10846 13.752 8.02429 13.6518 8.0295Z" fill="white"/>
</svg>
