<svg width="36" height="37" viewBox="0 0 36 37" fill="none" xmlns="http://www.w3.org/2000/svg">
<path d="M5.34437 14.1506C5.97841 11.2151 7.74977 8.66582 10.2726 7.06768C12.7954 5.46952 15.8571 4.9572 18.782 5.63814L18.8652 5.28082L18.782 5.63815C21.7062 6.31885 24.2545 8.13614 25.8701 10.6866C27.703 13.58 28.3097 17.0843 27.5567 20.4284L25.4461 29.8008C25.3924 30.0392 25.246 30.247 25.0392 30.378C24.8323 30.5091 24.582 30.5526 24.3434 30.4993L14.9678 28.4032C11.6225 27.6553 8.71341 25.6096 6.88051 22.7162C5.26482 20.1657 4.71051 17.0853 5.34437 14.1506Z" fill="#12741C" stroke="#02590B" stroke-width="0.73376"/>
<path d="M17.4491 10.8543C17.3834 10.8575 17.3231 10.8914 17.2855 10.9454L12.3834 17.9778C12.2849 18.1191 12.386 18.3129 12.5582 18.3129H15.9498L15.5427 23.4115C15.5268 23.627 15.8048 23.7266 15.9294 23.5501L20.8315 16.5181C20.9299 16.3769 20.8291 16.1833 20.6571 16.183H17.2651L17.6726 11.084C17.6828 10.9557 17.5777 10.8476 17.4491 10.8543Z" fill="white"/>
</svg>
