<svg width="19" height="20" viewBox="0 0 19 20" fill="none" xmlns="http://www.w3.org/2000/svg">
<path d="M12.5394 11.5097L10.0698 9.65748V5.87327C10.0698 5.43251 9.7134 5.07612 9.27265 5.07612C8.8319 5.07612 8.4755 5.43251 8.4755 5.87327V10.0561C8.4755 10.307 8.59336 10.5438 8.79447 10.6939C8.7945 10.6939 8.79453 10.6939 8.79456 10.694L11.5829 12.7852C11.5829 12.7852 11.5829 12.7852 11.5829 12.7852C11.7262 12.8927 11.8939 12.9446 12.0605 12.9446C12.3029 12.9446 12.5424 12.8356 12.699 12.625C12.9636 12.2732 12.8917 11.7735 12.5394 11.5097Z" fill="#169F24" stroke="#169F24" stroke-width="0.2"/>
<path d="M9.27148 0.9C4.25335 0.9 0.171484 4.98187 0.171484 10C0.171484 15.0181 4.25335 19.1 9.27148 19.1C14.2896 19.1 18.3715 15.0181 18.3715 10C18.3715 4.98187 14.2896 0.9 9.27148 0.9ZM9.27148 17.5057C5.13345 17.5057 1.76575 14.138 1.76575 10C1.76575 5.86197 5.13345 2.49426 9.27148 2.49426C13.4102 2.49426 16.7772 5.86196 16.7772 10C16.7772 14.138 13.4095 17.5057 9.27148 17.5057Z" fill="#169F24" stroke="#169F24" stroke-width="0.2"/>
</svg>
