<svg width="37" height="38" viewBox="0 0 37 38" fill="none" xmlns="http://www.w3.org/2000/svg">
<path d="M5.52401 14.0857C6.1805 11.0462 8.01458 8.40668 10.6267 6.75195C13.2389 5.09719 16.409 4.56673 19.4375 5.27179L19.5236 4.90181L19.4375 5.27179C22.4653 5.9766 25.1037 7.85824 26.7766 10.4991C28.6744 13.4949 29.3026 17.1233 28.5229 20.5858L26.3376 30.2901C26.282 30.537 26.1304 30.7521 25.9163 30.8878C25.7021 31.0234 25.4428 31.0685 25.1958 31.0133L15.4882 28.843C12.0244 28.0686 9.01235 25.9504 7.11455 22.9546C5.44165 20.3138 4.86771 17.1243 5.52401 14.0857Z" fill="#12741C" stroke="#02590B" stroke-width="0.759744"/>
<path d="M18.0566 10.6729C17.9886 10.6762 17.9261 10.7113 17.8872 10.7673L12.8116 18.0487C12.7095 18.195 12.8142 18.3957 12.9926 18.3956H16.5042L16.0827 23.6747C16.0662 23.8979 16.3541 24.0011 16.4831 23.8183L21.5588 16.5372C21.6607 16.3911 21.5563 16.1906 21.3782 16.1903H17.8661L18.288 10.9108C18.2986 10.7778 18.1898 10.666 18.0566 10.6729Z" fill="white"/>
</svg>
