<svg width="393" height="397" viewBox="0 0 393 397" fill="none" xmlns="http://www.w3.org/2000/svg">
<path d="M246.054 109.099C247.364 103.035 251.022 97.77 256.233 94.469C261.444 91.1681 267.768 90.1099 273.809 91.5163L273.981 90.7783L273.809 91.5164C279.849 92.9223 285.113 96.6759 288.45 101.944C292.236 107.92 293.489 115.158 291.933 122.065L287.574 141.424C287.463 141.916 287.161 142.346 286.733 142.616C286.306 142.887 285.789 142.977 285.296 142.867L265.931 138.537C259.021 136.992 253.013 132.767 249.227 126.791C245.89 121.523 244.745 115.16 246.054 109.099Z" fill="#12741C" stroke="#02590B" stroke-width="1.51557"/>
<path d="M271.056 102.29C270.92 102.297 270.795 102.367 270.718 102.478L260.593 117.004C260.389 117.296 260.598 117.696 260.954 117.696H267.959L267.118 128.227C267.085 128.672 267.659 128.878 267.917 128.513L278.042 113.989C278.245 113.697 278.037 113.297 277.682 113.297H270.676L271.517 102.765C271.538 102.5 271.321 102.276 271.056 102.29Z" fill="white"/>
<path d="M211.331 128.975C212.588 123.155 216.1 118.1 221.103 114.931C226.105 111.762 232.176 110.746 237.976 112.096L238.141 111.387L237.976 112.096C243.774 113.446 248.827 117.049 252.031 122.107C255.666 127.844 256.869 134.793 255.375 141.424L251.19 160.008C251.084 160.481 250.794 160.893 250.383 161.153C249.973 161.413 249.477 161.499 249.004 161.393L230.413 157.237C223.779 155.754 218.011 151.697 214.377 145.96C211.173 140.903 210.074 134.795 211.331 128.975Z" fill="#12741C" stroke="#02590B" stroke-width="1.45498"/>
<path d="M235.332 122.439C235.202 122.446 235.082 122.513 235.008 122.62L225.288 136.564C225.092 136.845 225.293 137.229 225.634 137.229H232.359L231.552 147.339C231.521 147.766 232.072 147.964 232.319 147.614L242.039 133.67C242.235 133.39 242.035 133.006 241.694 133.005H234.968L235.776 122.895C235.796 122.64 235.587 122.426 235.332 122.439Z" fill="white"/>
<path d="M195.099 85.0802C196.827 77.079 201.655 70.1304 208.531 65.7744C215.408 61.4183 223.753 60.0219 231.725 61.8779L231.952 60.904L231.725 61.8779C239.696 63.7333 246.642 68.6867 251.045 75.6385C256.041 83.5249 257.695 93.0765 255.642 102.192L249.89 127.738C249.743 128.388 249.344 128.954 248.78 129.311C248.217 129.668 247.534 129.787 246.884 129.642L221.329 123.928L221.111 124.904L221.329 123.928C212.211 121.89 204.282 116.314 199.286 108.427C194.882 101.475 193.371 93.0792 195.099 85.0802Z" fill="#12741C" stroke="#02590B" stroke-width="2"/>
<path d="M228.092 76.0955C227.913 76.1043 227.748 76.1967 227.646 76.344L214.284 95.5121C214.016 95.8972 214.291 96.4255 214.761 96.4254H224.005L222.895 110.322C222.852 110.91 223.61 111.182 223.949 110.7L237.311 91.5332C237.579 91.1485 237.305 90.6209 236.836 90.62H227.59L228.701 76.7218C228.729 76.3718 228.442 76.0773 228.092 76.0955Z" fill="white"/>
<path d="M250.846 144.995C251.918 140.033 254.912 135.724 259.176 133.022C263.44 130.321 268.615 129.455 273.559 130.606L273.7 130.002L273.559 130.606C278.502 131.757 282.809 134.828 285.54 139.139C288.638 144.03 289.664 149.953 288.391 155.606L284.824 171.448C284.733 171.851 284.485 172.202 284.136 172.423C283.786 172.645 283.363 172.718 282.96 172.628L267.112 169.085C261.458 167.821 256.541 164.363 253.443 159.473C250.712 155.162 249.775 149.955 250.846 144.995Z" fill="#12741C" stroke="#02590B" stroke-width="1.24026"/>
<path d="M271.306 139.423C271.195 139.428 271.092 139.486 271.029 139.577L262.743 151.464C262.577 151.702 262.747 152.03 263.039 152.03H268.771L268.083 160.648C268.056 161.012 268.526 161.181 268.737 160.882L277.023 148.996C277.189 148.758 277.019 148.43 276.728 148.43H270.995L271.683 139.811C271.701 139.594 271.523 139.412 271.306 139.423Z" fill="white"/>
<path d="M211.846 185.995C212.918 181.033 215.912 176.724 220.176 174.022C224.44 171.321 229.615 170.455 234.559 171.606L234.7 171.002L234.559 171.606C239.502 172.757 243.809 175.828 246.54 180.139C249.638 185.03 250.664 190.953 249.391 196.606L245.824 212.448C245.733 212.851 245.485 213.202 245.136 213.423C244.786 213.645 244.363 213.718 243.96 213.628L228.112 210.085C222.458 208.821 217.541 205.363 214.443 200.473C211.712 196.162 210.775 190.955 211.846 185.995Z" fill="#12741C" stroke="#02590B" stroke-width="1.24026"/>
<path d="M232.306 180.423C232.195 180.428 232.092 180.486 232.029 180.577L223.743 192.464C223.577 192.702 223.747 193.03 224.039 193.03H229.771L229.083 201.648C229.056 202.012 229.526 202.181 229.737 201.882L238.023 189.996C238.189 189.758 238.019 189.43 237.728 189.43H231.995L232.683 180.811C232.701 180.594 232.523 180.412 232.306 180.423Z" fill="white"/>
<path d="M172.803 177.517C173.62 173.737 175.901 170.454 179.149 168.397C182.397 166.339 186.34 165.679 190.106 166.556L190.213 166.096L190.106 166.556C193.871 167.432 197.152 169.772 199.233 173.056C201.593 176.782 202.374 181.294 201.404 185.6L198.687 197.668C198.618 197.975 198.429 198.243 198.163 198.411C197.896 198.58 197.574 198.636 197.267 198.568L185.195 195.869L185.092 196.33L185.195 195.869C180.887 194.906 177.141 192.271 174.781 188.546C172.701 185.262 171.987 181.295 172.803 177.517Z" fill="#12741C" stroke="#02590B" stroke-width="0.9448"/>
<path d="M188.389 173.272C188.304 173.277 188.227 173.32 188.178 173.39L181.866 182.445C181.739 182.627 181.87 182.876 182.091 182.876H186.458L185.934 189.441C185.914 189.719 186.272 189.847 186.432 189.62L192.744 180.565C192.871 180.383 192.741 180.134 192.52 180.134H188.152L188.677 173.568C188.69 173.403 188.554 173.264 188.389 173.272Z" fill="white"/>
<path d="M66.3444 282.151C66.9784 279.215 68.7498 276.666 71.2726 275.068C73.7954 273.47 76.8571 272.957 79.782 273.638L79.8652 273.281L79.782 273.638C82.7062 274.319 85.2545 276.136 86.8701 278.687C88.703 281.58 89.3097 285.084 88.5567 288.428L86.4461 297.801C86.3924 298.039 86.246 298.247 86.0392 298.378C85.8323 298.509 85.582 298.553 85.3434 298.499L75.9678 296.403C72.6225 295.655 69.7134 293.61 67.8805 290.716C66.2648 288.166 65.7105 285.085 66.3444 282.151Z" fill="#12741C" stroke="#02590B" stroke-width="0.73376"/>
<path d="M78.4491 278.854C78.3834 278.858 78.3231 278.891 78.2855 278.945L73.3834 285.978C73.2849 286.119 73.386 286.313 73.5582 286.313H76.9498L76.5427 291.411C76.5268 291.627 76.8048 291.727 76.9294 291.55L81.8315 284.518C81.9299 284.377 81.8291 284.183 81.6571 284.183H78.2651L78.6726 279.084C78.6828 278.956 78.5777 278.848 78.4491 278.854Z" fill="white"/>
<path d="M75.8798 217.085C76.9557 212.103 79.9616 207.778 84.2426 205.066C88.5236 202.354 93.719 201.484 98.6824 202.64L98.8236 202.033L98.6824 202.64C103.645 203.795 107.969 206.879 110.71 211.207C113.821 216.117 114.85 222.063 113.572 227.738L109.991 243.642C109.9 244.047 109.651 244.399 109.3 244.622C108.949 244.844 108.525 244.918 108.12 244.827L92.21 241.27C86.5333 240.001 81.5968 236.53 78.4865 231.62C75.7448 227.292 74.8042 222.065 75.8798 217.085Z" fill="#12741C" stroke="#02590B" stroke-width="1.24514"/>
<path d="M96.4205 211.491C96.3091 211.497 96.2066 211.554 96.1429 211.646L87.8245 223.579C87.6572 223.819 87.8288 224.148 88.1211 224.148H93.8763L93.1855 232.8C93.1585 233.166 93.6302 233.335 93.8417 233.035L102.16 221.102C102.327 220.863 102.156 220.534 101.864 220.534H96.1083L96.7998 211.881C96.8172 211.663 96.6388 211.48 96.4205 211.491Z" fill="white"/>
<path d="M279.88 315.085C280.956 310.103 283.962 305.778 288.243 303.066C292.524 300.354 297.719 299.484 302.682 300.64L302.824 300.033L302.682 300.64C307.645 301.795 311.969 304.879 314.71 309.207C317.821 314.117 318.85 320.063 317.572 325.738L313.991 341.642C313.9 342.047 313.651 342.399 313.3 342.622C312.949 342.844 312.525 342.918 312.12 342.827L296.21 339.27C290.533 338.001 285.597 334.53 282.487 329.62C279.745 325.292 278.804 320.065 279.88 315.085Z" fill="#12741C" stroke="#02590B" stroke-width="1.24514"/>
<path d="M300.421 309.491C300.309 309.497 300.207 309.554 300.143 309.646L291.824 321.579C291.657 321.819 291.829 322.148 292.121 322.148H297.876L297.186 330.8C297.158 331.166 297.63 331.335 297.842 331.035L306.16 319.102C306.327 318.863 306.156 318.534 305.864 318.534H300.108L300.8 309.881C300.817 309.663 300.639 309.48 300.421 309.491Z" fill="white"/>
<path d="M217.837 357.607C218.658 353.808 220.95 350.508 224.216 348.44C227.481 346.371 231.443 345.708 235.229 346.59L235.337 346.127L235.229 346.59C239.014 347.471 242.312 349.823 244.403 353.124C246.775 356.868 247.56 361.404 246.586 365.732L243.854 377.862C243.785 378.171 243.595 378.44 243.327 378.61C243.06 378.779 242.736 378.836 242.427 378.767L230.292 376.054L230.189 376.517L230.292 376.054C225.963 375.086 222.198 372.438 219.825 368.693C217.734 365.392 217.017 361.405 217.837 357.607Z" fill="#12741C" stroke="#02590B" stroke-width="0.94968"/>
<path d="M233.504 353.341C233.419 353.345 233.341 353.389 233.292 353.459L226.948 362.561C226.82 362.744 226.951 362.994 227.174 362.994H231.563L231.036 369.593C231.016 369.872 231.376 370.001 231.537 369.773L237.882 360.671C238.009 360.489 237.879 360.238 237.656 360.238H233.266L233.793 353.638C233.806 353.472 233.67 353.332 233.504 353.341Z" fill="white"/>
<path d="M236.524 296.086C237.18 293.046 239.015 290.407 241.627 288.752C244.239 287.097 247.409 286.567 250.437 287.272L250.524 286.902L250.437 287.272C253.465 287.977 256.104 289.858 257.777 292.499C259.674 295.495 260.303 299.123 259.523 302.586L257.338 312.29C257.282 312.537 257.13 312.752 256.916 312.888C256.702 313.023 256.443 313.069 256.196 313.013L246.488 310.843C243.024 310.069 240.012 307.95 238.115 304.955C236.442 302.314 235.868 299.124 236.524 296.086Z" fill="#12741C" stroke="#02590B" stroke-width="0.759744"/>
<path d="M249.057 292.673C248.989 292.676 248.926 292.711 248.887 292.767L243.812 300.049C243.709 300.195 243.814 300.396 243.993 300.396H247.504L247.083 305.675C247.066 305.898 247.354 306.001 247.483 305.818L252.559 298.537C252.661 298.391 252.556 298.191 252.378 298.19H248.866L249.288 292.911C249.299 292.778 249.19 292.666 249.057 292.673Z" fill="white"/>
<path d="M191.127 255.104C191.598 252.924 192.914 251.03 194.787 249.843C196.661 248.656 198.935 248.276 201.108 248.782L201.169 248.516L201.108 248.782C203.28 249.287 205.172 250.637 206.372 252.531C207.734 254.68 208.184 257.283 207.625 259.767L206.057 266.728C206.017 266.905 205.909 267.059 205.755 267.157C205.601 267.254 205.415 267.286 205.238 267.247L198.275 265.69L198.215 265.956L198.275 265.69C195.79 265.134 193.629 263.615 192.268 261.466C191.068 259.572 190.656 257.284 191.127 255.104Z" fill="#12741C" stroke="#02590B" stroke-width="0.544985"/>
<path d="M200.117 252.656C200.069 252.658 200.024 252.684 199.996 252.724L196.355 257.947C196.282 258.052 196.357 258.196 196.485 258.196H199.004L198.701 261.983C198.69 262.143 198.896 262.217 198.989 262.086L202.63 256.863C202.703 256.758 202.628 256.614 202.5 256.614H199.981L200.283 252.827C200.291 252.731 200.213 252.651 200.117 252.656Z" fill="white"/>
<path d="M154.412 325.466C155.179 321.913 157.323 318.827 160.377 316.893C163.43 314.958 167.136 314.338 170.676 315.163L170.777 314.73L170.676 315.163C174.216 315.986 177.3 318.186 179.255 321.273C181.474 324.775 182.208 329.017 181.297 333.064L178.742 344.408C178.677 344.697 178.5 344.948 178.25 345.107C177.999 345.266 177.696 345.318 177.408 345.254L166.06 342.717C162.01 341.812 158.489 339.335 156.271 335.833C154.315 332.746 153.644 329.018 154.412 325.466Z" fill="#12741C" stroke="#02590B" stroke-width="0.888124"/>
<path d="M169.062 321.476C168.982 321.48 168.909 321.521 168.864 321.587L162.931 330.099C162.811 330.27 162.934 330.504 163.142 330.504H167.247L166.755 336.675C166.735 336.936 167.072 337.057 167.223 336.843L173.156 328.332C173.275 328.161 173.153 327.927 172.945 327.926H168.839L169.333 321.755C169.345 321.599 169.218 321.468 169.062 321.476Z" fill="white"/>
<path d="M44.6903 372.649L44.7551 372.371L44.6903 372.649C46.9681 373.179 48.9531 374.595 50.2116 376.582C51.6393 378.836 52.1119 381.565 51.5253 384.17L49.8813 391.471C49.8395 391.656 49.7255 391.818 49.5643 391.92C49.4032 392.022 49.2082 392.056 49.0224 392.015L41.7192 390.382C39.1134 389.8 36.8473 388.206 35.4196 385.952C34.1611 383.965 33.7293 381.566 34.223 379.28C34.7169 376.993 36.0967 375.008 38.0618 373.763C40.027 372.518 42.4119 372.119 44.6903 372.649Z" fill="#12741C" stroke="#02590B" stroke-width="0.571564"/>
<path d="M43.6518 376.713C43.6007 376.715 43.5537 376.742 43.5244 376.784L39.7059 382.261C39.6291 382.372 39.7079 382.523 39.8421 382.523H42.484L42.1669 386.494C42.1544 386.662 42.371 386.74 42.4681 386.602L46.2866 381.124C46.3632 381.014 46.2847 380.864 46.1507 380.863H43.5085L43.826 376.892C43.8339 376.792 43.752 376.707 43.6518 376.713Z" fill="white"/>
<path d="M29.6903 177.966L29.7551 177.688L29.6903 177.966C31.9681 178.496 33.9531 179.912 35.2116 181.899C36.6393 184.152 37.1119 186.882 36.5253 189.487L34.8813 196.788C34.8395 196.973 34.7255 197.135 34.5643 197.237C34.4032 197.339 34.2082 197.373 34.0224 197.332L26.7192 195.699C24.1134 195.116 21.8473 193.523 20.4196 191.269C19.1611 189.282 18.7293 186.883 19.223 184.597C19.7169 182.31 21.0967 180.324 23.0618 179.08C25.027 177.835 27.4119 177.436 29.6903 177.966Z" fill="#12741C" stroke="#02590B" stroke-width="0.571564"/>
<path d="M28.6518 182.029C28.6007 182.032 28.5537 182.058 28.5244 182.1L24.7059 187.578C24.6291 187.688 24.7079 187.839 24.8421 187.839H27.484L27.1669 191.811C27.1544 191.979 27.371 192.056 27.4681 191.919L31.2866 186.441C31.3632 186.331 31.2847 186.181 31.1507 186.18H28.5085L28.826 182.208C28.8339 182.108 28.752 182.024 28.6518 182.029Z" fill="white"/>
<path d="M85.5048 119.079C86.5338 114.315 89.4087 110.177 93.5032 107.584C97.5978 104.99 102.567 104.158 107.314 105.263L107.449 104.684L107.314 105.263C112.06 106.368 116.196 109.318 118.818 113.457C121.793 118.153 122.778 123.841 121.555 129.268L118.13 144.479C118.043 144.866 117.805 145.204 117.469 145.416C117.134 145.629 116.727 145.7 116.34 145.613L101.124 142.211C95.6941 140.997 90.9727 137.677 87.9979 132.981C85.3757 128.842 84.476 123.842 85.5048 119.079Z" fill="#12741C" stroke="#02590B" stroke-width="1.19089"/>
<path d="M105.151 113.73C105.044 113.735 104.946 113.79 104.885 113.878L96.929 125.292C96.7691 125.521 96.9331 125.835 97.2128 125.835H102.717L102.057 134.11C102.031 134.46 102.482 134.622 102.684 134.335L110.64 122.922C110.8 122.693 110.636 122.379 110.357 122.379H104.852L105.513 114.103C105.53 113.895 105.359 113.719 105.151 113.73Z" fill="white"/>
<path d="M103.575 30.312C104.988 23.7712 108.934 18.0909 114.556 14.5299C120.177 10.9689 126.999 9.82737 133.516 11.3446L133.702 10.5484L133.516 11.3446C140.032 12.8614 145.71 16.9106 149.31 22.5936C153.394 29.0406 154.746 36.8488 153.068 44.3002L148.365 65.1835C148.246 65.7148 147.919 66.1778 147.459 66.4698C146.998 66.7617 146.44 66.8588 145.908 66.74L125.018 62.0695C117.564 60.403 111.082 55.8447 106.998 49.3977C103.398 43.7147 102.162 36.851 103.575 30.312Z" fill="#12741C" stroke="#02590B" stroke-width="1.63495"/>
<path d="M130.545 22.9683C130.399 22.9755 130.265 23.051 130.181 23.1714L119.258 38.8409C119.038 39.1557 119.264 39.5875 119.648 39.5875H127.205L126.298 50.948C126.262 51.4283 126.881 51.6503 127.159 51.2569L138.082 35.5883C138.301 35.2738 138.077 34.8424 137.693 34.8417H130.135L131.043 23.4802C131.066 23.1941 130.832 22.9534 130.545 22.9683Z" fill="white"/>
<path d="M282.093 250.02C283.445 243.758 287.224 238.32 292.606 234.91C297.987 231.501 304.518 230.408 310.758 231.861L310.935 231.099L310.758 231.861C316.996 233.313 322.432 237.19 325.878 242.63C329.788 248.802 331.082 256.278 329.476 263.411L324.974 283.404C324.859 283.913 324.547 284.356 324.106 284.636C323.664 284.915 323.13 285.008 322.621 284.895L302.622 280.423L302.451 281.187L302.622 280.423C295.485 278.828 289.28 274.464 285.37 268.292C281.923 262.851 280.741 256.28 282.093 250.02Z" fill="#12741C" stroke="#02590B" stroke-width="1.56525"/>
<path d="M307.914 242.989C307.774 242.995 307.645 243.068 307.565 243.183L297.108 258.184C296.898 258.486 297.113 258.899 297.481 258.899H304.716L303.847 269.775C303.813 270.235 304.406 270.448 304.672 270.071L315.129 255.07C315.339 254.769 315.124 254.356 314.757 254.356H307.522L308.391 243.479C308.413 243.205 308.188 242.974 307.914 242.989Z" fill="white"/>
<path d="M341.046 288.167C341.893 284.247 344.258 280.843 347.627 278.708C350.996 276.574 355.085 275.89 358.991 276.799L359.102 276.322L358.991 276.799C362.896 277.708 366.299 280.135 368.457 283.541C370.905 287.405 371.715 292.085 370.709 296.551L367.891 309.067C367.819 309.386 367.624 309.663 367.347 309.838C367.071 310.013 366.737 310.071 366.418 310L353.898 307.201C349.43 306.202 345.545 303.47 343.097 299.606C340.94 296.2 340.2 292.086 341.046 288.167Z" fill="#12741C" stroke="#02590B" stroke-width="0.979895"/>
<path d="M357.211 283.766C357.123 283.77 357.043 283.815 356.993 283.887L350.446 293.279C350.315 293.467 350.45 293.726 350.68 293.726H355.209L354.665 300.535C354.644 300.823 355.015 300.956 355.182 300.72L361.728 291.329C361.86 291.141 361.725 290.882 361.495 290.882H356.965L357.51 284.072C357.523 283.901 357.383 283.757 357.211 283.766Z" fill="white"/>
<path d="M341.043 213.406C342.134 208.356 345.181 203.969 349.522 201.22C353.863 198.47 359.13 197.588 364.163 198.76L364.306 198.145L364.163 198.76C369.194 199.931 373.579 203.058 376.359 207.446C379.512 212.424 380.556 218.454 379.26 224.208L375.629 240.333C375.537 240.744 375.285 241.101 374.929 241.327C374.573 241.552 374.142 241.627 373.732 241.535L357.6 237.929C351.845 236.642 346.839 233.122 343.686 228.144C340.906 223.756 339.952 218.456 341.043 213.406Z" fill="#12741C" stroke="#02590B" stroke-width="1.26248"/>
<path d="M361.869 207.735C361.756 207.741 361.652 207.799 361.588 207.892L353.153 219.992C352.984 220.235 353.158 220.568 353.454 220.568H359.29L358.589 229.341C358.562 229.711 359.04 229.883 359.255 229.579L367.689 217.48C367.858 217.237 367.685 216.904 367.389 216.904H361.553L362.254 208.131C362.271 207.91 362.091 207.724 361.869 207.735Z" fill="white"/>
<path d="M9.17159 268.384C10.284 263.234 13.3917 258.761 17.8178 255.958C22.244 253.154 27.6156 252.255 32.7472 253.45L32.8931 252.823L32.7472 253.45C37.8776 254.644 42.3483 257.832 45.183 262.307C48.3987 267.383 49.4631 273.531 48.1419 279.398L44.439 295.842C44.3448 296.26 44.088 296.625 43.7251 296.854C43.3622 297.084 42.9229 297.161 42.5044 297.067L26.0554 293.39C20.1862 292.078 15.0824 288.488 11.8667 283.412C9.03204 278.937 8.05953 273.533 9.17159 268.384Z" fill="#12741C" stroke="#02590B" stroke-width="1.28734"/>
<path d="M30.4085 262.601C30.2933 262.607 30.1873 262.666 30.1215 262.761L21.521 275.099C21.3481 275.347 21.5255 275.687 21.8277 275.687H27.778L27.0638 284.632C27.0359 285.01 27.5236 285.185 27.7422 284.875L36.3427 272.538C36.5154 272.29 36.3386 271.951 36.0367 271.95H30.0857L30.8006 263.004C30.8186 262.779 30.6341 262.589 30.4085 262.601Z" fill="white"/>
<path d="M285.095 147.299C285.948 143.351 288.331 139.921 291.724 137.772C295.118 135.622 299.236 134.933 303.171 135.849L303.283 135.368L303.171 135.849C307.104 136.764 310.532 139.209 312.705 142.64C315.171 146.532 315.987 151.245 314.974 155.744L312.135 168.351C312.063 168.672 311.866 168.951 311.587 169.127C311.309 169.304 310.972 169.362 310.652 169.29L298.04 166.471L297.932 166.953L298.04 166.471C293.54 165.465 289.627 162.713 287.162 158.821C284.988 155.39 284.243 151.247 285.095 147.299Z" fill="#12741C" stroke="#02590B" stroke-width="0.987008"/>
<path d="M301.377 142.865C301.288 142.87 301.207 142.915 301.157 142.988L294.563 152.447C294.43 152.637 294.566 152.898 294.798 152.898H299.36L298.812 159.756C298.791 160.046 299.165 160.18 299.333 159.943L305.927 150.484C306.059 150.294 305.923 150.033 305.692 150.033H301.129L301.677 143.174C301.691 143.002 301.55 142.856 301.377 142.865Z" fill="white"/>
</svg>
