<svg width="12" height="12" viewBox="0 0 12 12" fill="none" xmlns="http://www.w3.org/2000/svg">
<path d="M10.5954 9.10254H4.90047C4.45116 9.10254 4.08691 9.46676 4.08691 9.9161V10.7297C4.08691 11.179 4.45116 11.5432 4.90047 11.5432H10.5954C11.0447 11.5432 11.4089 11.179 11.4089 10.7297V9.9161C11.4089 9.46676 11.0447 9.10254 10.5954 9.10254ZM7.13776 10.5263H5.10386C4.99144 10.5263 4.90047 10.4353 4.90047 10.3229C4.90047 10.2105 4.99144 10.1195 5.10386 10.1195H7.13776C7.25018 10.1195 7.34114 10.2105 7.34114 10.3229C7.34114 10.4353 7.25018 10.5263 7.13776 10.5263ZM8.96826 10.7297C8.74359 10.7297 8.56148 10.5475 8.56148 10.3229C8.56148 10.0982 8.74359 9.9161 8.96826 9.9161C9.19293 9.9161 9.37504 10.0982 9.37504 10.3229C9.37504 10.5475 9.19293 10.7297 8.96826 10.7297ZM10.1886 10.7297C9.96393 10.7297 9.78182 10.5475 9.78182 10.3229C9.78182 10.0982 9.96393 9.9161 10.1886 9.9161C10.4133 9.9161 10.5954 10.0982 10.5954 10.3229C10.5954 10.5475 10.4133 10.7297 10.1886 10.7297Z" fill="#12741C"/>
<path d="M10.5954 6.25513H4.90047C4.45116 6.25513 4.08691 6.61935 4.08691 7.06868V7.88224C4.08691 8.33155 4.45116 8.6958 4.90047 8.6958H10.5954C11.0447 8.6958 11.4089 8.33155 11.4089 7.88224V7.06868C11.4089 6.61935 11.0447 6.25513 10.5954 6.25513ZM7.13776 7.67885H5.10386C4.99144 7.67885 4.90047 7.58788 4.90047 7.47546C4.90047 7.36304 4.99144 7.27207 5.10386 7.27207H7.13776C7.25018 7.27207 7.34114 7.36304 7.34114 7.47546C7.34114 7.58788 7.25018 7.67885 7.13776 7.67885ZM8.96826 7.88224C8.74359 7.88224 8.56148 7.70013 8.56148 7.47546C8.56148 7.2508 8.74359 7.06868 8.96826 7.06868C9.19293 7.06868 9.37504 7.2508 9.37504 7.47546C9.37504 7.70013 9.19293 7.88224 8.96826 7.88224ZM10.1886 7.88224C9.96393 7.88224 9.78182 7.70013 9.78182 7.47546C9.78182 7.2508 9.96393 7.06868 10.1886 7.06868C10.4133 7.06868 10.5954 7.2508 10.5954 7.47546C10.5954 7.70013 10.4133 7.88224 10.1886 7.88224Z" fill="#12741C"/>
<path d="M10.4422 2.55549L9.67052 2.36255C9.63946 2.2691 9.60321 2.17919 9.55949 2.09232L9.9682 1.41112C10.0162 1.3311 10.0036 1.22866 9.93761 1.16267L9.58692 0.811977C9.52093 0.745985 9.41849 0.733372 9.33847 0.781389L8.65727 1.1901C8.5704 1.14641 8.48049 1.11013 8.38704 1.07907L8.19413 0.307377C8.17149 0.21683 8.09013 0.15332 7.9968 0.15332H7.50084C7.40751 0.15332 7.32618 0.21683 7.30353 0.307377L7.1106 1.07907C7.01714 1.11013 6.92724 1.14638 6.84037 1.1901L6.15917 0.781389C6.07915 0.733372 5.97671 0.745985 5.91072 0.811977L5.56002 1.16267C5.49403 1.22866 5.48142 1.3311 5.52944 1.41112L5.93815 2.09232C5.89443 2.17919 5.85818 2.2691 5.82712 2.36255L5.05542 2.55549C4.9649 2.5781 4.90137 2.65946 4.90137 2.75279V3.24875C4.90137 3.34208 4.9649 3.42344 5.05542 3.44606L5.82712 3.639C5.85818 3.73245 5.89443 3.82235 5.93815 3.90922L5.52944 4.59042C5.48142 4.67044 5.49403 4.77288 5.56002 4.83887L5.91072 5.18957C5.97671 5.25556 6.07915 5.26817 6.15917 5.22015L6.84037 4.81144C6.92724 4.85516 7.01714 4.89141 7.1106 4.92247L7.30353 5.69417C7.32618 5.78471 7.40751 5.84822 7.50084 5.84822H7.9968C8.09013 5.84822 8.17149 5.78471 8.19413 5.69417L8.38704 4.92247C8.48049 4.89141 8.5704 4.85514 8.65727 4.81144L9.33847 5.22015C9.41849 5.26817 9.52093 5.25556 9.58692 5.18957L9.93761 4.83887C10.0036 4.77288 10.0162 4.67044 9.9682 4.59042L9.55949 3.90922C9.60321 3.82235 9.63946 3.73245 9.67052 3.639L10.4422 3.44606C10.5328 3.42344 10.5963 3.34208 10.5963 3.24875V2.75279C10.5963 2.65946 10.5328 2.5781 10.4422 2.55549ZM7.74882 4.22111C7.07484 4.22111 6.52848 3.67475 6.52848 3.00077C6.52848 2.3268 7.07484 1.78044 7.74882 1.78044C8.4228 1.78044 8.96916 2.3268 8.96916 3.00077C8.96916 3.67475 8.4228 4.22111 7.74882 4.22111Z" fill="#12741C"/>
<path d="M7.74813 3.81437C8.19744 3.81437 8.56168 3.45013 8.56168 3.00081C8.56168 2.5515 8.19744 2.18726 7.74813 2.18726C7.29881 2.18726 6.93457 2.5515 6.93457 3.00081C6.93457 3.45013 7.29881 3.81437 7.74813 3.81437Z" fill="#12741C"/>
<path d="M3.44219 1.37366L2.74781 0.679273C2.67154 0.603002 2.56826 0.560099 2.4602 0.560099H1.53343C1.39229 0.318152 1.13276 0.15332 0.833089 0.15332C0.384599 0.15332 0.0195312 0.518388 0.0195312 0.966878C0.0195312 1.41537 0.384599 1.78044 0.833089 1.78044C1.13276 1.78044 1.39229 1.6156 1.53343 1.37366H2.29177L2.98616 2.06804C3.06243 2.14431 3.16571 2.18721 3.27376 2.18721H4.90088V1.37366H3.44219Z" fill="#12741C"/>
<path d="M0.833089 3.81437C1.13276 3.81437 1.39229 3.64954 1.53343 3.40759H4.4941V2.59403H1.53343C1.39229 2.35209 1.13276 2.18726 0.833089 2.18726C0.384599 2.18726 0.0195312 2.55232 0.0195312 3.00081C0.0195312 3.4493 0.384599 3.81437 0.833089 3.81437Z" fill="#12741C"/>
<path d="M2.98616 3.93338L2.29177 4.62777H1.53343C1.39229 4.38582 1.13276 4.22099 0.833089 4.22099C0.384599 4.22099 0.0195312 4.58606 0.0195312 5.03455C0.0195312 5.48303 0.384599 5.8481 0.833089 5.8481C1.13276 5.8481 1.39229 5.68327 1.53343 5.44132H2.4602C2.56826 5.44132 2.67154 5.39842 2.74781 5.32215L3.44219 4.62777H4.90088V3.81421H3.27376C3.16571 3.81421 3.06243 3.85711 2.98616 3.93338Z" fill="#12741C"/>
</svg>
