<svg width="15" height="14" viewBox="0 0 15 14" fill="none" xmlns="http://www.w3.org/2000/svg">
<path d="M3.96042 4.45834C3.97457 4.42578 3.99014 4.39464 4.00713 4.3635H3.38573V3.90771C3.38573 3.6869 3.20738 3.50854 2.98656 3.50854H1.27807C1.05726 3.50854 0.878906 3.6869 0.878906 3.90771V5.6162C0.878906 5.83702 1.05726 6.01537 1.27807 6.01537H2.98656C3.20738 6.01537 3.38573 5.83702 3.38573 5.6162V5.16042H4.00713C3.88398 4.95092 3.86416 4.69189 3.96042 4.45834Z" fill="#12741C"/>
<path d="M5.60804 2.39682V1.774C5.60804 1.62962 5.64767 1.49374 5.71562 1.37625L5.40421 1.06485C5.32919 0.989824 5.22869 0.94736 5.12253 0.94736H3.38573V0.491574C3.38573 0.270758 3.20738 0.0924072 2.98656 0.0924072H1.27807C1.05726 0.0924072 0.878906 0.270758 0.878906 0.491574V2.20006C0.878906 2.42088 1.05726 2.59923 1.27807 2.59923H2.98656C3.20738 2.59923 3.38573 2.42088 3.38573 2.20006V1.74569H4.95692L5.60804 2.39682Z" fill="#12741C"/>
<path d="M14.0894 3.51013H12.3809C12.1601 3.51013 11.9817 3.68848 11.9817 3.9093V4.36367H11.3604C11.3773 4.39339 11.3929 4.42595 11.4071 4.45851C11.5033 4.69206 11.4835 4.9511 11.3604 5.162H11.9817V5.61779C11.9817 5.8386 12.1601 6.01695 12.3809 6.01695H14.0894C14.3102 6.01695 14.4886 5.8386 14.4886 5.61779V3.90788C14.4886 3.68848 14.3102 3.51013 14.0894 3.51013Z" fill="#12741C"/>
<path d="M14.0885 0.0930176H12.38C12.1592 0.0930176 11.9808 0.271369 11.9808 0.492184V0.94797H10.2454C10.1393 0.94797 10.0388 0.990435 9.96375 1.06546L9.65234 1.37686C9.72029 1.49435 9.75992 1.63023 9.75992 1.77461V2.39743L10.411 1.7463H11.9822V2.20209C11.9822 2.4229 12.1606 2.60126 12.3814 2.60126H14.0885C14.3093 2.60126 14.4876 2.4229 14.4876 2.20209V0.492184C14.4876 0.271369 14.3093 0.0930176 14.0885 0.0930176Z" fill="#12741C"/>
<path fill-rule="evenodd" clip-rule="evenodd" d="M12.0414 10.1728L11.2544 9.4976C11.2742 9.34472 11.2841 9.18902 11.2841 9.03332C11.2841 8.87761 11.2742 8.72191 11.2544 8.56904L12.0414 7.89385C12.1872 7.76929 12.2226 7.55838 12.1278 7.39135L11.3266 6.00418C11.2304 5.83857 11.0294 5.76355 10.8496 5.82724L10.6684 5.89094L8.94152 7.61783C9.33077 7.96463 9.57707 8.46995 9.57707 9.03332C9.57707 10.0794 8.72919 10.9272 7.68315 10.9272C6.63711 10.9272 5.78923 10.0794 5.78923 9.03332C5.78923 8.46995 6.03553 7.96463 6.42478 7.61783L4.69931 5.89236L4.51813 5.82866C4.33694 5.76496 4.13595 5.83857 4.04111 6.00559L3.23994 7.39277C3.14369 7.55838 3.18049 7.76929 3.32629 7.89527L4.1133 8.57045C4.09348 8.72333 4.08357 8.87903 4.08357 9.03473C4.08357 9.19044 4.09348 9.34614 4.1133 9.49901L3.32629 10.1742C3.18049 10.2988 3.14511 10.5097 3.23994 10.6767L4.04111 12.0639C4.13736 12.2295 4.33836 12.3045 4.51813 12.2408L5.49623 11.8968C5.74394 12.0865 6.01288 12.2422 6.30022 12.3625L6.49131 13.3803C6.5267 13.5685 6.69089 13.7058 6.8834 13.7058H8.48431C8.67682 13.7058 8.84102 13.5685 8.8764 13.3803L9.06749 12.3625C9.35484 12.2436 9.62378 12.0879 9.87149 11.8968L10.8496 12.2408C11.0308 12.3045 11.2318 12.2309 11.3266 12.0639L12.1278 10.6767C12.2226 10.5083 12.1872 10.2973 12.0414 10.1728Z" fill="#12741C"/>
<path d="M7.68322 8.15007C7.58131 8.15007 7.47939 8.11185 7.40154 8.03258L4.41204 5.0445C4.29739 4.92984 4.26341 4.75857 4.3257 4.60994C4.38798 4.46132 4.53236 4.36365 4.69372 4.36365H6.00304V1.77331C6.00304 1.5525 6.1814 1.37415 6.40221 1.37415H8.96424C9.18505 1.37415 9.3634 1.5525 9.3634 1.77331V4.36365H10.6727C10.8341 4.36365 10.9799 4.46132 11.0408 4.60994C11.103 4.75857 11.0676 4.92984 10.9544 5.0445L7.96491 8.034C7.88705 8.11185 7.78514 8.15007 7.68322 8.15007Z" fill="#12741C"/>
</svg>
