<svg width="53" height="52" viewBox="0 0 53 52" fill="none" xmlns="http://www.w3.org/2000/svg">
<rect x="0.771484" y="0.5" width="51" height="51" rx="25.5" fill="#FAFAFA" stroke="#F4F6F8"/>
<path d="M17.9232 36.067L18.0635 35.2992H17.3122L17.6258 33.575H16.7227L16.2715 36.067H17.9232Z" fill="#3776C4"/>
<path d="M18.8631 36.067L18.9966 35.735H19.5845L19.6011 36.067H20.4712L20.1523 33.575H19.1854L17.9093 36.067H18.8631ZM19.411 34.7327C19.4298 34.6837 19.4498 34.6281 19.471 34.5664C19.4921 34.5045 19.5127 34.4402 19.5326 34.3731C19.5315 34.3948 19.5306 34.4178 19.5302 34.4422C19.5298 34.4666 19.5293 34.5016 19.5293 34.5468C19.5293 34.615 19.5322 34.7047 19.538 34.8158C19.5388 34.8432 19.54 34.8642 19.541 34.8786L19.551 35.1461H19.2387L19.411 34.7327Z" fill="#3776C4"/>
<path d="M21.4898 36.0671L21.6153 35.3691L21.6183 35.3487C21.664 35.0864 21.689 34.8971 21.6935 34.7799L22.1462 36.067H23.0413L23.4939 33.575H22.607L22.3716 34.8718C22.347 34.746 22.3038 34.5967 22.2413 34.4244C22.2324 34.3982 22.2258 34.379 22.2214 34.3665L21.9408 33.575H21.0439L20.5931 36.067L21.4898 36.0671Z" fill="#3776C4"/>
<path d="M24.2636 36.0671C24.5663 36.0671 24.8176 36.0411 25.0168 35.9893C25.2161 35.9379 25.3914 35.854 25.5427 35.7384C25.7041 35.616 25.8295 35.463 25.9186 35.2798C26.0075 35.0966 26.052 34.8997 26.052 34.69C26.052 34.4664 26.0013 34.2699 25.8991 34.1C25.7976 33.9306 25.6502 33.7969 25.4576 33.6993C25.3697 33.6573 25.2571 33.6261 25.1195 33.6058C24.9821 33.5852 24.811 33.575 24.6057 33.575H23.9447L23.4939 36.067L24.2636 36.0671ZM24.6944 34.3241H24.7112C24.8482 34.3241 24.9563 34.3616 25.0359 34.437C25.1155 34.5125 25.1554 34.6155 25.1554 34.7461C25.1554 34.9231 25.0997 35.0625 24.9885 35.1646C24.8772 35.2667 24.723 35.318 24.5257 35.318H24.5158L24.6944 34.3241Z" fill="#3776C4"/>
<path d="M26.5265 36.0113C26.7113 36.0881 26.8995 36.1261 27.0912 36.1261C27.3939 36.1261 27.6445 36.0394 27.8433 35.865C28.0421 35.6906 28.1414 35.4733 28.1414 35.2121C28.1414 35.0466 28.102 34.9099 28.0228 34.8022C27.9437 34.6942 27.809 34.5966 27.6188 34.5092C27.5962 34.499 27.5656 34.4855 27.5269 34.4683C27.3799 34.4048 27.3064 34.3454 27.3064 34.2898C27.3064 34.2566 27.3188 34.2304 27.344 34.2105C27.3689 34.1906 27.4021 34.1807 27.4433 34.1807C27.5114 34.1807 27.5856 34.2021 27.6663 34.2453C27.7469 34.2886 27.8369 34.3544 27.9358 34.4429L28.2784 33.8317C28.1556 33.7273 28.0213 33.6489 27.8748 33.5968C27.7285 33.5446 27.5688 33.5186 27.395 33.5186C27.0943 33.5186 26.8512 33.6006 26.6652 33.7644C26.4793 33.9286 26.3862 34.1405 26.3862 34.4C26.3862 34.5649 26.4339 34.7054 26.5289 34.8215C26.6242 34.9379 26.7765 35.0402 26.9857 35.129C27.0014 35.1358 27.0231 35.1448 27.0511 35.1561C27.1778 35.208 27.2414 35.257 27.2414 35.3024C27.2414 35.332 27.2266 35.3558 27.1978 35.3738C27.1687 35.3919 27.1302 35.4009 27.081 35.4009C26.9708 35.4009 26.86 35.3686 26.7494 35.3033C26.6386 35.238 26.5349 35.1441 26.4381 35.0216L26.0004 35.6733C26.1664 35.8222 26.3417 35.9347 26.5265 36.0113" fill="#3776C4"/>
<path d="M29.4042 36.067L29.7198 34.3306H30.2257L30.3627 33.575H28.4406L28.3003 34.3306H28.8231L28.5091 36.067H29.4042Z" fill="#3776C4"/>
<path d="M30.8948 36.067L31.0282 35.735H31.6164L31.633 36.067H32.5028L32.1837 33.575H31.217L29.9412 36.067H30.8948ZM31.4426 34.7327C31.4617 34.6837 31.4816 34.6281 31.5027 34.5664C31.524 34.5045 31.5443 34.4402 31.5645 34.3731C31.5634 34.3948 31.5625 34.4178 31.5619 34.4422C31.5614 34.4666 31.5612 34.5016 31.5612 34.5468C31.5612 34.615 31.5641 34.7047 31.5696 34.8158C31.5705 34.8432 31.5716 34.8642 31.5727 34.8786L31.5826 35.1461H31.2706L31.4426 34.7327Z" fill="#3776C4"/>
<path d="M33.5071 36.067L33.6724 35.1612L33.9379 36.067H34.8447L34.4924 35.1088C34.6838 35.0668 34.8321 34.9773 34.9372 34.8405C35.0424 34.704 35.0952 34.5317 35.0952 34.3241C35.0952 34.079 35.0039 33.8926 34.8212 33.7657C34.6389 33.6385 34.3711 33.575 34.0181 33.575H33.0765L32.6252 36.067H33.5071ZM33.8461 34.1949H33.8978C34.0079 34.1949 34.0884 34.2114 34.1389 34.2448C34.1896 34.2782 34.2151 34.3311 34.2151 34.4038C34.2151 34.4983 34.1834 34.5676 34.1198 34.6123C34.0564 34.6571 33.9574 34.6799 33.8229 34.6799H33.7575L33.8461 34.1949Z" fill="#3776C4"/>
<path d="M16.6849 21.7876L21.8526 25.9112L19.8095 32.6484L25.9784 28.7283L31.867 32.8627L29.5835 25.9155L35.2713 21.7876H28.4617L27.3919 18.863L25.9784 15L24.7323 18.4051L24.2895 19.6156L23.4946 21.7876H16.6849Z" fill="#3776C4"/>
<path d="M24.2893 19.6151L24.1202 20.0769C21.1813 20.9779 19.3022 22.7988 19.3022 22.7988C20.9145 20.7017 24.2893 19.6151 24.2893 19.6151Z" fill="#110F0E"/>
<path d="M27.3821 18.4744L27.5798 19.0091C27.5798 19.0091 28.4463 18.7857 29.8349 18.9574C30.8431 19.0818 32.1743 19.387 32.8653 19.9441C33.7704 20.6732 33.8229 21.1083 33.9173 21.5312C34.191 22.7539 32.9493 24.1481 32.9493 24.1481C33.623 23.5475 34.6963 22.1104 34.4224 21.0378C34.1478 19.9605 33.0967 19.0003 31.0343 18.5282C29.2663 18.1234 27.3821 18.4744 27.3821 18.4744" fill="#110F0E"/>
<path d="M16.9676 26.6641C17.3282 27.848 18.6903 29.3997 22.1041 29.4166C23.4384 29.423 25.4711 29.3308 28.1225 28.4514C31.174 27.4392 33.4045 25.1053 33.4045 25.1053C30.4375 27.4862 28.2278 28.537 23.8506 28.923C22.8004 29.0159 18.2809 29.0353 17.3683 26.3375C16.9676 25.1534 17.2881 24.2552 18.1695 23.0302C16.6873 24.4595 16.6332 25.5661 16.9676 26.6641Z" fill="#110F0E"/>
<path d="M32.2857 32.4466V32.3141H32.3723C32.4163 32.3141 32.4635 32.324 32.4635 32.3769C32.4635 32.4428 32.4154 32.4466 32.3616 32.4466L32.2857 32.4466ZM32.2857 32.5014H32.3587L32.4692 32.686H32.5403L32.4212 32.4985C32.4827 32.4906 32.5299 32.4574 32.5299 32.3809C32.5299 32.2965 32.4808 32.2592 32.382 32.2592H32.2223V32.686H32.2857V32.5014ZM32.3627 32.842C32.5605 32.842 32.7285 32.686 32.7285 32.4718C32.7285 32.2592 32.5605 32.1037 32.3627 32.1037C32.1623 32.1037 31.9932 32.2592 31.9932 32.4718C31.9932 32.686 32.1623 32.842 32.3627 32.842ZM32.0658 32.4718C32.0658 32.2965 32.196 32.1649 32.3627 32.1649C32.5268 32.1649 32.6561 32.2965 32.6561 32.4718C32.6561 32.6499 32.5268 32.7806 32.3627 32.7806C32.196 32.7806 32.0658 32.6499 32.0658 32.4718Z" fill="#100F0D"/>
</svg>
