<svg width="28" height="29" viewBox="0 0 28 29" fill="none" xmlns="http://www.w3.org/2000/svg">
<path d="M14.6903 4.64918L14.7551 4.37084L14.6903 4.64918C16.9681 5.17941 18.9531 6.595 20.2116 8.58171C21.6393 10.8355 22.1119 13.5652 21.5253 16.1701L19.8813 23.4707C19.8395 23.6565 19.7255 23.8183 19.5643 23.9204C19.4032 24.0224 19.2082 24.0564 19.0224 24.0148L11.7192 22.3821C9.11336 21.7995 6.84733 20.2059 5.4196 17.9521C4.16106 15.9654 3.72927 13.5659 4.22302 11.28C4.7169 8.99337 6.09671 7.00759 8.06184 5.76272C10.027 4.51783 12.4119 4.11876 14.6903 4.64918Z" fill="#12741C" stroke="#02590B" stroke-width="0.571564"/>
<path d="M13.6518 8.71259C13.6007 8.7151 13.5537 8.7415 13.5244 8.78359L9.70592 14.2615C9.62915 14.3716 9.70791 14.5225 9.8421 14.5225H12.484L12.1669 18.494C12.1544 18.6619 12.371 18.7395 12.4681 18.602L16.2866 13.1244C16.3632 13.0145 16.2847 12.8637 16.1507 12.8634H13.5085L13.826 8.89156C13.8339 8.79155 13.752 8.70738 13.6518 8.71259Z" fill="white"/>
</svg>
