<svg width="78" height="81" viewBox="0 0 78 81" fill="none" xmlns="http://www.w3.org/2000/svg">
<path d="M11.5748 30.312C12.9876 23.7712 16.9345 18.0909 22.5558 14.5299C28.1771 10.9689 34.9991 9.82737 41.5164 11.3446L41.7017 10.5484L41.5164 11.3446C48.0321 12.8614 53.71 16.9106 57.3101 22.5936C61.3941 29.0406 62.746 36.8488 61.068 44.3002L56.3653 65.1835C56.2456 65.7148 55.9195 66.1778 55.4586 66.4698C54.9977 66.7617 54.4398 66.8588 53.9083 66.74L33.0176 62.0695C25.5636 60.403 19.0817 55.8447 14.9976 49.3977C11.3976 43.7147 10.1625 36.851 11.5748 30.312Z" fill="#12741C" stroke="#02590B" stroke-width="1.63495"/>
<path d="M38.5454 22.9683C38.399 22.9755 38.2645 23.051 38.1809 23.1714L27.2581 38.8409C27.0385 39.1557 27.2638 39.5875 27.6476 39.5875H35.2046L34.2976 50.948C34.2621 51.4283 34.8815 51.6503 35.1592 51.2569L46.0819 35.5883C46.3013 35.2738 46.0767 34.8424 45.6933 34.8417H38.1354L39.0434 23.4802C39.0662 23.1941 38.832 22.9534 38.5454 22.9683Z" fill="white"/>
</svg>
