<svg width="163" height="30" viewBox="0 0 163 30" fill="none" xmlns="http://www.w3.org/2000/svg">
<path d="M26.0118 16.3276C23.9211 18.1034 24.8003 20.9074 25.6587 22.4963C26.7353 24.4799 25.3611 27.405 23.4814 29.0597C28.0506 26.4635 31.1695 21.6171 31.3426 16.0264C29.9233 15.0987 27.5418 15.026 26.0118 16.3276L26.0118 16.3276Z" fill="#23B2A9"/>
<path d="M15.1144 20.7967C12.1166 18.2558 9.49282 19.4847 7.70318 21.586C5.88933 23.7149 8.38853 24.3519 11.8016 25.1273C14.377 25.7123 14.0585 29.2121 14.2974 29.9979C17.3748 25.0304 16.4886 21.9598 15.1144 20.7967V20.7967Z" fill="#71BE45"/>
<path d="M19.9333 5.31227C25.0426 9.27935 20.5495 11.3044 20.5495 11.3044C23.4503 13.7691 26.3857 9.04743 29.5357 11.7441C30.3699 12.4572 30.903 13.3226 31.2976 14.2503C30.768 7.80466 26.3026 2.47021 20.3072 0.663208C17.9534 1.69826 17.0153 3.04837 19.9333 5.31227Z" fill="#2CB5E5"/>
<path d="M7.58916 18.9929C6.42958 15.8255 7.90417 14.3646 12.9373 10.7818C19.2961 6.2539 9.35108 7.86011 13.3976 3.78224C14.8308 2.33871 16.8454 1.21712 18.3338 0.206317C17.5134 0.0747699 16.6722 0.0020752 15.8138 0.0020752C7.22919 0.0020752 0.271484 6.96004 0.271484 15.5416C0.271484 15.8877 0.285326 16.227 0.309571 16.5662C2.65306 18.7401 5.55724 20.1491 7.58916 18.9929V18.9929Z" fill="#1B4D4A"/>
<path d="M39.4177 6.92523H45.9149C48.57 6.92523 50.9238 6.92523 52.343 8.96073C52.9591 9.87459 53.2568 11.1797 53.2568 12.277C53.2568 13.1702 53.0734 14.039 52.7064 14.7937C51.3114 17.6773 48.3379 17.743 46.1398 17.7915H43.4641V23.0775H39.4141V6.92527L39.4177 6.92523ZM43.4676 9.89879V14.7936H45.8907C47.3999 14.7936 49.2311 14.7486 49.2311 12.2527C49.2311 9.89531 47.1957 9.89531 46.0291 9.89531H43.4675L43.4676 9.89879Z" fill="#1B4D4A"/>
<path d="M55.4688 6.90147H62.7518C64.448 6.92572 66.5526 6.94648 68.0445 8.5492C68.7992 9.39729 69.3288 10.6782 69.3288 12.1459C69.3288 15.3999 67.1065 16.1995 66.0057 16.6149L69.7407 23.0745H65.2753L62.0699 17.3004H59.5257V23.0745H55.4723V6.90143L55.4688 6.90147ZM59.5256 9.927V14.3026H62.8695C63.4407 14.2783 65.296 14.2334 65.296 12.0802C65.296 10.017 63.8075 9.95121 62.9595 9.92696H59.5256V9.927Z" fill="#1B4D4A"/>
<path d="M79.2222 23.5344C74.0991 23.5344 71.1914 19.5984 71.1914 14.9321C71.1914 10.5634 73.9606 6.42322 79.1529 6.42322C80.1118 6.42322 81.1191 6.56169 82.1022 6.9044C87.0418 8.62138 87.3637 13.9974 87.3637 15.0947C87.3637 17.8848 86.0829 20.4015 84.3002 21.8416C82.7218 23.1432 80.8906 23.5344 79.2222 23.5344ZM82.0121 10.9753C81.3268 10.2449 80.2744 9.7845 79.1771 9.7845C76.7298 9.7845 75.1721 11.9342 75.1721 14.8628C75.1721 18.7053 77.3217 20.1246 79.2221 20.1246C81.1433 20.1246 83.2029 18.7537 83.3171 15.3682C83.3829 13.672 82.926 11.9584 82.0121 10.9753Z" fill="#1B4D4A"/>
<path d="M109.252 23.4861C104.333 23.4861 101.176 20.0314 101.176 14.998C101.176 9.00586 105.316 6.50995 109.321 6.50995C113.848 6.50995 117.442 9.57701 117.442 14.8353C117.442 19.6886 114.603 23.4861 109.252 23.4861ZM109.321 8.25122C105.25 8.25122 103.509 11.3841 103.509 15.0223C103.509 18.4078 105.177 21.7934 109.342 21.7934C113.689 21.7934 115.129 18.1794 115.105 14.8631C115.084 10.9514 113.049 8.25131 109.321 8.25131V8.25122Z" fill="#1B4D4A"/>
<path d="M140.145 6.90143V23.0745H137.975V6.90143H139.062H140.145Z" fill="#1B4D4A"/>
<path d="M149.211 15.6492C146.878 15.1681 143.448 14.3926 143.448 11.0522C143.448 9.45283 144.317 8.44551 144.933 7.91932C146.373 6.68351 148.135 6.54504 149.256 6.54504C150.399 6.54504 152.14 6.65927 153.604 7.73589C155.203 8.90248 155.525 10.5502 155.684 11.5334L153.511 11.6718C153.486 11.1699 153.421 9.88908 152.206 8.99594C151.382 8.40054 150.354 8.21706 149.322 8.21706C147.377 8.21706 145.663 9.01671 145.663 10.7579C145.663 12.5407 147.449 12.9527 148.841 13.2746L150.627 13.7315C151.863 14.0292 152.524 14.1677 153.164 14.4412C155.591 15.4485 155.954 17.3905 155.954 18.4671C155.954 19.9764 155.338 21.3957 153.895 22.3788C152.341 23.4311 150.489 23.5212 149.502 23.5212C148.038 23.5212 143.029 23.2927 142.662 17.9617L144.971 17.664C144.995 18.2837 145.061 19.6995 146.276 20.7761C147.19 21.5757 148.405 21.8527 149.592 21.8527C151.88 21.8527 153.618 20.7311 153.618 18.6264C153.618 16.7502 152.129 16.2482 150.554 15.9263L149.211 15.6493V15.6492Z" fill="#1B4D4A"/>
<path d="M119.76 14.9911C119.76 9.88509 123.516 6.52032 128.182 6.52032C131.103 6.52032 133.118 7.7977 134.541 9.56314L132.921 10.5947C131.889 9.26888 130.148 8.33425 128.182 8.33425C124.599 8.33425 121.871 11.0586 121.871 14.9876C121.871 18.8682 124.596 21.641 128.182 21.641C130.144 21.641 131.768 20.7064 132.602 19.8721V16.3516H127.967V14.5342H134.617V20.6371C133.094 22.3541 130.861 23.4861 128.185 23.4861C123.519 23.4861 119.76 20.0764 119.76 14.9911L119.76 14.9911Z" fill="#1B4D4A"/>
<path d="M91.9748 21.1532H100.421V23.0745H89.8252V6.90143H91.9748V21.1532Z" fill="#1B4D4A"/>
<path d="M160.274 10.5745C159.177 10.5711 158.288 9.67452 158.291 8.57714C158.294 7.47976 159.191 6.59014 160.288 6.59358C161.386 6.59702 162.275 7.4936 162.272 8.59098C162.268 9.68836 161.372 10.578 160.274 10.5745ZM160.285 6.90168C159.357 6.89824 158.603 7.64939 158.599 8.57714C158.596 9.50489 159.347 10.2595 160.275 10.263C161.202 10.2664 161.957 9.51525 161.96 8.5875C161.964 7.66323 161.213 6.90512 160.285 6.90168Z" fill="#1B4D4A"/>
<path d="M159.52 7.44482H160.226C160.52 7.44826 160.721 7.44826 160.915 7.60406C161.053 7.71828 161.16 7.89483 161.16 8.15101C161.16 8.57677 160.849 8.7222 160.724 8.76025L161.219 9.66375H160.745L160.305 8.83987H159.935V9.66375H159.523V7.44482H159.52ZM159.931 7.80486V8.50064H160.077C160.219 8.50064 160.271 8.4972 160.35 8.49367C160.44 8.49024 160.741 8.47639 160.741 8.15097C160.741 8.10247 160.738 7.9398 160.565 7.85327C160.475 7.80826 160.371 7.80477 160.125 7.80477H159.931V7.80486Z" fill="#1B4D4A"/>
</svg>
