<svg width="37" height="7" viewBox="0 0 37 7" fill="none" xmlns="http://www.w3.org/2000/svg">
<path d="M7.88753 1.79055C7.92131 1.36833 7.70176 1.12345 7.27954 1.12345C6.8151 1.12345 6.46044 1.52878 6.31688 2.30566C6.21555 2.87987 6.24933 3.41187 6.92488 3.41187C7.35554 3.41187 7.60887 3.11631 7.72709 2.72787H9.01063C8.70663 3.77497 7.84531 4.4083 6.77288 4.4083C5.43023 4.4083 4.76312 3.58075 4.99956 2.26343C5.23601 0.946116 6.26622 0.127014 7.4062 0.127014C8.64752 0.127014 9.23018 0.743452 9.15418 1.78211L7.88753 1.79055Z" fill="#F26523"/>
<path d="M3.64196 1.33421C3.6504 1.21599 3.59129 1.10621 3.48996 1.0471C3.38863 0.996433 3.27041 0.962656 3.15219 0.9711C2.84819 0.9711 2.69619 1.05554 2.67086 1.20754C2.56108 1.84087 5.04372 1.44398 4.7735 2.97241C4.60462 3.94351 3.70951 4.41639 2.55264 4.41639C1.44643 4.41639 0.838436 3.76618 0.939768 3.01463H2.25709C2.24864 3.14974 2.3162 3.27641 2.42597 3.34396C2.53575 3.41152 2.66242 3.45374 2.79753 3.44529C3.14374 3.44529 3.38863 3.33552 3.42241 3.13285C3.54063 2.50797 1.04954 2.94708 1.32821 1.34265C1.48865 0.44755 2.33309 0 3.38863 0C4.55395 0 4.98461 0.591104 4.95083 1.33421H3.64196Z" fill="#F26523"/>
<path d="M9.66227 0.211609H10.9796L10.7516 1.57115H11.976L12.204 0.211609H13.5382L12.8373 4.31556H11.5116L11.7734 2.73647H10.532L10.2449 4.33245H8.92761L9.66227 0.211609Z" fill="#F26523"/>
<path d="M13.2932 4.31491L14.0025 0.202515H15.2439L16.3416 2.21227L16.6625 0.202515H17.9038L17.1776 4.32336H15.9616L14.8639 2.53315L14.5599 4.32336L13.2932 4.31491Z" fill="#F26523"/>
<path d="M18.4019 0.202515H21.6868L21.5263 1.15673H19.5504L19.4575 1.75627H20.7663L20.6228 2.70204H19.2886L19.1873 3.35226H21.2308L21.0619 4.30647H17.701L18.4019 0.202515Z" fill="#F26523"/>
<path d="M28.1551 0.202515H31.44L31.2795 1.15673H29.3035L29.2191 1.75627H30.5195L30.376 2.70204H29.0418L28.9404 3.35226H30.984L30.8151 4.30647H27.4542L28.1551 0.202515Z" fill="#F26523"/>
<path d="M22.142 0.211609H23.4594L22.7416 4.31556H21.4412L22.142 0.211609Z" fill="#F26523"/>
<path d="M23.9412 0.202528H25.8749C25.8749 0.202528 27.2936 0.185639 27.4962 1.35096C27.6989 2.51628 26.922 3.64782 26.4998 3.91804C26.0776 4.18826 25.7652 4.32337 24.8194 4.32337H23.215L23.9412 0.202528ZM24.7181 3.29316C25.7567 3.29316 25.8749 3.00605 26.0185 2.82872C26.1958 2.60917 26.3731 1.87451 26.2212 1.5114C26.0354 1.04696 25.1065 1.17363 25.1065 1.17363L24.7181 3.29316Z" fill="#F26523"/>
<path d="M31.8018 0.201993H33.9889C33.9889 0.201993 35.1205 0.117549 35.2809 0.860652C35.4413 1.60375 35.1289 2.16953 34.4618 2.38908C34.4618 2.38908 35.1205 2.49886 35.0191 3.08996C34.9178 3.68106 34.7996 4.30595 34.7996 4.30595H33.5076L33.6596 3.36018C33.6596 3.36018 33.8031 2.87041 33.1698 2.87041H32.68L32.4267 4.2975H31.101L31.8018 0.201993ZM32.832 1.98375C32.832 1.98375 33.5076 2.01753 33.7694 1.9162C34.0311 1.81486 34.1663 1.44331 33.9298 1.25754C33.7609 1.12243 32.9756 1.1562 32.9756 1.1562L32.832 1.98375Z" fill="#F26523"/>
<path d="M0.271484 6.99984L0.575481 5.21808H14.3989L14.1624 6.59451L15.8091 5.22652H34.6991L34.3951 6.99984H0.271484Z" fill="#F26523"/>
<path d="M36.1855 0.51415C36.1939 0.691482 36.0504 0.84348 35.873 0.851924C35.6957 0.860369 35.5437 0.716815 35.5353 0.539483C35.5268 0.362152 35.6704 0.210154 35.8477 0.201709H35.8562C36.0419 0.193265 36.1855 0.336819 36.1855 0.51415ZM35.6197 0.51415C35.6197 0.64926 35.721 0.759037 35.8562 0.767481H35.8646C35.9997 0.767481 36.1095 0.657704 36.1095 0.522595V0.51415C36.1179 0.379041 36.0166 0.26082 35.8815 0.252376C35.7464 0.243931 35.6282 0.345263 35.6197 0.480373C35.6197 0.497262 35.6197 0.505706 35.6197 0.51415ZM35.8139 0.683037H35.7379V0.362152C35.7802 0.353708 35.8224 0.353708 35.8562 0.353708C35.8984 0.353708 35.9322 0.362152 35.9659 0.379041C35.9828 0.395929 35.9997 0.421262 35.9997 0.446596C35.9997 0.480373 35.9659 0.51415 35.9321 0.522595C35.9659 0.539483 35.9828 0.564817 35.9913 0.598594C35.9913 0.623927 35.9997 0.64926 36.0166 0.674593H35.9406C35.9321 0.64926 35.9237 0.623927 35.9153 0.598594C35.9068 0.564817 35.8899 0.547928 35.8477 0.547928H35.8139V0.683037ZM35.8139 0.505706H35.8477C35.8899 0.505706 35.9237 0.488817 35.9237 0.463484C35.9237 0.438151 35.9068 0.412818 35.8562 0.412818C35.8393 0.412818 35.8308 0.412818 35.8139 0.412818V0.505706Z" fill="#F26523"/>
</svg>
