<svg width="60" height="62" viewBox="0 0 60 62" fill="none" xmlns="http://www.w3.org/2000/svg">
<path d="M8.87978 23.0848C9.9557 18.1035 12.9616 13.7775 17.2426 11.0656C21.5236 8.35363 26.719 7.48427 31.6824 8.63977L31.8236 8.03342L31.6824 8.63977C36.6446 9.79488 40.9688 12.8787 43.7105 17.2067C46.8208 22.1165 47.8503 28.063 46.5724 33.7378L42.9909 49.6419C42.8998 50.0466 42.6514 50.3991 42.3004 50.6215C41.9494 50.8439 41.5245 50.9178 41.1197 50.8273L25.21 47.2704C19.5333 46.0013 14.5968 42.5297 11.4865 37.6199C8.74481 33.2919 7.80418 28.0647 8.87978 23.0848Z" fill="#12741C" stroke="#02590B" stroke-width="1.24514"/>
<path d="M29.4205 17.4914C29.3091 17.4968 29.2066 17.5544 29.1429 17.646L20.8245 29.5795C20.6572 29.8193 20.8288 30.1481 21.1211 30.1481H26.8763L26.1855 38.8C26.1585 39.1657 26.6302 39.3348 26.8417 39.0352L35.1602 27.1024C35.3272 26.8629 35.1562 26.5344 34.8642 26.5338H29.1083L29.7998 17.8813C29.8172 17.6634 29.6388 17.48 29.4205 17.4914Z" fill="white"/>
</svg>
