<svg width="23" height="23" viewBox="0 0 23 23" fill="none" xmlns="http://www.w3.org/2000/svg">
<path d="M18.8411 6.78651V5.78591C18.8411 4.9296 18.1469 4.23544 17.2902 4.23544H15.289C14.4323 4.23544 13.7381 4.9296 13.7381 5.78591V6.78651C13.7381 7.64282 14.4323 8.33697 15.289 8.33697H17.2902C18.1469 8.33697 18.8411 7.64282 18.8411 6.78651ZM17.7405 5.78591V6.78651C17.7405 7.03493 17.5388 7.23638 17.2902 7.23638H15.289C15.0404 7.23638 14.8387 7.03493 14.8387 6.78651V5.78591C14.8387 5.53749 15.0404 5.33604 15.289 5.33604H17.2902C17.5388 5.33604 17.7405 5.53749 17.7405 5.78591Z" fill="white" stroke="#00AB30" stroke-width="0.1"/>
<path d="M14.7366 7.78832V8.78879C14.7366 9.09254 14.9831 9.33903 15.2869 9.33903C15.5906 9.33903 15.8371 9.09254 15.8371 8.78879V7.78832C15.8371 7.48457 15.5906 7.23808 15.2869 7.23808C14.9831 7.23808 14.7366 7.48457 14.7366 7.78832Z" fill="white" stroke="#00AB30" stroke-width="0.1"/>
<path d="M16.7371 7.78832V8.78879C16.7371 9.09254 16.9836 9.33903 17.2873 9.33903C17.5911 9.33903 17.8376 9.09254 17.8376 8.78879V7.78832C17.8376 7.48457 17.5911 7.23808 17.2873 7.23808C16.9836 7.23808 16.7371 7.48457 16.7371 7.78832Z" fill="white" stroke="#00AB30" stroke-width="0.1"/>
<path d="M1.22246 20.7944L1.22246 20.7944L1.22287 21.4822L1.22293 21.7089L1.22293 21.7724L1.22293 21.7891L1.22293 21.7934L1.22293 21.7945L1.22293 21.7948V21.7948V21.7948L1.27293 21.7949H1.22293C1.22293 22.0985 1.46886 22.3451 1.77284 22.3451H9.77516C10.0791 22.3451 10.3255 22.0986 10.3255 21.7949V20.7944C10.3255 19.9379 9.63096 19.2437 8.77487 19.2437H2.77313C1.91705 19.2437 1.22246 19.9379 1.22246 20.7944ZM9.22526 20.7944V21.2446H2.32318L2.32275 20.7944C2.32275 20.7944 2.32275 20.7943 2.32275 20.7943C2.32278 20.5458 2.52444 20.3441 2.77313 20.3441H8.77487C9.02358 20.3441 9.22526 20.5459 9.22526 20.7944Z" fill="white" stroke="#00AB30" stroke-width="0.1"/>
<path d="M9.3298 6.78773C9.3298 5.93122 8.63561 5.23701 7.7792 5.23701H3.77794C2.92153 5.23701 2.22734 5.93122 2.22734 6.78773V19.7939C2.22734 20.0977 2.47364 20.3442 2.77739 20.3442H8.77975C9.0835 20.3442 9.3298 20.0977 9.3298 19.7939V6.78773ZM8.22971 6.78773V19.2437H3.32743V6.78773C3.32743 6.53922 3.52897 6.33749 3.77794 6.33749H7.7792C8.02817 6.33749 8.22971 6.53922 8.22971 6.78773Z" fill="white" stroke="#00AB30" stroke-width="0.1"/>
<path d="M5.504 14.8413H5.03164C4.82863 14.8413 4.6421 14.7296 4.54635 14.5507C4.45061 14.3719 4.46106 14.1546 4.57384 13.9857C4.57385 13.9856 4.57385 13.9856 4.57386 13.9856L5.57432 12.4849C5.74274 12.2323 6.08442 12.1642 6.33745 12.3325L6.33749 12.3325C6.59012 12.5009 6.65826 12.8426 6.48995 13.0956L6.48993 13.0957L6.06 13.7408H6.53236C6.73537 13.7408 6.9219 13.8525 7.01765 14.0313C7.11339 14.2101 7.10294 14.4275 6.99016 14.5964L5.504 14.8413ZM5.504 14.8413L5.07407 15.4864L5.07405 15.4864C4.90574 15.7394 4.97388 16.0811 5.22651 16.2495L5.22655 16.2496C5.47958 16.4179 5.82126 16.3497 5.98968 16.0971L6.99014 14.5964L5.504 14.8413Z" fill="white" stroke="#00AB30" stroke-width="0.1"/>
<path d="M1.46179 10.1075L1.46161 10.1073C1.37708 10.0232 1.32977 9.90847 1.32977 9.78908V2.78574C1.32977 1.98446 1.97921 1.33502 2.78049 1.33502H14.286C15.0873 1.33502 15.7367 1.98446 15.7367 2.78574V4.7867C15.7367 5.09044 15.9832 5.33693 16.2869 5.33693C16.5907 5.33693 16.8372 5.09044 16.8372 4.7867V2.78574C16.8372 1.37697 15.6948 0.234546 14.286 0.234546H14.2685H14.251H14.2334H14.2158H14.1981H14.1804H14.1626H14.1447H14.1268H14.1088H14.0908H14.0727H14.0545H14.0363H14.018H13.9997H13.9814H13.9629H13.9444H13.9259H13.9073H13.8887H13.87H13.8512H13.8324H13.8136H13.7946H13.7757H13.7567H13.7376H13.7185H13.6993H13.6801H13.6608H13.6414H13.6221H13.6026H13.5832H13.5636H13.544H13.5244H13.5047H13.485H13.4652H13.4454H13.4255H13.4056H13.3856H13.3656H13.3455H13.3254H13.3052H13.285H13.2647H13.2444H13.2241H13.2037H13.1832H13.1628H13.1422H13.1216H13.101H13.0803H13.0596H13.0389H13.0181H12.9972H12.9763H12.9554H12.9344H12.9134H12.8923H12.8712H12.8501H12.8289H12.8076H12.7864H12.7651H12.7437H12.7223H12.7009H12.6794H12.6579H12.6363H12.6147H12.5931H12.5714H12.5497H12.5279H12.5061H12.4843H12.4624H12.4405H12.4186H12.3966H12.3746H12.3525H12.3304H12.3083H12.2861H12.2639H12.2417H12.2194H12.1971H12.1748H12.1524H12.13H12.1075H12.085H12.0625H12.04H12.0174H11.9948H11.9721H11.9494H11.9267H11.904H11.8812H11.8584H11.8355H11.8127H11.7898H11.7668H11.7439H11.7209H11.6978H11.6748H11.6517H11.6286H11.6054H11.5823H11.5591H11.5358H11.5126H11.4893H11.466H11.4426H11.4192H11.3958H11.3724H11.349H11.3255H11.302H11.2784H11.2549H11.2313H11.2077H11.1841H11.1604H11.1367H11.113H11.0893H11.0655H11.0417H11.0179H10.9941H10.9702H10.9464H10.9225H10.8986H10.8746H10.8507H10.8267H10.8027H10.7786H10.7546H10.7305H10.7064H10.6823H10.6582H10.634H10.6099H10.5857H10.5615H10.5373H10.513H10.4887H10.4645H10.4402H10.4158H10.3915H10.3672H10.3428H10.3184H10.294H10.2696H10.2451H10.2207H10.1962H10.1717H10.1472H10.1227H10.0982H10.0737H10.0491H10.0245H9.99995H9.97535H9.95074H9.92611H9.90147H9.87682H9.85216H9.82748H9.8028H9.7781H9.75339H9.72867H9.70393H9.67919H9.65443H9.62967H9.60489H9.58011H9.55532H9.53051H9.5057H9.48088H9.45605H9.4312H9.40636H9.3815H9.35664H9.33177H9.30689H9.282H9.25711H9.23221H9.2073H9.18239H9.15747H9.13255H9.10762H9.08268H9.05774H9.0328H9.00785H8.98289H8.95794H8.93297H8.90801H8.88304H8.85807H8.83309H8.80812H8.78313H8.75815H8.73317H8.70818H8.68319H8.6582H8.63321H8.60822H8.58323H8.55823H8.53324H8.50825H8.48325H8.45826H8.43327H8.40828H8.38329H8.3583H8.33331H8.30833H8.28334H8.25836H8.23338H8.20841H8.18344H8.15847H8.1335H8.10854H8.08358H8.05863H8.03368H8.00873H7.98379H7.95886H7.93393H7.90901H7.88409H7.85917H7.83427H7.80937H7.78448H7.75959H7.73471H7.70984H7.68498H7.66012H7.63527H7.61043H7.5856H7.56078H7.53597H7.51116H7.48637H7.46158H7.43681H7.41204H7.38729H7.36254H7.33781H7.31309H7.28838H7.26368H7.23899H7.21432H7.18965H7.165H7.14037H7.11574H7.09113H7.06653H7.04195H7.01738H6.99282H6.96828H6.94375H6.91924H6.89474H6.87025H6.84579H6.82134H6.7969H6.77248H6.74808H6.72369H6.69932H6.67497H6.65063H6.62632H6.60202H6.57773H6.55347H6.52922H6.505H6.48079H6.4566H6.43243H6.40828H6.38415H6.36004H6.33595H6.31188H6.28784H6.26381H6.2398H6.21582H6.19186H6.16792H6.144H6.1201H6.09623H6.07238H6.04855H6.02475H6.00097H5.97721H5.95348H5.92977H5.90608H5.88242H5.85879H5.83518H5.8116H5.78804H5.76451H5.741H5.71752H5.69407H5.67064H5.64724H5.62387H5.60052H5.57721H5.55392H5.53066H5.50742H5.48422H5.46104H5.4379H5.41478H5.39169H5.36864H5.34561H5.32261H5.29964H5.27671H5.2538H5.23093H5.20809H5.18528H5.1625H5.13975H5.11703H5.09435H5.0717H5.04909H5.0265H5.00395H4.98144H4.95896H4.93651H4.9141H4.89172H4.86937H4.84706H4.82479H4.80255H4.78035H4.75818H4.73605H4.71396H4.6919H4.66989H4.6479H4.62596H4.60405H4.58218H4.56035H4.53856H4.5168H4.49508H4.47341H4.45177H4.43017H4.40861H4.38709H4.36562H4.34418H4.32278H4.30142H4.28011H4.25884H4.2376H4.21641H4.19526H4.17416H4.15309H4.13207H4.11109H4.09016H4.06927H4.04842H4.02761H4.00685H3.98614H3.96547H3.94484H3.92426H3.90372H3.88323H3.86279H3.84239H3.82204H3.80173H3.78147H3.76126H3.74109H3.72097H3.7009H3.68088H3.6609H3.64098H3.6211H3.60127H3.58149H3.56176H3.54207H3.52244H3.50286H3.48333H3.46384H3.44441H3.42503H3.4057H3.38642H3.36719H3.34802H3.3289H3.30982H3.29081H3.27184H3.25293H3.23407H3.21526H3.19651H3.17781H3.15916H3.14057H3.12203H3.10355H3.08512H3.06675H3.04843H3.03017H3.01197H2.99382H2.97573H2.95769H2.93971H2.92179H2.90392H2.88612H2.86837H2.85067H2.83304H2.81547H2.79795H2.78049C1.37172 0.234546 0.229297 1.37697 0.229297 2.78574V9.78908C0.229297 10.2005 0.392623 10.5949 0.68365 10.8854C0.974178 11.1765 1.36859 11.3398 1.78001 11.3398H2.78049C3.08424 11.3398 3.33073 11.0933 3.33073 10.7896C3.33073 10.4858 3.08424 10.2393 2.78049 10.2393H2.78047H2.78044H2.7804H2.78035H2.78029H2.78021H2.78013H2.78003H2.77992H2.7798H2.77967H2.77953H2.77938H2.77922H2.77904H2.77886H2.77866H2.77845H2.77823H2.778H2.77776H2.77751H2.77725H2.77697H2.77669H2.77639H2.77608H2.77577H2.77544H2.7751H2.77475H2.77439H2.77402H2.77364H2.77325H2.77284H2.77243H2.77201H2.77157H2.77112H2.77067H2.7702H2.76973H2.76924H2.76874H2.76823H2.76771H2.76718H2.76665H2.7661H2.76554H2.76497H2.76438H2.76379H2.76319H2.76258H2.76196H2.76133H2.76069H2.76004H2.75937H2.7587H2.75802H2.75733H2.75663H2.75591H2.75519H2.75446H2.75372H2.75297H2.75221H2.75143H2.75065H2.74986H2.74906H2.74825H2.74743H2.7466H2.74576H2.74491H2.74405H2.74318H2.74231H2.74142H2.74052H2.73961H2.7387H2.73777H2.73684H2.73589H2.73494H2.73398H2.733H2.73202H2.73103H2.73003H2.72902H2.728H2.72697H2.72593H2.72489H2.72383H2.72276H2.72169H2.72061H2.71951H2.71841H2.7173H2.71618H2.71505H2.71392H2.71277H2.71161H2.71045H2.70928H2.70809H2.7069H2.7057H2.70449H2.70328H2.70205H2.70082H2.69957H2.69832H2.69706H2.69579H2.69451H2.69323H2.69193H2.69063H2.68931H2.68799H2.68666H2.68533H2.68398H2.68263H2.68126H2.67989H2.67851H2.67712H2.67573H2.67432H2.67291H2.67149H2.67006H2.66862H2.66718H2.66572H2.66426H2.66279H2.66131H2.65983H2.65833H2.65683H2.65532H2.6538H2.65228H2.65074H2.6492H2.64765H2.6461H2.64453H2.64296H2.64138H2.63979H2.63819H2.63659H2.63498H2.63336H2.63173H2.63009H2.62845H2.6268H2.62514H2.62348H2.62181H2.62013H2.61844H2.61674H2.61504H2.61333H2.61162H2.60989H2.60816H2.60642H2.60467H2.60292H2.60116H2.59939H2.59762H2.59583H2.59404H2.59225H2.59044H2.58863H2.58681H2.58499H2.58316H2.58132H2.57947H2.57762H2.57576H2.57389H2.57202H2.57014H2.56825H2.56635H2.56445H2.56255H2.56063H2.55871H2.55678H2.55485H2.5529H2.55096H2.549H2.54704H2.54507H2.5431H2.54112H2.53913H2.53714H2.53514H2.53313H2.53111H2.52909H2.52707H2.52504H2.523H2.52095H2.5189H2.51684H2.51478H2.51271H2.51063H2.50855H2.50646H2.50437H2.50227H2.50016H2.49805H2.49593H2.4938H2.49167H2.48954H2.48739H2.48524H2.48309H2.48093H2.47876H2.47659H2.47441H2.47223H2.47004H2.46784H2.46564H2.46343H2.46122H2.459H2.45678H2.45455H2.45231H2.45007H2.44783H2.44558H2.44332H2.44106H2.43879H2.43651H2.43424H2.43195H2.42966H2.42737H2.42507H2.42276H2.42045H2.41813H2.41581H2.41349H2.41115H2.40882H2.40647H2.40413H2.40177H2.39942H2.39705H2.39469H2.39231H2.38994H2.38755H2.38517H2.38277H2.38038H2.37798H2.37557H2.37316H2.37074H2.36832H2.36589H2.36346H2.36103H2.35859H2.35614H2.35369H2.35124H2.34878H2.34631H2.34385H2.34137H2.3389H2.33641H2.33393H2.33144H2.32894H2.32644H2.32394H2.32143H2.31892H2.3164H2.31388H2.31136H2.30883H2.30629H2.30375H2.30121H2.29867H2.29612H2.29356H2.291H2.28844H2.28587H2.2833H2.28073H2.27815H2.27557H2.27298H2.27039H2.26779H2.2652H2.26259H2.25999H2.25738H2.25476H2.25215H2.24953H2.2469H2.24427H2.24164H2.239H2.23636H2.23372H2.23107H2.22842H2.22577H2.22311H2.22045H2.21779H2.21512H2.21245H2.20978H2.2071H2.20442H2.20173H2.19904H2.19635H2.19366H2.19096H2.18826H2.18556H2.18285H2.18014H2.17743H2.17471H2.17199H2.16927H2.16654H2.16381H2.16108H2.15834H2.15561H2.15287H2.15012H2.14738H2.14463H2.14188H2.13912H2.13636H2.1336H2.13084H2.12807H2.1253H2.12253H2.11976H2.11698H2.1142H2.11142H2.10864H2.10585H2.10306H2.10027H2.09747H2.09468H2.09188H2.08907H2.08627H2.08346H2.08065H2.07784H2.07503H2.07221H2.0694H2.06657H2.06375H2.06093H2.0581H2.05527H2.05244H2.04961H2.04677H2.04393H2.04109H2.03825H2.03541H2.03256H2.02972H2.02687H2.02402H2.02116H2.01831H2.01545H2.01259H2.00973H2.00687H2.00401H2.00114H1.99827H1.9954H1.99253H1.98966H1.98679H1.98391H1.98103H1.97816H1.97528H1.97239H1.96951H1.96663H1.96374H1.96085H1.95796H1.95507H1.95218H1.94929H1.9464H1.9435H1.9406H1.93771H1.93481H1.93191H1.929H1.9261H1.9232H1.92029H1.91739H1.91448H1.91157H1.90866H1.90575H1.90284H1.89993H1.89702H1.8941H1.89119H1.88828H1.88536H1.88244H1.87952H1.87661H1.87369H1.87077H1.86785H1.86492H1.862H1.85908H1.85616H1.85323H1.85031H1.84738H1.84446H1.84153H1.83861H1.83568H1.83275H1.82982H1.8269H1.82397H1.82104H1.81811H1.81518H1.81225H1.80932H1.80639H1.80346H1.80053H1.7976H1.79467H1.79174H1.78881H1.78588H1.78294H1.78001C1.66063 10.2393 1.54587 10.192 1.46179 10.1075Z" fill="white" stroke="#00AB30" stroke-width="0.1"/>
<path d="M16.2848 15.7915C15.8986 15.7915 15.5847 15.4776 15.5847 15.0915C15.5847 14.7053 15.8986 14.3914 16.2848 14.3914C16.671 14.3914 16.9849 14.7053 16.9849 15.0915C16.9849 15.3949 17.2314 15.6415 17.5349 15.6415C17.8384 15.6415 18.0849 15.3949 18.0849 15.0915C18.0849 14.098 17.2783 13.2913 16.2848 13.2913C15.2913 13.2913 14.4847 14.098 14.4847 15.0915C14.4847 16.085 15.2913 16.8916 16.2848 16.8916C16.5883 16.8916 16.8348 16.645 16.8348 16.3416C16.8348 16.0381 16.5883 15.7915 16.2848 15.7915Z" fill="white" stroke="#00AB30" stroke-width="0.1"/>
<path d="M16.2889 16.7926C16.6751 16.7926 16.989 17.1065 16.989 17.4926C16.989 17.8788 16.6751 18.1927 16.2889 18.1927C15.9028 18.1927 15.5889 17.8788 15.5889 17.4926C15.5889 17.1892 15.3423 16.9426 15.0388 16.9426C14.7354 16.9426 14.4888 17.1892 14.4888 17.4926C14.4888 18.4862 15.2954 19.2928 16.2889 19.2928C17.2824 19.2928 18.0891 18.4862 18.0891 17.4926C18.0891 16.4991 17.2824 15.6925 16.2889 15.6925C15.9855 15.6925 15.7389 15.9391 15.7389 16.2425C15.7389 16.546 15.9855 16.7926 16.2889 16.7926Z" fill="white" stroke="#00AB30" stroke-width="0.1"/>
<path d="M16.8371 13.7908V12.7904C16.8371 12.4866 16.5906 12.2401 16.2869 12.2401C15.9831 12.2401 15.7366 12.4866 15.7366 12.7904V13.7908C15.7366 14.0946 15.9831 14.3411 16.2869 14.3411C16.5906 14.3411 16.8371 14.0946 16.8371 13.7908Z" fill="white" stroke="#00AB30" stroke-width="0.1"/>
<path d="M16.8371 19.794V18.7936C16.8371 18.4898 16.5906 18.2433 16.2869 18.2433C15.9831 18.2433 15.7366 18.4898 15.7366 18.7936V19.794C15.7366 20.0978 15.9831 20.3443 16.2869 20.3443C16.5906 20.3443 16.8371 20.0978 16.8371 19.794Z" fill="white" stroke="#00AB30" stroke-width="0.1"/>
<path d="M16.2623 10.2382C12.9223 10.2382 10.2103 12.9503 10.2103 16.2902C10.2103 19.6302 12.9223 22.3422 16.2623 22.3422C19.6022 22.3422 22.3143 19.6302 22.3143 16.2902C22.3143 12.9503 19.6022 10.2382 16.2623 10.2382ZM16.2623 11.3387C18.9952 11.3387 21.2138 13.5573 21.2138 16.2902C21.2138 19.0232 18.9952 21.2417 16.2623 21.2417C13.5293 21.2417 11.3108 19.0232 11.3108 16.2902C11.3108 13.5573 13.5293 11.3387 16.2623 11.3387Z" fill="white" stroke="#00AB30" stroke-width="0.1"/>
</svg>
