<svg width="294" height="54" viewBox="0 0 294 54" fill="none" xmlns="http://www.w3.org/2000/svg">
<path d="M6.01974 37.8727H26.7707V32.7408H6.01974V23.1463H30.1176V18.0144H0.21875V52.5992H30.341V47.4672H6.24308V37.8727H6.01974Z" fill="#12741C"/>
<path d="M234.278 28.5014L231.823 23.3694H253.244V18.0144H223.568L228.254 28.5014H234.278Z" fill="#12741C"/>
<path d="M42.3891 36.0886H36.3647V52.6H42.3891V36.0886Z" fill="#12741C"/>
<path d="M251.237 32.7412H224.461V37.8731H251.237V32.7412Z" fill="#12741C"/>
<path d="M253.69 47.4666H223.568V52.5985H253.69V47.4666Z" fill="#12741C"/>
<path d="M57.118 44.1203L42.3914 18.0144H35.9209L56.2252 52.5992H58.4564L72.2902 28.5014V52.5992H78.3151V18.0144H72.2902L57.118 44.1203Z" fill="#12741C"/>
<path d="M202.15 44.5666L192.333 18.0144H188.316L175.152 53.2686H180.73L190.325 28.0551L199.696 53.2686H204.605L217.769 18.0144H211.745L202.15 44.5666Z" fill="#12741C"/>
<path d="M281.807 38.5421C287.608 37.6496 290.732 32.964 290.732 28.2783C290.732 23.1463 287.161 18.0144 279.798 18.0144H259.494L263.733 23.1463H278.46C282.476 23.1463 284.484 25.6008 284.484 28.2783C284.484 30.7327 282.476 33.4102 278.46 33.4102H277.344L272.435 28.0551H265.518L270.204 33.4102H259.271V52.5992H265.295V38.7653H274.443L286.269 52.5992H293.632L281.807 38.5421Z" fill="#12741C"/>
<path d="M103.525 18.0144H85.4523L91.7 29.8402H97.501L93.9313 23.3694H102.856C106.65 23.3694 108.435 26.2701 108.435 29.1708C108.435 32.0714 106.65 34.9721 102.856 34.9721H85.229V52.5992H91.2533V40.104H103.525C110.665 40.104 114.459 34.5258 114.459 28.9476C114.459 23.1463 110.889 18.0144 103.525 18.0144Z" fill="#12741C"/>
<path d="M152.17 21.5852L148.823 26.7171C151.055 28.7253 152.17 31.6259 152.17 35.4191C152.17 43.8979 145.03 48.1374 139.006 48.1374C132.981 48.1374 126.064 43.8979 126.064 35.4191H120.04C120.04 47.6911 130.304 53.7155 139.229 53.7155C148.154 53.7155 158.418 47.6911 158.418 35.4191C158.418 29.1715 155.963 24.709 152.17 21.5852Z" fill="#12741C"/>
<path d="M150.603 20.692C151.273 19.7994 150.603 18.2376 149.488 18.2376H142.794C142.347 18.2376 141.901 18.0144 141.455 17.7913C141.008 17.345 141.009 16.8988 141.009 16.4525L144.356 1.05673C144.356 0.610478 143.909 0.387357 143.686 0.610484L128.96 22.477C128.291 23.3695 128.96 24.9314 130.076 24.9314H136.769C137.216 24.9314 137.662 25.1545 138.108 25.3776C138.554 25.8239 138.555 26.2701 138.555 26.7164L135.43 42.1122C135.43 42.5585 135.877 42.7816 136.1 42.5584L150.603 20.692Z" fill="#12741C"/>
<path d="M169.125 18.0144H162.877L170.91 39.2115L176.934 38.9884L169.125 18.0144Z" fill="#12741C"/>
</svg>
