<svg width="31" height="31" viewBox="0 0 31 31" fill="none" xmlns="http://www.w3.org/2000/svg">
<path d="M15.7015 30.7228L19.901 7.05292C23.9096 7.05292 25.1504 7.53013 25.3413 9.2481C25.3413 9.2481 28.0137 8.19822 29.3499 6.19391C24.0051 3.7124 18.7557 3.61694 18.7557 3.61694L15.6061 7.43466L12.4565 3.61694C12.4565 3.61694 7.11167 3.7124 1.8623 6.19391C3.19851 8.19822 5.87092 9.2481 5.87092 9.2481C6.06181 7.43468 7.30258 7.05292 11.3112 7.05292L15.7015 30.7228Z" fill="#E82127"/>
<path d="M15.6991 2.56613C19.9941 2.56613 24.8617 3.23423 29.9201 5.42941C30.5882 4.18866 30.7791 3.71145 30.7791 3.71145C25.2434 1.51626 20.1849 0.752686 15.6991 0.752686C11.3087 0.752686 6.15483 1.51626 0.619141 3.71145C0.619141 3.71145 0.905493 4.37954 1.47815 5.42941C6.53663 3.23423 11.4042 2.47068 15.6991 2.56613Z" fill="#E82127"/>
</svg>
