<svg width="80" height="38" viewBox="0 0 80 38" fill="none" xmlns="http://www.w3.org/2000/svg">
<path d="M12.0811 10.0396H8.69621L8.3013 11.8449L6.43958 20.7021C6.21392 21.8304 5.59335 22.5074 4.6907 22.5074C3.78805 22.5074 3.44955 21.8304 3.73163 20.7021L5.59335 11.8449L5.98826 10.0396H2.60332L2.20841 11.7884L0.515941 19.6866C-0.104631 22.5074 0.233863 24.764 4.18296 24.764C4.52145 24.764 4.85995 24.764 5.25485 24.7076C8.3013 24.3691 9.42961 22.3946 9.99377 19.9687C9.99377 19.9123 10.0502 19.7995 10.0502 19.743L11.7427 11.8449L12.0811 10.0396Z" fill="white"/>
<path d="M19.5267 13.2558C19.3574 13.2558 19.1882 13.2558 19.0189 13.2558C18.1163 13.2558 17.27 13.5943 16.593 14.2149C16.3674 14.3841 16.1981 14.6098 16.0289 14.8354H15.9725L16.2545 13.5379H13.0953L12.0798 18.2204L11.1771 22.5644L10.7822 24.4825H14.0543L15.2391 18.8409L15.5776 17.3177C15.8032 16.2458 16.4802 15.7945 17.1008 15.7381C17.7213 15.7381 17.947 16.1894 17.7778 16.9792V17.0356L17.6649 17.5434L16.1981 24.4825H19.4702L19.6395 23.5234L21.1627 16.3022C21.2755 15.7945 21.332 15.2303 21.2191 14.7226C21.1063 13.8764 20.4857 13.425 19.5267 13.2558Z" fill="white"/>
<path d="M21.3916 24.4842H24.6637L26.9767 13.5396H23.7046L21.3916 24.4842Z" fill="white"/>
<path d="M34.1957 13.5396L31.7134 20.1402L31.1492 21.607L31.262 18.7862L31.6005 13.5396H29.5132H28.1592L28.5541 24.0893V24.4842H32.4468L37.4678 13.5396H34.1957Z" fill="white"/>
<path d="M42.2646 15.2868C43.1672 15.2868 43.2236 16.133 42.8851 17.6562H40.5157C40.7978 16.1894 41.1927 15.2868 42.2646 15.2868ZM40.1208 19.5179H45.6495C46.4393 15.7945 46.665 13.2558 42.6595 13.2558C39.1053 13.2558 37.6949 15.5124 37.0743 18.6153C36.3409 21.8874 36.0588 24.7646 40.2336 24.7646C42.9415 24.7646 44.6904 23.467 45.311 20.7591H42.321C41.9261 22.1131 41.5312 22.7336 40.6849 22.7336C39.7259 22.7336 39.6694 21.8874 40.0079 20.1949L40.1208 19.5179Z" fill="white"/>
<path d="M54.6196 13.3122C54.4504 13.2558 54.2812 13.2558 54.1119 13.2558C52.8708 13.3122 51.7425 13.9892 51.1219 15.0611H51.0655L51.404 13.5379H48.2447L45.9316 24.4825H49.2037L50.5013 18.2768C50.7834 16.8664 51.7989 16.3022 53.0964 16.3022C53.3785 16.3022 53.717 16.3022 53.9991 16.3587L54.6196 13.3122Z" fill="white"/>
<path d="M62.9109 16.3587C63.2494 14.779 62.6852 13.2558 59.5824 13.2558C56.9308 13.2558 55.182 14.3841 54.7306 16.5279C54.2229 18.8409 55.464 19.3487 57.9463 20.2513C58.0591 20.3078 58.1156 20.3078 58.172 20.3642C58.6797 20.5334 59.0182 21.0412 58.9054 21.6053C58.7925 22.2823 58.172 22.7336 57.495 22.7336C57.1001 22.79 56.7616 22.5644 56.5923 22.2259C56.5359 22.0002 56.5359 21.7746 56.5359 21.5489C56.5359 21.3797 56.5923 21.154 56.6488 20.9847H53.7151L53.6023 21.4925C53.4331 22.1131 53.4895 22.79 53.7151 23.3542C53.9972 24.0312 54.6742 24.4261 55.6897 24.6518C56.141 24.7082 56.6488 24.7646 57.1001 24.7646C59.808 24.7646 61.5569 23.4106 62.0647 21.2104C62.1211 20.9847 62.1775 20.7027 62.1775 20.4206C62.2339 19.5179 61.7826 18.6717 60.9928 18.2768C59.6388 17.487 57.6642 17.5434 57.8899 16.3022C58.0027 15.6817 58.5669 15.2303 59.1875 15.2868C59.8644 15.2868 60.2029 15.5688 59.9773 16.5279L59.9209 16.7536H62.8545L62.9109 16.5279V16.3587Z" fill="white"/>
<path d="M68.5518 20.9838C68.4389 21.83 67.7619 22.4506 66.9157 22.507C66.2951 22.507 66.0695 21.9993 66.2387 21.0966C66.2951 20.5889 66.5772 20.1376 66.9721 19.9119C67.3106 19.6862 67.7619 19.6298 68.9467 19.1221C68.8338 19.517 68.721 20.0812 68.5518 20.9838ZM69.8493 13.2549H69.3416C68.2133 13.1985 67.1414 13.4241 66.1259 13.9883C65.2232 14.496 64.6027 15.3987 64.2642 16.9219H67.1978C67.4234 15.9628 67.7619 15.3987 68.721 15.3987C69.4544 15.3987 69.6801 15.85 69.5108 16.4706C69.3416 17.3168 69.1159 17.486 68.044 17.7117C66.9721 17.8809 65.9002 18.2194 64.8847 18.6144C63.8693 19.2349 63.1923 20.2504 63.023 21.3787C62.5153 23.7482 63.4179 24.7072 65.2232 24.7072C66.3515 24.7072 67.4234 24.1431 68.1004 23.184H68.1568C68.1004 23.5789 68.044 24.0303 68.1004 24.4252H71.2597C70.9776 23.9174 71.2033 22.9019 71.3725 22.0557L72.5573 16.4141C73.0086 14.3268 72.1623 13.3677 69.8493 13.2549Z" fill="white"/>
<path d="M75.9993 10.0396L75.6044 11.8449L72.8965 24.482H76.1686L78.8765 11.8449L79.2715 10.0396H75.9993Z" fill="white"/>
<path d="M72.2742 4.68193C69.2277 -1.9187 51.2311 -0.790391 31.9934 7.16421C31.0343 7.55912 30.0753 7.95403 29.1162 8.40536L29.906 10.2107C30.8651 9.75933 31.8242 9.36442 32.8396 8.96951C49.1438 2.25605 64.4888 1.29699 67.0839 6.88214C67.7609 8.29253 67.5353 9.985 66.5198 11.9031H70.8638C72.6691 9.13876 73.2332 6.65647 72.2742 4.68193Z" fill="#CA1F3D"/>
<path d="M42.2045 29.1104C25.9003 35.8239 10.5553 36.783 7.96018 31.1978C7.28319 29.7874 7.50885 28.0385 8.52433 26.1768H4.18033C2.43145 28.8848 1.86729 31.3671 2.76994 33.3416C5.75997 39.8858 23.813 38.8139 43.0507 30.8593C46.4356 29.4489 49.7077 27.9257 52.9234 26.1768H48.5794C46.5485 27.1923 44.4047 28.2078 42.2045 29.1104Z" fill="#CA1F3D"/>
<path d="M24.3229 11.8465C24.5485 12.1286 24.8306 12.4106 25.1691 12.5235C26.1846 12.9748 27.3129 12.5235 27.7642 11.508C28.2155 10.4925 27.7642 9.36419 26.7487 8.91286C25.7333 8.46154 24.6049 8.91286 24.1536 9.92834C24.0408 10.154 23.9844 10.4361 23.9844 10.7182C23.9844 10.7746 23.9844 10.7746 23.9844 10.831C24.0408 11.1695 24.1536 11.508 24.3229 11.8465Z" fill="white"/>
</svg>
