<svg width="75" height="78" viewBox="0 0 75 78" fill="none" xmlns="http://www.w3.org/2000/svg">
<path d="M11.0929 29.0196C12.4454 22.7577 16.2241 17.3196 21.6057 13.9104C26.9873 10.5013 33.5185 9.40838 39.7579 10.861L39.9353 10.0987L39.7579 10.861C45.9958 12.313 51.4317 16.1896 54.8783 21.6303C58.7882 27.8025 60.0824 35.2777 58.4759 42.4115L53.9737 62.4044C53.8592 62.9131 53.5469 63.3563 53.1057 63.6358C52.6644 63.9154 52.1303 64.0083 51.6215 63.8945L31.6215 59.4232L31.4507 60.187L31.6215 59.4232C24.4853 57.8278 18.2797 53.4637 14.3698 47.2916C10.9232 41.8509 9.74077 35.2799 11.0929 29.0196Z" fill="#12741C" stroke="#02590B" stroke-width="1.56525"/>
<path d="M36.914 21.9885C36.7739 21.9954 36.6451 22.0677 36.565 22.183L26.1079 37.1844C25.8977 37.4858 26.1134 37.8992 26.4809 37.8992H33.7157L32.8473 48.7754C32.8133 49.2352 33.4063 49.4477 33.6722 49.0711L44.1292 34.0705C44.3393 33.7694 44.1243 33.3564 43.7572 33.3557H36.5215L37.3908 22.4787C37.4126 22.2048 37.1884 21.9743 36.914 21.9885Z" fill="white"/>
</svg>
