<svg width="95" height="101" viewBox="0 0 95 101" fill="none" xmlns="http://www.w3.org/2000/svg">
<g filter="url(#filter0_bd_1_3408)">
<path d="M50.2471 41.9883C50.3849 42.6314 50.4664 43.3126 50.202 43.9148C50.0323 44.3011 49.7867 44.6531 49.4763 44.9483C48.9236 45.4738 48.2017 45.7849 47.4402 45.8257C46.6787 45.8665 45.9277 45.6344 45.322 45.171C44.7164 44.7077 44.2958 44.0435 44.1361 43.2978C43.9763 42.5522 44.0877 41.774 44.4503 41.1032C44.8129 40.4323 45.4029 39.9128 46.1143 39.6381C46.8256 39.3633 47.6117 39.3513 48.3311 39.6041C48.7353 39.7462 49.1035 39.9667 49.4166 40.2495C49.9045 40.6904 50.1093 41.3453 50.2471 41.9883Z" fill="#00AB30" fill-opacity="0.15" shape-rendering="crispEdges"/>
</g>
<path d="M60.6048 42.6231C60.6077 45.7762 59.4885 48.8276 57.4475 51.231C57.3544 51.3386 57.2401 51.4257 57.1118 51.4871C56.9835 51.5484 56.8439 51.5827 56.7018 51.5877C56.5596 51.5927 56.418 51.5684 56.2857 51.5162C56.1534 51.464 56.0333 51.3851 55.9328 51.2844L52.8662 48.2177C52.6877 48.0418 52.5787 47.8075 52.5591 47.5576C52.5395 47.3078 52.6106 47.0593 52.7595 46.8577C53.6977 45.6456 54.2062 44.1559 54.2048 42.6231C54.2058 42.3861 54.1934 42.1493 54.1675 41.9138L53.8582 40.4631C53.5202 39.4293 52.9427 38.49 52.1729 37.7218L54.2048 34.6231L56.6955 33.1991C57.9362 34.4347 58.9204 35.9034 59.5913 37.5207C60.2622 39.1381 60.6067 40.8721 60.6048 42.6231Z" fill="#2CE05B"/>
<path d="M56.6951 33.1991L52.1724 37.7218C51.5302 37.0763 50.7667 36.5642 49.9258 36.2149C49.0849 35.8656 48.1832 35.6861 47.2727 35.6866C46.3621 35.6871 45.4607 35.8676 44.6202 36.2178C43.7796 36.568 43.0167 37.0809 42.3751 37.7271L39.2712 36.2231L37.8472 33.1991C39.0838 31.9599 40.5527 30.9767 42.1698 30.3059C43.7869 29.6351 45.5204 29.2898 47.2711 29.2898C49.0218 29.2898 50.7553 29.6351 52.3724 30.3059C53.9895 30.9767 55.4584 31.9599 56.6951 33.1991Z" fill="#F3C637"/>
<path d="M41.762 46.8311C41.9193 47.0302 41.9985 47.2798 41.9848 47.5332C41.971 47.7865 41.8653 48.0262 41.6874 48.2071L38.61 51.2844C38.5096 51.3851 38.3895 51.464 38.2572 51.5162C38.1249 51.5684 37.9832 51.5927 37.8411 51.5877C37.699 51.5827 37.5594 51.5484 37.4311 51.4871C37.3028 51.4257 37.1885 51.3386 37.0954 51.231C34.9333 48.6802 33.8102 45.4092 33.9496 42.0682C34.0889 38.7273 35.4804 35.5611 37.8474 33.1991L42.3754 37.7271C41.3026 38.7864 40.609 40.1698 40.402 41.6631C40.2758 42.5716 40.3309 43.4962 40.5644 44.3833C40.7978 45.2704 41.2049 46.1024 41.762 46.8311Z" fill="#E23B58"/>
<path d="M47.0833 41.5725C46.9288 41.6023 46.7826 41.6656 46.6551 41.758C46.5276 41.8503 46.4219 41.9694 46.3453 42.1069C46.2687 42.2444 46.2232 42.397 46.2118 42.554C46.2004 42.711 46.2236 42.8686 46.2796 43.0157C46.3879 43.2563 46.577 43.4513 46.8142 43.5669C47.0513 43.6826 47.3214 43.7115 47.5777 43.6488C50.7137 42.9778 54.2321 41.9224 56.8459 41.0786C56.9629 41.0439 57.0625 40.9662 57.1247 40.8612C57.187 40.7562 57.2072 40.6316 57.1815 40.5122C57.1557 40.3929 57.0858 40.2877 56.9859 40.2177C56.8859 40.1477 56.7631 40.118 56.6422 40.1346C53.8971 40.4301 50.2305 40.9026 47.0833 41.5725Z" fill="#B0FFB8"/>
<g filter="url(#filter1_bd_1_3408)">
<path d="M50.4715 50.6231H44.0715C43.4824 50.6231 43.0049 51.1006 43.0049 51.6897V52.2231C43.0049 52.8122 43.4824 53.2897 44.0715 53.2897H50.4715C51.0606 53.2897 51.5382 52.8122 51.5382 52.2231V51.6897C51.5382 51.1006 51.0606 50.6231 50.4715 50.6231Z" fill="#00AB30" fill-opacity="0.15" shape-rendering="crispEdges"/>
</g>
<defs>
<filter id="filter0_bd_1_3408" x="1.06494" y="0.422859" width="92.3105" height="92.4074" filterUnits="userSpaceOnUse" color-interpolation-filters="sRGB">
<feFlood flood-opacity="0" result="BackgroundImageFix"/>
<feGaussianBlur in="BackgroundImageFix" stdDeviation="7.70942"/>
<feComposite in2="SourceAlpha" operator="in" result="effect1_backgroundBlur_1_3408"/>
<feColorMatrix in="SourceAlpha" type="matrix" values="0 0 0 0 0 0 0 0 0 0 0 0 0 0 0 0 0 0 127 0" result="hardAlpha"/>
<feOffset dy="4"/>
<feGaussianBlur stdDeviation="21.5"/>
<feComposite in2="hardAlpha" operator="out"/>
<feColorMatrix type="matrix" values="0 0 0 0 0 0 0 0 0 0 0 0 0 0 0 0 0 0 0.25 0"/>
<feBlend mode="normal" in2="effect1_backgroundBlur_1_3408" result="effect2_dropShadow_1_3408"/>
<feBlend mode="normal" in="SourceGraphic" in2="effect2_dropShadow_1_3408" result="shape"/>
</filter>
<filter id="filter1_bd_1_3408" x="0.00488281" y="11.6231" width="94.5332" height="88.6667" filterUnits="userSpaceOnUse" color-interpolation-filters="sRGB">
<feFlood flood-opacity="0" result="BackgroundImageFix"/>
<feGaussianBlur in="BackgroundImageFix" stdDeviation="7.70942"/>
<feComposite in2="SourceAlpha" operator="in" result="effect1_backgroundBlur_1_3408"/>
<feColorMatrix in="SourceAlpha" type="matrix" values="0 0 0 0 0 0 0 0 0 0 0 0 0 0 0 0 0 0 127 0" result="hardAlpha"/>
<feOffset dy="4"/>
<feGaussianBlur stdDeviation="21.5"/>
<feComposite in2="hardAlpha" operator="out"/>
<feColorMatrix type="matrix" values="0 0 0 0 0 0 0 0 0 0 0 0 0 0 0 0 0 0 0.25 0"/>
<feBlend mode="normal" in2="effect1_backgroundBlur_1_3408" result="effect2_dropShadow_1_3408"/>
<feBlend mode="normal" in="SourceGraphic" in2="effect2_dropShadow_1_3408" result="shape"/>
</filter>
</defs>
</svg>
