<svg width="256" height="47" viewBox="0 0 256 47" fill="none" xmlns="http://www.w3.org/2000/svg">
<path d="M5.06129 32.7661H23.1663V28.2886H5.06129V19.9175H26.0864V15.4399H0V45.6147H26.2813V41.1372H5.25616V32.7661H5.06129Z" fill="#12741C"/>
<path d="M204.214 24.5897L202.072 20.1122H220.761V15.4399H194.869L198.958 24.5897H204.214Z" fill="#12741C"/>
<path d="M36.7933 31.2085H31.5371V45.6145H36.7933V31.2085Z" fill="#12741C"/>
<path d="M219.011 28.2881H195.649V32.7656H219.011V28.2881Z" fill="#12741C"/>
<path d="M221.15 41.1353H194.869V45.6128H221.15V41.1353Z" fill="#12741C"/>
<path d="M49.6446 38.217L36.7958 15.4399H31.1504L48.8656 45.6147H50.8124L62.8822 24.5897V45.6147H68.1389V15.4399H62.8822L49.6446 38.217Z" fill="#12741C"/>
<path d="M176.183 38.6064L167.617 15.4399H164.113L152.627 46.1988H157.494L165.865 24.2004L174.041 46.1988H178.324L189.81 15.4399H184.554L176.183 38.6064Z" fill="#12741C"/>
<path d="M245.682 33.3501C250.744 32.5714 253.469 28.4833 253.469 24.3951C253.469 19.9175 250.354 15.4399 243.93 15.4399H226.214L229.913 19.9175H242.762C246.266 19.9175 248.018 22.0589 248.018 24.3951C248.018 26.5365 246.266 28.8726 242.762 28.8726H241.788L237.506 24.2004H231.471L235.559 28.8726H226.02V45.6147H231.276V33.5448H239.258L249.576 45.6147H256L245.682 33.3501Z" fill="#12741C"/>
<path d="M90.1333 15.4399H74.3648L79.8158 25.7578H84.8771L81.7626 20.1122H89.5496C92.8591 20.1122 94.4165 22.643 94.4165 25.1737C94.4165 27.7045 92.8591 30.2353 89.5496 30.2353H74.1699V45.6147H79.4261V34.7129H90.1333C96.3629 34.7129 99.6727 29.846 99.6727 24.9791C99.6727 19.9175 96.5576 15.4399 90.1333 15.4399Z" fill="#12741C"/>
<path d="M132.576 18.5552L129.656 23.0327C131.603 24.7848 132.576 27.3156 132.576 30.6251C132.576 38.0228 126.347 41.7216 121.09 41.7216C115.834 41.7216 109.799 38.0228 109.799 30.6251H104.543C104.543 41.3323 113.498 46.5885 121.285 46.5885C129.072 46.5885 138.027 41.3323 138.027 30.6251C138.027 25.1742 135.886 21.2806 132.576 18.5552Z" fill="#12741C"/>
<path d="M131.208 17.775C131.792 16.9963 131.208 15.6335 130.235 15.6335H124.395C124.005 15.6335 123.616 15.4388 123.226 15.2442C122.837 14.8548 122.837 14.4655 122.837 14.0761L125.757 0.643454C125.757 0.254102 125.368 0.0594317 125.173 0.254108L112.325 19.3324C111.741 20.1111 112.325 21.4738 113.298 21.4738H119.138C119.528 21.4738 119.917 21.6685 120.306 21.8632C120.696 22.2525 120.696 22.6419 120.696 23.0312L117.97 36.4639C117.97 36.8532 118.36 37.0479 118.554 36.8532L131.208 17.775Z" fill="#12741C"/>
<path d="M147.369 15.4399H141.918L148.927 33.9342L154.183 33.7395L147.369 15.4399Z" fill="#12741C"/>
</svg>
