<svg width="147" height="146" viewBox="0 0 147 146" fill="none" xmlns="http://www.w3.org/2000/svg">
<g filter="url(#filter0_d_1_15916)">
<ellipse cx="73.4695" cy="72.6313" rx="47.6067" ry="47.6067" fill="white"/>
</g>
<ellipse opacity="0.5" cx="73.4697" cy="72.6314" rx="36.1655" ry="36.1655" fill="#13A4ED"/>
<path d="M90.0052 57.2731C89.7382 57.0054 89.4045 56.8716 89.004 56.8716H66.1762C65.7757 56.8716 65.4419 57.0054 65.1749 57.2731C64.9079 57.5408 64.7745 57.8754 64.7745 58.2769V62.5598H61.2368C60.8363 62.5598 60.3691 62.6267 59.9018 62.8274C59.4346 63.0282 59.0341 63.229 58.7671 63.5636L54.3618 67.9803C54.1615 68.181 54.028 68.3818 53.8278 68.6495C53.6943 68.9172 53.5608 69.1179 53.494 69.3187C53.4273 69.5194 53.3605 69.7871 53.3605 70.1217C53.3605 70.4563 53.2938 70.724 53.2938 70.9248C53.2938 71.0586 53.2938 71.3932 53.2938 71.7947C53.2938 72.1962 53.2938 72.4639 53.2938 72.5978V79.7582C52.8933 79.7582 52.5596 79.892 52.2926 80.1597C52.0256 80.4274 51.8921 80.762 51.8921 81.1635C51.8921 81.3643 51.8921 81.5651 51.9588 81.7658C52.0256 81.9666 52.0923 82.1004 52.2926 82.1673C52.4261 82.3012 52.5596 82.3681 52.6931 82.435C52.8266 82.5019 52.9601 82.5688 53.227 82.5688C53.494 82.5688 53.6275 82.6358 53.761 82.6358C53.8278 82.6358 54.028 82.6358 54.3618 82.6358C54.6288 82.6358 54.829 82.6358 54.8957 82.6358H56.2975C56.2975 84.2418 56.8314 85.5802 57.9662 86.7179C59.1009 87.8555 60.4358 88.3909 61.971 88.3909C63.573 88.3909 64.9079 87.8555 65.9759 86.7179C67.1106 85.5802 67.6446 84.2418 67.6446 82.6358H76.1884C76.1884 84.2418 76.7223 85.5802 77.8571 86.7179C78.9918 87.8555 80.3267 88.3909 81.8619 88.3909C83.4639 88.3909 84.7988 87.8555 85.8668 86.7179C87.0015 85.5802 87.5355 84.2418 87.5355 82.6358C87.6023 82.6358 87.7358 82.6358 88.0695 82.6358C88.3365 82.6358 88.5367 82.6358 88.6702 82.6358C88.737 82.6358 88.9372 82.6357 89.2042 82.5688C89.4712 82.5688 89.6047 82.5019 89.7382 82.435C89.8717 82.3681 89.9384 82.3012 90.1387 82.1673C90.2722 82.0335 90.4057 81.8997 90.4724 81.7658C90.5392 81.5651 90.5392 81.3643 90.5392 81.1635V58.21C90.4057 57.9423 90.2722 57.6077 90.0052 57.2731ZM63.9067 84.7772C63.3727 85.3126 62.7053 85.6472 61.9043 85.6472C61.1033 85.6472 60.4358 85.3795 59.9018 84.7772C59.3679 84.2419 59.0341 83.5057 59.0341 82.7696C59.0341 81.9666 59.3011 81.2974 59.9018 80.762C60.4358 80.2267 61.1033 79.892 61.9043 79.892C62.7053 79.892 63.3727 80.1597 63.9067 80.762C64.4407 81.2974 64.7745 82.0335 64.7745 82.7696C64.7077 83.5057 64.4407 84.1749 63.9067 84.7772ZM64.7077 71.2594H56.164V70.5902C56.164 70.3894 56.2307 70.2556 56.3642 70.1217L60.7028 65.7719C60.8363 65.6381 60.9698 65.5712 61.1701 65.5712H64.7077V71.2594ZM83.8644 84.7772C83.3304 85.3126 82.6629 85.6472 81.8619 85.6472C81.061 85.6472 80.3935 85.3795 79.8595 84.7772C79.3255 84.2419 78.9918 83.5057 78.9918 82.7696C78.9918 81.9666 79.2588 81.2974 79.8595 80.762C80.3935 80.2267 81.061 79.892 81.8619 79.892C82.6629 79.892 83.3304 80.1597 83.8644 80.762C84.3984 81.2974 84.7321 82.0335 84.7321 82.7696C84.7321 83.5057 84.3984 84.1749 83.8644 84.7772Z" fill="white"/>
<defs>
<filter id="filter0_d_1_15916" x="0.862793" y="0.0246582" width="145.213" height="145.213" filterUnits="userSpaceOnUse" color-interpolation-filters="sRGB">
<feFlood flood-opacity="0" result="BackgroundImageFix"/>
<feColorMatrix in="SourceAlpha" type="matrix" values="0 0 0 0 0 0 0 0 0 0 0 0 0 0 0 0 0 0 127 0" result="hardAlpha"/>
<feOffset/>
<feGaussianBlur stdDeviation="12.5"/>
<feComposite in2="hardAlpha" operator="out"/>
<feColorMatrix type="matrix" values="0 0 0 0 0 0 0 0 0 0 0 0 0 0 0 0 0 0 0.06 0"/>
<feBlend mode="normal" in2="BackgroundImageFix" result="effect1_dropShadow_1_15916"/>
<feBlend mode="normal" in="SourceGraphic" in2="effect1_dropShadow_1_15916" result="shape"/>
</filter>
</defs>
</svg>
