<svg width="19" height="18" viewBox="0 0 19 18" fill="none" xmlns="http://www.w3.org/2000/svg">
<path d="M15.6354 3.42769C13.9355 1.79769 11.6754 0.899994 9.27147 0.899994C6.86749 0.899994 4.60739 1.79769 2.90754 3.42769C1.20765 5.05774 0.271484 7.22493 0.271484 9.53016C0.271484 11.0696 0.699663 12.5811 1.5097 13.9012C2.29554 15.1817 3.41914 16.2528 4.75908 16.9987C4.8824 17.0673 5.01715 17.1 5.15019 17.1C5.41926 17.1 5.6811 16.9664 5.82591 16.7271C6.04229 16.3697 5.91555 15.9117 5.54274 15.7042C3.25412 14.4303 1.83239 12.0646 1.83239 9.53012C1.83239 5.59679 5.16954 2.39676 9.27143 2.39676C13.3734 2.39676 16.7105 5.59679 16.7105 9.53012C16.7105 11.1928 16.2409 12.5798 15.3526 13.5411C14.6296 14.3236 13.6589 14.7724 12.6895 14.7724C11.7181 14.7724 10.6173 14.2823 10.2126 12.9842C11.7784 12.6742 12.9591 11.3417 12.9591 9.74987V7.569C12.9591 7.46573 12.8717 7.38193 12.764 7.38193H11.7201V5.34015C11.7201 4.92685 11.3707 4.59179 10.9397 4.59179C10.5086 4.59179 10.1592 4.92685 10.1592 5.34015V7.38193H8.38383V5.34015C8.38383 4.92685 8.03441 4.59179 7.60336 4.59179C7.1723 4.59179 6.82292 4.92685 6.82292 5.34015V7.38193H5.77898C5.67123 7.38193 5.58389 7.46573 5.58389 7.569V9.74987C5.58389 11.4373 6.91054 12.8329 8.6161 13.0287C8.79938 13.8541 9.18187 14.5639 9.74829 15.1178C10.5075 15.8602 11.5522 16.2691 12.6896 16.2691C14.1054 16.2691 15.5019 15.6365 16.521 14.5337C17.3195 13.6695 18.2715 12.0998 18.2715 9.53005C18.2714 7.22493 17.3353 5.0577 15.6354 3.42769Z" fill="#169F24"/>
</svg>
