<svg width="73" height="76" viewBox="0 0 73 76" fill="none" xmlns="http://www.w3.org/2000/svg">
<path d="M11.0541 28.0987C12.3637 22.0355 16.0224 16.77 21.2332 13.469C26.4441 10.1681 32.7679 9.10988 38.8093 10.5163L38.9811 9.7783L38.8093 10.5164C44.8492 11.9223 50.1126 15.6759 53.4497 20.9439C57.2355 26.9201 58.4887 34.1582 56.9332 41.0655L52.5739 60.4239C52.463 60.9164 52.1607 61.3455 51.7334 61.6162C51.3062 61.8868 50.789 61.9768 50.2963 61.8667L30.9312 57.5372C24.0214 55.9925 18.0128 51.7669 14.227 45.7907C10.8898 40.5227 9.74491 34.1602 11.0541 28.0987Z" fill="#12741C" stroke="#02590B" stroke-width="1.51557"/>
<path d="M36.0557 21.2902C35.92 21.2969 35.7953 21.3669 35.7178 21.4785L25.5926 36.0038C25.389 36.2956 25.5979 36.6959 25.9537 36.6959H32.9589L32.1181 47.2269C32.0852 47.672 32.6594 47.8778 32.9168 47.5132L43.0419 32.9887C43.2453 32.6971 43.0371 32.2973 42.6817 32.2966H35.6757L36.5174 21.7648C36.5385 21.4996 36.3214 21.2764 36.0557 21.2902Z" fill="white"/>
</svg>
