<svg width="239" height="44" viewBox="0 0 239 44" fill="none" xmlns="http://www.w3.org/2000/svg">
<path d="M5.50156 30.6774H22.3204V26.5179H5.50156V18.7415H25.0331V14.582H0.799805V42.6133H25.2141V38.4538H5.68258V30.6774H5.50156Z" fill="#12741C"/>
<path d="M190.507 23.0818L188.517 18.9223H205.879V14.582H181.826L185.624 23.0818H190.507Z" fill="#12741C"/>
<path d="M34.9795 29.2313H30.0967V42.614H34.9795V29.2313Z" fill="#12741C"/>
<path d="M204.252 26.5184H182.551V30.6779H204.252V26.5184Z" fill="#12741C"/>
<path d="M206.24 38.4532H181.826V42.6127H206.24V38.4532Z" fill="#12741C"/>
<path d="M46.9173 35.7411L34.9812 14.582H29.7368L46.1936 42.6133H48.0021L59.2145 23.0818V42.6133H64.0977V14.582H59.2145L46.9173 35.7411Z" fill="#12741C"/>
<path d="M164.467 36.1028L156.51 14.582H153.254L142.584 43.1558H147.106L154.882 22.7201L162.478 43.1558H166.456L177.126 14.582H172.243L164.467 36.1028Z" fill="#12741C"/>
<path d="M229.029 31.2199C233.731 30.4965 236.263 26.6988 236.263 22.901C236.263 18.7415 233.369 14.582 227.401 14.582H210.945L214.381 18.7415H226.317C229.572 18.7415 231.199 20.7308 231.199 22.901C231.199 24.8903 229.572 27.0604 226.317 27.0604H225.412L221.434 22.7201H215.827L219.625 27.0604H210.764V42.6133H215.646V31.4008H223.061L232.646 42.6133H238.614L229.029 31.2199Z" fill="#12741C"/>
<path d="M84.5305 14.582H69.8822L74.946 24.1669H79.6477L76.7545 18.9223H83.9883C87.0627 18.9223 88.5095 21.2734 88.5095 23.6244C88.5095 25.9754 87.0627 28.3264 83.9883 28.3264H69.7012V42.6133H74.5839V32.4858H84.5305C90.3176 32.4858 93.3923 27.9647 93.3923 23.4435C93.3923 18.7415 90.4985 14.582 84.5305 14.582Z" fill="#12741C"/>
<path d="M123.958 17.4761L121.245 21.6355C123.054 23.2631 123.958 25.6142 123.958 28.6886C123.958 35.5607 118.171 38.9968 113.288 38.9968C108.405 38.9968 102.799 35.5607 102.799 28.6886H97.916C97.916 38.6351 106.235 43.518 113.469 43.518C120.702 43.518 129.022 38.6351 129.022 28.6886C129.022 23.6249 127.032 20.0079 123.958 17.4761Z" fill="#12741C"/>
<path d="M122.688 16.7522C123.23 16.0288 122.688 14.7629 121.783 14.7629H116.358C115.996 14.7629 115.635 14.582 115.273 14.4012C114.911 14.0395 114.911 13.6778 114.911 13.3161L117.624 0.837665C117.624 0.475972 117.262 0.295131 117.081 0.475977L105.146 18.199C104.603 18.9223 105.146 20.1883 106.05 20.1883H111.475C111.837 20.1883 112.198 20.3691 112.56 20.55C112.922 20.9117 112.922 21.2733 112.922 21.635L110.39 34.1135C110.39 34.4752 110.752 34.656 110.933 34.4752L122.688 16.7522Z" fill="#12741C"/>
<path d="M137.7 14.582H132.636L139.146 31.7625L144.029 31.5816L137.7 14.582Z" fill="#12741C"/>
</svg>
