<svg width="60" height="62" viewBox="0 0 60 62" fill="none" xmlns="http://www.w3.org/2000/svg">
<path d="M8.84605 22.9945C9.91775 18.0327 12.9118 13.7237 17.176 11.0224C21.4403 8.32111 26.6154 7.45515 31.5593 8.60612L31.6999 8.00215L31.5593 8.60613C36.5021 9.7567 40.8093 12.8284 43.5402 17.1395C46.6383 22.0301 47.6638 27.9533 46.3909 33.6058L42.8235 49.4476C42.7327 49.8507 42.4854 50.2019 42.1357 50.4233C41.7861 50.6448 41.3629 50.7185 40.9597 50.6283L25.1123 47.0854C19.4578 45.8212 14.5406 42.3633 11.4426 37.4727C8.7116 33.1617 7.77466 27.9549 8.84605 22.9945Z" fill="#12741C" stroke="#02590B" stroke-width="1.24026"/>
<path d="M29.3055 17.4229C29.1945 17.4283 29.0925 17.4856 29.029 17.5769L20.7431 29.4636C20.5765 29.7024 20.7474 30.03 21.0386 30.03H26.7713L26.0832 38.6479C26.0563 39.0123 26.5262 39.1807 26.7368 38.8822L35.0227 26.9962C35.1891 26.7576 35.0187 26.4304 34.7279 26.4299H28.9945L29.6833 17.8112C29.7006 17.5942 29.5229 17.4116 29.3055 17.4229Z" fill="white"/>
</svg>
