<svg width="218" height="399" viewBox="0 0 218 399" fill="none" xmlns="http://www.w3.org/2000/svg">
<path d="M1.00098 282.795V335.718C1.00098 338.598 2.8011 341.119 6.40134 343.279L96.4074 395.122C103.608 399.443 115.489 399.443 122.689 395.122L211.975 343.279C215.575 341.119 217.376 338.598 217.376 335.718V282.795H1.00098Z" fill="url(#paint0_linear_1_14847)"/>
<path d="M211.616 275.234C218.817 279.555 218.817 286.395 211.616 290.355L122.33 342.199C115.13 346.519 103.249 346.519 96.0486 342.199L6.04246 290.355C-1.15803 286.035 -1.15803 279.195 6.04246 275.234L95.3285 223.391C102.529 219.071 114.41 219.071 121.61 223.391L211.616 275.234Z" fill="url(#paint1_linear_1_14847)"/>
<path d="M192.896 276.674C198.656 280.274 198.656 285.675 192.896 288.915L120.171 331.398C114.411 334.998 104.69 334.998 98.9296 331.398L25.4846 288.915C19.7243 285.315 19.3642 279.914 25.4846 276.674L98.5696 234.191C104.33 230.591 114.051 230.591 120.171 234.191L192.896 276.674Z" fill="url(#paint2_linear_1_14847)"/>
<g opacity="0.2">
<path d="M139.355 275.159L131.294 279.872C136.668 281.717 139.355 284.381 139.355 287.865C139.355 295.653 122.159 299.547 107.65 299.547C93.1403 299.547 76.4812 295.653 76.4812 287.865H61.9722C61.9722 299.137 86.691 304.67 108.186 304.67C129.682 304.67 154.402 299.137 154.402 287.865C154.402 282.127 148.49 278.028 139.355 275.159Z" fill="#12741C"/>
<path d="M135.592 274.338C137.204 273.518 135.592 272.084 132.905 272.084H116.783C115.709 272.084 114.633 271.879 113.559 271.674C112.484 271.264 112.484 270.854 112.484 270.444L120.545 256.303C120.545 255.893 119.47 255.688 118.932 255.893L83.466 275.977C81.8538 276.797 83.466 278.232 86.1529 278.232H102.274C103.349 278.232 104.423 278.437 105.498 278.642C106.573 279.052 106.574 279.462 106.574 279.871L99.0495 294.013C99.0495 294.422 100.125 294.627 100.662 294.422L135.592 274.338Z" fill="#12741C"/>
</g>
<path d="M55.168 45.6401V44.8625C55.168 44.4738 55.168 44.4738 55.5567 44.085L57.8893 41.3636C58.2781 40.9748 58.2781 40.9748 58.2781 40.9748L59.0557 40.5861C59.4444 40.5861 59.4444 40.5861 59.4444 40.5861V53.8042C59.4444 54.193 59.4444 54.193 59.0557 54.193L58.2781 54.5818C57.8894 54.5818 57.8893 54.5818 57.8893 54.5818V42.9187L55.168 45.6401C55.168 46.0288 55.168 46.0288 55.168 45.6401Z" fill="#25DD38"/>
<path d="M74.6116 14.8618L72.6678 16.0281C71.8902 16.4169 71.1127 16.8057 70.3352 16.4169C69.9464 16.0281 69.5576 15.6394 69.5576 14.4731V7.08641C69.5576 5.9201 69.9464 5.14256 70.3352 4.36502C70.7239 3.58748 71.5015 2.80994 72.6678 2.0324L74.6116 0.866095C75.3892 0.477325 76.1667 0.0885461 76.9443 0.477316C77.333 0.866086 77.7218 1.25486 77.7218 2.42117V9.80781C77.7218 10.9741 77.333 11.7517 76.9443 12.5292C76.1667 13.6955 75.3892 14.473 74.6116 14.8618ZM72.6678 14.8618L74.2229 13.6955C75.3892 12.918 76.1667 12.1404 76.1667 10.9741V3.58749C76.1667 2.42118 75.3892 2.03241 74.2229 2.80995L72.6678 3.97625C71.5015 4.75379 70.7239 5.53134 70.7239 6.69765V14.0843C70.7239 15.2506 71.5015 15.2506 72.6678 14.8618Z" fill="#25DD38"/>
<path d="M87.8228 38.6414V37.8639C87.8228 37.4751 87.8227 37.4751 88.2115 37.0863L90.5441 34.3649C90.9329 33.9762 90.9329 33.9762 90.9329 33.9762L91.7105 33.5874C92.0992 33.5874 92.0992 33.5874 92.0992 33.5874V46.8056C92.0992 47.1943 92.0992 47.1944 91.7105 47.1944L91.3217 47.5831C90.9329 47.5831 90.9329 47.5831 90.9329 47.5831V35.92L87.8228 38.6414C88.2115 38.6414 87.8228 39.0302 87.8228 38.6414Z" fill="#25DD38"/>
<path d="M139.92 10.5846V9.8071C139.92 9.41833 139.92 9.41833 140.309 9.02956L142.642 6.30817C143.031 5.9194 143.031 5.9194 143.031 5.9194L143.808 5.53064C144.197 5.53064 144.197 5.53064 144.197 5.53064V18.7488C144.197 19.1376 144.197 19.1376 143.808 19.1376L143.031 19.5264C142.642 19.5264 142.642 19.5264 142.642 19.5264V7.86325L139.92 10.5846C139.92 10.9734 139.92 10.9734 139.92 10.5846Z" fill="#25DD38"/>
<path d="M91.3201 104.343L89.3763 105.51C88.5987 105.898 87.8212 106.287 87.0436 105.898C86.6549 105.51 86.2661 105.121 86.2661 103.955V96.568C86.2661 95.4017 86.6549 94.6241 87.0436 93.8466C87.4324 93.069 88.21 92.2915 89.3763 91.514L91.3201 90.3477C92.0977 89.9589 92.8752 89.5701 93.6528 89.9589C94.0415 90.3477 94.4303 90.7364 94.4303 91.9027V99.2894C94.4303 100.456 94.0415 101.233 93.6528 102.011C92.8752 103.177 92.0977 103.955 91.3201 104.343ZM89.3763 104.343L90.9313 103.177C92.0977 102.4 92.8752 101.622 92.8752 100.456V93.069C92.8752 91.9027 92.0977 91.514 90.9313 92.2915L89.3763 93.4578C88.21 94.2354 87.4324 95.0129 87.4324 96.1792V103.566C87.4324 104.732 88.21 104.732 89.3763 104.343Z" fill="#AAF7B3"/>
<path d="M47.0049 220.196V219.419C47.0049 219.03 47.0049 219.03 47.3936 218.641L49.7263 215.92C50.115 215.531 50.115 215.531 50.115 215.531L51.2813 214.754C51.6701 214.754 51.6701 214.754 51.6701 214.754V227.972C51.6701 228.36 51.6701 228.36 51.2813 228.36L50.5038 228.749C50.115 228.749 50.115 228.749 50.115 228.749V217.086L47.0049 220.196C47.3937 220.585 47.0049 220.585 47.0049 220.196Z" fill="#25DD38"/>
<path d="M150.415 76.7413V75.9637C150.415 75.575 150.415 75.5749 150.804 75.1862L153.136 72.4648C153.525 72.076 153.525 72.076 153.525 72.076L154.303 71.6873C154.692 71.6873 154.692 71.6873 154.692 71.6873V84.9054C154.692 85.2942 154.692 85.2942 154.303 85.2942L153.525 85.683C153.136 85.683 153.136 85.683 153.136 85.683V74.0199L150.415 76.7413C150.804 76.7413 150.415 77.13 150.415 76.7413Z" fill="#25DD38"/>
<path d="M134.09 149.44V148.662C134.09 148.274 134.09 148.274 134.479 147.885L136.812 145.163C137.2 144.775 137.2 144.775 137.2 144.775L137.978 144.386C138.367 144.386 138.367 144.386 138.367 144.386V157.604C138.367 157.993 138.367 157.993 137.978 157.993L137.2 158.382C136.812 158.382 136.812 158.382 136.812 158.382V146.718L134.09 149.44Z" fill="#25DD38"/>
<path d="M36.1224 168.879L34.1785 170.046C33.401 170.434 32.6234 170.823 31.8459 170.434C31.4571 170.046 31.0684 169.657 31.0684 168.491V161.104C31.0684 159.938 31.4571 159.16 31.8459 158.383C32.2347 157.605 33.0122 156.828 34.1785 156.05L36.1224 154.884C36.8999 154.495 37.6774 154.106 38.455 154.495C38.8438 154.884 39.2325 155.272 39.2325 156.439V164.214C39.2325 165.38 38.8438 166.158 38.455 166.936C38.0662 167.713 37.2887 168.491 36.1224 168.879ZM34.1785 168.879L35.7336 167.713C36.8999 166.936 37.6775 166.158 37.6775 164.992V157.605C37.6775 156.439 36.8999 156.05 35.7336 156.828L34.1785 157.994C33.0122 158.771 32.2347 159.549 32.2347 160.715V168.102C32.6234 169.268 33.0122 169.657 34.1785 168.879Z" fill="#AAF7B3"/>
<path d="M69.1636 235.36V234.193C69.1636 233.805 69.1636 233.805 69.5523 233.416L71.885 230.695C72.2738 230.306 72.2737 230.306 72.2737 230.306L73.0513 229.917C73.44 229.917 73.44 229.917 73.44 229.917V243.135C73.44 243.524 73.44 243.524 73.0513 243.524L72.2737 243.913C71.885 243.913 71.885 243.913 71.885 243.913V232.25L69.1636 235.36Z" fill="#7BF488"/>
<path d="M123.595 179.377L121.651 180.543C120.873 180.932 120.096 181.321 119.318 180.932C118.929 180.543 118.541 180.154 118.541 178.988V171.601C118.541 170.435 118.929 169.658 119.318 168.88C119.707 168.102 120.484 167.325 121.651 166.547L123.595 165.381C124.372 164.992 125.15 164.604 125.927 164.992C126.316 165.381 126.705 165.77 126.705 166.936V174.323C126.705 175.489 126.316 176.267 125.927 177.044C125.538 177.822 124.761 178.599 123.595 179.377ZM121.651 178.988L123.206 177.822C124.372 177.044 125.15 176.267 125.15 175.1V167.714C125.15 166.547 124.372 166.159 123.206 166.936L121.651 168.103C120.484 168.88 119.707 169.658 119.707 170.824V178.211C120.096 179.377 120.484 179.766 121.651 178.988Z" fill="#25DD38"/>
<path d="M173.746 140.111V139.334C173.746 138.945 173.746 138.945 174.134 138.556L176.467 135.835C176.856 135.446 176.856 135.446 176.856 135.446L177.633 135.057C178.022 135.057 178.022 135.057 178.022 135.057V148.275C178.022 148.664 178.022 148.664 177.633 148.664L176.856 149.053C176.467 149.053 176.467 149.053 176.467 149.053V137.39L173.746 140.111Z" fill="#25DD38"/>
<path d="M106.878 203.868V203.091C106.878 202.702 106.878 202.702 107.267 202.313L109.599 199.592C109.988 199.203 109.988 199.203 109.988 199.203L110.766 198.814C111.154 198.814 111.154 198.814 111.154 198.814V212.033C111.154 212.421 111.154 212.421 110.766 212.421L109.988 212.81C109.599 212.81 109.599 212.81 109.599 212.81V201.147L106.878 203.868C106.878 204.257 106.878 204.257 106.878 203.868Z" fill="#25DD38"/>
<path d="M106.878 280.456V279.679C106.878 279.29 106.878 279.29 107.267 278.901L109.599 276.18C109.988 275.791 109.988 275.791 109.988 275.791L110.766 275.402C111.154 275.402 111.154 275.402 111.154 275.402V288.621C111.154 289.009 111.154 289.009 110.766 289.009L109.988 289.398C109.599 289.398 109.599 289.398 109.599 289.398V277.735L106.878 280.456C106.878 280.845 106.878 280.845 106.878 280.456Z" fill="#25DD38"/>
<path d="M123.595 51.8596L121.651 53.0259C120.873 53.4147 120.096 53.8035 119.318 53.4147C118.929 53.0259 118.541 52.6371 118.541 51.4708V44.0842C118.541 42.9179 118.929 42.1404 119.318 41.3628C119.707 40.5853 120.484 39.8077 121.651 39.0302L123.595 37.8639C124.372 37.4751 125.15 37.0864 125.927 37.4751C126.316 37.8639 126.705 38.2527 126.705 39.419V46.8056C126.705 47.9719 126.316 48.7494 125.927 49.527C125.538 50.3045 124.761 51.4708 123.595 51.8596ZM121.651 51.8596L123.206 50.6933C124.372 49.9158 125.15 49.1382 125.15 47.9719V40.5853C125.15 39.419 124.372 39.0302 123.206 39.8077L121.651 40.974C120.484 41.7516 119.707 42.5291 119.707 43.6954V51.0821C120.096 52.2484 120.484 52.2484 121.651 51.8596Z" fill="#169F24"/>
<path d="M153.526 49.5276V48.7501C153.526 48.3613 153.526 48.3613 153.915 47.9726L156.248 45.2512C156.637 44.8624 156.637 44.8624 156.637 44.8624L157.414 44.4736C157.803 44.4736 157.803 44.4736 157.803 44.4736V57.6918C157.803 58.0806 157.803 58.0806 157.414 58.0806L156.637 58.4693C156.248 58.4693 156.248 58.4693 156.248 58.4693V46.8062L153.526 49.5276C153.526 49.9164 153.526 49.9164 153.526 49.5276Z" fill="#169F24"/>
<path d="M123.595 128.448L121.651 129.614C120.873 130.003 120.096 130.391 119.318 130.003C118.929 129.614 118.541 129.225 118.541 128.059V120.672C118.541 119.506 118.929 118.728 119.318 117.951C119.707 117.173 120.484 116.396 121.651 115.618L123.595 114.452C124.372 114.063 125.15 113.674 125.927 114.063C126.316 114.452 126.705 114.841 126.705 116.007V123.394C126.705 124.56 126.316 125.337 125.927 126.115C125.538 127.281 124.761 128.059 123.595 128.448ZM121.651 128.059L123.206 126.893C124.372 126.115 125.15 125.337 125.15 124.171V116.785C125.15 115.618 124.372 115.229 123.206 116.007L121.651 117.173C120.484 117.951 119.707 118.728 119.707 119.895V127.281C120.096 128.448 120.484 128.836 121.651 128.059Z" fill="#169F24"/>
<path d="M180.741 95.7915L178.797 96.9578C178.019 97.3466 177.242 97.7354 176.464 97.3466C176.075 96.9578 175.687 96.5691 175.687 95.4027V88.0161C175.687 86.8498 176.075 86.0722 176.464 85.2947C176.853 84.5172 177.63 83.7396 178.797 82.9621L180.741 81.7958C181.518 81.407 182.296 81.0182 183.073 81.407C183.462 81.7958 183.851 82.1845 183.851 83.3509V90.7375C183.851 91.9038 183.462 92.6814 183.073 93.4589C182.296 94.2364 181.518 95.014 180.741 95.7915ZM178.797 95.4027L180.352 94.2364C181.518 93.4589 182.296 92.6814 182.296 91.515V84.1284C182.296 82.9621 181.518 82.5733 180.352 83.3509L178.797 84.5172C177.63 85.2947 176.853 86.0722 176.853 87.2386V94.6252C176.853 95.7915 177.63 96.1803 178.797 95.4027Z" fill="#169F24"/>
<path d="M150.414 150.606L148.47 151.773C147.304 152.55 146.526 152.55 145.749 152.55C145.36 152.161 144.971 151.773 144.971 150.606V143.22C144.971 142.053 145.36 141.276 145.749 140.498C146.138 139.721 146.915 138.943 148.081 138.166L150.025 136.999C150.803 136.61 151.58 136.222 152.358 136.61C152.747 136.999 153.135 137.388 153.135 138.554V145.941C153.135 147.107 152.747 147.885 152.358 148.662C151.969 149.44 151.192 150.217 150.414 150.606ZM148.47 150.606L150.025 149.44C151.192 148.662 151.969 147.885 151.969 146.719V139.332C151.969 138.166 151.192 137.777 150.025 138.554L148.47 139.332C147.304 140.109 146.526 140.887 146.526 142.053V149.44C146.526 150.995 147.304 150.995 148.47 150.606Z" fill="#169F24"/>
<path d="M185.791 107.454V106.676C185.791 106.288 185.791 106.288 186.18 105.899L188.512 103.178C188.901 102.789 188.901 102.789 188.901 102.789L189.679 102.4C190.067 102.4 190.067 102.4 190.067 102.4V115.618C190.067 116.007 190.067 116.007 189.679 116.007L188.901 116.396C188.512 116.396 188.512 116.396 188.512 116.396V104.733L185.791 107.454Z" fill="#169F24"/>
<path d="M64.8919 275.014L62.9481 276.181C62.1705 276.569 61.393 276.958 60.6154 276.569C60.2267 276.181 59.8379 275.792 59.8379 274.626V267.239C59.8379 266.073 60.2267 265.295 60.6154 264.518C61.0042 263.74 61.7818 262.963 62.9481 262.185L64.8919 261.019C65.6695 260.63 66.447 260.241 67.2245 260.63C67.6133 261.019 68.0021 261.407 68.0021 262.574V269.96C68.0021 271.127 67.6133 271.904 67.2245 272.682C66.447 273.848 65.6695 274.626 64.8919 275.014ZM62.9481 275.014L64.5031 273.848C65.6695 273.071 66.447 272.293 66.447 271.127V263.74C66.447 262.574 65.6695 262.185 64.5031 262.963L62.9481 264.129C61.7818 264.906 61.0042 265.684 61.0042 266.85V274.237C61.0042 275.403 61.7818 275.792 62.9481 275.014Z" fill="#169F24"/>
<path d="M121.648 220.974V220.197C121.648 219.808 121.648 219.808 122.037 219.419L124.369 216.698C124.758 216.309 124.758 216.309 124.758 216.309L125.536 215.92C125.924 215.92 125.924 215.92 125.924 215.92V229.138C125.924 229.527 125.924 229.527 125.536 229.527L124.758 229.916C124.369 229.916 124.369 229.916 124.369 229.916V218.253L121.648 220.974Z" fill="#169F24"/>
<path d="M147.698 205.813V205.035C147.698 204.646 147.698 204.646 148.087 204.258L150.419 201.536C150.808 201.147 150.808 201.147 150.808 201.147L151.585 200.759C151.974 200.759 151.974 200.759 151.974 200.759V213.977C151.974 214.366 151.974 214.366 151.585 214.366L150.808 214.754C150.419 214.754 150.419 214.754 150.419 214.754V203.091L147.698 205.813C147.698 206.201 147.698 206.201 147.698 205.813Z" fill="#169F24"/>
<path d="M31.0648 139.333L29.1209 140.499C27.9546 140.888 27.1771 141.276 26.7883 140.888C26.3995 140.499 26.0107 140.11 26.0107 138.944V131.557C26.0107 130.391 26.3995 129.613 26.7883 128.836C27.1771 128.058 27.9546 127.281 29.1209 126.503L31.0648 125.337C31.8423 124.948 32.6198 124.559 33.3974 124.948C33.7861 125.337 34.1749 125.726 34.1749 126.892V134.279C34.1749 135.445 33.7861 136.222 33.3974 137C32.6198 138.166 31.8423 138.555 31.0648 139.333ZM29.1209 138.944L30.676 137.777C31.8423 137 32.6198 136.222 32.6198 135.056V127.669C32.6198 126.503 31.8423 126.114 30.676 126.892L29.1209 128.058C27.9546 128.836 27.177 129.613 27.177 130.78V138.166C27.177 139.333 27.9546 139.721 29.1209 138.944Z" fill="#169F24"/>
<path d="M144.198 259.075V258.297C144.198 257.909 144.198 257.909 144.587 257.52L146.92 254.798C147.308 254.41 147.308 254.41 147.308 254.41L148.475 253.632C148.863 253.632 148.863 253.632 148.863 253.632V266.85C148.863 267.239 148.863 267.239 148.475 267.239L147.697 267.628C147.308 267.628 147.308 267.628 147.308 267.628V255.965L144.198 259.075Z" fill="#169F24"/>
<path d="M168.69 167.324L166.746 168.491C165.968 168.879 165.191 169.268 164.413 168.879C164.025 168.491 163.636 168.102 163.636 166.936V159.549C163.636 158.383 164.025 157.605 164.413 156.828C164.802 156.05 165.58 155.272 166.746 154.495L168.69 153.329C169.467 152.94 170.245 152.551 171.022 152.94C171.411 153.329 171.8 153.717 171.8 154.884V162.27C171.8 163.437 171.411 164.214 171.022 164.992C170.245 166.158 169.467 166.547 168.69 167.324ZM166.746 166.936L168.301 165.769C169.467 164.992 170.245 164.214 170.245 163.048V155.661C170.245 154.495 169.467 154.106 168.301 154.884L166.746 156.05C165.58 156.828 164.802 157.605 164.802 158.771V166.158C164.802 167.324 165.58 167.713 166.746 166.936Z" fill="#169F24"/>
<path d="M106.878 306.116V305.338C106.878 304.949 106.878 304.949 107.267 304.56L109.599 301.839C109.988 301.45 109.988 301.45 109.988 301.45L110.766 301.062C111.154 301.062 111.154 301.062 111.154 301.062V314.28C111.154 314.668 111.154 314.668 110.766 314.668L109.988 315.057C109.599 315.057 109.599 315.057 109.599 315.057V303.394L106.878 306.116Z" fill="#169F24"/>
<path d="M170.637 267.239V266.461C170.637 266.073 170.637 266.073 171.026 265.684L173.358 262.962C173.747 262.574 173.747 262.574 173.747 262.574L174.524 262.185C174.913 262.185 174.913 262.185 174.913 262.185V275.403C174.913 275.792 174.913 275.792 174.524 275.792L173.747 276.181C173.358 276.181 173.358 276.181 173.358 276.181V264.517L170.637 267.239Z" fill="#169F24"/>
<path d="M48.1697 102.788L46.2259 103.955C45.4483 104.343 44.6708 104.732 43.8933 104.343C43.5045 103.955 43.1157 103.566 43.1157 102.4V95.0129C43.1157 93.8466 43.5045 93.0691 43.8933 92.2915C44.282 91.514 45.0596 90.7365 46.2259 89.9589L48.1697 88.7926C48.9473 88.4038 49.7248 88.0151 50.5024 88.4038C50.8911 88.7926 51.2799 89.1814 51.2799 90.3477V98.1231C51.2799 99.2894 50.8911 100.067 50.5024 100.844C50.1136 101.622 49.336 102.4 48.1697 102.788ZM46.2259 102.788L47.781 101.622C48.9473 100.844 49.7248 100.067 49.7248 98.9006V91.514C49.7248 90.3477 48.9473 89.9589 47.781 90.7364L46.2259 91.9028C45.0596 92.6803 44.282 93.4578 44.282 94.6241V102.011C44.6708 103.177 45.0596 103.566 46.2259 102.788Z" fill="#AAF7B3"/>
<path d="M123.206 26.5893L121.263 27.7557C120.485 28.1444 119.707 28.5332 118.93 28.1444C118.541 27.7557 118.152 27.3669 118.152 26.2006V18.8139C118.152 17.6476 118.541 16.8701 118.93 16.0926C119.319 15.315 120.096 14.5375 121.263 13.7599L123.206 12.5936C123.984 12.2049 124.761 11.8161 125.539 12.2049C125.928 12.5936 126.317 12.9824 126.317 14.1487V21.5353C126.317 22.7016 125.928 23.4792 125.539 24.2567C125.15 25.423 124.373 26.2006 123.206 26.5893ZM121.263 26.5893L122.818 25.423C123.984 24.6455 124.761 23.8679 124.761 22.7016V15.315C124.761 14.1487 123.984 13.7599 122.818 14.5375L121.263 15.315C120.096 16.0926 119.319 16.8701 119.319 18.0364V25.423C119.707 26.9781 120.096 26.9781 121.263 26.5893Z" fill="#169F24"/>
<path d="M170.637 14.1495V13.3719C170.637 12.9832 170.637 12.9832 171.026 12.5944L173.358 9.873C173.747 9.48423 173.747 9.48424 173.747 9.48424L174.524 9.09546C174.913 9.09546 174.913 9.09546 174.913 9.09546V22.3136C174.913 22.7024 174.913 22.7024 174.524 22.7024L173.747 23.0912C173.358 23.0912 173.358 23.0912 173.358 23.0912V11.4281L170.637 14.1495C170.637 14.5383 170.637 14.5383 170.637 14.1495Z" fill="#169F24"/>
<path d="M132.149 61.967V61.1894C132.149 60.8007 132.149 60.8007 132.538 60.4119L134.871 57.6905C135.26 57.3017 135.26 57.3017 135.26 57.3017L136.037 56.913C136.426 56.913 136.426 56.913 136.426 56.913V70.1311C136.426 70.5199 136.426 70.5199 136.037 70.5199L135.26 70.9087C134.871 70.9087 134.871 70.9087 134.871 70.9087V59.2456L132.149 61.967Z" fill="#169F24"/>
<path d="M85.8799 273.458V272.681C85.8799 272.292 85.8799 272.292 86.2686 271.903L88.6013 269.182C88.99 268.793 88.99 268.793 88.99 268.793L89.7676 268.404C90.1564 268.404 90.1563 268.404 90.1563 268.404V281.622C90.1563 282.011 90.1564 282.011 89.7676 282.011L88.99 282.4C88.6013 282.4 88.6013 282.4 88.6013 282.4V270.737L85.8799 273.458Z" fill="#169F24"/>
<path d="M150.025 113.286L148.081 114.452C147.304 114.841 146.526 115.23 145.749 114.841C145.36 114.452 144.971 114.063 144.971 112.897V105.899C144.971 104.733 145.36 103.955 145.749 103.178C146.138 102.4 146.915 101.623 148.081 100.845L150.025 99.6787C150.803 99.2899 151.58 98.9012 152.358 99.2899C152.747 99.6787 153.135 100.067 153.135 101.234V108.62C153.135 109.787 152.747 110.564 152.358 111.342C151.58 112.119 150.803 112.508 150.025 113.286ZM148.081 112.897L149.636 111.731C150.803 110.953 151.58 110.176 151.58 109.009V102.011C151.58 100.845 150.803 100.456 149.636 101.234L148.081 102.011C146.915 102.789 146.138 103.566 146.138 104.733V112.119C146.526 113.286 146.915 113.674 148.081 112.897Z" fill="#169F24"/>
<path d="M31.0653 81.4058L28.7327 82.5722C27.9552 82.9609 27.1776 83.3497 26.4001 82.9609C26.0113 82.5722 25.6226 82.1834 25.6226 81.0171V73.6305C25.6226 72.4641 26.0113 71.6866 26.4001 70.9091C26.7889 70.1315 27.5664 69.354 28.7327 68.5764L30.6766 67.4101C31.8429 67.0214 32.6204 67.0214 33.398 67.0214C33.7867 67.4101 34.1755 67.7989 34.1755 68.9652V76.3518C34.1755 77.5182 33.7867 78.2957 33.398 79.0732C32.6204 79.8508 31.8429 80.6283 31.0653 81.4058ZM29.1215 81.0171L30.6766 79.8508C31.8429 79.0732 32.6204 78.2957 32.6204 77.1294V69.7428C32.6204 68.5764 31.8429 68.1877 30.6766 68.9652L29.1215 70.1315C27.9552 70.9091 27.1776 71.6866 27.1776 72.8529V80.2395C27.1776 81.4059 27.9552 81.7946 29.1215 81.0171Z" fill="#169F24"/>
<path d="M34.5679 193.373V192.595C34.5679 192.207 34.5679 192.207 34.9567 191.818L37.2893 189.096C37.678 188.708 37.678 188.708 37.678 188.708L38.4556 188.319C38.8443 188.319 38.8444 188.319 38.8444 188.319V201.537C38.8444 201.926 38.8443 201.926 38.4556 201.926L37.678 202.315C37.2893 202.315 37.2893 202.315 37.2893 202.315V190.651L34.5679 193.373C34.5679 193.762 34.5679 193.762 34.5679 193.373Z" fill="#169F24"/>
<path d="M177.24 123.005L175.296 124.171C174.518 124.56 173.741 124.949 172.963 124.56C172.574 124.171 172.186 123.783 172.186 122.616V115.23C172.186 114.063 172.574 113.286 172.963 112.508C173.352 111.731 174.129 110.953 175.296 110.176L177.24 109.009C178.017 108.621 178.795 108.232 179.572 108.621C179.961 109.009 180.35 109.398 180.35 110.564V117.951C180.35 119.117 179.961 119.895 179.572 120.673C178.795 121.839 178.406 122.616 177.24 123.005ZM175.296 122.616L176.851 121.45C178.017 120.673 178.795 119.895 178.795 118.729V111.342C178.795 110.176 178.017 109.787 176.851 110.564L175.296 111.731C174.129 112.508 173.352 113.286 173.352 114.452V121.839C173.741 123.005 174.129 123.394 175.296 122.616Z" fill="#169F24"/>
<path d="M112.704 236.914L110.761 238.08C109.983 238.469 109.205 238.858 108.428 238.469C108.039 238.08 107.65 237.691 107.65 236.525V229.138C107.65 227.972 108.039 227.194 108.428 226.417C108.817 225.639 109.594 224.862 110.761 224.084L112.704 222.918C113.482 222.529 114.259 222.14 115.037 222.529C115.426 222.918 115.815 223.307 115.815 224.473V231.86C115.815 233.026 115.426 233.804 115.037 234.581C114.259 235.747 113.482 236.136 112.704 236.914ZM110.761 236.525L112.316 235.359C113.482 234.581 114.259 233.804 114.259 232.637V225.251C114.259 224.084 113.482 223.696 112.316 224.473L110.761 225.639C109.594 226.417 108.817 227.194 108.817 228.361V235.747C108.817 236.914 109.594 237.302 110.761 236.525Z" fill="#169F24"/>
<path d="M33.7913 252.464L31.8475 253.631C31.0699 254.019 30.2924 254.408 29.5148 254.019C29.1261 253.631 28.7373 253.242 28.7373 252.075V244.689C28.7373 243.523 29.1261 242.745 29.5148 241.967C29.9036 241.19 30.6812 240.412 31.8475 239.635L33.7913 238.469C34.5689 238.08 35.3464 237.691 36.1239 238.08C36.5127 238.469 36.9015 238.857 36.9015 240.024V247.41C36.9015 248.577 36.5127 249.354 36.1239 250.132C35.3464 251.298 34.5689 252.075 33.7913 252.464ZM31.8475 252.075L33.4025 250.909C34.5689 250.132 35.3464 249.354 35.3464 248.188V240.801C35.3464 239.635 34.5689 239.246 33.4025 240.024L31.8475 241.19C30.6812 241.967 29.9036 242.745 29.9036 243.911V251.298C29.9036 252.853 30.6812 252.853 31.8475 252.075Z" fill="#169F24"/>
<path d="M132.536 240.025V239.248C132.536 238.859 132.536 238.859 132.924 238.47L135.257 235.749C135.646 235.36 135.646 235.36 135.646 235.36L136.423 234.971C136.812 234.971 136.812 234.971 136.812 234.971V248.19C136.812 248.578 136.812 248.578 136.423 248.578L135.646 248.967C135.257 248.967 135.257 248.967 135.257 248.967V237.304L132.536 240.025C132.924 240.414 132.536 240.414 132.536 240.025Z" fill="#169F24"/>
<path d="M176.082 223.306L174.138 224.473C173.361 224.861 172.583 225.25 171.806 224.861C171.417 224.473 171.028 224.084 171.028 222.918V215.531C171.028 214.365 171.417 213.587 171.806 212.81C172.195 212.032 172.972 211.255 174.138 210.477L176.082 209.311C176.86 208.922 177.637 208.533 178.415 208.922C178.804 209.311 179.192 209.699 179.192 210.866V218.252C179.192 219.419 178.804 220.196 178.415 220.974C177.637 222.14 176.86 222.529 176.082 223.306ZM174.138 222.918L175.694 221.751C176.86 220.974 177.637 220.196 177.637 219.03V211.643C177.637 210.477 176.86 210.088 175.694 210.866L174.138 212.032C172.972 212.81 172.195 213.587 172.195 214.753V222.14C172.195 223.306 172.972 223.695 174.138 222.918Z" fill="#169F24"/>
<path d="M70.3299 206.591L68.3861 207.757C67.6085 208.146 66.831 208.535 66.0534 208.146C65.6647 207.758 65.2759 207.369 65.2759 206.202V199.205C65.2759 198.038 65.6647 197.261 66.0534 196.483C66.4422 195.706 67.2197 194.928 68.3861 194.151L70.3299 192.984C71.1074 192.595 71.885 192.207 72.6625 192.595C73.0513 192.984 73.44 193.373 73.44 194.539V201.926C73.44 203.092 73.0513 203.87 72.6625 204.647C72.2737 205.425 71.4962 206.202 70.3299 206.591ZM68.3861 206.591L69.9411 205.425C71.1074 204.647 71.885 203.87 71.885 202.703V195.317C71.885 194.151 71.1074 193.762 69.9411 194.539L68.3861 195.706C67.2197 196.483 66.4422 197.261 66.4422 198.427V205.814C66.831 206.98 67.2197 206.98 68.3861 206.591Z" fill="#169F24"/>
<path d="M75.3877 65.4659V64.6883C75.3877 64.2996 75.3877 64.2996 75.7765 63.9108L78.1091 61.1894C78.4979 60.8006 78.4979 60.8006 78.4979 60.8006L79.2754 60.4119C79.6642 60.4119 79.6642 60.4119 79.6642 60.4119V73.6301C79.6642 74.0188 79.6642 74.0188 79.2754 74.0188L78.4979 74.4076C78.1091 74.4076 78.1091 74.4076 78.1091 74.4076V62.7445L75.3877 65.4659Z" fill="#7BF488"/>
<path d="M33.0132 37.4759V36.6984C33.0132 36.3096 33.0132 36.3096 33.4019 35.9208L35.7346 33.1994C36.1233 32.8106 36.1233 32.8107 36.1233 32.8107L36.9009 32.4219C37.2897 32.4219 37.2896 32.4219 37.2896 32.4219V45.6401C37.2896 46.0288 37.2897 46.0288 36.9009 46.0288L36.1233 46.4176C35.7346 46.4176 35.7346 46.4176 35.7346 46.4176V34.7545L33.0132 37.4759C33.0132 37.8647 33.0132 37.8647 33.0132 37.4759Z" fill="#7BF488"/>
<path d="M66.0526 140.889L64.1087 142.055C63.3312 142.444 62.5536 142.833 61.7761 142.444C61.3873 142.055 60.9985 141.667 60.9985 140.5V133.114C60.9985 131.947 61.3873 131.17 61.7761 130.392C62.1648 129.615 62.9424 128.837 64.1087 128.06L66.0526 126.893C66.8301 126.505 67.6076 126.116 68.3852 126.505C68.7739 126.893 69.1627 127.282 69.1627 128.448V135.835C69.1627 137.001 68.7739 137.779 68.3852 138.556C67.9964 139.334 67.2189 140.111 66.0526 140.889ZM64.1087 140.5L65.6638 139.334C66.8301 138.556 67.6076 137.779 67.6076 136.613V129.226C67.6076 128.06 66.8301 127.671 65.6638 128.448L64.1087 129.615C62.9424 130.392 62.1649 131.17 62.1649 132.336V139.723C62.5536 140.889 62.9424 141.278 64.1087 140.5Z" fill="#7BF488"/>
<path d="M141.864 92.2915L139.92 93.4578C138.753 94.2354 137.976 94.2354 137.587 94.2354C137.198 94.2354 136.81 93.4578 136.81 92.2915V84.9049C136.81 83.7386 137.198 82.961 137.587 82.1835C137.976 81.406 138.753 80.6284 139.92 79.8509L141.864 78.6846C142.641 78.2958 143.419 77.907 144.196 78.2958C144.585 78.6846 144.974 79.0733 144.974 80.2397V87.6263C144.974 88.7926 144.585 89.5701 144.196 90.3477C143.419 91.1252 142.641 91.9027 141.864 92.2915ZM139.92 92.2915L141.475 91.1252C142.641 90.3477 143.419 89.5701 143.419 88.4038V81.0172C143.419 79.8509 142.641 79.4621 141.475 80.2397L139.92 81.4059C138.753 82.1835 137.976 82.961 137.976 84.1274V91.514C137.976 92.6803 138.753 93.0691 139.92 92.2915Z" fill="#7BF488"/>
<path d="M106.878 127.668V126.891C106.878 126.502 106.878 126.502 107.267 126.113L109.599 123.392C109.988 123.003 109.988 123.003 109.988 123.003L110.766 122.615C111.154 122.615 111.154 122.615 111.154 122.615V135.833C111.154 136.221 111.154 136.221 110.766 136.221L109.988 136.61C109.599 136.61 109.599 136.61 109.599 136.61V124.947L106.878 127.668Z" fill="#7BF488"/>
<path d="M83.5508 166.547V165.769C83.5508 165.38 83.5508 165.38 83.9395 164.991L86.2722 162.27C86.6609 161.881 86.6609 161.881 86.6609 161.881L87.4385 161.493C87.8273 161.493 87.8272 161.493 87.8272 161.493V174.711C87.8272 175.099 87.8273 175.1 87.4385 175.1L86.6609 175.488C86.2722 175.488 86.2722 175.488 86.2722 175.488V163.825L83.5508 166.547Z" fill="#169F24"/>
<path d="M139.151 196.092L136.818 197.259C136.041 197.647 135.263 198.036 134.486 197.647C134.097 197.259 133.708 196.87 133.708 195.704V188.317C133.708 187.151 134.097 186.373 134.486 185.596C134.874 184.818 135.652 184.041 136.818 183.263L138.762 182.097C139.54 181.708 140.317 181.319 141.095 181.708C141.483 182.097 141.872 182.485 141.872 183.652V191.038C141.872 192.205 141.483 192.982 141.095 193.76C140.706 194.926 139.928 195.704 139.151 196.092ZM137.207 196.092L138.762 194.926C139.928 194.149 140.706 193.371 140.706 192.205V184.818C140.706 183.652 139.928 183.263 138.762 184.041L137.207 185.207C136.041 185.984 135.263 186.762 135.263 187.928V195.315C135.263 196.481 136.041 196.481 137.207 196.092Z" fill="#7BF488"/>
<path d="M181.519 160.714V159.937C181.519 159.548 181.519 159.548 181.908 159.159L184.24 156.438C184.629 156.049 184.629 156.049 184.629 156.049L185.407 155.66C185.796 155.66 185.796 155.66 185.796 155.66V168.878C185.796 169.267 185.796 169.267 185.407 169.267L184.629 169.656C184.24 169.656 184.24 169.656 184.24 169.656V157.993L181.519 160.714C181.519 161.103 181.519 161.103 181.519 160.714Z" fill="#7BF488"/>
<path d="M123.595 281.622L121.651 282.789C120.873 283.178 120.096 283.566 119.318 283.178C118.929 282.789 118.541 282.4 118.541 281.234V273.847C118.541 272.681 118.929 271.903 119.318 271.126C119.707 270.348 120.484 269.571 121.651 268.793L123.595 267.627C124.372 267.238 125.15 266.849 125.927 267.238C126.705 267.627 126.705 268.015 126.705 269.182V276.568C126.705 277.735 126.316 278.512 125.927 279.29C125.538 280.067 124.761 280.845 123.595 281.622ZM121.651 281.234L123.206 280.067C124.372 279.29 125.15 278.512 125.15 277.346V269.959C125.15 268.793 124.372 268.404 123.206 269.182L121.651 270.348C120.484 271.126 119.707 271.903 119.707 273.069V280.456C120.096 281.622 120.484 282.011 121.651 281.234Z" fill="#AAF7B3"/>
<path d="M135.649 297.951V297.174C135.649 296.785 135.649 296.785 136.038 296.396L138.37 293.675C138.759 293.286 138.759 293.286 138.759 293.286L139.537 292.897C139.925 292.897 139.925 292.897 139.925 292.897V306.115C139.925 306.504 139.925 306.504 139.537 306.504L138.759 306.893C138.37 306.893 138.37 306.893 138.37 306.893V295.23L135.649 297.951C135.649 298.34 135.649 298.34 135.649 297.951Z" fill="#AAF7B3"/>
<path d="M80.826 220.974L78.8821 222.14C78.1046 222.529 77.327 222.918 76.5495 222.529C76.1607 222.14 75.772 221.752 75.772 220.585V213.199C75.772 212.032 76.1607 211.255 76.5495 210.477C76.9383 209.7 77.7158 208.922 78.8821 208.145L80.826 206.978C81.6035 206.59 82.381 206.201 83.1586 206.59C83.5474 206.978 83.9361 207.367 83.9361 208.533V215.92C83.9361 217.086 83.5474 217.864 83.1586 218.641C82.7698 219.808 81.9923 220.585 80.826 220.974ZM78.8821 220.974L80.4372 219.808C81.6035 219.03 82.3811 218.253 82.3811 217.086V209.7C82.3811 208.533 81.6035 208.145 80.4372 208.922L78.8821 210.089C77.7158 210.866 76.9383 211.644 76.9383 212.81V220.197C77.327 221.363 77.7158 221.363 78.8821 220.974Z" fill="#7BF488"/>
<defs>
<linearGradient id="paint0_linear_1_14847" x1="0.841126" y1="340.581" x2="217.2" y2="340.581" gradientUnits="userSpaceOnUse">
<stop stop-color="#12741C"/>
<stop offset="0.4039" stop-color="#1E9A2B"/>
<stop offset="0.6552" stop-color="#28D83A"/>
</linearGradient>
<linearGradient id="paint1_linear_1_14847" x1="0.992754" y1="282.768" x2="217.201" y2="282.768" gradientUnits="userSpaceOnUse">
<stop stop-color="#ADFFB6"/>
<stop offset="1" stop-color="#EBFFED"/>
</linearGradient>
<linearGradient id="paint2_linear_1_14847" x1="109.098" y1="231.623" x2="109.098" y2="333.913" gradientUnits="userSpaceOnUse">
<stop stop-color="white"/>
<stop offset="0.1683" stop-color="#D3FFD2"/>
<stop offset="0.4443" stop-color="#CBFFB9"/>
<stop offset="0.792" stop-color="#B6FFAA"/>
<stop offset="1" stop-color="#B7FFBE"/>
</linearGradient>
</defs>
</svg>
