<svg width="47" height="49" viewBox="0 0 47 49" fill="none" xmlns="http://www.w3.org/2000/svg">
<path d="M7.04603 18.1672C7.89275 14.247 10.2583 10.8426 13.6273 8.70838C16.9964 6.57414 21.0851 5.88996 24.9912 6.79932L25.1023 6.32213L24.9912 6.79932C28.8963 7.70836 32.2994 10.1352 34.457 13.5413C36.9047 17.4052 37.715 22.085 36.7093 26.5509L33.8908 39.0671C33.819 39.3856 33.6236 39.663 33.3473 39.838C33.0711 40.013 32.7367 40.0712 32.4182 40L19.8976 37.2008C15.4301 36.202 11.5452 33.47 9.09746 29.6061C6.9398 26.2 6.19955 22.0863 7.04603 18.1672Z" fill="#12741C" stroke="#02590B" stroke-width="0.979895"/>
<path d="M23.2111 13.7656C23.1234 13.7699 23.0428 13.8152 22.9927 13.8873L16.4462 23.2787C16.3146 23.4674 16.4496 23.7262 16.6797 23.7262H21.2089L20.6652 30.535C20.644 30.8228 21.0152 30.9559 21.1816 30.7201L27.7281 21.3293C27.8596 21.1408 27.725 20.8822 27.4952 20.8818H22.9654L23.5096 14.0724C23.5233 13.901 23.3829 13.7567 23.2111 13.7656Z" fill="white"/>
</svg>
