<svg width="19" height="18" viewBox="0 0 19 18" fill="none" xmlns="http://www.w3.org/2000/svg">
<path d="M10.3613 0C10.0698 0 9.83398 0.235863 9.83398 0.527344V7.94531C9.83398 8.23679 10.0698 8.47266 10.3613 8.47266H17.7441C18.0356 8.47266 18.2715 8.23679 18.2715 7.94531C18.2715 3.58341 14.7232 0 10.3613 0Z" fill="#CEE6ED"/>
<path d="M11.3383 16.8176L8.7793 9.95889V2.67188C8.7793 2.38039 8.54343 2.14453 8.25195 2.14453C3.89005 2.14453 0.271484 5.69278 0.271484 10.0547C0.271484 14.4166 3.89005 18 8.25195 18C9.20673 18 10.1414 17.8306 11.0298 17.4968C11.3022 17.3944 11.4402 17.0905 11.3383 16.8176Z" fill="#CEE6ED"/>
<path d="M17.7442 9.52734H10.3614C10.1884 9.52734 10.0267 9.61232 9.92781 9.75445C9.82945 9.89659 9.80681 10.0779 9.86756 10.2401L12.46 17.1884C12.5094 17.3192 12.6083 17.4253 12.736 17.483C12.8638 17.5411 13.0078 17.546 13.1398 17.4964C16.2091 16.3412 18.2716 13.33 18.2716 10.0547C18.2716 9.76321 18.0357 9.52734 17.7442 9.52734Z" fill="#CEE6ED"/>
</svg>
