<svg width="257" height="47" viewBox="0 0 257 47" fill="none" xmlns="http://www.w3.org/2000/svg">
<path d="M5.56129 33.0884H23.6663V28.6108H5.56129V20.2398H26.5864V15.7622H0.5V45.937H26.7813V41.4595H5.75616V33.0884H5.56129Z" fill="#12741C"/>
<path d="M204.714 24.912L202.572 20.4344H221.261V15.7622H195.369L199.458 24.912H204.714Z" fill="#12741C"/>
<path d="M37.2933 31.531H32.0371V45.937H37.2933V31.531Z" fill="#12741C"/>
<path d="M219.511 28.6104H196.149V33.0879H219.511V28.6104Z" fill="#12741C"/>
<path d="M221.65 41.4575H195.369V45.9351H221.65V41.4575Z" fill="#12741C"/>
<path d="M50.1446 38.5393L37.2958 15.7622H31.6504L49.3656 45.937H51.3124L63.3822 24.912V45.937H68.6389V15.7622H63.3822L50.1446 38.5393Z" fill="#12741C"/>
<path d="M176.683 38.9287L168.117 15.7622H164.613L153.127 46.521H157.994L166.365 24.5226L174.541 46.521H178.824L190.31 15.7622H185.054L176.683 38.9287Z" fill="#12741C"/>
<path d="M246.182 33.6724C251.244 32.8937 253.969 28.8055 253.969 24.7173C253.969 20.2398 250.854 15.7622 244.43 15.7622H226.714L230.413 20.2398H243.262C246.766 20.2398 248.518 22.3812 248.518 24.7173C248.518 26.8588 246.766 29.1948 243.262 29.1948H242.288L238.006 24.5226H231.971L236.059 29.1948H226.52V45.937H231.776V33.8671H239.758L250.076 45.937H256.5L246.182 33.6724Z" fill="#12741C"/>
<path d="M90.6333 15.7622H74.8648L80.3158 26.08H85.3771L82.2626 20.4344H90.0496C93.3591 20.4344 94.9165 22.9652 94.9165 25.496C94.9165 28.0268 93.3591 30.5576 90.0496 30.5576H74.6699V45.937H79.9261V35.0351H90.6333C96.8629 35.0351 100.173 30.1682 100.173 25.3013C100.173 20.2397 97.0576 15.7622 90.6333 15.7622Z" fill="#12741C"/>
<path d="M133.076 18.8774L130.156 23.355C132.103 25.1071 133.076 27.6379 133.076 30.9474C133.076 38.345 126.847 42.0439 121.59 42.0439C116.334 42.0439 110.299 38.345 110.299 30.9474H105.043C105.043 41.6545 113.998 46.9108 121.785 46.9108C129.572 46.9108 138.527 41.6545 138.527 30.9474C138.527 25.4964 136.386 21.6029 133.076 18.8774Z" fill="#12741C"/>
<path d="M131.708 18.0972C132.292 17.3185 131.708 15.9558 130.735 15.9558H124.895C124.505 15.9558 124.116 15.7611 123.726 15.5664C123.337 15.1771 123.337 14.7877 123.337 14.3984L126.257 0.96572C126.257 0.576368 125.868 0.381697 125.673 0.576373L112.825 19.6546C112.241 20.4333 112.825 21.7961 113.798 21.7961H119.638C120.028 21.7961 120.417 21.9908 120.806 22.1854C121.196 22.5748 121.196 22.9641 121.196 23.3535L118.47 36.7861C118.47 37.1755 118.86 37.3702 119.054 37.1755L131.708 18.0972Z" fill="#12741C"/>
<path d="M147.869 15.7622H142.418L149.427 34.2564L154.683 34.0618L147.869 15.7622Z" fill="#12741C"/>
</svg>
