<svg width="30" height="29" viewBox="0 0 30 29" fill="none" xmlns="http://www.w3.org/2000/svg">
<circle cx="14.7715" cy="14.5" r="14" fill="#FCFCFC" stroke="#F5F5F5"/>
<path d="M19.8485 18.1391C19.7181 18.2818 19.5636 18.3531 19.3851 18.3531H10.1579C9.9793 18.3531 9.82489 18.2818 9.69442 18.1391C9.56396 17.9962 9.49878 17.8273 9.49878 17.632C9.49878 17.4368 9.56396 17.2678 9.69442 17.1251L14.308 12.0778C14.4386 11.9351 14.593 11.8636 14.7715 11.8636C14.95 11.8636 15.1045 11.9351 15.2349 12.0778L19.8485 17.1251C19.9788 17.2678 20.0442 17.4368 20.0442 17.6321C20.0442 17.8273 19.9788 17.9962 19.8485 18.1391Z" fill="#12741C"/>
</svg>
