<svg width="96" height="100" viewBox="0 0 96 100" fill="none" xmlns="http://www.w3.org/2000/svg">
<path d="M14.0986 37.0802C15.8268 29.079 20.6549 22.1304 27.5313 17.7744C34.4077 13.4183 42.7529 12.0219 50.7253 13.8779L50.952 12.904L50.7253 13.8779C58.6958 15.7333 65.6415 20.6867 70.0454 27.6385C75.0413 35.5249 76.695 45.0765 74.6423 54.1916L68.8896 79.7377C68.7432 80.3876 68.3443 80.9539 67.7805 81.3111C67.2167 81.6683 66.5342 81.787 65.884 81.6417L40.329 75.9284L40.1109 76.9043L40.329 75.9284C31.2107 73.8899 23.2815 68.3137 18.2856 60.4273C13.8818 53.4754 12.3709 45.0792 14.0986 37.0802Z" fill="#12741C" stroke="#02590B" stroke-width="2"/>
<path d="M47.0916 28.0955C46.9126 28.1043 46.7481 28.1967 46.6457 28.344L33.2842 47.5121C33.0155 47.8972 33.2911 48.4255 33.7607 48.4254H43.005L41.8954 62.3225C41.852 62.9099 42.6097 63.1815 42.9494 62.7003L56.3109 43.5332C56.5793 43.1485 56.3046 42.6209 55.8356 42.62H46.5901L47.7009 28.7218C47.7287 28.3718 47.4422 28.0773 47.0916 28.0955Z" fill="white"/>
</svg>
