<svg width="24" height="24" viewBox="0 0 24 24" fill="none" xmlns="http://www.w3.org/2000/svg">
<path d="M12.0835 0C5.56048 0 0.271484 5.289 0.271484 11.812C0.271484 18.335 5.56048 23.625 12.0835 23.625C18.6065 23.625 23.8965 18.335 23.8965 11.812C23.8965 5.289 18.6065 0 12.0835 0ZM14.5425 18.307C13.9345 18.547 13.4505 18.729 13.0875 18.855C12.7255 18.981 12.3045 19.044 11.8255 19.044C11.0895 19.044 10.5165 18.864 10.1085 18.505C9.70048 18.146 9.49748 17.691 9.49748 17.138C9.49748 16.923 9.51248 16.703 9.54248 16.479C9.57348 16.255 9.62248 16.003 9.68948 15.72L10.4505 13.032C10.5175 12.774 10.5755 12.529 10.6215 12.301C10.6675 12.071 10.6895 11.86 10.6895 11.668C10.6895 11.326 10.6185 11.086 10.4775 10.951C10.3345 10.816 10.0655 10.75 9.66448 10.75C9.46848 10.75 9.26648 10.779 9.05948 10.84C8.85448 10.903 8.67648 10.96 8.53048 11.016L8.73148 10.188C9.22948 9.985 9.70648 9.811 10.1615 9.667C10.6165 9.521 11.0465 9.449 11.4515 9.449C12.1825 9.449 12.7465 9.627 13.1435 9.979C13.5385 10.332 13.7375 10.791 13.7375 11.355C13.7375 11.472 13.7235 11.678 13.6965 11.972C13.6695 12.267 13.6185 12.536 13.5445 12.783L12.7875 15.463C12.7255 15.678 12.6705 15.924 12.6205 16.199C12.5715 16.474 12.5475 16.684 12.5475 16.825C12.5475 17.181 12.6265 17.424 12.7865 17.553C12.9445 17.682 13.2215 17.747 13.6135 17.747C13.7985 17.747 14.0055 17.714 14.2395 17.65C14.4715 17.586 14.6395 17.529 14.7455 17.48L14.5425 18.307ZM14.4085 7.429C14.0555 7.757 13.6305 7.921 13.1335 7.921C12.6375 7.921 12.2095 7.757 11.8535 7.429C11.4995 7.101 11.3205 6.702 11.3205 6.236C11.3205 5.771 11.5005 5.371 11.8535 5.04C12.2095 4.708 12.6375 4.543 13.1335 4.543C13.6305 4.543 14.0565 4.708 14.4085 5.04C14.7615 5.371 14.9385 5.771 14.9385 6.236C14.9385 6.703 14.7615 7.101 14.4085 7.429Z" fill="#12741C"/>
</svg>
