<svg width="88" height="101" viewBox="0 0 88 101" fill="none" xmlns="http://www.w3.org/2000/svg">
<path d="M74.0249 20.8545C73.7321 16.5935 70.1571 13.2559 65.8862 13.2559H21.6543C17.3843 13.2559 13.8095 16.5928 13.5158 20.8525L13.2896 24.1331L15.6715 26.8524H71.8704L74.2504 24.1331L74.0249 20.8545Z" fill="#FF6D7E"/>
<path d="M13.2898 24.1332L11.2295 54.0094C22.2918 52.1703 21.7358 52.2327 22.0166 52.2327C68.0213 52.2414 65.5425 52.2102 65.825 52.2577L76.3039 54.012L74.2505 24.1332H13.2898Z" fill="#FF6D7E"/>
<path d="M16.7725 52.6888L18.3667 29.5717H69.1733L70.7622 52.6905L16.7725 52.6888Z" fill="#FF5B6E"/>
<path d="M24.7366 88.6801V97.7354C24.7366 99.2365 23.5184 100.455 22.0173 100.455H9.32721C7.82616 100.455 6.60791 99.2365 6.60791 97.7354V88.6801H24.7366Z" fill="#DA3145"/>
<path d="M82.7389 76.7062C83.3959 76.7062 84.0106 76.8844 84.5427 77.1913V61.3776C84.5427 57.3763 81.6784 53.9925 77.7318 53.3317L65.9746 51.3635C65.5986 51.3006 21.8716 51.3126 21.5687 51.3633L9.77723 53.3328C5.82898 53.9925 2.96338 57.3764 2.96338 61.3792V77.2134C4.59587 76.2464 0.594322 76.9001 82.7389 76.7062Z" fill="#FF6D7E"/>
<path d="M84.5432 61.3785V77.1921C84.012 76.8839 83.3956 76.7063 82.7394 76.7063C66.6846 76.7444 53.9202 76.7498 43.7627 76.7407V51.3207C54.7723 51.3207 65.7872 51.3334 65.9758 51.3642L77.7322 53.3312C81.6789 53.9929 84.5432 57.3757 84.5432 61.3785Z" fill="#FF6D7E"/>
<path d="M80.9348 88.6801V97.7354C80.9348 99.2365 79.7166 100.455 78.2155 100.455H65.5255C64.0244 100.455 62.8062 99.2365 62.8062 97.7354V88.6801H80.9348Z" fill="#DA3145"/>
<path d="M64.7202 43.9601C62.4523 41.696 59.4386 40.4491 56.234 40.4491H31.2784C28.1135 40.4491 25.0178 41.7359 22.7856 43.9793C20.5366 46.2399 19.2979 49.2408 19.2979 52.4294V75.8001C19.2979 77.3018 20.5154 78.5194 22.0172 78.5194H65.526C67.0278 78.5194 68.2453 77.3018 68.2453 75.8001V52.4603C68.2453 49.248 66.9934 46.2293 64.7202 43.9601Z" fill="#FF6D7E"/>
<path d="M8.40283 64.9225H19.2982V70.3611H8.40283V64.9225Z" fill="#FF5B6E"/>
<path d="M68.2451 64.9225H79.1042V70.3611H68.2451V64.9225Z" fill="#FF5B6E"/>
<path d="M35.6142 76.7062H30.1756L30.1665 54.0471C30.1665 52.5442 31.3829 51.326 32.884 51.326H32.8858C34.3869 51.326 35.6051 52.5424 35.6051 54.0435L35.6142 76.7062Z" fill="#FF5B6E"/>
<path d="M57.3676 76.7062H51.929L51.9199 54.0471C51.9199 52.5442 53.1364 51.326 54.6374 51.326H54.6392C56.1403 51.326 57.3585 52.5424 57.3585 54.0435L57.3676 76.7062Z" fill="#FF5B6E"/>
<path d="M46.4826 54.0453V76.7062H41.0439V54.0453C41.0439 52.5442 42.2622 51.326 43.7632 51.326C45.2643 51.326 46.4826 52.5442 46.4826 54.0453Z" fill="#FF5B6E"/>
<path d="M46.482 54.0453V76.7062H43.7627V51.326C45.2638 51.326 46.482 52.5442 46.482 54.0453Z" fill="#FF5B6E"/>
<path d="M82.7389 75.7998H4.80366C2.30462 75.7998 0.271484 77.8329 0.271484 80.332V85.0545C0.271484 87.5535 2.30462 89.5867 4.80366 89.5867H82.7389C85.238 89.5867 87.2711 87.5535 87.2711 85.0545V80.332C87.2711 77.8329 85.238 75.7998 82.7389 75.7998Z" fill="#F2485D"/>
<path d="M87.2716 80.332V85.0545C87.2716 87.5526 85.2393 89.5867 82.7394 89.5867H43.7627V75.7998H82.7394C85.2393 75.7998 87.2716 77.832 87.2716 80.332Z" fill="#F2485D"/>
<path d="M53.462 9.67876C53.462 15.0202 49.1247 19.3575 43.7833 19.3575C38.4419 19.3575 34.1045 15.0202 34.1045 9.67876C34.1045 4.33736 38.4419 0 43.7833 0C49.1247 0 53.462 4.33736 53.462 9.67876Z" fill="#FF5B6E"/>
<path d="M43.8242 3.89539H40.4908L43.4226 9.19662H39.4868L45.1093 16.0641L44.5872 11.285H48.0812L43.8242 3.89539Z" fill="white"/>
</svg>
