<svg width="19" height="19" viewBox="0 0 19 19" fill="none" xmlns="http://www.w3.org/2000/svg">
<path d="M9.83635 0.727966C8.05218 0.727966 6.30808 1.25703 4.8246 2.24827C3.34112 3.2395 2.18488 4.64837 1.50211 6.29673C0.819338 7.94509 0.640694 9.75889 0.988768 11.5088C1.33684 13.2587 2.196 14.866 3.4576 16.1276C4.7192 17.3892 6.32657 18.2484 8.07646 18.5965C9.82635 18.9445 11.6402 18.7659 13.2885 18.0831C14.9369 17.4004 16.3457 16.2441 17.337 14.7606C18.3282 13.2772 18.8573 11.5331 18.8573 9.74889C18.8547 7.35718 17.9034 5.06418 16.2122 3.37299C14.5211 1.6818 12.2281 0.730553 9.83635 0.727966ZM9.83635 17.2663C8.34955 17.2663 6.89613 16.8254 5.65989 15.9994C4.42366 15.1734 3.46013 13.9993 2.89115 12.6257C2.32217 11.2521 2.1733 9.74055 2.46337 8.28231C2.75343 6.82407 3.46939 5.48459 4.52072 4.43326C5.57206 3.38193 6.91154 2.66596 8.36977 2.3759C9.82801 2.08584 11.3395 2.23471 12.7131 2.80368C14.0868 3.37266 15.2608 4.33619 16.0869 5.57242C16.9129 6.80866 17.3538 8.26208 17.3538 9.74889C17.3516 11.742 16.5589 13.6528 15.1496 15.0621C13.7402 16.4714 11.8294 17.2641 9.83635 17.2663Z" fill="#12741C"/>
<path d="M9.8364 5.23853C9.63703 5.23853 9.44582 5.31773 9.30484 5.45871C9.16386 5.59969 9.08466 5.79089 9.08466 5.99027V9.24156L6.55053 10.8292C6.38107 10.9351 6.26059 11.104 6.21562 11.2987C6.17065 11.4933 6.20486 11.6979 6.31073 11.8674C6.4166 12.0369 6.58545 12.1573 6.78014 12.2023C6.97483 12.2473 7.17942 12.2131 7.34889 12.1072L10.2356 10.303C10.3446 10.2347 10.4343 10.1395 10.4961 10.0266C10.5578 9.91362 10.5895 9.78672 10.5881 9.65802V5.99027C10.5881 5.79089 10.5089 5.59969 10.368 5.45871C10.227 5.31773 10.0358 5.23853 9.8364 5.23853Z" fill="#12741C"/>
</svg>
