<svg width="305" height="242" viewBox="0 0 305 242" fill="none" xmlns="http://www.w3.org/2000/svg">
<path d="M218.642 0.101685H85.3289C82.561 0.101685 80.3171 2.34772 80.3171 5.11835V206.036C80.3171 208.806 82.561 211.053 85.3289 211.053H218.642C221.41 211.053 223.654 208.806 223.654 206.036V5.11835C223.654 2.34772 221.41 0.101685 218.642 0.101685Z" fill="#F2F6FB"/>
<path d="M89.2126 10.1416C90.5274 10.1416 91.5932 9.18704 91.5932 8.00953C91.5932 6.83201 90.5274 5.87744 89.2126 5.87744C87.8979 5.87744 86.832 6.83201 86.832 8.00953C86.832 9.18704 87.8979 10.1416 89.2126 10.1416Z" fill="#FF5645"/>
<path d="M97.1066 10.1416C98.3522 10.1416 99.3619 9.18704 99.3619 8.00953C99.3619 6.83201 98.3522 5.87744 97.1066 5.87744C95.861 5.87744 94.8513 6.83201 94.8513 8.00953C94.8513 9.18704 95.861 10.1416 97.1066 10.1416Z" fill="#FFCB3D"/>
<path d="M104.75 10.1416C105.926 10.1416 106.88 9.18704 106.88 8.00953C106.88 6.83201 105.926 5.87744 104.75 5.87744C103.573 5.87744 102.62 6.83201 102.62 8.00953C102.62 9.18704 103.573 10.1416 104.75 10.1416Z" fill="#3ABF7C"/>
<path d="M140.959 5.87744H163.262C163.677 5.87744 164.013 6.21435 164.013 6.62994V9.38911C164.013 9.8047 163.677 10.1416 163.262 10.1416H140.959C140.544 10.1416 140.208 9.8047 140.208 9.38911V6.62994C140.208 6.21435 140.544 5.87744 140.959 5.87744ZM204.609 5.87744H216.637C217.052 5.87744 217.389 6.21435 217.389 6.62994V9.38911C217.389 9.8047 217.052 10.1416 216.637 10.1416H204.609C204.194 10.1416 203.857 9.8047 203.857 9.38911V6.62994C203.857 6.21435 204.194 5.87744 204.609 5.87744ZM188.07 5.87744H199.848C200.263 5.87744 200.599 6.21435 200.599 6.62994V9.38911C200.599 9.8047 200.263 10.1416 199.848 10.1416H188.07C187.655 10.1416 187.318 9.8047 187.318 9.38911V6.62994C187.318 6.21435 187.655 5.87744 188.07 5.87744ZM124.671 72.6748H179.801C180.077 72.6748 180.302 72.8994 180.302 73.1765V77.4466C180.302 77.7237 180.077 77.9483 179.801 77.9483H124.671C124.394 77.9483 124.17 77.7237 124.17 77.4466V73.1765C124.17 72.8994 124.394 72.6748 124.671 72.6748ZM114.648 64.1368H189.323C189.6 64.1368 189.824 64.3614 189.824 64.6385V68.9086C189.824 69.1857 189.6 69.4103 189.323 69.4103H114.648C114.371 69.4103 114.146 69.1857 114.146 68.9086V64.6385C114.146 64.3614 114.371 64.1368 114.648 64.1368ZM89.0876 91.9051C89.0876 91.3519 89.5387 90.9034 90.0904 90.9034H214.381C214.935 90.9034 215.384 91.3519 215.384 91.9051V173.273C215.384 173.826 214.933 174.275 214.381 174.275H90.0904C89.5366 174.275 89.0876 173.826 89.0876 173.273V91.9051ZM89.8714 180.702H147.192C147.639 180.702 147.801 180.748 147.964 180.836C148.128 180.923 148.256 181.051 148.343 181.215C148.43 181.378 148.477 181.541 148.477 181.988V199.003C148.477 199.45 148.43 199.612 148.343 199.776C148.256 199.939 148.128 200.067 147.964 200.155C147.801 200.242 147.639 200.289 147.192 200.289H89.8714C89.4246 200.289 89.2626 200.242 89.0992 200.155C88.9359 200.067 88.8077 199.939 88.7203 199.776C88.6329 199.612 88.5864 199.45 88.5864 199.003V181.988C88.5864 181.541 88.6329 181.378 88.7203 181.215C88.8077 181.051 88.9359 180.923 89.0992 180.836C89.2626 180.748 89.4246 180.702 89.8714 180.702ZM156.778 180.702H214.099C214.546 180.702 214.708 180.748 214.871 180.836C215.035 180.923 215.163 181.051 215.25 181.215C215.338 181.378 215.384 181.541 215.384 181.988V199.003C215.384 199.45 215.338 199.612 215.25 199.776C215.163 199.939 215.035 200.067 214.871 200.155C214.708 200.242 214.546 200.289 214.099 200.289H156.778C156.332 200.289 156.17 200.242 156.006 200.155C155.843 200.067 155.715 199.939 155.627 199.776C155.54 199.612 155.493 199.45 155.493 199.003V181.988C155.493 181.541 155.54 181.378 155.627 181.215C155.715 181.051 155.843 180.923 156.006 180.836C156.17 180.748 156.332 180.702 156.778 180.702Z" fill="#E1E5F0"/>
<path d="M173.273 119.02C176.932 119.02 179.898 116.039 179.898 112.361C179.898 108.684 176.932 105.703 173.273 105.703C169.614 105.703 166.648 108.684 166.648 112.361C166.648 116.039 169.614 119.02 173.273 119.02Z" fill="#F2F6FB"/>
<path d="M152.111 57.8333V56.83C153.505 56.83 154.874 56.6478 156.194 56.2919L156.455 57.2607C155.05 57.6395 153.593 57.8333 152.111 57.8333ZM160.499 55.569L159.994 54.7025C161.184 54.0069 162.279 53.1562 163.248 52.1745L163.961 52.8799C162.93 53.9241 161.766 54.829 160.499 55.569ZM166.608 49.3829L165.737 48.8872C166.417 47.6893 166.937 46.4057 167.281 45.0656L168.252 45.3152C167.886 46.7418 167.332 48.1081 166.608 49.3829ZM168.773 40.9383L167.771 40.9509C167.754 39.5566 167.554 38.1884 167.181 36.871L168.146 36.5976C168.542 37.9996 168.755 39.4555 168.773 40.9383ZM166.402 32.5697L165.543 33.0867C164.833 31.9041 163.969 30.8194 162.976 29.8617L163.671 29.1391C164.727 30.1578 165.646 31.3116 166.402 32.5697ZM160.145 26.5356L159.661 27.4142C158.456 26.7492 157.167 26.2457 155.823 25.9188L156.06 24.9438C157.49 25.2918 158.862 25.8278 160.145 26.5356ZM151.682 24.4779L151.707 25.4809C150.315 25.5162 148.95 25.7336 147.638 26.1242L147.353 25.1625C148.749 24.7468 150.201 24.5154 151.682 24.4779ZM143.352 26.9596L143.88 27.8127C142.708 28.539 141.635 29.4177 140.691 30.424L139.96 29.7372C140.964 28.6669 142.105 27.7322 143.352 26.9596ZM137.405 33.3009L138.289 33.7739C137.64 34.9884 137.154 36.2848 136.845 37.6342L135.868 37.41C136.197 35.9736 136.714 34.5935 137.405 33.3009ZM135.459 41.7982L136.46 41.76C136.513 43.1523 136.748 44.5154 137.156 45.824L136.199 46.1225C135.765 44.7297 135.515 43.2791 135.459 41.7982ZM138.045 50.1022L138.891 49.5631C139.631 50.727 140.523 51.7893 141.54 52.7211L140.864 53.4613C139.782 52.4701 138.833 51.3403 138.045 50.1022ZM144.456 55.9731L144.917 55.0823C146.138 55.7155 147.439 56.1854 148.792 56.4774L148.581 57.4582C147.141 57.1474 145.756 56.6472 144.456 55.9731ZM162.601 159.342L153.907 159.381L153.931 159.342H115.956C113.603 159.342 112.708 157.723 113.955 155.727L139.907 114.203C141.155 112.206 143.22 112.178 144.521 114.143L163.804 143.512L170.626 132.574C171.726 130.811 173.551 130.783 174.702 132.514L190.496 156.248C191.647 157.978 190.909 159.23 188.829 159.165L177.279 159.275L173.633 159.292L173.663 159.342C173.663 159.342 171.758 159.342 169.404 159.342H162.601Z" fill="#12741C"/>
<path opacity="0.176986" d="M173.56 159.399C173.56 159.399 171.654 159.399 169.301 159.399H115.852C113.5 159.399 112.605 157.78 113.852 155.784L139.804 114.26C141.051 112.263 143.117 112.235 144.418 114.2L166.859 148.378" fill="#12741C"/>
<path d="M303.842 241.153H278.156C277.555 241.153 277.029 240.718 277.029 240.197V239.85C277.029 239.329 277.53 238.895 278.156 238.895H303.842C304.443 238.895 304.969 239.329 304.969 239.85V240.197C304.969 240.718 304.468 241.153 303.842 241.153ZM244.828 238.895C245.451 238.895 245.956 239.4 245.956 240.024C245.956 240.647 245.451 241.153 244.828 241.153H203.982C203.36 241.153 202.855 240.647 202.855 240.024C202.855 239.4 203.36 238.895 203.982 238.895H244.828Z" fill="#B778E9"/>
<path d="M303.979 238.902C303.934 238.898 303.888 238.895 303.842 238.895H278.243L280.268 226.099L298.21 223.666L303.979 238.902ZM244.978 238.905C244.929 238.898 244.879 238.895 244.828 238.895H204.16C204.133 238.758 204.119 238.585 204.123 238.36C204.151 238.185 204.155 237.985 204.208 237.785C204.53 236.586 204.92 235.79 206.06 235.083C207.2 234.375 208.364 233.743 209.577 233.187C214.05 231.083 215.578 231.11 218.519 229.179C219.736 228.373 220.855 227.439 221.9 226.428C222.597 225.755 224.02 224.661 226.168 223.146L245.488 223.579L244.978 238.905Z" fill="#474961"/>
<path d="M272.169 85.1887C274.076 88.9053 279.239 100.438 283.847 123.915C284.227 125.863 284.591 127.759 284.941 129.6L284.976 129.558C291.291 153.378 295.675 170.054 298.128 179.586C300.646 189.375 297.153 189.222 299.063 197.458C300.164 202.207 303.854 206.025 303.822 210.969C303.817 211.75 303.836 213.312 303.878 215.654C303.954 219.837 300.9 223.42 296.761 224.002L280.042 226.354C275.52 226.99 271.338 223.836 270.702 219.309C270.697 219.267 270.691 219.226 270.686 219.184C270.235 215.573 270.006 213.426 270.001 212.743C269.989 211.329 269.971 210.042 269.944 208.869C268.98 204.923 267.977 200.816 267.169 197.505C266.079 195.82 264.797 193.49 263.786 189.72C263.121 187.24 261.61 177.588 259.252 160.763C259.206 160.537 259.12 159.842 258.993 158.676L255.692 146.516C255.555 147.936 255.414 149.373 255.272 150.822C255.564 170.975 255.556 182.297 255.25 184.786C254.285 192.622 251.401 194.779 251.317 197.241C251.234 199.653 251.6 203.168 252.296 208.451C252.385 209.127 252.458 211.285 252.513 214.924C252.514 214.966 252.514 215.008 252.514 215.05C252.514 218.714 250.136 221.822 246.841 222.912C244.767 224.801 241.429 223.364 232.664 223.424C232.664 223.424 231.315 223.435 229.534 223.328L227.362 223.328C226.076 223.328 224.852 223.032 223.759 222.502C222.723 222.212 221.865 221.83 221.388 221.327C220.989 220.896 220.737 220.407 220.737 220.407C220.618 220.14 220.533 219.878 220.472 219.629C219.778 218.586 219.314 217.371 219.153 216.053C218.87 213.727 218.671 212.178 218.558 211.405C217.839 206.514 220.961 202.219 221.391 197.363C222.138 188.942 218.7 189.579 219.833 179.534C220.926 169.845 222.994 158.66 226.036 145.981C227.796 126.011 230.112 103.572 232.664 96.0322C232.707 95.8976 234.298 90.5529 236.599 86.78C236.669 86.8558 236.742 86.9286 236.818 86.9982C237.106 87.2691 237.392 87.4648 237.678 87.6103C238.251 87.9515 238.725 88.0687 238.725 88.0687C238.725 88.0687 238.748 88.0683 238.773 88.0929C238.773 88.0929 254.136 91.9388 269.379 87.5582L269.426 87.5323C269.426 87.5323 269.896 87.3986 270.456 87.0376C270.713 86.8826 271.016 86.6515 271.295 86.3958C271.644 86.054 271.932 85.6423 272.169 85.1887Z" fill="#B778E9"/>
<path opacity="0.176986" d="M239.886 88.3382L247.907 117.944L255.685 146.595C255.549 147.99 255.412 149.4 255.272 150.822C255.563 170.975 255.556 182.297 255.249 184.786C254.285 192.622 251.401 194.779 251.317 197.241C251.234 199.653 251.6 203.168 252.296 208.451C252.385 209.127 252.458 211.285 252.513 214.924C252.514 214.966 252.514 215.008 252.514 215.05C252.514 218.714 250.136 221.822 246.841 222.912C244.767 224.801 241.429 223.364 232.664 223.424C232.664 223.424 231.315 223.435 229.534 223.328L227.362 223.328C226.076 223.328 224.852 223.032 223.759 222.502C222.723 222.212 221.865 221.83 221.388 221.327C220.989 220.896 220.737 220.407 220.737 220.407C220.618 220.14 220.533 219.878 220.472 219.629C219.778 218.586 219.314 217.371 219.153 216.053C218.87 213.727 218.671 212.178 218.558 211.405C217.839 206.514 220.961 202.219 221.391 197.363C222.137 188.942 218.7 189.579 219.833 179.534C220.926 169.845 222.994 158.66 226.036 145.981C227.796 126.011 230.112 103.572 232.664 96.0322C232.707 95.8976 234.298 90.5529 236.599 86.78C236.669 86.8558 236.742 86.9286 236.818 86.9982C237.106 87.2691 237.392 87.4648 237.678 87.6103C238.251 87.9515 238.725 88.0687 238.725 88.0687C238.725 88.0687 238.748 88.0683 238.772 88.0929C238.772 88.0929 239.165 88.1911 239.886 88.3382Z" fill="#444444"/>
<path d="M272.436 53.7005C272.464 53.9889 272.493 54.2867 272.52 54.5939L272.522 54.6691L272.59 55.8972C272.994 69.5627 273.195 75.7055 273.308 78.1119C273.308 78.1119 273.289 78.3631 273.319 78.7389C273.385 79.8415 273.488 84.3805 271.399 86.424C271.121 86.6797 270.818 86.9108 270.561 87.0658C270.001 87.4268 269.531 87.5605 269.531 87.5605L269.484 87.5864C254.241 91.967 238.877 88.1211 238.877 88.1211C238.617 88.0525 238.367 87.9824 237.89 87.7443C237.422 87.5107 236.977 87.1664 236.834 87.0322C234.699 85.0625 234.732 80.5169 234.76 79.4126C234.753 79.0615 234.749 78.7856 234.749 78.7856C234.775 76.4903 234.766 70.9159 234.703 58.8226C228.718 58.2669 226.296 56.5389 227.435 53.6386C230.022 47.0503 231.736 40.7287 241.994 39.9982C244.511 38.7421 247.259 38.3215 249.172 38.1934C250.28 38.1239 251.106 38.1346 251.437 38.1539C251.579 38.1514 251.768 38.1732 252.123 38.1921C252.477 38.211 252.879 38.229 253.327 38.2463C253.775 38.2134 254.176 38.1813 254.53 38.15C254.883 38.1187 255.048 38.0908 255.213 38.0879C255.567 38.0566 256.368 38.0175 257.478 38.0483C257.743 38.0568 258.024 38.07 258.318 38.0897C258.466 38.0556 258.617 38.0221 258.769 37.9891C269.313 35.7114 272.646 41.4779 276.927 47.2766C278.64 49.5976 277.143 51.7389 272.436 53.7005Z" fill="#DCB0FF"/>
<path opacity="0.176986" d="M241.835 39.9973C240.37 40.7364 238.987 41.7605 237.895 43.1772C237.411 43.8128 236.79 44.777 236.319 46.165C236.251 46.3669 236.184 46.5437 236.116 46.7456C235.959 47.1748 235.62 48.0838 235.331 49.0673C235.019 50.1766 234.773 52.2882 234.612 55.2262L234.613 55.3015L234.587 56.5312C234.591 57.3057 234.595 58.056 234.599 58.7828C228.762 58.2071 226.406 56.4856 227.532 53.6181C230.098 47.0852 231.805 40.8143 241.835 39.9973Z" fill="#444444"/>
<path d="M270.705 115.062C270.497 115.224 270.373 115.297 270.373 115.297C267.083 114.744 271.787 102.548 273.189 99.0965L261.381 56.8169C268.711 55.2656 273.546 53.5747 275.887 51.7442C282.253 77.3843 285.692 93.8293 286.206 101.079C286.245 101.309 286.269 101.556 286.278 101.819C286.415 106.037 285.015 112.494 282.076 121.189C282.053 121.24 274.411 124.996 269.035 121.82L270.705 115.062ZM238.55 16.0798C238.561 16.0659 238.571 16.0517 238.582 16.0373C240.781 13.57 244.83 13.6429 246.653 14.0365C246.875 14.085 247.662 14.2687 248.8 14.4641C249.418 14.5796 249.917 14.632 250.213 14.6884C253.911 15.2288 255.428 14.9344 257.192 16.1289C257.523 16.3402 258.273 16.8732 258.879 17.8197C260.589 20.4965 259.78 23.6397 259.556 24.5746C258.809 27.3712 256.981 28.9444 256.406 29.6154C255.979 30.1227 255.386 30.6891 254.808 31.2008L255.367 39.2964C255.373 39.4719 255.304 39.65 255.157 39.7304C254.519 40.1543 253.609 40.6379 252.465 40.9288C250.403 41.4778 248.613 41.189 247.601 40.9232C247.399 40.8801 247.241 40.6848 247.234 40.4842L246.932 35.1754C246.712 35.2328 246.478 35.2922 246.229 35.3544C244.027 35.9298 244.159 35.8681 244.004 35.9023C242.392 36.1362 241.052 35.9447 240.808 35.8686C239.919 35.6994 239.05 34.8514 238.336 33.49C237.368 31.6731 236.624 28.9213 236.408 25.6955C236.356 25.236 236.378 24.7843 236.4 24.3327L236.77 19.8569C236.849 18.8564 237.178 17.8822 237.771 17.0366C238.012 16.6584 238.246 16.3551 238.524 16.1069C238.533 16.0978 238.541 16.0888 238.55 16.0798ZM227.457 56.0961C228.253 57.5365 230.669 58.444 234.704 58.8187C234.748 67.2792 234.766 72.549 234.763 75.7376C228.746 83.1562 224.719 81.9988 224.719 81.9988C221.915 82.1203 219.77 80.8438 218.961 80.3536C211.902 76.092 198.5 52.3745 196.189 48.2198C193.138 47.8015 190.289 46.999 187.643 45.8123C183.423 43.9197 181.723 42.1241 182.542 40.4254L204.167 41.823L204.227 41.7819L222.981 61.5394C224.947 59.4491 226.282 57.742 227.457 56.0961Z" fill="#F2A98A"/>
<path opacity="0.2" d="M227.537 56.096C228.334 57.5364 230.75 58.4439 234.785 58.8185C234.829 67.2791 234.846 72.5489 234.844 75.7375C228.826 83.1561 224.8 81.9987 224.8 81.9987C221.995 82.1202 219.851 80.8437 219.042 80.3535C211.982 76.0919 198.581 52.3744 196.269 48.2197C193.218 47.8014 190.369 46.9989 187.724 45.8122C183.504 43.9196 181.803 42.1239 182.622 40.4253L204.248 41.8229L204.307 41.7818L223.062 61.5393C225.027 59.449 226.363 57.7418 227.537 56.096Z" fill="#8C2A00"/>
<path d="M246.525 35.2633L250.217 34.0842L247.197 38.7035L246.525 35.2633Z" fill="#482D1F"/>
<path d="M255.527 25.1299C255.553 24.5221 255.428 23.8982 255.101 23.3241C254.422 22.1176 252.992 21.3366 251.754 21.6099C251.057 21.7637 250.554 22.2403 250.499 22.285C249.737 23.0623 249.493 23.9447 249.493 23.9447L249.371 24.5303C240.39 21.1008 238.648 16.7725 238.18 16.4995C238.323 16.338 238.463 16.2015 238.551 16.0846C240.776 13.6199 244.899 13.7007 246.747 14.0969C246.994 14.148 247.781 14.3317 248.945 14.5298C249.587 14.6478 250.086 14.7003 250.382 14.7567C254.155 15.3049 255.697 15.0132 257.486 16.2103C257.817 16.4216 258.592 16.9572 259.198 17.9037C261.089 20.7761 260.227 23.939 259.9 24.6612C259.67 25.1667 259.31 25.4819 259.31 25.4819C257.982 25.2827 256.745 25.1945 255.527 25.1299ZM235.763 23.0842C235.516 23.021 235.458 22.6914 235.642 22.5252C235.878 22.3366 236.288 22.1573 236.789 22.1835C237.815 22.2373 238.881 22.9714 237.714 23.2116C237.029 23.3515 236.233 23.2093 235.763 23.0842ZM240.909 23.5299C240.661 23.4667 240.603 23.1371 240.813 22.9723C241.049 22.7837 241.459 22.6043 241.985 22.6319C243.011 22.6857 244.075 23.4449 242.91 23.66C242.174 23.8223 241.379 23.6551 240.909 23.5299Z" fill="#482D1F"/>
<path d="M237.623 24.9399C237.576 25.3645 237.464 26.0619 237.201 26.2993C236.756 26.6527 236.271 25.3713 236.637 24.6119C236.779 24.2928 236.957 24.2519 237.155 24.2875C237.453 24.3533 237.639 24.6393 237.623 24.9399ZM242.105 25.1248C242.108 25.552 242.071 26.2533 241.805 26.5408C241.407 26.9469 240.77 25.7078 241.062 24.9194C241.179 24.599 241.358 24.533 241.558 24.5436C241.859 24.5593 242.096 24.8229 242.105 25.1248Z" fill="#482D1F"/>
<path d="M239.784 30.1523C239.962 30.1114 240.394 30.0085 240.483 29.7369C240.486 29.6868 240.515 29.613 240.492 29.5615C240.401 29.381 240.096 29.4654 239.644 29.4668C238.841 29.4749 238.194 29.3656 238.194 29.3656C238.194 29.3656 238.343 29.8758 238.46 30.0327C238.691 30.4215 239.505 30.213 239.784 30.1523Z" fill="#482D1F"/>
<path d="M238.346 25.0282L238.35 24.9935L238.347 25.0107L238.346 25.0282ZM237.835 27.6541C237.773 27.9341 237.977 28.223 238.26 28.2855C238.322 28.2946 238.322 28.2946 238.362 28.2999C238.783 28.3545 239.046 28.3804 239.499 28.4042C239.637 28.4115 239.755 28.3052 239.763 28.1669C239.77 28.0285 239.664 27.9105 239.525 27.9032C239.086 27.8802 238.835 27.8555 238.427 27.8024L238.346 27.7919C238.345 27.7907 238.324 27.7607 238.325 27.756L238.842 25.0891L238.846 25.0544L238.924 23.5766C238.931 23.4382 238.825 23.3202 238.687 23.3129C238.549 23.3057 238.431 23.412 238.423 23.5503L238.347 25.0107L237.835 27.6541Z" fill="#482D1F"/>
<path d="M255.509 24.7424C255.546 25.4854 255.331 26.2673 254.932 26.8724C254.445 27.6364 253.832 28.0166 253.063 28.2779C252.932 28.3225 252.862 28.465 252.907 28.5961C252.951 28.7273 253.094 28.7975 253.225 28.7529C253.563 28.638 253.833 28.5212 254.153 28.3228C254.625 28.0306 255.034 27.6447 255.353 27.1455C255.808 26.4547 256.052 25.5672 256.009 24.7172C256.002 24.5789 255.885 24.4724 255.746 24.4793C255.608 24.4863 255.502 24.6041 255.509 24.7424Z" fill="#482D1F"/>
<path d="M274.657 113.808C274.696 113.604 274.894 113.471 275.097 113.511C275.301 113.551 275.434 113.748 275.394 113.952C275.145 115.233 274.919 116.223 274.393 118.42C273.869 120.608 273.645 121.59 273.398 122.857C273.358 123.061 273.161 123.194 272.957 123.154C272.754 123.114 272.621 122.917 272.66 122.713C272.91 121.432 273.135 120.443 273.662 118.245C274.186 116.057 274.41 115.075 274.657 113.808ZM279.739 112.705C279.791 112.504 279.997 112.383 280.197 112.435C280.398 112.487 280.519 112.693 280.467 112.894C280.109 114.272 279.855 115.346 279.31 117.742C278.763 120.146 278.508 121.226 278.148 122.613C278.096 122.814 277.89 122.935 277.689 122.882C277.489 122.83 277.368 122.625 277.42 122.424C277.778 121.046 278.032 119.972 278.577 117.575C279.124 115.171 279.379 114.092 279.739 112.705Z" fill="#DC794F"/>
<path d="M195.087 46.0694C203.944 46.0694 211.124 38.8259 211.124 29.8907C211.124 20.9554 203.944 13.7119 195.087 13.7119C186.229 13.7119 179.049 20.9554 179.049 29.8907C179.049 38.8259 186.229 46.0694 195.087 46.0694Z" fill="#B778E9"/>
<path d="M195.13 29.5129C193.361 29.5129 191.926 28.0948 191.926 26.3456C191.926 24.5964 193.361 23.1783 195.13 23.1783C196.9 23.1783 198.334 24.5964 198.334 26.3456C198.334 28.0948 196.9 29.5129 195.13 29.5129ZM195.13 31.0965C198.337 31.0965 200.937 33.6667 200.937 36.8371H189.323C189.323 33.6667 191.923 31.0965 195.13 31.0965Z" fill="#F2F6FB"/>
<path d="M24.0101 185.37V185.417C24.0101 186.019 24.5363 186.521 25.1377 186.521H44.0575L37.3915 198.762C32.6303 207.491 27.8942 216.195 23.1581 224.924L15.3147 239.321C15.039 239.823 15.2645 240.475 15.7908 240.776L15.891 240.826C16.4172 241.127 17.0938 240.952 17.3444 240.475L46.6883 186.521H66.2342L95.578 240.475C95.8286 240.952 96.5052 241.102 97.0315 240.826L97.1317 240.776C97.6579 240.475 97.8835 239.823 97.6078 239.321L89.7644 224.924C85.0032 216.195 80.2671 207.491 75.531 198.762L68.865 186.521H93.9492C94.5757 186.521 95.0769 186.019 95.0769 185.417V185.292C95.0769 184.69 94.5506 184.188 93.9492 184.188H76.9092C65.8082 184.188 54.6821 184.188 43.5559 184.188H26.2226L24.1103 167.081C22.6569 155.443 21.2285 143.779 19.7751 132.115L17.3945 112.851C17.3194 112.174 16.743 111.672 16.1165 111.748L15.9912 111.773C15.3898 111.848 14.9638 112.475 15.039 113.102L23.985 185.242C23.9915 185.286 23.9999 185.329 24.0101 185.37Z" fill="#D8DEED"/>
<path d="M78.4955 238.993C78.3417 238.916 78.1693 238.872 77.9885 238.872H64.4383L39.571 220.327L48.9936 207.114L64.079 218.076C64.9059 220.885 65.7579 223.694 66.6099 226.529C67.061 228.009 67.512 229.464 67.9631 230.918C69.3664 231.47 70.5692 231.972 71.4212 232.348C73.05 233.051 74.4283 233.703 75.9318 234.681C75.9318 234.681 77.2349 235.484 77.9616 236.637C78.1871 237.014 78.3876 237.44 78.5129 237.892C78.563 238.092 78.563 238.293 78.588 238.469C78.5802 238.633 78.543 238.818 78.4955 238.993ZM125.431 238.951C125.349 238.932 125.263 238.922 125.174 238.922H84.8296C84.754 238.922 84.6802 238.929 84.6089 238.944L84.2171 223.307L103.163 223.251C105.479 224.766 106.985 225.861 107.682 226.534C108.727 227.545 109.846 228.478 111.063 229.285C114.004 231.215 115.532 231.189 120.005 233.293C121.218 233.849 122.382 234.481 123.522 235.188C124.662 235.896 125.052 236.692 125.374 237.891C125.427 238.09 125.431 238.291 125.459 238.466C125.462 238.664 125.452 238.822 125.431 238.951Z" fill="#13A4ED"/>
<path d="M63.5256 240.927C63.5008 240.911 63.4764 240.895 63.4526 240.877L38.2935 222.114C37.7923 221.738 37.6921 221.011 38.068 220.509C38.4439 220.007 39.1706 219.907 39.6718 220.283L64.5617 238.845H78.112C78.7385 238.845 79.2647 239.372 79.2647 239.999C79.2647 240.626 78.7385 241.153 78.112 241.153H64.2043C63.9495 241.153 63.7154 241.069 63.5256 240.927ZM84.953 238.895H125.298C125.921 238.895 126.425 239.4 126.425 240.024C126.425 240.647 125.921 241.153 125.298 241.153H84.953C84.3303 241.153 83.8254 240.647 83.8254 240.024C83.8254 239.4 84.3303 238.895 84.953 238.895Z" fill="#1286C0"/>
<path d="M111.645 175.113C109.778 184.937 109.014 199.336 110.845 208.4C110.845 208.4 112.746 223.976 111.414 224.077C111.091 224.102 107.656 224.252 107.292 224.277C98.2498 224.879 82.5464 226.083 80.205 226.083C78.6441 226.083 77.8636 225.08 77.8636 223.073L77.3543 217.685V217.642C75.6273 219.704 73.8346 221.843 71.9761 224.058C69.2111 224.879 65.0289 223.702 59.4295 220.528C53.83 217.353 49.4959 214.223 46.4271 211.138C44.9486 210.185 41.3505 204.913 42.3027 203.534L48.5925 194.353L52.3513 188.86C53.4038 187.305 54.1983 186.274 55.3259 184.643C55.3259 184.618 55.5278 184.32 55.5278 184.295C55.1269 184.295 55.5839 183.969 52.7272 183.943C49.8705 183.918 34.4844 183.592 28.5955 175.089C26.2464 171.697 26.0646 167.94 25.8892 166.26C25.2377 159.721 26.9608 154.423 31.0587 150.363C32.1564 149.556 32.9641 149.078 33.482 148.927C34.309 148.676 38.6692 148.551 39.5212 148.501L57.0122 148.275C65.3356 148.164 72.2848 148.07 77.8601 147.992L77.8636 147.949L77.8601 147.992C89.126 147.835 94.7813 147.746 94.826 147.723C94.9262 147.673 105.737 148.124 108.644 149.805C114.211 153.07 117.139 163.36 111.645 175.113Z" fill="#0DD793"/>
<path opacity="0.2" d="M111.59 175.211C109.73 185.034 108.973 199.396 110.8 208.443C110.8 208.443 112.702 224.02 111.37 224.12C111.047 224.145 107.611 224.296 107.248 224.321C98.2055 224.923 82.5021 226.127 80.1607 226.127C78.5998 226.127 77.8193 225.123 77.8193 223.117L77.3108 217.737C98.899 191.951 110.198 178.039 111.209 176.002C111.34 175.738 111.467 175.474 111.59 175.211ZM77.8092 148.115L77.8193 147.992L77.8092 148.115ZM87.2734 147.979C87.2686 147.98 87.2638 147.98 87.259 147.98L86.9023 147.917H86.9426C87.0533 147.938 87.1635 147.959 87.2734 147.979Z" fill="#8C2A00"/>
<path d="M66.8938 167.563C65.6574 169.435 64.3553 171.254 61.1938 175.583C58.0217 179.927 56.7156 181.751 55.4669 183.642C55.3143 183.873 55.3777 184.184 55.6086 184.337C55.8395 184.49 56.1504 184.426 56.3031 184.195C57.5395 182.323 58.8415 180.504 62.003 176.175C65.1752 171.832 66.4813 170.007 67.7299 168.117C67.8826 167.886 67.8191 167.574 67.5882 167.421C67.3573 167.269 67.0464 167.332 66.8938 167.563Z" fill="#0BC285"/>
<path d="M108.839 103.273C109.69 103.939 109.841 105.168 109.176 106.02C109.166 106.033 109.156 106.046 109.145 106.058L98.7919 118.652C98.2604 119.299 97.3108 119.403 96.6516 118.888C95.9923 118.372 95.8638 117.425 96.3619 116.752L106.065 103.649C106.708 102.781 107.932 102.6 108.8 103.243C108.813 103.253 108.826 103.263 108.839 103.273Z" fill="#1286C0"/>
<path d="M106.697 105.878C108.878 107.584 112.001 107.232 113.671 105.092C114.473 104.064 113.356 101.92 113.633 98.7404C113.698 97.9976 114.213 96.7971 115.178 95.139L115.178 95.139C115.248 95.0193 115.207 94.8657 115.088 94.796C115.029 94.7619 114.96 94.7529 114.894 94.7709C109.883 96.1607 106.842 97.5418 105.771 98.9143C104.101 101.054 104.516 104.172 106.697 105.878Z" fill="#F2F6FB"/>
<path d="M109.068 102.868C109.582 103.269 111.266 102.23 111.512 102.774C112.336 104.598 112.312 107.065 113.664 105.332C114.508 104.251 113.378 102.033 113.706 98.7186C113.782 97.9421 114.333 96.6805 115.359 94.9338L115.359 94.9338C115.429 94.8144 115.39 94.6607 115.27 94.5905C115.211 94.5555 115.14 94.5466 115.073 94.5658C109.863 96.078 106.694 97.5561 105.567 99.0001C104.557 100.294 105.367 100.966 106.907 101.177C107.445 101.251 107.809 100.618 108.567 100.471C109.411 100.309 108.568 102.477 109.068 102.868Z" fill="#13A4ED"/>
<path d="M60.1985 103.288C66.4272 105.453 70.3725 111.853 69.2092 118.62L63.983 148.182L35.0479 148.697C33.3914 148.4 32.2233 147.706 31.5436 146.615C30.524 144.98 30.8015 142.907 30.9403 142.109L36.1591 112.879C37.4488 105.461 44.4358 100.468 51.8384 101.643L52.3444 99.2589C52.4019 98.9879 52.668 98.815 52.9387 98.8726L60.2912 100.438C60.5619 100.495 60.7347 100.762 60.6772 101.033L60.1985 103.288Z" fill="#0CA974"/>
<path d="M54.207 90.8269C53.6811 96.179 53.3988 98.8819 53.3601 98.9354C53.3203 98.9905 55.5908 99.4815 60.1714 100.408L60.578 98.3383C60.6848 98.3782 60.7948 98.4189 60.9079 98.4605C63.0273 99.2767 62.9007 99.2037 63.0519 99.2512C64.6376 99.6502 65.99 99.6016 66.2401 99.5722C68.3418 99.3852 70.7296 95.505 71.7346 89.9427C71.8269 89.4894 71.844 89.0375 71.8862 88.5852L72.0078 84.092C72.0403 83.0878 71.8223 82.088 71.3309 81.2184C71.1239 80.8456 70.9173 80.498 70.687 80.226C68.0459 76.8094 63.297 77.5191 62.447 77.6342C62.3468 77.636 62.247 77.6628 62.1468 77.6645C61.1988 77.9068 60.3439 77.746 59.4416 77.7366C59.0408 77.7435 58.7208 78.0753 58.7028 78.477L58.6902 84.9002C58.6757 85.5027 56.9398 84.1286 56.2625 84.0902C55.0583 84.0107 53.7458 85.8893 53.3164 87.1262C52.8387 88.4642 53.2633 89.8117 54.0553 90.6761C54.1052 90.7287 54.1558 90.779 54.207 90.8269ZM70.782 135.241C71.3142 135.06 71.8446 134.878 72.374 134.695C76.424 133.297 80.4103 131.871 84.7359 130.287C86.1934 129.768 86.8187 129.509 87.8648 129.093C91.2726 127.725 104.097 122.471 104.711 121.981C106.872 121.054 105.453 113.349 105.452 110.534C101.873 112.11 96.9522 114.128 90.6904 116.588C89.4269 117.24 88.5157 118.086 87.8636 118.792C86.7988 118.872 78.2836 120.355 70.4382 121.667C70.653 121.631 70.8683 121.594 71.0839 121.557C71.0329 119.552 70.663 116.493 69.0723 113.17C69.4685 114.904 69.5352 116.747 69.2137 118.617L68.6208 121.97C64.0316 122.732 59.906 123.39 57.9685 123.61C57.8588 123.293 56.9958 119.549 55.3795 112.378L40.446 116.583C40.7889 118.643 41.6117 121.945 42.9142 126.49C44.868 133.306 45.6226 138.397 50.7315 139.888C51.9223 140.238 53.4659 140.184 56.8927 139.354C60.1184 138.574 63.1149 137.715 65.997 136.81L63.9917 148.152L63.981 148.152L63.9873 148.186L91.472 147.805C92.9225 147.76 91.232 146.768 86.4003 144.828C81.5687 142.887 76.6438 141.238 71.6256 139.878L71.4741 135.006C71.2437 135.085 71.013 135.163 70.782 135.241ZM37.1847 109.62C40.8567 111.212 44.4114 111.397 47.8488 110.177C51.2862 108.956 53.0325 106.215 53.0877 101.952C50.0866 101.038 46.9358 101.286 43.6352 102.698C40.3346 104.11 38.1844 106.417 37.1847 109.62Z" fill="#DB9E75"/>
<path d="M60.1895 100.261L58.0807 97.2467L60.5803 98.3421L60.1895 100.261Z" fill="#482D1F"/>
<path d="M70.3266 88.9375C70.3556 88.6338 70.5898 88.3912 70.8898 88.3703C71.0897 88.3563 71.2717 88.4441 71.3712 88.7891C71.6022 89.5774 70.9079 90.7822 70.5514 90.3546C70.2804 90.0719 70.3064 89.3662 70.3266 88.9375ZM65.8668 89.0983C65.8957 88.7946 66.1299 88.552 66.4299 88.531C66.6299 88.517 66.8119 88.6049 66.9114 88.9499C67.1424 89.7381 66.448 90.943 66.0915 90.5154C65.8206 90.2327 65.8215 89.5287 65.8668 89.0983Z" fill="#482D1F"/>
<path d="M67.4696 94.0654C67.2911 94.0275 66.8557 93.9071 66.7614 93.637C66.7579 93.5869 66.7277 93.5136 66.7492 93.4618C66.8386 93.3046 67.1688 93.357 67.6223 93.3756C68.4274 93.3948 69.0721 93.2743 69.0721 93.2743C69.0721 93.2743 68.9071 93.7888 68.7909 93.9227C68.5689 94.3406 67.7498 94.1212 67.4696 94.0654Z" fill="#482D1F"/>
<path d="M72.0662 86.881C72.3127 86.8134 72.3917 86.5061 72.2044 86.3432C71.9655 86.1587 71.573 85.9346 71.0714 85.9446C70.043 85.9661 68.9602 86.6454 70.0845 86.9189C70.8019 87.1202 71.5966 86.9892 72.0662 86.881ZM67.217 87.2199C67.4635 87.1524 67.5424 86.8451 67.3302 86.6839C67.0912 86.4994 66.6988 86.2753 66.1721 86.287C65.1438 86.3086 64.0627 87.0129 65.1853 87.2613C65.9277 87.4609 66.7223 87.3299 67.217 87.2199ZM54.2236 94.5318C55.1505 93.9103 55.7801 92.9343 56.1126 91.6035C55.6554 91.4738 54.9515 91.1939 54.3802 90.5497C53.6132 89.6848 53.189 88.3623 53.6676 87.0744C54.097 85.8374 55.333 84.8625 56.5373 84.942C57.2146 84.9804 57.7473 85.3475 57.8234 85.3964C58.6611 86.0091 59.026 86.8057 59.026 86.8057L59.5679 88.1827C60.4295 87.5766 62.163 85.2778 64.7684 81.2863C66.216 81.112 67.3338 80.9913 68.1217 80.9241C69.3036 80.8233 70.5718 80.9424 71.0493 80.7507C71.0149 80.8355 70.9806 80.9208 70.9464 81.0065C71.0315 80.8579 71.0748 80.7753 71.0748 80.7753C71.0985 80.6997 70.6911 80.3304 70.6902 80.2802C68.2015 76.9863 63.6206 77.2916 62.7706 77.4067C62.6704 77.4085 62.5706 77.4353 62.4699 77.412C61.0696 77.5868 59.8925 77.6323 59.0912 77.6713C55.2844 77.8127 53.7975 77.3367 51.8851 78.3234C51.5374 78.505 50.7181 78.9458 50.007 79.8364C49.5957 80.335 49.2871 80.8647 49.0575 81.4002C46.8731 81.3287 45.3223 82.4157 44.405 84.6611C43.1802 87.6594 45.0593 90.3755 47.3994 91.486C48.3861 93.9471 51.0916 95.7196 53.271 95.0114C53.6632 94.884 53.9807 94.7241 54.2236 94.5318Z" fill="#482D1F"/>
<path d="M69.0406 89.2369L69.0366 89.2006L69.0399 89.2186L69.0406 89.2369ZM69.5238 91.8572L69.5273 91.8849C69.5464 92.158 69.3775 92.4247 69.1086 92.4891C69.059 92.4975 69.0313 92.5014 69.0035 92.5052C68.7403 92.5409 68.5508 92.5567 67.8699 92.6043C67.7319 92.6139 67.6121 92.5097 67.6025 92.3715C67.5928 92.2333 67.6969 92.1135 67.8349 92.1038C68.5037 92.0571 68.688 92.0417 68.9361 92.008C68.9619 92.0045 68.9877 92.0009 69.0136 91.997C69.008 91.9975 69.0269 91.9669 69.0277 91.9298L68.5438 89.2911L68.5398 89.2549L68.4865 87.775C68.4816 87.6365 68.5896 87.5203 68.7279 87.5153C68.8662 87.5104 68.9823 87.6186 68.9873 87.757L69.0399 89.2186L69.5238 91.8572Z" fill="#482D1F"/>
<path d="M55.1149 112.206L55.1146 110.184C55.1146 109.976 55.2829 109.808 55.4904 109.808C55.6979 109.808 55.8662 109.976 55.8662 110.184L55.8665 112.206C55.8665 112.414 55.6983 112.582 55.4907 112.582C55.2832 112.582 55.1149 112.414 55.1149 112.206Z" fill="#08875D"/>
<path opacity="0.2" d="M69.0789 113.171C69.5094 114.049 69.9335 115.191 70.3513 116.596C70.769 118.002 71.0096 119.656 71.073 121.558L68.6169 121.959C68.8399 120.743 68.9941 119.872 69.0796 119.346C69.2406 118.355 69.4155 117.479 69.4155 116.791C69.4153 115.559 69.3031 114.352 69.0789 113.171ZM65.9947 136.806L71.4714 135.003L71.6242 139.873C80.5681 142.558 86.8337 144.79 90.4209 146.57C91.1435 146.929 91.5922 147.185 91.767 147.339C91.8407 147.408 91.8986 147.467 91.9406 147.517C92.0435 147.64 91.9406 147.767 91.6146 147.79C91.3973 147.805 82.1857 147.927 63.9798 148.155L65.9947 136.806Z" fill="#8C2A00"/>
</svg>
