<svg width="43" height="44" viewBox="0 0 43 44" fill="none" xmlns="http://www.w3.org/2000/svg">
<path d="M6.41157 16.4658C7.17899 12.9128 9.323 9.82719 12.3765 7.89285C15.4301 5.95848 19.1359 5.33839 22.6761 6.16258L22.7768 5.73008L22.6761 6.16258C26.2155 6.98648 29.2998 9.18608 31.2554 12.2731C33.4739 15.7752 34.2082 20.0167 33.2967 24.0644L30.7422 35.4084C30.6772 35.697 30.5 35.9485 30.2497 36.1071C29.9993 36.2657 29.6962 36.3184 29.4075 36.2539L18.0595 33.7168C14.0104 32.8116 10.4894 30.3354 8.27088 26.8334C6.31529 23.7463 5.64437 20.0179 6.41157 16.4658Z" fill="#12741C" stroke="#02590B" stroke-width="0.888124"/>
<path d="M21.062 12.4764C20.9825 12.4803 20.9094 12.5213 20.864 12.5867L14.9306 21.0986C14.8113 21.2696 14.9337 21.5042 15.1422 21.5042H19.2473L18.7545 27.6753C18.7353 27.9362 19.0717 28.0568 19.2226 27.8431L25.1559 19.3317C25.2751 19.1609 25.1531 18.9266 24.9448 18.9262H20.8393L21.3325 12.7545C21.3449 12.5991 21.2177 12.4683 21.062 12.4764Z" fill="white"/>
</svg>
