<svg width="30" height="29" viewBox="0 0 30 29" fill="none" xmlns="http://www.w3.org/2000/svg">
<circle cx="14.7715" cy="14.5" r="14" fill="#FCFCFC" stroke="#F5F5F5"/>
<path d="M19.8485 12.0777C19.7181 11.935 19.5636 11.8636 19.3851 11.8636H10.1579C9.9793 11.8636 9.82489 11.935 9.69442 12.0777C9.56396 12.2206 9.49878 12.3895 9.49878 12.5848C9.49878 12.78 9.56396 12.949 9.69442 13.0917L14.308 18.139C14.4386 18.2817 14.593 18.3532 14.7715 18.3532C14.95 18.3532 15.1045 18.2817 15.2349 18.139L19.8485 13.0917C19.9788 12.949 20.0442 12.78 20.0442 12.5847C20.0442 12.3895 19.9788 12.2206 19.8485 12.0777Z" fill="#12741C"/>
</svg>
