<svg width="44" height="12" viewBox="0 0 44 12" fill="none" xmlns="http://www.w3.org/2000/svg">
<path d="M0.886719 0.295654H40.8718V11.0536H0.886719V0.295654Z" fill="black"/>
<path d="M1.8418 1.25037H39.91V10.0914H1.8418V1.25037Z" fill="#FFDB00"/>
<path d="M42.8323 9.35514C42.9489 9.47905 43.0072 9.62483 43.0072 9.79976C43.0072 9.97468 42.9489 10.1204 42.8323 10.2516C42.7157 10.3755 42.5772 10.4338 42.4095 10.4338C42.2419 10.4338 42.1034 10.3755 41.9868 10.2516C41.8702 10.1277 41.8119 9.97468 41.8119 9.79976C41.8119 9.62483 41.8702 9.47175 41.9868 9.35514C42.1034 9.23123 42.2419 9.17292 42.4095 9.17292C42.5772 9.17292 42.7229 9.23123 42.8323 9.35514ZM42.9052 9.28225C42.7667 9.1365 42.6063 9.07088 42.4095 9.07088C42.22 9.07088 42.0524 9.14377 41.9212 9.28225C41.7827 9.42803 41.7171 9.59566 41.7171 9.79976C41.7171 10.0038 41.7827 10.1788 41.9212 10.3172C42.0524 10.463 42.22 10.5359 42.4095 10.5359C42.5991 10.5359 42.7667 10.463 42.9052 10.3172C43.0436 10.1715 43.1092 10.0038 43.1092 9.79976C43.1092 9.60296 43.0436 9.42803 42.9052 9.28225ZM42.5189 9.77058C42.4897 9.78518 42.446 9.78518 42.395 9.78518H42.271V9.49362H42.3877C42.4605 9.49362 42.5189 9.50092 42.548 9.52277C42.5844 9.54464 42.599 9.58108 42.599 9.6394C42.5918 9.70499 42.5699 9.74874 42.5189 9.77058ZM42.1326 10.2006H42.2638V9.87995H42.3731C42.446 9.87995 42.497 9.88722 42.5262 9.90906C42.5772 9.93824 42.599 9.99653 42.599 10.0913V10.1569L42.6063 10.1788V10.1934H42.7302V10.1861C42.7302 10.1788 42.7229 10.1642 42.7229 10.1423V10.0257C42.7229 9.98195 42.7084 9.94554 42.6792 9.90179C42.65 9.85805 42.6063 9.8289 42.548 9.82163C42.5918 9.81433 42.6282 9.79976 42.6574 9.78515C42.7084 9.74874 42.7302 9.69769 42.7302 9.62483C42.7302 9.52277 42.6938 9.45718 42.6136 9.42073C42.5699 9.40616 42.497 9.39159 42.4023 9.39159H42.1326V10.2006ZM38.3133 7.70792C38.2696 7.42366 38.1093 7.07381 37.8396 6.73126C37.4387 6.22108 36.965 5.93679 36.6297 5.98054V5.97324H34.1662C33.051 4.77063 31.8994 3.52428 31.6589 3.24005C31.2216 2.72254 30.9446 2.71527 30.8426 2.73711H4.61833C4.02066 2.72254 3.7364 2.89019 3.60522 3.05782C3.42299 3.29834 3.43029 3.64819 3.63437 4.10007H3.64164C3.77285 4.39891 4.02066 4.71961 4.34134 5.01845C4.94628 5.55782 5.60226 5.79831 5.95942 5.63069H7.59206C8.72908 6.85517 9.91711 8.14524 10.1649 8.4368C10.6022 8.95427 10.9156 8.90325 10.9521 8.90325H36.79C36.9139 8.92513 37.774 9.07818 38.1749 8.62629C38.3498 8.40035 38.4008 8.09422 38.3133 7.70792ZM37.6209 6.86974L37.6355 6.88434C37.7157 6.98635 37.7813 7.08841 37.8323 7.18314H36.7828C36.7172 7.07381 36.6589 6.97177 36.6151 6.86974H37.6209ZM36.0102 7.95574C35.9665 7.91202 35.9227 7.86097 35.879 7.80996H36.9577C37.0087 7.86097 37.0597 7.91202 37.1107 7.95574H36.0102ZM37.2638 8.07964C37.3002 8.10879 37.3367 8.13066 37.3732 8.15253H36.1997C36.1778 8.13066 36.156 8.10152 36.1341 8.07964H37.2638ZM35.7551 7.67878C35.7113 7.62776 35.6676 7.58401 35.6166 7.533H36.7172C36.7317 7.5476 36.739 7.56217 36.7536 7.57674C36.7828 7.61319 36.8119 7.64233 36.8411 7.67878H35.7551ZM35.5 7.40181C35.4489 7.3508 35.3979 7.29248 35.3469 7.23416H36.5204C36.5495 7.29248 36.586 7.34352 36.6224 7.40181H35.5ZM36.586 6.25023C36.7172 6.14816 37.1107 6.30124 37.5189 6.74583H36.5787C36.5276 6.60008 36.5131 6.47614 36.5204 6.38871C36.5276 6.32309 36.5495 6.27934 36.586 6.25023ZM36.4475 7.11025H35.223C35.1647 7.05196 35.1064 6.98635 35.0481 6.92806H36.36C36.3892 6.98635 36.4183 7.05196 36.4475 7.11025ZM34.9387 6.80415C34.9023 6.7604 34.8586 6.71668 34.8221 6.67294H36.2871C36.2944 6.71668 36.309 6.7604 36.3236 6.80415H34.9387ZM36.3017 6.22105C36.2871 6.2648 36.2726 6.30852 36.2653 6.35953C36.2653 6.38871 36.258 6.41785 36.258 6.447C36.258 6.47617 36.258 6.51261 36.2653 6.54176H34.6982C34.6035 6.43242 34.5014 6.33039 34.3994 6.22105H36.3017ZM31.4548 3.40037C31.484 3.43682 31.5277 3.48783 31.586 3.54615H6.00313C5.90031 3.43756 5.79827 3.32823 5.69703 3.21817H31.2872C31.3382 3.26189 31.3965 3.32021 31.4548 3.40037ZM5.76992 3.67006C5.84281 3.75022 5.93024 3.84499 6.02501 3.94702H5.51483C5.47836 3.91058 5.44194 3.87413 5.40547 3.84499C5.3399 3.78667 5.26701 3.72838 5.2014 3.67736H5.76992V3.67006ZM5.02647 3.54615C4.93171 3.48056 4.84427 3.42954 4.74951 3.38583H5.49296C5.53667 3.42954 5.58772 3.48783 5.64601 3.54615H5.02647ZM30.8644 2.98493L30.8863 2.97766C30.8863 2.97766 30.9738 2.97036 31.1341 3.08697H5.57312C5.54397 3.05782 5.5294 3.03595 5.5221 3.02868L5.50023 3.0068C5.49296 2.9995 5.48566 2.9922 5.47836 2.9922L30.8644 2.98493ZM5.37632 3.25462H4.45798C4.41423 3.24002 4.37051 3.22545 4.32677 3.21817H5.33988C5.34718 3.21817 5.36175 3.23277 5.37632 3.25462ZM5.00462 3.02138C5.09209 3.03598 5.15038 3.05782 5.2014 3.08697H3.97692C4.14457 2.9995 4.45068 2.94846 5.00462 3.02138ZM3.80929 3.21817H3.83116C3.82386 3.21817 3.80929 3.21817 3.80929 3.22545V3.21817ZM3.78742 3.69193C3.78015 3.61177 3.80202 3.54615 3.83844 3.50241C3.87488 3.45869 3.94047 3.43684 4.02796 3.42954C4.3122 3.41494 4.74224 3.61904 5.13581 3.93972H3.84574C3.80929 3.85229 3.79472 3.7721 3.78742 3.69193ZM3.90403 4.07093H5.28159C5.44191 4.22398 5.58042 4.37706 5.68245 4.53012H4.22473C4.09355 4.37706 3.98422 4.22398 3.90403 4.07093ZM4.51627 4.82895C4.45798 4.77793 4.39966 4.71961 4.34134 4.6613H5.76992C5.85021 4.78421 5.90934 4.91971 5.94484 5.06216H4.81513C4.71306 4.9893 4.61103 4.91641 4.51627 4.82895ZM5.96672 5.19337C5.96672 5.25896 5.95212 5.31728 5.91567 5.3537C5.79179 5.49221 5.43464 5.42662 5.0192 5.18607L5.96672 5.19337ZM5.64601 4.07093H6.14164C6.27282 4.21671 6.4186 4.36976 6.56436 4.53012H5.99586C5.9084 4.37706 5.79179 4.22398 5.64601 4.07093ZM6.68826 4.6613C6.81217 4.7925 6.93608 4.92368 7.05999 5.06216H6.20723C6.19263 4.93828 6.14164 4.79978 6.06875 4.6613H6.68826ZM7.18389 5.18607C7.19849 5.20794 7.22034 5.22252 7.23491 5.24439H6.2145C6.2145 5.22252 6.2218 5.20794 6.2218 5.18607H7.18389ZM6.11974 5.49948C6.14894 5.46306 6.17806 5.41932 6.19266 5.3756H7.35152C7.38797 5.41932 7.43168 5.46306 7.46816 5.49948H6.11974ZM10.0775 7.95574C9.9973 7.86827 9.90254 7.75894 9.79318 7.64233H10.1066V7.51112H9.6766C9.59644 7.42366 9.51624 7.3362 9.42878 7.23416H10.1066V7.11025H9.31215C9.18097 6.97177 9.04976 6.82602 8.90401 6.67294H10.1066V6.54903H8.78737C8.68533 6.43242 8.576 6.31582 8.46669 6.19918H10.1066V6.068H8.35006C8.26259 5.97324 8.18243 5.88577 8.09497 5.79104H10.1066V5.66713H7.97836C7.92004 5.60881 7.86172 5.54322 7.80343 5.48491H10.1066V5.35373H7.6868C7.63578 5.29541 7.58476 5.24439 7.53375 5.18607H10.1066V5.06216H7.41714C7.38069 5.02575 7.35152 4.9893 7.31508 4.95286H10.1066V4.82165H7.19119C7.14015 4.76336 7.08913 4.71231 7.03811 4.65402H10.0993V4.52282H6.92151C6.87049 4.46452 6.81947 4.41351 6.76845 4.35519H10.1066V4.22398H6.65182C6.6008 4.16569 6.54978 4.11467 6.49876 4.05636H10.1066V3.93245H6.37483C6.28737 3.83769 6.1999 3.74292 6.11974 3.65549H31.6953C31.7682 3.73565 31.8484 3.83041 31.9431 3.93245H31.6443V4.05636H32.067C32.1181 4.10737 32.1691 4.16569 32.2201 4.22398H31.6443V4.35519H32.3367C32.3877 4.40621 32.4387 4.46452 32.4898 4.52282H31.6443V4.65402H32.6064C32.6574 4.70504 32.7084 4.76336 32.7594 4.82165H31.6443V4.95286H32.8761C32.9125 4.9893 32.9416 5.02575 32.9781 5.06216H31.6443V5.18607H33.0947C33.1457 5.24439 33.1968 5.29544 33.2478 5.35373H31.6443V5.48491H33.3644C33.4227 5.54322 33.4737 5.60881 33.532 5.66713H31.6443V5.79104H33.6559C33.7361 5.8858 33.8236 5.97324 33.911 6.068H31.6516V6.19918H34.0349C34.1443 6.31582 34.2536 6.43242 34.3556 6.54903H31.6443V6.67294H34.4723C34.5087 6.71668 34.5524 6.7604 34.5889 6.80415H31.6443V6.92806H34.7055C34.7638 6.98635 34.8221 7.05196 34.8732 7.11025H31.6443V7.23416H34.9971C35.0481 7.29248 35.0991 7.34352 35.1501 7.40181H31.6443V7.63503H31.6516V7.52572H35.2668C35.3105 7.57674 35.3615 7.62776 35.4052 7.67148H31.6443V7.80268H35.5218C35.5729 7.8537 35.6166 7.90472 35.6603 7.94844H10.0775V7.95574ZM10.1941 8.07964H35.7842C35.8352 8.13796 35.8936 8.19625 35.9373 8.24727H10.3399C10.3034 8.20355 10.2524 8.15251 10.1941 8.07964ZM10.9229 8.64814C10.9011 8.64814 10.7334 8.66274 10.4565 8.37845H36.0539C36.207 8.53883 36.3017 8.64087 36.3017 8.64087L10.9229 8.64814ZM36.8265 8.64087C36.7171 8.61172 36.6516 8.58985 36.6005 8.5534H37.8396C37.5262 8.7356 37.0087 8.68458 36.8265 8.64087ZM37.9854 8.4295H36.4548C36.4256 8.40035 36.3819 8.34933 36.3163 8.28372H37.6209C37.6863 8.3101 37.755 8.32727 37.825 8.33473C37.9052 8.34203 37.9781 8.33473 38.051 8.31289C38.0364 8.35661 38.0145 8.39305 37.9854 8.4295ZM38.0072 8.05777C37.9708 8.08694 37.9198 8.09422 37.8542 8.08694C37.6428 8.06507 37.2857 7.8464 36.9504 7.42366C36.9212 7.38724 36.8994 7.3508 36.8702 7.31435H37.9125C37.9271 7.3435 37.9417 7.37264 37.9562 7.40911C38.0072 7.54757 38.051 7.67878 38.0728 7.79538C38.0801 7.91929 38.0583 8.01405 38.0072 8.05777Z" fill="black"/>
<path d="M14.6913 7.48211V4.14392H15.945C16.5354 4.14392 17.0018 4.31885 17.0018 4.9821C17.0018 5.32465 16.8269 5.57247 16.6593 5.71095C16.9436 5.80571 17.0966 6.11182 17.0966 6.47627C17.0966 7.22699 16.652 7.48208 15.9669 7.48208L14.6913 7.48211ZM15.5514 6.08998V6.70951H15.9304C16.1418 6.70951 16.3021 6.6512 16.3021 6.40338C16.3021 6.11182 16.098 6.08998 15.8284 6.08998H15.5514ZM15.5514 4.92379V5.47774H15.9085C16.0835 5.47774 16.2074 5.38297 16.2074 5.18617C16.2074 4.92379 16.0398 4.92379 15.8575 4.92379H15.5514ZM19.5747 7.48211V4.14392H20.4347V5.27364H21.2511V4.14392H22.1111V7.48211H21.2511V6.19201H20.4347V7.48938H19.5747V7.48211ZM22.7234 4.14392H23.5834V6.14099C23.5834 6.46897 23.6344 6.75323 23.9916 6.75323C24.2977 6.75323 24.3924 6.50542 24.3924 6.14099V4.14392H25.2525V6.03166C25.2525 7.10308 24.8662 7.56954 23.9916 7.56954C23.1753 7.56954 22.7234 7.17597 22.7234 6.02436V4.14392ZM27.4974 5.96607L27.4682 5.20805V4.14392H28.2918V7.48211H27.4828L26.5499 5.66723L26.579 6.42525V7.48208H25.7554V4.14392H26.5645L27.4974 5.96607ZM28.6562 4.14392H31.0615V5.01855H30.2889V7.48211H29.4289V5.01855H28.6562V4.14392ZM13.3722 6.65847C13.1243 6.65847 12.9202 6.86257 12.9202 7.11036C12.9202 7.35817 13.1243 7.56227 13.3721 7.56227C13.6199 7.56227 13.824 7.35817 13.824 7.11036C13.824 6.85527 13.6273 6.65847 13.3722 6.65847ZM17.7744 6.65847C17.5266 6.65847 17.3225 6.86257 17.3225 7.11036C17.3225 7.35817 17.5266 7.56227 17.7744 7.56227C18.0222 7.56227 18.2263 7.35817 18.2263 7.11036C18.2263 6.85527 18.0222 6.65847 17.7744 6.65847ZM11.0981 6.51999C11.3605 6.8407 11.6156 6.84069 11.7614 6.79695C11.929 6.74593 11.98 6.61475 11.98 6.34506V4.14392H12.8401V6.19201C12.8401 7.07391 12.5121 7.52582 11.8197 7.56954C11.1491 7.60599 10.9669 7.48208 10.5879 7.06664L11.0981 6.51999Z" fill="black"/>
</svg>
