<svg width="37" height="7" viewBox="0 0 37 7" fill="none" xmlns="http://www.w3.org/2000/svg">
<path d="M7.88802 1.79049C7.9218 1.36827 7.70224 1.12339 7.28003 1.12339C6.81559 1.12339 6.46093 1.52871 6.31737 2.30559C6.21604 2.87981 6.24982 3.4118 6.92536 3.4118C7.35603 3.4118 7.60936 3.11625 7.72758 2.72781H9.01112C8.70712 3.77491 7.8458 4.40824 6.77337 4.40824C5.43071 4.40824 4.76361 3.58069 5.00005 2.26337C5.23649 0.946055 6.26671 0.126953 7.40669 0.126953C8.64801 0.126953 9.23067 0.743391 9.15467 1.78205L7.88802 1.79049Z" fill="#F26523"/>
<path d="M3.64184 1.33421C3.65028 1.21599 3.59117 1.10621 3.48984 1.0471C3.38851 0.996433 3.27029 0.962656 3.15207 0.9711C2.84807 0.9711 2.69607 1.05554 2.67074 1.20754C2.56096 1.84087 5.0436 1.44398 4.77338 2.97241C4.60449 3.94351 3.70939 4.41639 2.55252 4.41639C1.44631 4.41639 0.838314 3.76618 0.939646 3.01463H2.25696C2.24852 3.14974 2.31608 3.27641 2.42585 3.34396C2.53563 3.41152 2.66229 3.45374 2.7974 3.44529C3.14362 3.44529 3.38851 3.33552 3.42228 3.13285C3.54051 2.50797 1.04942 2.94708 1.32809 1.34265C1.48853 0.44755 2.33296 0 3.38851 0C4.55383 0 4.98449 0.591104 4.95071 1.33421H3.64184Z" fill="#F26523"/>
<path d="M9.66239 0.211617H10.9797L10.7517 1.57116H11.9761L12.2041 0.211617H13.5383L12.8375 4.31557H11.5117L11.7735 2.73648H10.5322L10.2451 4.33246H8.92773L9.66239 0.211617Z" fill="#F26523"/>
<path d="M13.293 4.3149L14.0023 0.202499H15.2436L16.3414 2.21225L16.6623 0.202499H17.9036L17.1774 4.32334H15.9614L14.8636 2.53314L14.5596 4.32334L13.293 4.3149Z" fill="#F26523"/>
<path d="M18.4021 0.202499H21.6869L21.5265 1.15671H19.5505L19.4576 1.75626H20.7665L20.6229 2.70203H19.2887L19.1874 3.35224H21.2309L21.062 4.30645H17.7012L18.4021 0.202499Z" fill="#F26523"/>
<path d="M28.155 0.202499H31.4398L31.2794 1.15671H29.3034L29.219 1.75626H30.5194L30.3758 2.70203H29.0416L28.9403 3.35224H30.9838L30.815 4.30645H27.4541L28.155 0.202499Z" fill="#F26523"/>
<path d="M22.1423 0.211617H23.4596L22.7418 4.31557H21.4414L22.1423 0.211617Z" fill="#F26523"/>
<path d="M23.9411 0.202513H25.8748C25.8748 0.202513 27.2935 0.185624 27.4961 1.35094C27.6988 2.51626 26.9219 3.64781 26.4997 3.91803C26.0775 4.18825 25.765 4.32336 24.8193 4.32336H23.2148L23.9411 0.202513ZM24.7179 3.29314C25.7566 3.29314 25.8748 3.00604 26.0184 2.82871C26.1957 2.60915 26.373 1.87449 26.221 1.51139C26.0353 1.04695 25.1064 1.17361 25.1064 1.17361L24.7179 3.29314Z" fill="#F26523"/>
<path d="M31.8015 0.20187H33.9886C33.9886 0.20187 35.1201 0.117427 35.2805 0.86053C35.441 1.60363 35.1285 2.1694 34.4614 2.38896C34.4614 2.38896 35.1201 2.49873 35.0188 3.08984C34.9174 3.68094 34.7992 4.30582 34.7992 4.30582H33.5072L33.6592 3.36006C33.6592 3.36006 33.8028 2.87028 33.1695 2.87028H32.6797L32.4263 4.29738H31.1006L31.8015 0.20187ZM32.8317 1.98363C32.8317 1.98363 33.5072 2.01741 33.769 1.91607C34.0308 1.81474 34.1659 1.44319 33.9294 1.25741C33.7606 1.1223 32.9752 1.15608 32.9752 1.15608L32.8317 1.98363Z" fill="#F26523"/>
<path d="M0.271484 6.99984L0.575481 5.21809H14.3989L14.1624 6.59451L15.8091 5.22653H34.6991L34.3951 6.99984H0.271484Z" fill="#F26523"/>
<path d="M36.1857 0.514158C36.1942 0.691489 36.0506 0.843488 35.8733 0.851932C35.696 0.860376 35.544 0.716822 35.5355 0.539491C35.5271 0.36216 35.6706 0.210161 35.848 0.201717H35.8564C36.0422 0.193273 36.1857 0.336827 36.1857 0.514158ZM35.62 0.514158C35.62 0.649268 35.7213 0.759044 35.8564 0.767488H35.8648C35.9999 0.767488 36.1097 0.657712 36.1097 0.522602V0.514158C36.1182 0.379048 36.0168 0.260828 35.8817 0.252383C35.7466 0.243939 35.6284 0.345271 35.62 0.480381C35.62 0.497269 35.62 0.505714 35.62 0.514158ZM35.8142 0.683045H35.7382V0.36216C35.7804 0.353715 35.8226 0.353715 35.8564 0.353715C35.8986 0.353715 35.9324 0.36216 35.9662 0.379048C35.9831 0.395937 35.9999 0.42127 35.9999 0.446603C35.9999 0.480381 35.9662 0.514158 35.9324 0.522602C35.9662 0.539491 35.9831 0.564824 35.9915 0.598602C35.9915 0.623935 35.9999 0.649268 36.0168 0.674601H35.9408C35.9324 0.649268 35.924 0.623935 35.9155 0.598602C35.9071 0.564824 35.8902 0.547935 35.848 0.547935H35.8142V0.683045ZM35.8142 0.505714H35.848C35.8902 0.505714 35.924 0.488825 35.924 0.463492C35.924 0.438159 35.9071 0.412826 35.8564 0.412826C35.8395 0.412826 35.8311 0.412826 35.8142 0.412826V0.505714Z" fill="#F26523"/>
</svg>
