<svg width="47" height="10" viewBox="0 0 47 10" fill="none" xmlns="http://www.w3.org/2000/svg">
<path d="M10.4445 2.73421C10.5187 2.215 10.222 1.84418 9.62865 1.84418C9.03527 1.84418 8.59023 2.36337 8.36772 3.40178C8.21937 4.14351 8.29355 4.81108 9.18362 4.81108C9.777 4.81108 10.0737 4.44021 10.222 3.921H11.8538C11.483 5.2561 10.3704 6.07198 8.9611 6.07198C7.18096 6.07198 6.36505 4.9594 6.66174 3.25343C6.95844 1.54746 8.29354 0.509033 9.77699 0.509033C11.4088 0.509033 12.1505 1.32495 12.0763 2.66006L10.4445 2.73421Z" fill="#F26523"/>
<path d="M4.95799 2.14114C4.95799 1.9928 4.88382 1.84445 4.73548 1.77028C4.58713 1.69611 4.43878 1.69612 4.29044 1.69612C3.91958 1.69612 3.69706 1.77027 3.69706 1.99279C3.54871 2.80868 6.8123 2.2895 6.44144 4.29216C6.21892 5.5531 5.03216 6.14648 3.54871 6.14648C2.13943 6.14648 1.32353 5.33058 1.47188 4.29216H3.17785C3.17785 4.44051 3.25203 4.66301 3.40037 4.73718C3.54872 4.81135 3.69706 4.88553 3.91958 4.88553C4.36461 4.88553 4.66131 4.73719 4.73548 4.51467C4.88382 3.69877 1.62022 4.29217 1.99108 2.21534C2.2136 1.02858 3.3262 0.435181 4.6613 0.435181C6.14475 0.435181 6.73813 1.1769 6.66396 2.14114H4.95799Z" fill="#F26523"/>
<path d="M12.7396 0.733154H14.4456L14.1489 2.51327H15.7065L16.0032 0.733154H17.7092L16.8191 6.07354H15.1132L15.484 3.99672H13.8522L13.4813 6.07354H11.7754L12.7396 0.733154Z" fill="#F26523"/>
<path d="M17.4907 6.07354L18.3808 0.733154H20.0126L21.4219 3.32919L21.8669 0.733154H23.4987L22.5345 6.07354H20.9768L19.5676 3.77421L19.1967 6.07354H17.4907Z" fill="#F26523"/>
<path d="M24.0903 0.733154H28.3923L28.1698 1.99405H25.5737L25.4254 2.80998H27.1313L26.9088 4.07092H25.2029L25.0545 4.8868H27.7247L27.5022 6.14774H23.2002L24.0903 0.733154Z" fill="#F26523"/>
<path d="M36.7748 0.733154H41.0768L40.8543 1.99405H38.2583L38.1841 2.80998H39.8901L39.6676 4.07092H37.9616L37.8132 4.8868H40.4835L40.2609 5.99939H35.8848L36.7748 0.733154Z" fill="#F26523"/>
<path d="M28.9882 0.733154H30.6941L29.7299 6.07354H28.0239L28.9882 0.733154Z" fill="#F26523"/>
<path d="M31.2846 0.733154H33.8065C33.8065 0.733154 35.6608 0.733154 35.8833 2.21661C36.18 3.70006 35.1416 5.18351 34.6224 5.55437C34.1032 5.92523 33.6581 6.07354 32.4714 6.07354H30.3945L31.2846 0.733154ZM32.323 4.73845C33.6581 4.73845 33.8065 4.36759 34.029 4.14507C34.2515 3.84838 34.474 2.88415 34.3257 2.43911C34.1032 1.84573 32.8422 1.99405 32.8422 1.99405L32.323 4.73845Z" fill="#F26523"/>
<path d="M41.5258 0.734475H44.3444C44.3444 0.734475 45.8278 0.660266 46.0503 1.62451C46.2729 2.58875 45.8278 3.33049 45.0119 3.62718C45.0119 3.62718 45.902 3.77553 45.7536 4.51726C45.6053 5.25898 45.457 6.07486 45.457 6.07486H43.751L43.9735 4.81396C43.9735 4.81396 44.196 4.14639 43.306 4.14639H42.6384L42.3417 6.00071H40.6357L41.5258 0.734475ZM42.8609 3.03381C42.8609 3.03381 43.751 3.108 44.0477 2.95965C44.4185 2.81131 44.5669 2.36626 44.2702 2.06957C44.0477 1.92123 43.0093 1.92122 43.0093 1.92122L42.8609 3.03381Z" fill="#F26523"/>
<path d="M0.580078 9.5591L0.950941 7.25977H18.9007L18.604 9.03988L20.755 7.25977H45.3061L44.9353 9.5591H0.580078Z" fill="#F26523"/>
</svg>
