<svg width="50" height="7" viewBox="0 0 50 7" fill="none" xmlns="http://www.w3.org/2000/svg">
<path d="M26.7393 0.717896C25.5747 0.717896 24.6062 1.2956 24.1162 2.16793H29.3595C28.8705 1.2956 27.905 0.717896 26.7393 0.717896Z" fill="#2CAAE2"/>
<path d="M26.7393 6.36636C27.8864 6.36636 28.8403 5.78952 29.3361 4.91748H24.1396C24.6366 5.79054 25.5922 6.36636 26.7393 6.36636Z" fill="#007749"/>
<path d="M29.6104 2.78381H23.8652C23.8021 3.01978 23.7703 3.26239 23.7705 3.50594C23.7705 3.78368 23.8096 4.05014 23.8808 4.30173H29.5948C29.6661 4.05014 29.7051 3.78368 29.7051 3.50594C29.7048 3.26243 29.6729 3.01988 29.6104 2.78381Z" fill="#07B14C"/>
<path d="M0.65625 0.810306H4.11217V1.71788H1.75952V3.06797H3.91893V3.97468H1.75952V5.3668H4.23713V6.27423H0.65625V0.810306ZM4.55246 0.810306H5.74925L6.96177 4.2943C7.07025 4.61304 7.17949 5.10958 7.17949 5.10958H7.19611C7.19611 5.10958 7.30444 4.61391 7.41383 4.2943L8.64191 0.810306H9.81831L7.75545 6.27423H6.62302L4.55246 0.810306ZM10.3641 0.810306H13.82V1.71788H11.4672V3.06797H13.692V3.97468H11.4672V5.3668H13.9449V6.27423H10.3641V0.810306ZM15.8999 1.71788V3.35971H16.7785C17.3144 3.35971 17.6483 3.05223 17.6483 2.52854C17.6483 2.19217 17.5341 1.94896 17.2646 1.82143C17.1231 1.75427 16.9406 1.71788 16.5969 1.71788H15.8999ZM14.7957 0.810306H16.6693C17.2617 0.810306 17.5273 0.8532 17.7617 0.937112C18.3775 1.15982 18.7729 1.71412 18.7729 2.47077C18.7729 3.10899 18.4265 3.7202 17.8309 3.95504V3.97093C17.8309 3.97093 17.9031 4.05556 18.0243 4.25978L19.1889 6.27409H17.9519L16.84 4.267H15.9017V6.27409H14.7977V0.810161L14.7957 0.810306ZM20.0731 4.81798C20.0731 4.81798 20.7018 5.39482 21.4867 5.39482C21.8977 5.39482 22.2804 5.19912 22.2804 4.7761C22.2804 3.86102 19.6054 3.99894 19.6054 2.31898C19.6054 1.38801 20.4352 0.719173 21.5433 0.719173C22.6913 0.719173 23.2752 1.30338 23.2752 1.30338L22.7957 2.16805C22.7957 2.16805 22.2432 1.69102 21.5344 1.69102C21.0873 1.69102 20.7125 1.93322 20.7125 2.30223C20.7125 3.2098 23.3874 2.99836 23.3874 4.74808C23.3874 5.62489 22.6826 6.36652 21.4701 6.36652C20.1893 6.36652 19.4756 5.61637 19.4756 5.61637L20.0731 4.81798ZM30.2808 0.810306H31.385V4.30166C31.385 5.00516 31.8643 5.40118 32.6013 5.40118C33.3424 5.40118 33.8267 5.00516 33.8267 4.2943V0.810306H34.9296V4.30166C34.9296 5.52408 33.9994 6.36652 32.6092 6.36652C31.2113 6.36652 30.2808 5.52408 30.2808 4.30166V0.810306ZM36.8911 1.71788V3.35971H37.7697C38.3056 3.35971 38.6395 3.05223 38.6395 2.52854C38.6395 2.19217 38.5253 1.94896 38.2558 1.82143C38.1143 1.75427 37.9318 1.71788 37.5881 1.71788H36.8911ZM35.788 0.810306H37.6614C38.2539 0.810306 38.5196 0.8532 38.7538 0.937112C39.3698 1.15982 39.7652 1.71412 39.7652 2.47077C39.7652 3.10899 39.4186 3.7202 38.8221 3.95504V3.97093C38.8221 3.97093 38.8943 4.05556 39.0155 4.25978L40.1801 6.27409H38.9431L37.831 4.267H36.892V6.27409H35.7889V0.810161L35.788 0.810306ZM43.2581 0.718018C44.656 0.718018 45.3735 1.46441 45.3735 1.46441L44.8503 2.25644C44.8503 2.25644 44.1971 1.67975 43.3069 1.67975C42.1189 1.67975 41.4414 2.52941 41.4414 3.50226C41.4414 4.48985 42.1462 5.40219 43.3108 5.40219C44.2822 5.40219 44.9547 4.70981 44.9547 4.70981L45.5308 5.47483C45.5308 5.47483 44.7332 6.36652 43.2669 6.36652C41.5097 6.36652 40.302 5.13197 40.302 3.52089C40.3009 1.93307 41.5651 0.718018 43.2581 0.718018ZM46.0926 0.810306H49.5496V1.71788H47.1956V3.06797H49.3547V3.97468H47.1956V5.3668H49.6735V6.27423H46.0926V0.810306Z" fill="black"/>
</svg>
