<svg width="34" height="17" viewBox="0 0 34 17" fill="none" xmlns="http://www.w3.org/2000/svg">
<path d="M5.9011 4.90565H4.48877L4.324 5.6589L3.54721 9.35451C3.45306 9.82528 3.19413 10.1078 2.81751 10.1078C2.44089 10.1078 2.29965 9.82528 2.41735 9.35451L3.19413 5.6589L3.3589 4.90565H1.94657L1.7818 5.63536L1.07563 8.93081C0.816702 10.1078 0.957936 11.0493 2.60566 11.0493C2.74689 11.0493 2.88813 11.0493 3.0529 11.0258C4.324 10.8845 4.79478 10.0607 5.03016 9.0485C5.03016 9.02496 5.0537 8.97788 5.0537 8.95434L5.75987 5.6589L5.9011 4.90565Z" fill="#313843"/>
<path d="M9.00693 6.24731C8.93631 6.24731 8.86569 6.24731 8.79508 6.24731C8.41845 6.24731 8.06537 6.38855 7.7829 6.64748C7.68875 6.71809 7.61813 6.81225 7.54752 6.9064H7.52398L7.64167 6.36501H6.32349L5.89979 8.31874L5.52317 10.1312L5.3584 10.9316H6.72365L7.21797 8.57767L7.3592 7.94211C7.45336 7.49488 7.73583 7.30656 7.99475 7.28303C8.25368 7.28303 8.34784 7.47134 8.27722 7.80088V7.82442L8.23014 8.03627L7.61813 10.9316H8.98339L9.054 10.5314L9.68956 7.51841C9.73663 7.30656 9.76017 7.07118 9.71309 6.85933C9.66602 6.50624 9.40709 6.31793 9.00693 6.24731Z" fill="#313843"/>
<path d="M9.78516 10.9316H11.1504L12.1155 6.36509H10.7503L9.78516 10.9316Z" fill="#313843"/>
<path d="M15.128 6.36499L14.0923 9.11904L13.8569 9.73105L13.904 8.55411L14.0452 6.36499H13.1743H12.6094L12.7741 10.7668V10.9315H14.3983L16.4933 6.36499H15.128Z" fill="#313843"/>
<path d="M18.4944 7.09471C18.871 7.09471 18.8946 7.44779 18.7533 8.08334H17.7647C17.8824 7.47133 18.0472 7.09471 18.4944 7.09471ZM17.5999 8.86012H19.9067C20.2363 7.30656 20.3304 6.24731 18.6592 6.24731C17.1762 6.24731 16.5878 7.18886 16.3288 8.4835C16.0228 9.84876 15.9051 11.0492 17.647 11.0492C18.7769 11.0492 19.5066 10.5078 19.7655 9.37798H18.5179C18.3532 9.94291 18.1884 10.2018 17.8353 10.2018C17.4352 10.2018 17.4116 9.84876 17.5528 9.14259L17.5999 8.86012Z" fill="#313843"/>
<path d="M23.6494 6.27085C23.5788 6.24731 23.5082 6.24731 23.4376 6.24731C22.9197 6.27085 22.4489 6.55332 22.19 7.00056H22.1665L22.3077 6.36501H20.9895L20.0244 10.9316H21.3897L21.9311 8.34228C22.0488 7.7538 22.4725 7.51841 23.0139 7.51841C23.1315 7.51841 23.2728 7.51841 23.3905 7.54195L23.6494 6.27085Z" fill="#313843"/>
<path d="M27.1086 7.54195C27.2498 6.88286 27.0144 6.24731 25.7198 6.24731C24.6134 6.24731 23.8837 6.71809 23.6954 7.61257C23.4836 8.57766 24.0014 8.78951 25.0371 9.16614C25.0842 9.18968 25.1078 9.18968 25.1313 9.21322C25.3432 9.28383 25.4844 9.49568 25.4373 9.73107C25.3902 10.0135 25.1313 10.2018 24.8488 10.2018C24.6841 10.2254 24.5428 10.1312 24.4722 9.99C24.4487 9.89584 24.4487 9.80169 24.4487 9.70753C24.4487 9.63691 24.4722 9.54276 24.4958 9.47214H23.2717L23.2247 9.68399C23.154 9.94292 23.1776 10.2254 23.2717 10.4608C23.3894 10.7432 23.6719 10.908 24.0956 11.0022C24.2839 11.0257 24.4958 11.0492 24.6841 11.0492C25.8139 11.0492 26.5436 10.4843 26.7555 9.5663C26.779 9.47214 26.8026 9.35445 26.8026 9.23675C26.8261 8.86013 26.6378 8.50705 26.3082 8.34228C25.7433 8.01273 24.9195 8.03627 25.0136 7.51841C25.0607 7.25949 25.2961 7.07118 25.555 7.09471C25.8375 7.09471 25.9787 7.21241 25.8845 7.61257L25.861 7.70673H27.085L27.1086 7.61257V7.54195Z" fill="#313843"/>
<path d="M29.462 9.47223C29.4149 9.82532 29.1324 10.0842 28.7794 10.1078C28.5204 10.1078 28.4263 9.89593 28.4969 9.51931C28.5204 9.30746 28.6381 9.11915 28.8029 9.02499C28.9441 8.93084 29.1324 8.9073 29.6268 8.69545C29.5797 8.86022 29.5326 9.09561 29.462 9.47223ZM30.0034 6.2474H29.7915C29.3208 6.22387 28.8735 6.31802 28.4498 6.55341C28.0732 6.76526 27.8143 7.14188 27.673 7.77743H28.8971C28.9912 7.37727 29.1324 7.14188 29.5326 7.14188C29.8386 7.14188 29.9328 7.33019 29.8622 7.58912C29.7915 7.9422 29.6974 8.01282 29.2501 8.10698C28.8029 8.17759 28.3557 8.31883 27.932 8.4836C27.5083 8.74253 27.2258 9.16623 27.1552 9.637C26.9433 10.6256 27.32 11.0258 28.0732 11.0258C28.544 11.0258 28.9912 10.7904 29.2737 10.3902H29.2972C29.2737 10.555 29.2501 10.7433 29.2737 10.9081H30.5919C30.4742 10.6963 30.5683 10.2726 30.6389 9.91947L31.1333 7.56558C31.3216 6.69464 30.9685 6.29448 30.0034 6.2474Z" fill="#313843"/>
<path d="M32.571 4.90565L32.4062 5.6589L31.2764 10.9316H32.6416L33.7715 5.6589L33.9363 4.90565H32.571Z" fill="#313843"/>
<path d="M31.017 2.66949C29.7459 -0.0845575 22.237 0.38622 14.2102 3.7052C13.8101 3.86998 13.4099 4.03475 13.0098 4.22306L13.3393 4.9763C13.7395 4.78799 14.1396 4.62322 14.5633 4.45845C21.3661 1.65732 27.7686 1.25716 28.8514 3.58751C29.1339 4.17598 29.0397 4.88215 28.616 5.68247H30.4285C31.1818 4.52907 31.4172 3.49335 31.017 2.66949Z" fill="#CA1F3D"/>
<path d="M18.4709 12.8618C11.6682 15.663 5.26563 16.0631 4.18284 13.7328C3.90037 13.1443 3.99453 12.4146 4.41823 11.6378H2.60573C1.87603 12.7677 1.64064 13.8034 2.01726 14.6273C3.26482 17.3578 10.7973 16.9105 18.824 13.5916C20.2364 13.0031 21.6016 12.3675 22.9433 11.6378H21.1308C20.2834 12.0615 19.389 12.4852 18.4709 12.8618Z" fill="#CA1F3D"/>
<path d="M11.0094 5.65899C11.1036 5.77669 11.2212 5.89438 11.3625 5.94146C11.7862 6.12977 12.257 5.94146 12.4453 5.51776C12.6336 5.09406 12.4453 4.62328 12.0216 4.43497C11.5979 4.24666 11.1271 4.43497 10.9388 4.85867C10.8917 4.95283 10.8682 5.07052 10.8682 5.18822C10.8682 5.21175 10.8682 5.21175 10.8682 5.23529C10.8917 5.37653 10.9388 5.51776 11.0094 5.65899Z" fill="#CA1F3D"/>
</svg>
