<svg width="25" height="25" viewBox="0 0 25 25" fill="none" xmlns="http://www.w3.org/2000/svg">
<path d="M17.1833 22.2662C17.2369 22.3685 17.2686 22.4808 17.2765 22.596C17.2843 22.7113 17.268 22.8269 17.2287 22.9355C17.1894 23.0441 17.1279 23.1433 17.0481 23.2269C16.9683 23.3104 16.872 23.3764 16.7653 23.4206C14.7771 24.2208 12.611 24.4747 10.4916 24.156C8.37221 23.8374 6.37659 22.9577 4.71156 21.6082L4.24812 22.0717C4.17929 22.1404 4.09225 22.188 3.99726 22.2089C3.90227 22.2298 3.80328 22.2232 3.71195 22.1897C3.62063 22.1562 3.54078 22.0973 3.48182 22.0199C3.42286 21.9426 3.38724 21.85 3.37915 21.7531L3.16812 19.4689C3.1622 19.3941 3.17259 19.3188 3.19857 19.2483C3.22455 19.1779 3.2655 19.1139 3.31861 19.0608C3.37171 19.0077 3.4357 18.9667 3.50616 18.9408C3.57662 18.9148 3.65187 18.9044 3.72674 18.9103L6.01087 19.1213C6.1078 19.1294 6.2004 19.165 6.27776 19.224C6.35512 19.283 6.41401 19.3628 6.44749 19.4541C6.48098 19.5455 6.48766 19.6445 6.46675 19.7394C6.44585 19.8344 6.39822 19.9215 6.32949 19.9903L5.89501 20.4248C7.32332 21.548 9.02271 22.2746 10.8216 22.531C12.6205 22.7875 14.4552 22.5648 16.1405 21.8855C16.3306 21.8084 16.5425 21.8047 16.7352 21.8751C16.9278 21.9454 17.0875 22.0848 17.1833 22.2662Z" fill="white"/>
<path d="M2.67564 16.1591C2.7585 16.3626 2.75709 16.5908 2.67173 16.7933C2.58637 16.9959 2.42405 17.1562 2.22047 17.2391C2.0169 17.3219 1.78874 17.3205 1.5862 17.2351C1.38367 17.1498 1.22333 16.9875 1.14048 16.7839C0.340307 14.7956 0.086404 12.6296 0.405078 10.5102C0.723752 8.39077 1.60341 6.39515 2.95288 4.73012L2.48944 4.26667C2.42071 4.19785 2.37308 4.11081 2.35217 4.01581C2.33127 3.92082 2.33795 3.82183 2.37143 3.73051C2.40492 3.63919 2.46381 3.55934 2.54117 3.50038C2.61853 3.44141 2.71113 3.40579 2.80806 3.39771L5.09219 3.18667C5.16705 3.18076 5.24231 3.19114 5.31277 3.21713C5.38323 3.24311 5.44722 3.28406 5.50032 3.33716C5.55342 3.39026 5.59438 3.45425 5.62036 3.52471C5.64634 3.59517 5.65673 3.67043 5.65081 3.74529L5.43978 6.02943C5.43169 6.12636 5.39607 6.21896 5.33711 6.29631C5.27814 6.37367 5.1983 6.43256 5.10698 6.46605C5.01565 6.49953 4.91666 6.50622 4.82167 6.48531C4.72668 6.4644 4.63964 6.41678 4.57081 6.34805L4.13633 5.91356C3.01308 7.34188 2.28655 9.04126 2.03009 10.8402C1.77362 12.639 1.9963 14.4737 2.67564 16.1591Z" fill="white"/>
<path d="M20.8161 5.66912L18.532 5.45809C18.4351 5.45 18.3425 5.41438 18.2651 5.35542C18.1878 5.29645 18.1289 5.21661 18.0954 5.12529C18.0619 5.03396 18.0552 4.93497 18.0761 4.83998C18.097 4.74499 18.1447 4.65795 18.2134 4.58912L18.6479 4.15464C17.2195 3.03139 15.5202 2.30486 13.7213 2.0484C11.9224 1.79193 10.0877 2.01461 8.40237 2.69395C8.19879 2.77681 7.97064 2.7754 7.7681 2.69004C7.56556 2.60468 7.40523 2.44236 7.32237 2.23878C7.23952 2.03521 7.24092 1.80705 7.32628 1.60452C7.41164 1.40198 7.57397 1.24164 7.77754 1.15879C9.76579 0.358618 11.9319 0.104715 14.0513 0.423389C16.1707 0.742063 18.1663 1.62172 19.8313 2.9712L20.2948 2.50775C20.3636 2.43902 20.4506 2.39139 20.5456 2.37048C20.6406 2.34958 20.7396 2.35626 20.8309 2.38975C20.9222 2.42323 21.0021 2.48212 21.0611 2.55948C21.12 2.63684 21.1556 2.72944 21.1637 2.82637L21.3748 5.1105C21.3807 5.18536 21.3703 5.26062 21.3443 5.33108C21.3183 5.40154 21.2774 5.46553 21.2243 5.51863C21.1712 5.57173 21.1072 5.61269 21.0367 5.63867C20.9663 5.66465 20.891 5.67504 20.8161 5.66912Z" fill="white"/>
<path d="M22.0536 20.3136C22.1223 20.3824 22.17 20.4694 22.1909 20.5644C22.2118 20.6594 22.2051 20.7584 22.1716 20.8497C22.1381 20.941 22.0792 21.0209 22.0019 21.0799C21.9245 21.1388 21.8319 21.1744 21.735 21.1825L19.4509 21.3936C19.376 21.3995 19.3007 21.3891 19.2303 21.3631C19.1598 21.3371 19.0958 21.2962 19.0427 21.2431C18.9896 21.19 18.9487 21.126 18.9227 21.0555C18.8967 20.9851 18.8863 20.9098 18.8922 20.8349L19.1033 18.5508C19.1114 18.4539 19.147 18.3613 19.2059 18.2839C19.2649 18.2066 19.3448 18.1477 19.4361 18.1142C19.5274 18.0807 19.6264 18.074 19.7214 18.0949C19.8164 18.1158 19.9034 18.1635 19.9722 18.2322L20.4067 18.6667C21.53 17.2383 22.2565 15.539 22.513 13.7401C22.7694 11.9412 22.5467 10.1065 21.8674 8.42117C21.7845 8.21759 21.786 7.98944 21.8713 7.7869C21.9567 7.58436 22.119 7.42403 22.3226 7.34117C22.5262 7.25831 22.7543 7.25972 22.9568 7.34508C23.1594 7.43044 23.3197 7.59277 23.4026 7.79634C24.2027 9.78459 24.4566 11.9507 24.138 14.0701C23.8193 16.1895 22.9396 18.1851 21.5902 19.8501L22.0536 20.3136Z" fill="white"/>
<path d="M10.8704 4.3313L7.34736 13.2357C7.31528 13.3135 7.30282 13.398 7.31106 13.4817C7.31931 13.5655 7.34801 13.6459 7.39465 13.716C7.44128 13.786 7.50442 13.8436 7.5785 13.8835C7.65258 13.9234 7.73534 13.9445 7.8195 13.9449H12.1722C12.3082 13.9449 12.4386 13.9989 12.5348 14.0951C12.6311 14.1912 12.6852 14.3216 12.6853 14.4576V20.0521C12.6852 20.1708 12.7264 20.2859 12.8017 20.3777C12.8771 20.4696 12.9819 20.5324 13.0984 20.5555C13.2149 20.5787 13.3358 20.5607 13.4405 20.5046C13.5452 20.4486 13.6272 20.358 13.6726 20.2482L17.1977 11.3438C17.2298 11.2659 17.2423 11.1812 17.2339 11.0973C17.2256 11.0134 17.1967 10.9328 17.1498 10.8627C17.1029 10.7926 17.0395 10.7351 16.9652 10.6953C16.8908 10.6555 16.8078 10.6347 16.7235 10.6346H12.3708C12.2348 10.6346 12.1043 10.5806 12.0081 10.4845C11.9119 10.3883 11.8578 10.2579 11.8577 10.1219V4.52743C11.8577 4.40867 11.8166 4.29358 11.7412 4.20177C11.6659 4.10997 11.5611 4.04714 11.4446 4.024C11.3281 4.00086 11.2072 4.01884 11.1025 4.07488C10.9978 4.13092 10.9157 4.22154 10.8704 4.3313Z" fill="white"/>
</svg>
