<svg width="44" height="21" viewBox="0 0 44 21" fill="none" xmlns="http://www.w3.org/2000/svg">
<path d="M6.86832 5.63831H5.00171L4.80522 6.6207L3.8228 11.5328C3.72456 12.1223 3.33159 12.5152 2.84038 12.5152C2.34917 12.5152 2.15268 12.1223 2.34917 11.5328L3.33159 6.6207L3.52807 5.63831H1.66148L1.46499 6.6207L0.580805 10.9434C0.286079 12.5153 0.384327 13.6941 2.6439 13.6941C2.84038 13.6941 3.03686 13.6941 3.23334 13.6941C4.90346 13.4977 5.49293 12.417 5.88589 11.0416V10.9434L6.77007 6.6207L6.86832 5.63831Z" fill="#313843"/>
<path d="M10.995 7.40759C10.8968 7.40759 10.7985 7.40759 10.7003 7.40759C10.2091 7.40759 9.71788 7.60408 9.32492 7.8988C9.22667 7.99705 9.12843 8.09528 9.03019 8.19352L9.22667 7.50581H7.4583L6.86886 10.0601L6.37765 12.4179L6.18115 13.4986H7.94952L8.63721 10.3549L8.8337 9.47066C8.93195 8.8812 9.32491 8.58645 9.71788 8.58645C10.0126 8.58645 10.2091 8.88119 10.1108 9.27416L10.0126 9.56887L9.22667 13.4003H10.995L11.0933 12.9091L11.9775 8.97944C12.0757 8.68472 12.0757 8.38997 11.9775 8.09524C11.8792 7.70227 11.4862 7.50583 10.995 7.40759Z" fill="#313843"/>
<path d="M12.0767 13.5975H13.845L15.1222 7.60474H13.3538L12.0767 13.5975Z" fill="#313843"/>
<path d="M19.0458 7.50732L17.6704 11.1423L17.3757 11.9282L17.4739 10.3564L17.6704 7.50732H16.4915H15.7056L15.902 13.3036V13.5001H18.0634L20.8142 7.50732H19.0458Z" fill="#313843"/>
<path d="M23.5682 8.48823C24.0594 8.48823 24.0594 8.97943 23.8629 9.76537H22.5858C22.684 8.97943 22.9787 8.48823 23.5682 8.48823ZM22.3893 10.8461H25.4348C25.8277 8.78298 26.0242 7.40759 23.7647 7.40759C21.7998 7.40759 21.0139 8.68474 20.7192 10.3549C20.3262 12.1232 20.1297 13.6951 22.4875 13.6951C23.9611 13.6951 24.9436 13.0074 25.2383 11.5337H23.5682C23.3717 12.3197 23.1752 12.6144 22.684 12.6144C22.1928 12.6144 22.0945 12.1232 22.291 11.239L22.3893 10.8461Z" fill="#313843"/>
<path d="M30.3466 7.40759C30.2483 7.40759 30.1501 7.40759 30.0518 7.40759C29.3642 7.40759 28.7747 7.80056 28.3817 8.39001L28.5782 7.50581H26.8099L25.5327 13.4986H27.3011L27.9888 10.0601C28.1853 9.27415 28.6765 8.97944 29.4624 8.97944C29.6589 8.97944 29.7571 8.97944 29.9536 8.97944L30.3466 7.40759Z" fill="#313843"/>
<path d="M34.865 9.07766C35.0615 8.19348 34.7668 7.40759 32.9984 7.40759C31.5248 7.40759 30.5424 7.99703 30.3459 9.17594C30.0512 10.4531 30.7389 10.7478 32.1142 11.239C32.2125 11.239 32.2125 11.239 32.2125 11.3373C32.5072 11.4355 32.7037 11.7302 32.6055 12.0249C32.5072 12.4179 32.2125 12.6144 31.8195 12.6144C31.623 12.6144 31.4265 12.5162 31.3283 12.3197C31.3283 12.2215 31.3283 12.025 31.3283 11.9267C31.3283 11.8285 31.3283 11.7302 31.4266 11.632H29.8547L29.7564 11.9267C29.6582 12.2214 29.6582 12.6144 29.8547 12.9091C30.0512 13.3021 30.3459 13.4986 30.9353 13.5968C31.2301 13.5968 31.4265 13.6951 31.7213 13.6951C33.1949 13.6951 34.1773 12.9091 34.4721 11.7302C34.4721 11.632 34.5703 11.4355 34.5703 11.3373C34.5703 10.8461 34.3738 10.3548 33.8826 10.1584C33.0967 9.76539 32.016 9.76536 32.2125 9.07766C32.3107 8.78294 32.6055 8.48823 32.9002 8.48823C33.2932 8.48823 33.4896 8.68473 33.2931 9.17594V9.27416H34.865V9.07766Z" fill="#313843"/>
<path d="M38.0152 11.632C37.917 12.1232 37.6222 12.4179 37.131 12.5161C36.8363 12.5161 36.6398 12.2214 36.7381 11.7302C36.7381 11.4355 36.9346 11.239 37.131 11.0425C37.3275 10.9443 37.524 10.8461 38.2117 10.6496C38.2117 10.8461 38.1135 11.1408 38.0152 11.632ZM38.7029 7.40759H38.4082C37.8187 7.40759 37.2293 7.5058 36.6398 7.80053C36.1486 8.09525 35.7556 8.5865 35.6574 9.37244H37.2293C37.3275 8.88123 37.524 8.48823 38.1135 8.48823C38.5064 8.48823 38.6047 8.78294 38.5064 9.07766C38.4082 9.56887 38.3099 9.66713 37.7205 9.76537C37.131 9.86361 36.5416 10.0601 35.9521 10.2566C35.3627 10.5513 35.068 11.1408 34.9697 11.7302C34.675 13.0074 35.1662 13.5968 36.1486 13.5968C36.7381 13.5968 37.3275 13.3021 37.7205 12.7126C37.7205 12.9091 37.6223 13.2039 37.7205 13.4003H39.4889C39.2924 13.1056 39.4889 12.5162 39.5871 12.1232L40.2748 8.97944C40.4713 7.99702 39.9801 7.50583 38.7029 7.40759Z" fill="#313843"/>
<path d="M42.1359 5.63831L41.9395 6.6207L40.4658 13.5959H42.2342L43.7078 6.6207L43.9043 5.63831H42.1359Z" fill="#313843"/>
<path d="M40.072 2.6923C38.4019 -0.942659 28.4794 -0.353211 17.8692 4.06769C17.378 4.26417 16.7886 4.46067 16.2974 4.7554L16.6903 5.73782C17.1816 5.44309 17.771 5.24659 18.2622 5.05011C27.2022 1.31691 35.6511 0.825683 37.1247 3.87119C37.5177 4.65713 37.4194 5.5413 36.83 6.62196H39.1878C40.2685 5.14833 40.5632 3.77297 40.072 2.6923Z" fill="#CA1F3D"/>
<path d="M23.4688 16.1513C14.5288 19.8845 6.07994 20.3757 4.6063 17.3302C4.21333 16.5443 4.31158 15.5619 4.90103 14.5795H2.54321C1.56079 16.0531 1.26606 17.4285 1.75727 18.5092C3.42739 22.1441 13.3499 21.5546 23.96 17.1337C25.8266 16.3478 27.595 15.5619 29.3633 14.5795H27.0055C25.9249 15.0707 24.7459 15.6601 23.4688 16.1513Z" fill="#CA1F3D"/>
<path d="M13.6457 6.62471C13.7439 6.82119 13.9404 6.91946 14.1369 7.0177C14.7264 7.31243 15.3158 7.01773 15.6105 6.42827C15.9053 5.83882 15.6105 5.24934 15.0211 4.95461C14.4316 4.65988 13.8422 4.95462 13.5475 5.54407C13.4492 5.64231 13.4492 5.83879 13.4492 5.93703C13.4492 5.93703 13.4492 5.93704 13.4492 6.03528C13.4492 6.23177 13.5475 6.42823 13.6457 6.62471Z" fill="#CA1F3D"/>
</svg>
