<svg width="70" height="73" viewBox="0 0 70 73" fill="none" xmlns="http://www.w3.org/2000/svg">
<path d="M10.3305 26.9754C11.5878 21.1546 15.1002 16.0996 20.1026 12.9307C25.1052 9.76166 31.1762 8.74578 36.976 10.096L37.141 9.38748L36.976 10.096C42.7745 11.4458 47.8274 15.0493 51.0311 20.1067C54.6656 25.844 55.8686 32.7926 54.3754 39.4237L50.1903 58.0082C50.0838 58.481 49.7936 58.893 49.3835 59.1528C48.9733 59.4127 48.4768 59.4991 48.0038 59.3933L29.4129 55.237C22.7794 53.754 17.011 49.6974 13.3765 43.9601C10.1728 38.9027 9.07365 32.7946 10.3305 26.9754Z" fill="#12741C" stroke="#02590B" stroke-width="1.45498"/>
<path d="M34.3324 20.4392C34.2022 20.4455 34.0825 20.5128 34.008 20.6199L24.2877 34.5645C24.0922 34.8446 24.2927 35.2289 24.6343 35.2289H31.3594L30.5522 45.3388C30.5206 45.7662 31.0719 45.9638 31.319 45.6137L41.0393 31.6699C41.2346 31.39 41.0347 31.0061 40.6935 31.0055H33.9676L34.7756 20.8947C34.7959 20.6402 34.5875 20.4259 34.3324 20.4392Z" fill="white"/>
</svg>
