<svg width="88" height="101" viewBox="0 0 88 101" fill="none" xmlns="http://www.w3.org/2000/svg">
<path d="M74.025 20.8545C73.7322 16.5935 70.1572 13.2559 65.8863 13.2559H21.6544C17.3844 13.2559 13.8096 16.5928 13.5159 20.8525L13.2897 24.1331L15.6716 26.8524H71.8706L74.2505 24.1331L74.025 20.8545Z" fill="#FF3D3D"/>
<path d="M13.2899 24.1332L11.2296 54.0094C22.2919 52.1703 21.7359 52.2327 22.0167 52.2327C68.0214 52.2414 65.5426 52.2102 65.8251 52.2577L76.304 54.012L74.2506 24.1332H13.2899Z" fill="#FF3D3D"/>
<path d="M16.7722 52.6888L18.3665 29.5717H69.173L70.762 52.6905L16.7722 52.6888Z" fill="#FF5E5E"/>
<path d="M24.7365 88.6801V97.7354C24.7365 99.2365 23.5182 100.455 22.0172 100.455H9.32709C7.82604 100.455 6.60779 99.2365 6.60779 97.7354V88.6801H24.7365Z" fill="#EA0000"/>
<path d="M82.739 76.7062C83.396 76.7062 84.0107 76.8844 84.5428 77.1913V61.3776C84.5428 57.3763 81.6785 53.9925 77.7319 53.3317L65.9747 51.3635C65.5987 51.3006 21.8717 51.3126 21.5688 51.3633L9.77735 53.3328C5.8291 53.9925 2.9635 57.3764 2.9635 61.3792V77.2134C4.59599 76.2464 0.594444 76.9001 82.739 76.7062Z" fill="#FF3D3D"/>
<path d="M84.5432 61.3785V77.1921C84.012 76.8839 83.3956 76.7063 82.7394 76.7063C66.6846 76.7444 53.9202 76.7498 43.7627 76.7407V51.3207C54.7723 51.3207 65.7872 51.3334 65.9758 51.3642L77.7322 53.3312C81.6789 53.9929 84.5432 57.3757 84.5432 61.3785Z" fill="#FF3D3D"/>
<path d="M80.9347 88.6801V97.7354C80.9347 99.2365 79.7165 100.455 78.2154 100.455H65.5253C64.0243 100.455 62.806 99.2365 62.806 97.7354V88.6801H80.9347Z" fill="#EA0000"/>
<path d="M64.72 43.9601C62.4521 41.696 59.4383 40.4491 56.2337 40.4491H31.2781C28.1132 40.4491 25.0176 41.7359 22.7854 43.9793C20.5363 46.2399 19.2976 49.2408 19.2976 52.4294V75.8001C19.2976 77.3018 20.5151 78.5194 22.0169 78.5194H65.5258C67.0276 78.5194 68.2451 77.3018 68.2451 75.8001V52.4603C68.2451 49.248 66.9931 46.2293 64.72 43.9601Z" fill="#FF3D3D"/>
<path d="M8.40271 64.9225H19.2981V70.3611H8.40271V64.9225Z" fill="#FF5959"/>
<path d="M68.2454 64.9225H79.1045V70.3611H68.2454V64.9225Z" fill="#FF5959"/>
<path d="M35.6142 76.7062H30.1756L30.1665 54.0471C30.1665 52.5442 31.3829 51.326 32.884 51.326H32.8858C34.3869 51.326 35.6051 52.5424 35.6051 54.0435L35.6142 76.7062Z" fill="#FF5959"/>
<path d="M57.3677 76.7062H51.9291L51.92 54.0471C51.92 52.5442 53.1365 51.326 54.6375 51.326H54.6393C56.1404 51.326 57.3587 52.5424 57.3587 54.0435L57.3677 76.7062Z" fill="#FF5959"/>
<path d="M46.4827 54.0453V76.7062H41.0441V54.0453C41.0441 52.5442 42.2623 51.326 43.7634 51.326C45.2644 51.326 46.4827 52.5442 46.4827 54.0453Z" fill="#FF5959"/>
<path d="M82.7389 75.7998H4.80366C2.30462 75.7998 0.271484 77.8329 0.271484 80.332V85.0545C0.271484 87.5535 2.30462 89.5867 4.80366 89.5867H82.7389C85.238 89.5867 87.2711 87.5535 87.2711 85.0545V80.332C87.2711 77.8329 85.238 75.7998 82.7389 75.7998Z" fill="#FF0404"/>
<path d="M53.4621 9.67876C53.4621 15.0202 49.1248 19.3575 43.7834 19.3575C38.442 19.3575 34.1046 15.0202 34.1046 9.67876C34.1046 4.33736 38.442 0 43.7834 0C49.1248 0 53.4621 4.33736 53.4621 9.67876Z" fill="#FF5E5E"/>
<path d="M44.0614 4.00028C43.9998 4.0033 43.9431 4.03512 43.9079 4.08581L39.3079 10.6855C39.2154 10.8181 39.3103 10.9999 39.472 10.9999H42.6545L42.2725 15.7847C42.2575 15.987 42.5184 16.0805 42.6353 15.9148L47.2353 9.31553C47.3277 9.18307 47.2331 9.00139 47.0716 9.00108H43.8887L44.2711 4.2159C44.2807 4.09541 44.1821 3.994 44.0614 4.00028Z" fill="white"/>
</svg>
