<svg width="57" height="59" viewBox="0 0 57 59" fill="none" xmlns="http://www.w3.org/2000/svg">
<path d="M8.50478 22.0792C9.53382 17.3149 12.4087 13.1774 16.5032 10.5836C20.5978 7.98977 25.5669 7.15827 30.314 8.26344L30.4491 7.6835L30.3141 8.26344C35.0601 9.36823 39.1959 12.3177 41.8181 16.4572C44.7929 21.1531 45.7776 26.8405 44.5554 32.2681L41.1299 47.4794C41.0428 47.8664 40.8052 48.2036 40.4695 48.4163C40.1338 48.629 39.7274 48.6997 39.3403 48.6131L24.1236 45.2112C18.6941 43.9974 13.9727 40.677 10.9979 35.9811C8.37568 31.8416 7.47603 26.8422 8.50478 22.0792Z" fill="#12741C" stroke="#02590B" stroke-width="1.19089"/>
<path d="M28.1506 16.7301C28.044 16.7353 27.946 16.7903 27.8851 16.878L19.929 28.2916C19.7691 28.5209 19.9331 28.8355 20.2128 28.8355H25.7172L25.0565 37.1104C25.0307 37.4602 25.4819 37.6219 25.6841 37.3354L33.6402 25.9224C33.8 25.6934 33.6364 25.3791 33.3572 25.3786H27.852L28.5134 17.103C28.53 16.8946 28.3594 16.7192 28.1506 16.7301Z" fill="white"/>
</svg>
