<svg width="27" height="27" viewBox="0 0 27 27" fill="none" xmlns="http://www.w3.org/2000/svg">
<path d="M13.5766 0.0825195C6.20869 0.0825195 0.214844 6.07636 0.214844 13.4443C0.214844 20.8122 6.20869 26.806 13.5766 26.806C20.9445 26.806 26.9384 20.8122 26.9384 13.4443C26.9384 6.07636 20.9445 0.0825195 13.5766 0.0825195ZM16.5908 18.2244C17.0261 18.6598 17.0261 19.3635 16.5908 19.7989C16.3736 20.016 16.0886 20.1252 15.8035 20.1252C15.5185 20.1252 15.2334 20.016 15.0163 19.7989L9.44891 14.2315C9.01356 13.7962 9.01356 13.0924 9.44891 12.6571L15.0163 7.08966C15.4517 6.65431 16.1554 6.65431 16.5908 7.08966C17.0261 7.52502 17.0261 8.22875 16.5908 8.66411L11.8106 13.4443L16.5908 18.2244Z" fill="#12741C"/>
</svg>
