<svg width="27" height="27" viewBox="0 0 27 27" fill="none" xmlns="http://www.w3.org/2000/svg">
<path d="M4.12715 10.104C4.59807 7.92376 5.91371 6.03033 7.78746 4.84334C9.66124 3.65635 11.9352 3.27583 14.1077 3.78158L14.1695 3.51619L14.1077 3.78159C16.2796 4.28716 18.1722 5.63692 19.3722 7.53125C20.7336 9.68024 21.1842 12.283 20.6249 14.7668L19.0573 21.7279C19.0174 21.905 18.9087 22.0593 18.7551 22.1566C18.6014 22.254 18.4155 22.2863 18.2383 22.2467L11.2748 20.6899L11.2153 20.9558L11.2748 20.6899C8.79008 20.1344 6.62943 18.6149 5.26809 16.4659C4.06807 14.5716 3.65637 12.2837 4.12715 10.104Z" fill="#12741C" stroke="#02590B" stroke-width="0.544985"/>
<path d="M13.1173 7.65598C13.0686 7.65837 13.0237 7.68355 12.9958 7.72368L9.35491 12.9468C9.28171 13.0518 9.3568 13.1957 9.48476 13.1957H12.0038L11.7014 16.9826C11.6896 17.1426 11.896 17.2167 11.9886 17.0855L15.6295 11.8626C15.7027 11.7578 15.6278 11.614 15.5 11.6138H12.9807L13.2833 7.82663C13.2909 7.73127 13.2129 7.65101 13.1173 7.65598Z" fill="white"/>
</svg>
