<svg width="20" height="16" viewBox="0 0 20 16" fill="none" xmlns="http://www.w3.org/2000/svg">
<path d="M2.25934 1.58422L2.2593 1.5843C1.4855 2.98887 1.06089 4.66198 1.06089 6.29869C1.06089 11.3784 5.19225 15.5093 10.2715 15.5093C15.3507 15.5093 19.4821 11.3775 19.4821 6.29869C19.4821 4.55349 19.0082 2.98468 18.0353 1.50934L17.8595 1.62527L18.0353 1.50932C17.8415 1.21561 17.5227 0.963184 17.1744 0.78482C16.8251 0.605959 16.425 0.490701 16.0546 0.490701H4.20878C3.82899 0.490701 3.42754 0.61404 3.0833 0.806063C2.74007 0.997522 2.43331 1.26876 2.25934 1.58422ZM10.272 14.3769C5.81766 14.3769 2.1933 10.7525 2.1933 6.29822C2.1933 4.84877 2.56951 3.36709 3.25085 2.1296L3.06637 2.02803L3.25073 2.12982C3.31295 2.01712 3.45529 1.88748 3.6468 1.78411C3.83598 1.682 4.04262 1.62216 4.20878 1.62216H16.0546C16.2249 1.62216 16.4429 1.68177 16.647 1.78361C16.853 1.88645 17.0137 2.01669 17.09 2.13215C17.9394 3.41975 18.3501 4.78018 18.3501 6.29822C18.3501 10.753 14.7272 14.3769 10.272 14.3769Z" fill="#169F24" stroke="#169F24" stroke-width="0.421186"/>
<path d="M6.10181 4.23278C5.06773 4.23278 4.22673 5.07378 4.22673 6.10785C4.22673 7.14233 5.06776 7.98292 6.10181 7.98292C7.13585 7.98292 7.97688 7.14233 7.97688 6.10785C7.97688 5.07378 7.13588 4.23278 6.10181 4.23278ZM6.10181 7.06133C5.57655 7.06133 5.14832 6.6331 5.14832 6.10785C5.14832 5.58259 5.57655 5.15437 6.10181 5.15437C6.62706 5.15437 7.05529 5.58259 7.05529 6.10785C7.05529 6.6331 6.62706 7.06133 6.10181 7.06133Z" fill="#169F24" stroke="#169F24" stroke-width="0.342917"/>
<path d="M10.2612 8.79787C9.22718 8.79787 8.38616 9.63846 8.38616 10.6729C8.38616 11.7078 9.22721 12.548 10.2612 12.548C11.2953 12.548 12.1363 11.7078 12.1363 10.6729C12.1363 9.63887 11.2953 8.79787 10.2612 8.79787ZM10.2612 11.6264C9.73597 11.6264 9.30775 11.1982 9.30775 10.6729C9.30775 10.148 9.73601 9.71946 10.2612 9.71946C10.7861 9.71946 11.2147 10.1481 11.2147 10.6729C11.2147 11.1986 10.7872 11.6264 10.2612 11.6264Z" fill="#169F24" stroke="#169F24" stroke-width="0.342917"/>
<path d="M14.3317 4.23278C13.2972 4.23278 12.4566 5.0738 12.4566 6.10785C12.4566 7.14231 13.2972 7.98292 14.3317 7.98292C15.3661 7.98292 16.2067 7.14231 16.2067 6.10785C16.2067 5.07378 15.3657 4.23278 14.3317 4.23278ZM14.3317 7.06133C13.8064 7.06133 13.3782 6.6331 13.3782 6.10785C13.3782 5.58259 13.8064 5.15437 14.3317 5.15437C14.8569 5.15437 15.2851 5.58259 15.2851 6.10785C15.2851 6.63311 14.8569 7.06133 14.3317 7.06133Z" fill="#169F24" stroke="#169F24" stroke-width="0.342917"/>
</svg>
