<svg width="65" height="67" viewBox="0 0 65 67" fill="none" xmlns="http://www.w3.org/2000/svg">
<path d="M32.2352 64.9776C14.5027 64.9776 0.127602 50.6026 0.127602 32.87C0.127602 15.1375 14.5027 0.762451 32.2352 0.762451C49.9677 0.762451 64.3428 15.1375 64.3428 32.87C64.3428 50.6026 49.9677 64.9776 32.2352 64.9776Z" fill="#FCFCFC"/>
<path d="M33.6592 33.4785C35.1686 33.4785 35.9233 34.1254 35.9233 34.8801C35.9233 35.8504 34.8452 36.713 30.8561 36.713C30.317 36.713 29.5623 36.713 28.9154 36.6052C29.7779 34.7723 31.503 33.4785 33.6592 33.4785ZM39.3734 34.7723C39.3734 37.4677 37.5405 38.9771 31.2873 38.9771C30.4248 38.9771 29.4545 38.9771 28.3763 38.8693V38.9771C28.3763 40.81 29.5623 41.888 31.8264 41.888C33.3358 41.888 34.4139 41.349 35.3842 40.5943C35.5999 40.3787 36.0312 40.163 36.3546 40.163C36.7859 40.163 37.2171 40.3787 37.4327 40.5943L42.2844 34.7723L43.4703 33.3707L39.3734 34.2333C39.3734 34.4489 39.3734 34.5567 39.3734 34.7723ZM33.8749 30.891C35.2765 30.891 36.4624 31.1066 37.325 31.5379L40.9906 21.7268L29.7779 24.0987L26.3279 34.4489C27.9451 32.2926 30.6405 30.891 33.8749 30.891ZM24.9263 39.0849C24.9263 38.9771 24.9263 38.8693 24.9263 38.7615L23.3091 43.6131L26.5435 42.9662C25.4654 41.888 24.9263 40.5943 24.9263 39.0849ZM28.0529 43.8288L24.1716 56.6586L34.6296 44.1522C33.7671 44.3678 32.9045 44.5834 31.8264 44.5834C30.317 44.4756 29.0232 44.26 28.0529 43.8288Z" fill="url(#paint0_linear_1_15157)"/>
<defs>
<linearGradient id="paint0_linear_1_15157" x1="26.4223" y1="56.4707" x2="36.5871" y2="28.972" gradientUnits="userSpaceOnUse">
<stop stop-color="#D7DF38"/>
<stop offset="1" stop-color="#35BDD1"/>
</linearGradient>
</defs>
</svg>
