<svg width="49" height="26" viewBox="0 0 49 26" fill="none" xmlns="http://www.w3.org/2000/svg">
<path d="M12.4489 9.70977H10.5664L12.8834 4.78638H14.9106L15.9243 9.70977H14.0418L13.897 9.13059H12.5937L12.4489 9.70977ZM13.897 7.97215L13.7522 7.10326C13.7522 6.95845 13.7522 6.66889 13.7522 6.52408L13.1729 7.97215H13.897Z" fill="#C22823"/>
<path d="M17.2284 4.93115H19.1109L19.4005 7.53766C19.4005 7.24804 19.5453 7.10329 19.5453 6.95848L20.4141 5.07601H22.1518L22.2966 9.9994H20.5589L20.7037 7.39289C20.7037 7.53769 20.5589 7.68248 20.5589 7.82729L19.5453 9.9994H18.5316L18.242 7.97215C18.242 7.82734 18.242 7.53769 18.242 7.39289C18.242 7.53769 18.0972 7.82734 18.0972 7.97215L17.6628 9.9994H15.9251L17.2284 4.93115ZM23.5999 4.93115H26.9304L26.7856 6.23445H25.3376V6.66885H26.6409L26.496 7.97215H25.1928V8.40655H26.7856L26.6409 9.70977H23.3102L23.5999 4.93115ZM27.3649 4.93115H29.537C30.6955 4.93115 31.5642 5.36559 31.2746 6.66885C31.1298 7.39289 30.8402 7.68254 30.1162 7.97215C30.261 8.11696 30.261 8.11689 30.4058 8.26169L31.2746 9.85463H29.2474L28.6681 8.26169L28.5233 9.85463H26.7856L27.3649 4.93115ZM28.813 7.10326C29.2474 7.10326 29.537 7.10327 29.537 6.66885C29.537 6.23443 29.3922 6.23445 28.9577 6.23445H28.813V7.10326ZM32.2883 4.93115H34.026L33.302 9.85463H31.5642L32.2883 4.93115ZM38.0806 6.81362C37.791 6.52401 37.5013 6.37922 37.0669 6.37922C36.4877 6.37922 36.0533 6.81366 35.9085 7.39289C35.7637 7.97212 36.1981 8.40655 36.7774 8.40655C37.2118 8.40655 37.5013 8.26177 37.7909 7.97215L37.5014 9.85463C37.2118 9.99943 36.4877 9.9994 36.1981 9.9994C34.75 9.9994 33.8812 8.98573 34.026 7.53766C34.1708 6.08959 35.4741 4.93115 36.9221 4.93115C37.3566 4.93115 37.6461 4.9312 38.0806 5.07601C38.2254 5.07601 38.0806 6.81362 38.0806 6.81362ZM39.6735 9.70977H37.7909L40.1079 4.78638H42.1352L43.1488 9.70977H41.2663L41.1216 9.13059H39.8183L39.6735 9.70977ZM41.1216 7.97215L40.9767 7.10326C40.9767 6.95845 40.9767 6.66889 40.9767 6.52408L40.3975 7.97215H41.1216ZM44.1625 4.93115H45.9002L47.0586 7.68252C47.0586 7.2481 47.0586 6.81364 47.0586 6.37922L47.2034 4.93115H48.9411L48.2171 9.85463H46.4794L45.3209 7.24812C45.3209 7.53773 45.3209 7.97208 45.3209 8.26169L45.0313 9.85463H43.2937L44.1625 4.93115ZM10.5672 10.8683H13.8978L13.753 12.1715H12.3049V12.6059H13.6082L13.4634 13.9092H12.1601V14.3436H13.753L13.6082 15.6469H10.2776L10.5672 10.8683ZM14.477 10.8683H16.2147L15.7803 14.1988H17.2284L17.0835 15.7917H13.8978L14.477 10.8683ZM18.0972 10.8683H21.4277L21.283 12.1715H19.8349V12.6059H21.1381L20.9933 13.9092H19.69V14.3436H21.283L21.1381 15.6469H17.8076L18.0972 10.8683ZM25.1928 12.7508C24.9032 12.4612 24.6135 12.3164 24.1791 12.3164C23.5999 12.3164 23.1655 12.7507 23.0207 13.3299C22.8759 13.9092 23.3103 14.3436 23.8895 14.3436C24.3239 14.3436 24.6135 14.1988 24.9032 13.9092L24.6135 15.7917C24.3239 15.9365 23.5998 15.9365 23.3102 15.9365C21.8622 15.9365 20.9933 14.9229 21.1381 13.4748C21.2829 12.0267 22.5862 10.8683 24.0343 10.8683C24.4687 10.8683 24.7584 10.8683 25.1928 11.0131V12.7508ZM25.772 10.8683H29.537L29.3921 12.4611H28.3785L27.9441 15.7917H26.2064L26.6409 12.4611H25.6272L25.772 10.8683ZM29.9714 10.8683H32.1435C33.302 10.8683 34.1708 11.3026 33.8812 12.6059C33.7364 13.3299 33.4467 13.6196 32.7227 13.9092C32.8675 14.054 32.8675 14.054 33.0123 14.1988L33.8812 15.7917H31.8539L31.2746 14.1988L31.1298 15.7917H29.3921L29.9714 10.8683ZM31.4195 12.8955C31.8539 12.8955 32.1435 12.8956 32.1435 12.4611C32.1435 12.0267 31.9987 12.0267 31.5642 12.0267H31.4195V12.8955ZM34.8948 10.8683H36.6325L35.9085 15.7917H34.1708L34.8948 10.8683ZM40.5423 12.7508C40.2527 12.4612 39.9631 12.3164 39.5286 12.3164C38.9494 12.3164 38.515 12.7507 38.3702 13.3299C38.3702 13.9092 38.6598 14.3436 39.239 14.3436C39.6734 14.3436 39.9631 14.1988 40.2527 13.9092L39.963 15.7917C39.6734 15.9365 38.9494 15.9365 38.6598 15.9365C37.2118 15.9365 36.3429 14.9229 36.4877 13.4748C36.6325 12.0267 37.9358 10.8683 39.3839 10.8683C39.8183 10.8683 40.1079 10.8683 40.5423 11.0131V12.7508ZM9.84318 16.6606H12.0153C13.1737 16.6606 13.8978 17.2397 13.753 18.3982C13.6082 19.4118 12.8842 19.9911 11.8705 19.9911H11.0016L10.8568 21.4392H9.11914L9.84318 16.6606ZM11.2912 18.8327H11.4361C11.7257 18.8327 12.1601 18.8326 12.1601 18.3982C12.1601 17.9638 11.8705 17.9638 11.5809 17.9638H11.4361C11.2913 18.1086 11.2912 18.8327 11.2912 18.8327ZM19.2556 19.1222C19.1108 20.7151 17.6628 21.584 16.2147 21.584C14.7667 21.584 13.6081 20.7151 13.8978 19.1222C14.0426 17.5293 15.4907 16.6606 16.9388 16.6606C18.3868 16.6606 19.5453 17.6742 19.2556 19.1222ZM15.6355 19.2671C15.4907 19.8463 15.9251 20.1359 16.3595 20.1359C16.9387 20.1359 17.3732 19.7015 17.3732 19.2671C17.3732 18.6879 17.0836 18.2534 16.6491 18.2534C16.2147 18.2534 15.7803 18.6879 15.6355 19.2671ZM21.1381 16.6606L21.4277 19.5567C21.4277 19.2671 21.5726 18.9774 21.7174 18.6878L22.4414 16.6606H23.7447L24.0343 19.5567C24.0343 19.2671 24.1791 18.9774 24.3239 18.6878L25.0479 16.6606H26.9304L24.6135 21.584H23.0207L22.8758 18.9775C22.8758 19.2671 22.731 19.4119 22.731 19.7015L22.007 21.584H20.5589L19.5453 16.6606H21.1381ZM27.22 16.6606H30.5506L30.4058 17.9638H28.9577V18.3982H30.261L30.1162 19.7015H28.813V20.1359H30.4058L30.261 21.4392H26.9304L27.22 16.6606ZM31.1298 16.6606H33.302C34.4604 16.6606 35.3293 17.0949 35.0397 18.3982C34.8948 19.1222 34.6053 19.4119 33.8812 19.7015C34.026 19.8463 34.026 19.8463 34.1708 19.9911L35.0397 21.584H33.0123L32.4331 19.9911L32.2883 21.584H30.5506L31.1298 16.6606ZM32.4331 18.8327C32.8676 18.8327 33.1572 18.8326 33.1572 18.3982C33.1572 17.9638 33.0123 17.9638 32.5779 17.9638H32.4331V18.8327Z" fill="#C22823"/>
<path d="M25.1919 22.8855L25.0471 24.3335H2.16756L5.20847 2.03319H28.0881L27.9432 3.48126H29.2465L29.6809 0.72998H4.19489L0.864258 25.492H26.3504L26.7848 22.7406H25.1919V22.8855Z" fill="#C22823"/>
</svg>
