<svg width="48" height="16" viewBox="0 0 48 16" fill="none" xmlns="http://www.w3.org/2000/svg">
<path d="M18.5944 0.967705H17.2206V7.14989H18.4799C20.6551 7.14989 21.9145 6.00503 21.9145 4.0588C22.029 2.11256 20.6551 0.967705 18.5944 0.967705ZM18.1364 1.76911H18.3654C19.6247 1.76911 21.1131 2.11252 21.1131 3.94427C21.1131 5.77602 19.6247 6.1195 18.3654 6.1195H18.1364V1.76911ZM26.1503 4.51669C26.1503 5.77602 25.6925 6.34849 24.7766 6.34849C23.8607 6.34849 23.4028 5.77602 23.4028 4.51669V0.853249H22.4869V4.74568C22.4869 6.23398 23.4028 7.14989 24.7766 7.14989C26.1504 7.14989 27.0663 6.23398 27.0663 4.74568V0.853249H26.1503V4.51669ZM29.6994 3.71536L32.447 0.967705H31.1877L28.7835 3.48638V0.967705H27.8676V7.14989H28.7835V4.63122L29.0125 4.40224L31.1877 7.14989H32.447L29.6994 3.71536ZM36.225 6.23396H33.7064V4.17326H36.1105V3.37185H33.7064V1.88357H36.225V1.08216H32.7905V7.26435H36.225V6.23396ZM17.2206 14.9348H20.5407V14.1334H18.022V12.0727H20.4261V11.2713H18.022V9.78302H20.5407V8.98162H17.2206V14.9348ZM27.6387 14.9348H31.0732V14.1334H28.5546V12.0727H30.9587V11.2713H28.5546V9.78302H31.0732V8.98162H27.6387V14.9348ZM27.6387 14.9348H31.0732V14.1334H28.5546V12.0727H30.9587V11.2713H28.5546V9.78302H31.0732V8.98162H27.6387V14.9348ZM25.9214 8.75263V13.103L22.0289 8.75263H21.4565V14.9348H22.3724V10.5844L26.2649 14.9348H26.8373V8.75263H25.9214ZM35.1946 10.5844C35.1946 10.012 34.8512 9.43953 34.3932 9.09607C33.9353 8.8671 33.3629 8.75263 32.7905 8.75263H31.7601V14.9348H32.676V12.4161H32.905L34.6222 14.9348H35.7671L33.8208 12.3017C34.6222 12.1872 35.1946 11.5003 35.1946 10.5844ZM34.3932 10.5844C34.3932 11.2713 33.9353 11.6147 32.905 11.6147H32.7905V9.55404H32.905C33.8208 9.66852 34.3932 9.89752 34.3932 10.5844ZM39.2016 12.6451H40.8044C40.6899 13.561 39.7741 14.2479 38.9727 14.2479C37.7134 14.1334 36.6829 13.1031 36.6829 11.8437C36.6829 10.5844 37.5988 9.55406 38.8581 9.43958C39.6595 9.43958 40.3465 9.78302 40.8044 10.3554V10.4699L41.3768 9.89748V9.78302C40.232 8.40921 38.2857 8.18021 36.9119 9.32505C35.5381 10.4699 35.3091 12.4162 36.4539 13.79C37.0264 14.4769 37.9422 14.9348 38.8581 14.9348C40.4609 14.9348 41.7203 13.6755 41.8348 12.1872V11.7293H39.3161V12.6451H39.2016ZM45.4982 8.75263L44.1245 11.2713L42.7506 8.75263H41.7202L43.781 12.3017V14.9348H44.6969V12.3017L46.7575 8.75263H45.4982ZM45.8417 14.1334C45.8417 13.561 46.2996 13.2176 46.7575 13.2176C47.33 13.2176 47.6735 13.6755 47.6735 14.1334C47.6735 14.7058 47.2155 15.0493 46.7575 15.0493C46.2996 15.0493 45.8417 14.5914 45.8417 14.1334ZM45.9562 14.1334C45.9562 14.5914 46.2996 14.9348 46.7575 14.9348C47.2155 14.9348 47.559 14.5914 47.559 14.1334C47.559 13.6755 47.2155 13.332 46.7575 13.332C46.2996 13.332 45.9562 13.6755 45.9562 14.1334C45.9562 14.0189 45.9562 14.0189 45.9562 14.1334ZM47.2155 14.5914H46.9866L46.7575 14.1334H46.5286V14.5914H46.4142V13.561H46.872C47.101 13.561 47.2155 13.561 47.2155 13.79C47.2155 13.9045 47.1011 14.0189 46.9866 14.1334L47.2155 14.5914ZM46.5286 13.6754V13.9044H46.6431C46.7576 13.9044 46.9866 13.9045 46.9866 13.79C46.9866 13.6755 46.872 13.6754 46.7575 13.6754H46.5286ZM10.2371 13.332C9.8936 13.6755 9.43562 13.9045 8.97768 14.019C8.29078 14.019 7.48939 13.561 7.26042 11.9582L4.28385 11.0423C5.54318 15.7362 9.20671 15.5072 10.466 13.561C10.5805 13.4465 10.5805 13.332 10.466 13.332C10.3516 13.2175 10.2371 13.2175 10.2371 13.332ZM10.2371 1.08216C8.97772 -1.32201 4.74177 1.08219 4.05487 7.26435C3.94038 7.49332 4.16934 7.83674 4.39831 7.95123C4.74176 8.1802 5.19974 8.29471 5.65768 8.40919C6.00113 8.52368 6.34454 8.52365 6.68799 8.52365C7.03145 8.52365 7.26042 8.29468 7.26042 7.95123C7.94732 1.31113 9.43562 -0.177125 10.1225 1.19669C10.008 1.31117 10.2371 1.19665 10.2371 1.08216Z" fill="#005984"/>
<path d="M9.43313 3.14185C9.08968 3.14185 8.86069 3.25632 8.63172 3.48529C8.40276 3.82874 8.28828 4.17215 8.28828 4.5156C8.1738 4.85906 8.17383 5.20251 8.17383 5.66045C8.28831 5.88942 8.40276 6.00396 8.63172 6.00396C10.0055 6.11844 14.0125 6.69083 14.5849 7.83568C14.9284 8.63707 13.898 8.86601 12.9821 9.09498C12.7531 9.09498 12.5242 9.32395 12.4097 9.6674C12.2952 10.1253 12.4097 10.4688 12.6387 10.8122C12.7532 11.0412 12.9822 11.0413 13.0966 10.9268C13.5546 10.6978 13.898 10.3543 14.2415 9.89639C17.1036 6.1184 11.4938 3.14185 9.43313 3.14185Z" fill="#54B948"/>
<path d="M10.8088 9.21135C4.0542 9.89825 -1.21208 6.92165 2.79487 6.12025C2.79487 6.12025 3.25281 6.00574 3.36729 5.66229C3.48178 5.31884 3.48179 5.31889 3.59628 4.86095C3.71076 4.63198 3.71071 4.40302 3.82519 4.28853C3.93967 3.94508 3.71071 3.83058 3.25277 4.05955C-0.410734 5.8913 0.619682 9.21131 3.59628 10.8141C5.54251 11.9589 7.83214 12.3024 10.1218 11.8445C10.4653 11.73 10.8088 11.501 11.0378 11.2721C11.3812 10.8141 11.4957 10.2417 11.3812 9.78377C11.3812 9.44032 11.1522 9.21135 10.8088 9.21135Z" fill="#26BCD7"/>
</svg>
