<svg width="147" height="146" viewBox="0 0 147 146" fill="none" xmlns="http://www.w3.org/2000/svg">
<g filter="url(#filter0_d_1_14994)">
<ellipse cx="73.469" cy="72.6313" rx="47.6067" ry="47.6067" fill="white"/>
</g>
<ellipse cx="73.4692" cy="72.6314" rx="36.1655" ry="36.1655" fill="#13A4ED"/>
<path d="M90.0047 57.2731C89.7377 57.0054 89.404 56.8716 89.0035 56.8716H66.1757C65.7752 56.8716 65.4414 57.0054 65.1744 57.2731C64.9075 57.5408 64.774 57.8754 64.774 58.2769V62.5598H61.2363C60.8358 62.5598 60.3686 62.6267 59.9014 62.8274C59.4341 63.0282 59.0336 63.229 58.7666 63.5636L54.3613 67.9803C54.161 68.181 54.0275 68.3818 53.8273 68.6495C53.6938 68.9172 53.5603 69.1179 53.4935 69.3187C53.4268 69.5194 53.3601 69.7871 53.3601 70.1217C53.3601 70.4563 53.2933 70.724 53.2933 70.9248C53.2933 71.0586 53.2933 71.3932 53.2933 71.7947C53.2933 72.1962 53.2933 72.4639 53.2933 72.5978V79.7582C52.8928 79.7582 52.5591 79.892 52.2921 80.1597C52.0251 80.4274 51.8916 80.762 51.8916 81.1635C51.8916 81.3643 51.8916 81.5651 51.9583 81.7658C52.0251 81.9666 52.0918 82.1004 52.2921 82.1673C52.4256 82.3012 52.5591 82.3681 52.6926 82.435C52.8261 82.5019 52.9596 82.5688 53.2266 82.5688C53.4936 82.5688 53.6271 82.6358 53.7605 82.6358C53.8273 82.6358 54.0275 82.6358 54.3613 82.6358C54.6283 82.6358 54.8285 82.6358 54.8953 82.6358H56.297C56.297 84.2418 56.8309 85.5802 57.9657 86.7179C59.1004 87.8555 60.4353 88.3909 61.9705 88.3909C63.5725 88.3909 64.9075 87.8555 65.9754 86.7179C67.1101 85.5802 67.6441 84.2418 67.6441 82.6358H76.1879C76.1879 84.2418 76.7219 85.5802 77.8566 86.7179C78.9913 87.8555 80.3262 88.3909 81.8614 88.3909C83.4634 88.3909 84.7984 87.8555 85.8663 86.7179C87.001 85.5802 87.535 84.2418 87.535 82.6358C87.6018 82.6358 87.7353 82.6358 88.069 82.6358C88.336 82.6358 88.5362 82.6358 88.6697 82.6358C88.7365 82.6358 88.9367 82.6357 89.2037 82.5688C89.4707 82.5688 89.6042 82.5019 89.7377 82.435C89.8712 82.3681 89.938 82.3012 90.1382 82.1673C90.2717 82.0335 90.4052 81.8997 90.4719 81.7658C90.5387 81.5651 90.5387 81.3643 90.5387 81.1635V58.21C90.4052 57.9423 90.2717 57.6077 90.0047 57.2731ZM63.9062 84.7772C63.3723 85.3126 62.7048 85.6472 61.9038 85.6472C61.1028 85.6472 60.4353 85.3795 59.9014 84.7772C59.3674 84.2419 59.0336 83.5057 59.0336 82.7696C59.0336 81.9666 59.3006 81.2974 59.9014 80.762C60.4353 80.2267 61.1028 79.892 61.9038 79.892C62.7048 79.892 63.3723 80.1597 63.9062 80.762C64.4402 81.2974 64.774 82.0335 64.774 82.7696C64.7072 83.5057 64.4402 84.1749 63.9062 84.7772ZM64.7072 71.2594H56.1635V70.5902C56.1635 70.3894 56.2302 70.2556 56.3637 70.1217L60.7023 65.7719C60.8358 65.6381 60.9693 65.5712 61.1696 65.5712H64.7072V71.2594ZM83.8639 84.7772C83.3299 85.3126 82.6624 85.6472 81.8614 85.6472C81.0605 85.6472 80.393 85.3795 79.859 84.7772C79.325 84.2419 78.9913 83.5057 78.9913 82.7696C78.9913 81.9666 79.2583 81.2974 79.859 80.762C80.393 80.2267 81.0605 79.892 81.8614 79.892C82.6624 79.892 83.3299 80.1597 83.8639 80.762C84.3979 81.2974 84.7316 82.0335 84.7316 82.7696C84.7316 83.5057 84.3979 84.1749 83.8639 84.7772Z" fill="white"/>
<defs>
<filter id="filter0_d_1_14994" x="0.862305" y="0.0246582" width="145.213" height="145.213" filterUnits="userSpaceOnUse" color-interpolation-filters="sRGB">
<feFlood flood-opacity="0" result="BackgroundImageFix"/>
<feColorMatrix in="SourceAlpha" type="matrix" values="0 0 0 0 0 0 0 0 0 0 0 0 0 0 0 0 0 0 127 0" result="hardAlpha"/>
<feOffset/>
<feGaussianBlur stdDeviation="12.5"/>
<feComposite in2="hardAlpha" operator="out"/>
<feColorMatrix type="matrix" values="0 0 0 0 0 0 0 0 0 0 0 0 0 0 0 0 0 0 0.06 0"/>
<feBlend mode="normal" in2="BackgroundImageFix" result="effect1_dropShadow_1_14994"/>
<feBlend mode="normal" in="SourceGraphic" in2="effect1_dropShadow_1_14994" result="shape"/>
</filter>
</defs>
</svg>
