<svg width="17" height="16" viewBox="0 0 17 16" fill="none" xmlns="http://www.w3.org/2000/svg">
<path d="M0.927815 3.11774H2.72354C2.86441 3.63607 3.17192 4.09364 3.59864 4.41986C4.02535 4.74608 4.54756 4.92282 5.08469 4.92282C5.62181 4.92282 6.14402 4.74608 6.57073 4.41986C6.99745 4.09364 7.30496 3.63607 7.44584 3.11774H15.3671C15.5412 3.11774 15.7081 3.04859 15.8312 2.92551C15.9543 2.80242 16.0234 2.63548 16.0234 2.46141C16.0234 2.28734 15.9543 2.1204 15.8312 1.99731C15.7081 1.87423 15.5412 1.80508 15.3671 1.80508H7.44584C7.30496 1.28675 6.99745 0.829185 6.57073 0.502965C6.14402 0.176744 5.62181 0 5.08469 0C4.54756 0 4.02535 0.176744 3.59864 0.502965C3.17192 0.829185 2.86441 1.28675 2.72354 1.80508H0.927815C0.753745 1.80508 0.586805 1.87423 0.463719 1.99731C0.340633 2.1204 0.271484 2.28734 0.271484 2.46141C0.271484 2.63548 0.340633 2.80242 0.463719 2.92551C0.586805 3.04859 0.753745 3.11774 0.927815 3.11774ZM5.08436 1.31283C5.31153 1.31283 5.53359 1.38019 5.72247 1.5064C5.91136 1.63261 6.05857 1.81199 6.14551 2.02187C6.23244 2.23174 6.25519 2.46268 6.21087 2.68549C6.16655 2.90829 6.05716 3.11295 5.89653 3.27358C5.73589 3.43421 5.53124 3.5436 5.30843 3.58792C5.08563 3.63224 4.85469 3.60949 4.64482 3.52256C4.43494 3.43563 4.25556 3.28841 4.12935 3.09953C4.00314 2.91064 3.93578 2.68858 3.93578 2.46141C3.93613 2.15689 4.05725 1.86495 4.27257 1.64963C4.4879 1.4343 4.77984 1.31318 5.08436 1.31283Z" fill="#12741C"/>
<path d="M15.3671 7.21966H13.5714C13.4307 6.70121 13.1233 6.24348 12.6967 5.91712C12.27 5.59077 11.7477 5.41394 11.2105 5.41394C10.6734 5.41394 10.1511 5.59077 9.72444 5.91712C9.29776 6.24348 8.99037 6.70121 8.84973 7.21966H0.927815C0.753745 7.21966 0.586805 7.28881 0.463719 7.41189C0.340633 7.53498 0.271484 7.70192 0.271484 7.87599C0.271484 8.05006 0.340633 8.217 0.463719 8.34009C0.586805 8.46317 0.753745 8.53232 0.927815 8.53232H8.84973C8.99037 9.05077 9.29776 9.5085 9.72444 9.83486C10.1511 10.1612 10.6734 10.338 11.2105 10.338C11.7477 10.338 12.27 10.1612 12.6967 9.83486C13.1233 9.5085 13.4307 9.05077 13.5714 8.53232H15.3671C15.5412 8.53232 15.7081 8.46317 15.8312 8.34009C15.9543 8.217 16.0234 8.05006 16.0234 7.87599C16.0234 7.70192 15.9543 7.53498 15.8312 7.41189C15.7081 7.28881 15.5412 7.21966 15.3671 7.21966ZM11.2105 9.02457C10.9834 9.02457 10.7613 8.95721 10.5724 8.831C10.3835 8.70479 10.2363 8.52541 10.1494 8.31553C10.0625 8.10566 10.0397 7.87472 10.084 7.65191C10.1284 7.42911 10.2378 7.22445 10.3984 7.06382C10.559 6.90319 10.7637 6.7938 10.9865 6.74948C11.2093 6.70516 11.4402 6.72791 11.6501 6.81484C11.86 6.90178 12.0394 7.04899 12.1656 7.23787C12.2918 7.42676 12.3591 7.64882 12.3591 7.87599C12.3588 8.18051 12.2377 8.47245 12.0223 8.68777C11.807 8.9031 11.5151 9.02422 11.2105 9.02457Z" fill="#12741C"/>
<path d="M15.3671 12.6347H7.44584C7.30496 12.1163 6.99745 11.6588 6.57073 11.3326C6.14402 11.0063 5.62181 10.8296 5.08469 10.8296C4.54756 10.8296 4.02535 11.0063 3.59864 11.3326C3.17192 11.6588 2.86441 12.1163 2.72354 12.6347H0.927815C0.753745 12.6347 0.586805 12.7038 0.463719 12.8269C0.340633 12.95 0.271484 13.1169 0.271484 13.291C0.271484 13.4651 0.340633 13.632 0.463719 13.7551C0.586805 13.8782 0.753745 13.9473 0.927815 13.9473H2.72354C2.86441 14.4657 3.17192 14.9232 3.59864 15.2494C4.02535 15.5757 4.54756 15.7524 5.08469 15.7524C5.62181 15.7524 6.14402 15.5757 6.57073 15.2494C6.99745 14.9232 7.30496 14.4657 7.44584 13.9473H15.3671C15.5412 13.9473 15.7081 13.8782 15.8312 13.7551C15.9543 13.632 16.0234 13.4651 16.0234 13.291C16.0234 13.1169 15.9543 12.95 15.8312 12.8269C15.7081 12.7038 15.5412 12.6347 15.3671 12.6347ZM5.08436 14.4396C4.85719 14.4396 4.63512 14.3722 4.44624 14.246C4.25736 14.1198 4.11014 13.9404 4.02321 13.7305C3.93628 13.5207 3.91353 13.2897 3.95785 13.0669C4.00217 12.8441 4.11156 12.6395 4.27219 12.4788C4.43282 12.3182 4.63748 12.2088 4.86028 12.1645C5.08308 12.1202 5.31402 12.1429 5.5239 12.2299C5.73378 12.3168 5.91316 12.464 6.03937 12.6529C6.16557 12.8418 6.23294 13.0638 6.23294 13.291C6.23242 13.5955 6.11124 13.8873 5.89595 14.1026C5.68066 14.3179 5.38882 14.4391 5.08436 14.4396Z" fill="#12741C"/>
</svg>
