<svg width="257" height="47" viewBox="0 0 257 47" fill="none" xmlns="http://www.w3.org/2000/svg">
<path d="M5.56129 32.5884H23.6663V28.1108H5.56129V19.7398H26.5864V15.2622H0.5V45.437H26.7813V40.9595H5.75616V32.5884H5.56129Z" fill="#12741C"/>
<path d="M204.714 24.412L202.572 19.9344H221.261V15.2622H195.369L199.458 24.412H204.714Z" fill="#12741C"/>
<path d="M37.293 31.031H32.0369V45.437H37.293V31.031Z" fill="#12741C"/>
<path d="M219.511 28.1104H196.15V32.5879H219.511V28.1104Z" fill="#12741C"/>
<path d="M221.651 40.9575H195.369V45.4351H221.651V40.9575Z" fill="#12741C"/>
<path d="M50.1444 38.0393L37.2956 15.2622H31.6501L49.3654 45.437H51.3122L63.382 24.412V45.437H68.6386V15.2622H63.382L50.1444 38.0393Z" fill="#12741C"/>
<path d="M176.683 38.4287L168.117 15.2622H164.613L153.127 46.021H157.994L166.365 24.0226L174.541 46.021H178.824L190.31 15.2622H185.054L176.683 38.4287Z" fill="#12741C"/>
<path d="M246.182 33.1724C251.244 32.3937 253.969 28.3055 253.969 24.2173C253.969 19.7398 250.854 15.2622 244.43 15.2622H226.714L230.413 19.7398H243.262C246.766 19.7398 248.518 21.8812 248.518 24.2173C248.518 26.3588 246.766 28.6948 243.262 28.6948H242.288L238.006 24.0226H231.971L236.059 28.6948H226.52V45.437H231.776V33.3671H239.758L250.076 45.437H256.5L246.182 33.1724Z" fill="#12741C"/>
<path d="M90.6335 15.2622H74.865L80.3161 25.58H85.3774L82.2628 19.9344H90.0499C93.3594 19.9344 94.9168 22.4652 94.9168 24.996C94.9168 27.5268 93.3594 30.0576 90.0499 30.0576H74.6702V45.437H79.9263V34.5351H90.6335C96.8632 34.5351 100.173 29.6682 100.173 24.8013C100.173 19.7397 97.0578 15.2622 90.6335 15.2622Z" fill="#12741C"/>
<path d="M133.076 18.3774L130.156 22.855C132.103 24.6071 133.076 27.1379 133.076 30.4474C133.076 37.845 126.846 41.5439 121.59 41.5439C116.334 41.5439 110.299 37.845 110.299 30.4474H105.043C105.043 41.1545 113.998 46.4108 121.785 46.4108C129.572 46.4108 138.527 41.1545 138.527 30.4474C138.527 24.9964 136.385 21.1029 133.076 18.3774Z" fill="#12741C"/>
<path d="M131.709 17.5972C132.293 16.8185 131.709 15.4558 130.735 15.4558H124.895C124.506 15.4558 124.116 15.2611 123.727 15.0664C123.338 14.6771 123.338 14.2877 123.338 13.8984L126.258 0.46572C126.258 0.0763675 125.868 -0.118303 125.674 0.0763734L112.825 19.1546C112.241 19.9333 112.825 21.2961 113.799 21.2961H119.639C120.028 21.2961 120.417 21.4908 120.807 21.6854C121.196 22.0748 121.196 22.4641 121.196 22.8535L118.471 36.2861C118.471 36.6755 118.86 36.8702 119.055 36.6755L131.709 17.5972Z" fill="#12741C"/>
<path d="M147.869 15.2622H142.417L149.426 33.7564L154.682 33.5618L147.869 15.2622Z" fill="#12741C"/>
</svg>
