<svg width="48" height="49" viewBox="0 0 48 49" fill="none" xmlns="http://www.w3.org/2000/svg">
<path d="M7.09521 18.2992C7.94808 14.3505 10.3308 10.9214 13.7243 8.77167C17.1178 6.62193 21.2362 5.93279 25.1707 6.84875L25.2826 6.3681L25.1707 6.84875C29.1041 7.76439 32.5319 10.2089 34.7052 13.6397C37.1707 17.5316 37.9868 22.2454 36.9738 26.7437L34.1348 39.3508C34.0626 39.6716 33.8657 39.951 33.5875 40.1273C33.3092 40.3036 32.9724 40.3622 32.6515 40.2904L20.04 37.4709L19.9324 37.9525L20.04 37.4709C15.5401 36.4649 11.627 33.713 9.16154 29.8211C6.98821 26.3903 6.24259 22.2467 7.09521 18.2992Z" fill="#12741C" stroke="#02590B" stroke-width="0.987008"/>
<path d="M23.3768 13.8652C23.2885 13.8695 23.2073 13.9151 23.1568 13.9878L16.5628 23.4473C16.4302 23.6374 16.5662 23.8981 16.798 23.8981H21.36L20.8125 30.7563C20.791 31.0462 21.165 31.1803 21.3326 30.9428L27.9266 21.4837C28.059 21.2939 27.9234 21.0335 27.692 21.033H23.1293L23.6775 14.1742C23.6912 14.0015 23.5498 13.8562 23.3768 13.8652Z" fill="white"/>
</svg>
