<svg width="61" height="63" viewBox="0 0 61 63" fill="none" xmlns="http://www.w3.org/2000/svg">
<path d="M9.04266 23.4062C10.1336 18.3555 13.1813 13.9693 17.5219 11.2196C21.8626 8.46989 27.1304 7.58841 32.1629 8.76001L32.3061 8.14521L32.1629 8.76001C37.1943 9.9312 41.5786 13.058 44.3585 17.4463C47.5121 22.4245 48.556 28.4538 47.2603 34.2076L43.629 50.3333C43.5366 50.7436 43.2847 51.1011 42.9288 51.3265C42.5729 51.552 42.1421 51.627 41.7317 51.5352L25.6004 47.9287C19.8445 46.6419 14.8393 43.1221 11.6857 38.1438C8.9058 33.7555 7.95208 28.4555 9.04266 23.4062Z" fill="#12741C" stroke="#02590B" stroke-width="1.26248"/>
<path d="M29.8693 17.7352C29.7563 17.7408 29.6524 17.7991 29.5878 17.892L21.1535 29.9917C20.9839 30.2348 21.1579 30.5683 21.4543 30.5683H27.2896L26.5892 39.3406C26.5618 39.7115 27.0401 39.8829 27.2546 39.5791L35.6889 27.4801C35.8583 27.2373 35.6849 26.9042 35.3888 26.9036H29.5527L30.2539 18.1305C30.2715 17.9096 30.0906 17.7237 29.8693 17.7352Z" fill="white"/>
</svg>
