<svg width="54" height="12" viewBox="0 0 54 12" fill="none" xmlns="http://www.w3.org/2000/svg">
<path d="M46.266 0.915283L45.272 1.90922L46.266 2.99343L47.3502 1.90922L46.266 0.915283Z" fill="#008BCA"/>
<path d="M47.0775 4.07739H45.6318V9.58907H47.0775V4.07739Z" fill="#008BCA"/>
<path d="M0.184082 4.25811H0.816577V5.16166C1.08764 4.52918 1.72015 4.07739 2.53334 4.07739C3.97902 4.07739 4.43077 4.89057 4.43077 6.15554V9.58907H3.79827V6.24593C3.79827 5.34238 3.52721 4.61955 2.44295 4.61955C1.44905 4.61955 0.816577 5.43275 0.816577 6.42665V9.49868H0.184082V4.25811Z" fill="#008BCA"/>
<path d="M0.184082 4.25811H0.816577V5.16166C1.08764 4.52918 1.72015 4.07739 2.53334 4.07739C3.97902 4.07739 4.43077 4.89057 4.43077 6.15554V9.58907H3.79827V6.24593C3.79827 5.34238 3.52721 4.61955 2.44295 4.61955C1.44905 4.61955 0.816577 5.43275 0.816577 6.42665V9.49868H0.184082V4.25811Z" fill="#008BCA"/>
<path d="M9.12494 6.6977C9.03458 6.87841 8.76348 6.8784 8.58277 6.96876C7.49852 7.14947 6.14324 7.14949 6.14324 8.23375C6.14324 8.86623 6.68535 9.31796 7.31784 9.31796C8.31174 9.31796 9.21529 8.68549 9.12494 7.69159V6.6977ZM5.69146 5.88449C5.78182 4.61952 6.59498 4.07739 7.85995 4.07739C8.76349 4.07739 9.84776 4.34848 9.84776 5.79416V8.59513C9.84776 8.8662 9.93814 8.95657 10.2092 8.95657C10.2996 8.95657 10.3899 8.95657 10.3899 8.95657V9.49868C10.2092 9.49868 10.1188 9.49868 9.9381 9.49868C9.30561 9.49868 9.21527 9.13726 9.21527 8.59513C8.76349 9.31797 8.31174 9.6794 7.31784 9.6794C6.32394 9.6794 5.51074 9.22762 5.51074 8.14336C5.51074 6.60733 6.9564 6.60736 8.31172 6.42665C8.85385 6.3363 9.12494 6.33625 9.12494 5.70377C9.12494 4.80022 8.49245 4.61955 7.76961 4.61955C6.95642 4.61955 6.41426 4.98094 6.3239 5.88449H5.69146Z" fill="#008BCA"/>
<path d="M12.2919 4.2587H13.3762V4.80081H12.2919V8.415C12.2919 8.86677 12.3823 9.04753 12.8341 9.13788C13.0148 9.13788 13.1955 9.13788 13.3762 9.13788V9.67999C13.1955 9.67999 13.0148 9.67999 12.8341 9.67999C11.9305 9.67999 11.6594 9.40893 11.6594 8.50539V4.89119H10.7559V4.34903H11.6594V2.72266H12.2919V4.2587Z" fill="#008BCA"/>
<path d="M12.2919 4.2587H13.3762V4.80081H12.2919V8.415C12.2919 8.86677 12.3823 9.04753 12.8341 9.13788C13.0148 9.13788 13.1955 9.13788 13.3762 9.13788V9.67999C13.1955 9.67999 13.0148 9.67999 12.8341 9.67999C11.9305 9.67999 11.6594 9.40893 11.6594 8.50539V4.89119H10.7559V4.34903H11.6594V2.72266H12.2919V4.2587Z" fill="#008BCA"/>
<path d="M14.5498 4.25808H15.1824V9.58904H14.5498V4.25808ZM14.5498 2.27026H15.1824V3.35453H14.5498V2.27026Z" fill="#008BCA"/>
<path d="M15.1824 4.25537H14.5498V9.58633H15.1824V4.25537Z" fill="#008BCA"/>
<path d="M15.1824 2.27026H14.5498V3.35453H15.1824V2.27026Z" fill="#008BCA"/>
<path d="M16.8087 6.87842C16.8087 8.05304 17.4413 9.1373 18.7062 9.1373C19.9712 9.1373 20.6037 7.96268 20.6037 6.87842C20.6037 5.70381 19.9712 4.61955 18.7062 4.61955C17.4413 4.61955 16.8087 5.79417 16.8087 6.87842ZM21.1458 6.87842C21.1458 8.41446 20.2422 9.6794 18.6158 9.6794C16.9894 9.6794 16.0859 8.41446 16.0859 6.87842C16.0859 5.34239 16.9894 4.07739 18.6158 4.07739C20.2422 4.07739 21.1458 5.43275 21.1458 6.87842Z" fill="#008BCA"/>
<path d="M22.1367 4.25811H22.7693V5.16166C23.0403 4.52918 23.6727 4.07739 24.4859 4.07739C25.9316 4.07739 26.3835 4.89057 26.3835 6.15554V9.58907H25.7509V6.24593C25.7509 5.34238 25.4798 4.61955 24.3956 4.61955C23.4017 4.61955 22.7693 5.43275 22.7693 6.42665V9.49868H22.1367V4.25811Z" fill="#008BCA"/>
<path d="M22.1367 4.25811H22.7693V5.16166C23.0403 4.52918 23.6727 4.07739 24.4859 4.07739C25.9316 4.07739 26.3835 4.89057 26.3835 6.15554V9.58907H25.7509V6.24593C25.7509 5.34238 25.4798 4.61955 24.3956 4.61955C23.4017 4.61955 22.7693 5.43275 22.7693 6.42665V9.49868H22.1367V4.25811Z" fill="#008BCA"/>
<path d="M30.9926 6.6977C30.9023 6.87841 30.6312 6.8784 30.4505 6.96876C29.3662 7.14947 28.0109 7.14949 28.0109 8.23375C28.0109 8.86623 28.553 9.31796 29.1855 9.31796C30.1794 9.31796 31.083 8.68549 30.9926 7.69159V6.6977ZM27.5591 5.88449C27.6494 4.61952 28.4627 4.07739 29.7276 4.07739C30.6312 4.07739 31.7154 4.34848 31.7154 5.79416V8.59513C31.7154 8.8662 31.8058 8.95657 32.0768 8.95657C32.1672 8.95657 32.2576 8.95657 32.2576 8.95657V9.49868C32.0769 9.49868 31.9865 9.49868 31.8058 9.49868C31.1733 9.49868 31.0829 9.13726 31.0829 8.59513C30.6312 9.31797 30.1794 9.6794 29.1855 9.6794C28.1916 9.6794 27.3784 9.22762 27.3784 8.14336C27.3784 6.60733 28.8241 6.60736 30.1794 6.42665C30.7215 6.3363 30.9926 6.33625 30.9926 5.70377C30.9926 4.80022 30.3601 4.61955 29.6373 4.61955C28.8241 4.61955 28.282 4.98094 28.1916 5.88449H27.5591Z" fill="#008BCA"/>
<path d="M33.8859 2.27026H33.2534V9.58904H33.8859V2.27026Z" fill="#008BCA"/>
<path d="M33.8859 2.27026H33.2534V9.58904H33.8859V2.27026Z" fill="#008BCA"/>
<path d="M37.5924 8.41466C38.5863 8.41466 38.8574 7.60148 38.8574 6.78828C38.8574 5.88473 38.4056 5.16191 37.5924 5.16191C37.0502 5.16191 36.5082 5.52331 36.5082 6.78828C36.4178 7.60148 36.6888 8.41466 37.5924 8.41466ZM40.2127 4.07764V9.22787C40.2127 10.1314 40.1223 11.7578 37.4117 11.7578C36.3274 11.7578 35.0625 11.306 35.0625 10.1314H36.5985C36.6888 10.4025 36.7792 10.6735 37.5924 10.6735C38.3152 10.6735 38.767 10.3121 38.767 9.40859V8.7761C38.496 9.22787 38.1346 9.58931 37.3214 9.58931C35.966 9.58931 34.9722 8.68573 34.9722 6.78828C34.9722 4.89083 36.0564 3.9873 37.231 3.9873C38.2249 3.9873 38.6766 4.61977 38.8574 4.98119V4.16803H40.2127V4.07764Z" fill="#008BCA"/>
<path d="M41.4766 4.07769H42.8319V4.98124C43.1029 4.43911 43.4643 3.89697 44.3679 3.89697C44.4582 3.89697 44.5486 3.89697 44.639 3.89697V5.34268C44.5486 5.34268 44.3679 5.34268 44.1872 5.34268C43.1029 5.34268 42.8319 6.06549 42.8319 6.60762V9.49898H41.3862L41.4766 4.07769Z" fill="#008BCA"/>
<path d="M50.6018 8.50531C51.5053 8.50531 51.8667 7.78246 51.8667 6.96927C51.8667 6.06572 51.5957 5.25251 50.6018 5.25251C49.6982 5.25251 49.4272 6.06572 49.4272 6.96927C49.4272 7.5114 49.6982 8.50531 50.6018 8.50531ZM53.2221 9.58958H51.7764V8.8667C51.415 9.49918 50.7824 9.67991 50.2403 9.67991C48.6139 9.67991 47.9814 8.23425 47.9814 6.69822C47.9814 4.80076 49.0657 3.89718 50.2403 3.89718C51.1439 3.89718 51.5957 4.43933 51.7764 4.7104V2.09009H53.2221V9.58958Z" fill="#008BCA"/>
</svg>
