<svg width="147" height="147" viewBox="0 0 147 147" fill="none" xmlns="http://www.w3.org/2000/svg">
<g filter="url(#filter0_d_1_16806)">
<circle cx="73.5931" cy="73.4999" r="48.0931" fill="#FCFCFC"/>
</g>
<circle cx="73.5926" cy="73.4997" r="36.535" fill="#B778E9"/>
<path d="M76.4049 70.0358C77.3981 70.0358 78.1926 69.2366 78.1926 68.2377C78.1926 67.2387 77.3981 66.4396 76.4049 66.4396C75.4118 66.4396 74.6172 67.2387 74.6172 68.2377C74.6172 69.2366 75.4118 70.0358 76.4049 70.0358Z" fill="white"/>
<path d="M65.7459 74.4983L74.2871 70.9687L74.4857 70.5691C73.8236 70.0363 73.4264 69.1706 73.4264 68.2382C73.4264 68.1716 73.4264 68.0384 73.4264 67.9718H72.4994L65.2825 73.7657C64.9515 74.0987 65.3487 74.6315 65.7459 74.4983Z" fill="white"/>
<path d="M87.1302 74.4983C87.5937 74.6981 87.9247 74.0987 87.5274 73.7657L80.3105 67.9718H79.3836C79.3836 68.0384 79.3836 68.1716 79.3836 68.2382C79.3836 69.1706 78.9863 69.9697 78.3242 70.5691L78.5229 70.9687L87.1302 74.4983Z" fill="white"/>
<path d="M76.4071 65.2419C76.8705 65.2419 77.334 65.3751 77.7313 65.5749L78.1285 64.8423L76.8043 55.652C76.7381 55.1858 76.076 55.1858 76.0098 55.652L74.6855 64.8423L75.0829 65.5083C75.4801 65.3085 75.9436 65.2419 76.4071 65.2419Z" fill="white"/>
<path d="M62.5668 79.493C63.2289 79.493 63.7585 78.9603 63.7585 78.2943C63.7585 77.6283 63.2289 77.0956 62.5668 77.0956C61.9047 77.0956 61.375 77.6283 61.375 78.2943C61.4412 78.9603 61.9709 79.493 62.5668 79.493Z" fill="white"/>
<path d="M60.2528 78.2954C60.2528 78.2288 60.2528 78.1622 60.2528 78.0956H60.1204L55.4857 81.8916C55.2208 82.0914 55.4857 82.4243 55.7505 82.3577L61.1135 80.1601C60.5839 79.6939 60.2528 79.0279 60.2528 78.2954Z" fill="white"/>
<path d="M65.084 78.1603H64.9516C64.9516 78.2269 64.9516 78.2935 64.9516 78.3601C64.9516 79.0926 64.6205 79.7586 64.0908 80.1582L69.4539 82.3559C69.7188 82.4891 69.9835 82.0895 69.7187 81.8897L65.084 78.1603Z" fill="white"/>
<path d="M61.5076 76.2299C61.8387 76.0301 62.1697 75.9635 62.567 75.9635C62.9642 75.9635 63.2953 76.0301 63.6263 76.2299L63.6925 76.1633L62.8318 70.2362C62.7656 69.9032 62.3683 69.9032 62.3021 70.2362L61.4414 76.1633L61.5076 76.2299Z" fill="white"/>
<path d="M65.0839 91.1468H63.8921L63.23 80.6245C63.0314 80.6911 62.8328 80.6911 62.5679 80.6911C62.3693 80.6911 62.1045 80.6911 61.9058 80.6245L61.2437 91.1468H60.0519C59.7209 91.1468 59.4561 91.4132 59.4561 91.7462C59.4561 92.0792 59.7209 92.3455 60.0519 92.3455H65.0839C65.4149 92.3455 65.6798 92.0792 65.6798 91.7462C65.6798 91.4132 65.4149 91.1468 65.0839 91.1468Z" fill="white"/>
<path d="M61.7746 58.7152C60.1855 58.7152 58.8613 60.0472 58.8613 61.6455C58.8613 63.2438 60.1855 64.5758 61.7746 64.5758C63.3636 64.5758 64.6878 63.2438 64.6878 61.6455C64.6878 60.0472 63.3636 58.7152 61.7746 58.7152Z" fill="white"/>
<path d="M61.775 57.5161C62.0398 57.5161 62.2385 57.3163 62.2385 57.0499V55.1187C62.2385 54.8523 62.0398 54.6525 61.775 54.6525C61.5102 54.6525 61.3115 54.8523 61.3115 55.1187V57.0499C61.3115 57.3163 61.5102 57.5161 61.775 57.5161Z" fill="white"/>
<path d="M59.5891 57.5818C59.6553 57.7816 59.854 57.8481 59.9864 57.8481C60.0526 57.8481 60.1188 57.8482 60.185 57.7816C60.3836 57.715 60.5161 57.4486 60.4499 57.1822L60.0526 56.1832C59.9864 55.9834 59.7215 55.8503 59.4567 55.9169C59.1919 55.9835 59.1256 56.2498 59.1918 56.5162L59.5891 57.5818Z" fill="white"/>
<path d="M56.3444 59.9139L57.3376 60.3135C57.4038 60.3135 57.47 60.38 57.5362 60.38C57.7348 60.38 57.8672 60.2469 57.9335 60.1137C57.9997 59.9139 57.9334 59.6475 57.6686 59.5143L56.6755 59.1147C56.4768 59.0481 56.212 59.1147 56.0795 59.3811C56.0133 59.5143 56.0796 59.7807 56.3444 59.9139Z" fill="white"/>
<path d="M57.9346 63.2427C57.8684 63.0429 57.6035 62.9097 57.3387 62.9763L56.3456 63.3759C56.1469 63.4425 56.0145 63.7089 56.0807 63.9753C56.1469 64.175 56.3456 64.2417 56.478 64.2417C56.5442 64.2417 56.6104 64.2416 56.6766 64.175L57.6698 63.7755C57.9346 63.7755 58.0008 63.5091 57.9346 63.2427Z" fill="white"/>
<path d="M59.5891 65.7739L59.1918 66.7729C59.1256 66.9727 59.1919 67.2391 59.4567 67.3722C59.5229 67.3722 59.5891 67.4389 59.6553 67.4389C59.854 67.4389 59.9864 67.3057 60.0526 67.1725L60.4499 66.1735C60.5161 65.9737 60.4498 65.7074 60.185 65.5742C59.9202 65.441 59.6553 65.5076 59.5891 65.7739Z" fill="white"/>
<path d="M64.0894 67.373C64.2881 67.3064 64.4205 67.04 64.3543 66.7736L63.9571 65.7747C63.8908 65.5749 63.626 65.4417 63.3611 65.5083C63.1625 65.5749 63.0301 65.8413 63.0963 66.1077L63.4936 67.1066C63.5598 67.3064 63.7584 67.373 63.8909 67.373C63.9571 67.373 64.0232 67.373 64.0894 67.373Z" fill="white"/>
<path d="M66.8053 64.2421C66.8715 64.2421 66.9377 64.3087 67.0039 64.3087C67.2025 64.3087 67.3349 64.1754 67.4012 64.0423C67.4674 63.8425 67.4012 63.5761 67.1364 63.4429L66.1432 63.0433C65.9446 62.9767 65.6797 63.0433 65.5473 63.3097C65.4811 63.5095 65.5473 63.7759 65.8122 63.9091L66.8053 64.2421Z" fill="white"/>
<path d="M65.6135 60.0468C65.6797 60.2466 65.8783 60.3132 66.0107 60.3132C66.0769 60.3132 66.1432 60.3133 66.2094 60.2467L67.2025 59.8471C67.4012 59.7805 67.5336 59.5141 67.4674 59.2477C67.4012 59.0479 67.1363 58.9147 66.8715 58.9813L65.8783 59.3809C65.6135 59.5807 65.481 59.8471 65.6135 60.0468Z" fill="white"/>
<path d="M63.3629 57.85C63.4291 57.85 63.4954 57.9166 63.5616 57.9166C63.7602 57.9166 63.8926 57.7834 63.9588 57.6502L64.3561 56.6512C64.4223 56.4514 64.3561 56.185 64.0912 56.0518C63.8926 55.9853 63.6278 56.0519 63.4953 56.3183L63.0981 57.3172C63.0319 57.4504 63.0981 57.7168 63.3629 57.85Z" fill="white"/>
<path d="M58.198 58.7152C58.2642 58.7818 58.3966 58.8484 58.529 58.8484C58.6614 58.8484 58.7276 58.7818 58.8601 58.7152C59.0587 58.5154 59.0587 58.249 58.8601 58.1158L57.5359 56.7839C57.3372 56.5841 57.0724 56.5841 56.94 56.7839C56.7414 56.9837 56.7414 57.25 56.94 57.3832L58.198 58.7152Z" fill="white"/>
<path d="M57.602 61.6455C57.602 61.3791 57.4033 61.1793 57.1385 61.1793H55.2184C54.9535 61.1793 54.7549 61.3791 54.7549 61.6455C54.7549 61.9119 54.9535 62.1117 55.2184 62.1117H57.1385C57.4033 62.1117 57.602 61.9119 57.602 61.6455Z" fill="white"/>
<path d="M57.1384 66.707C57.2709 66.707 57.3371 66.6404 57.4695 66.5738L58.7937 65.2419C58.9923 65.0421 58.9923 64.7757 58.7937 64.6425C58.5951 64.4427 58.3302 64.4427 58.1978 64.6425L56.8736 65.9745C56.675 66.1742 56.675 66.4406 56.8736 66.5738C56.9398 66.707 57.0722 66.707 57.1384 66.707Z" fill="white"/>
<path d="M61.775 65.8408C61.5102 65.8408 61.3115 66.0406 61.3115 66.307V68.2383C61.3115 68.5047 61.5102 68.7045 61.775 68.7045C62.0398 68.7045 62.2385 68.5047 62.2385 68.2383V66.307C62.1723 66.0406 61.9736 65.8408 61.775 65.8408Z" fill="white"/>
<path d="M66.0095 66.5738C66.0757 66.6404 66.2082 66.707 66.3406 66.707C66.473 66.707 66.5392 66.6404 66.6716 66.5738C66.8703 66.374 66.8703 66.1076 66.6716 65.9745L65.3474 64.6425C65.1488 64.4427 64.8839 64.4427 64.7515 64.6425C64.5529 64.8423 64.5529 65.1087 64.7515 65.2419L66.0095 66.5738Z" fill="white"/>
<path d="M65.8789 61.6455C65.8789 61.9119 66.0775 62.1117 66.3423 62.1117H68.2625C68.5273 62.1117 68.7259 61.9119 68.7259 61.6455C68.7259 61.3791 68.5273 61.1793 68.2625 61.1793H66.3423C66.0775 61.2459 65.8789 61.4457 65.8789 61.6455Z" fill="white"/>
<path d="M65.0164 58.8484C65.1488 58.8484 65.215 58.7818 65.3474 58.7152L66.6716 57.3832C66.8703 57.1834 66.8703 56.9171 66.6716 56.7839C66.473 56.5841 66.2081 56.5841 66.0757 56.7839L64.7515 58.1158C64.5529 58.3156 64.5529 58.582 64.7515 58.7152C64.7515 58.7818 64.8839 58.8484 65.0164 58.8484Z" fill="white"/>
<path d="M88.455 91.1474H87.197V89.6157H84.6811V91.1474H83.4231C83.092 91.1474 82.8271 91.4138 82.8271 91.7468C82.8271 92.0798 83.092 92.3462 83.4231 92.3462H88.455C88.7861 92.3462 89.0509 92.0798 89.0509 91.7468C89.0509 91.4138 88.7861 91.1474 88.455 91.1474Z" fill="white"/>
<path d="M83.1587 58.9147H90.177C90.508 58.9147 90.7729 58.6483 90.7729 58.3153C90.7729 57.9823 90.508 57.7159 90.177 57.7159H83.1587C82.6953 57.7159 82.2318 57.3163 82.2318 56.7836C82.2318 56.2508 82.6291 55.8512 83.1587 55.8512C83.4898 55.8512 83.7546 55.5848 83.7546 55.2519C83.7546 54.9189 83.4898 54.6525 83.1587 54.6525C82.0332 54.6525 81.04 55.5848 81.04 56.7836C81.04 57.9823 82.0332 58.9147 83.1587 58.9147Z" fill="white"/>
<path d="M83.291 62.0452C83.291 63.1774 84.218 64.1764 85.4098 64.1764C85.7408 64.1764 86.0057 63.91 86.0057 63.577C86.0057 63.244 85.7408 62.9776 85.4098 62.9776C84.8801 62.9776 84.4828 62.578 84.4828 62.0452C84.4828 61.5125 84.8801 61.1129 85.4098 61.1129H91.2362C91.5673 61.1129 91.8321 60.8465 91.8321 60.5135C91.8321 60.1805 91.5673 59.9142 91.2362 59.9142H85.4098C84.218 59.9142 83.291 60.8465 83.291 62.0452Z" fill="white"/>
<path d="M92.4299 87.0851L91.2381 78.9603C91.1719 78.3609 90.6423 77.9613 90.0464 77.9613H81.8363C81.2404 77.9613 80.7769 78.4275 80.6445 78.9603L79.4528 87.0851C79.3866 87.418 79.519 87.751 79.7176 88.0174C79.9163 88.2838 80.2472 88.417 80.6445 88.417H91.1719C91.503 88.417 91.834 88.2838 92.0989 88.0174C92.3637 87.751 92.4299 87.418 92.4299 87.0851ZM89.2518 79.0935H90.0464L90.1788 80.159H89.2518V79.0935ZM89.2518 81.3577H90.3774L90.576 82.5565H89.2518V81.3577ZM89.2518 83.7552H90.7085L90.9071 84.954H89.2518V83.7552ZM82.6308 87.2183H80.6445L80.777 86.1527H82.5646V87.2183H82.6308ZM82.6308 84.954H80.9756L81.1742 83.7552H82.6308V84.954ZM82.6308 82.5565H81.3729L81.5715 81.3577H82.6971L82.6308 82.5565ZM82.6308 80.159H81.7039L81.8363 79.0935H82.6308V80.159ZM85.3455 87.2183H83.8226V86.1527H85.3455V87.2183ZM85.3455 84.954H83.8226V83.7552H85.3455V84.954ZM85.3455 82.5565H83.8226V81.3577H85.3455V82.5565ZM85.3455 80.159H83.8226V79.0935H85.3455V80.159ZM88.0601 87.2183H86.5372V86.1527H88.0601V87.2183ZM88.0601 84.954H86.5372V83.7552H88.0601V84.954ZM88.0601 82.5565H86.5372V81.3577H88.0601V82.5565ZM88.0601 80.159H86.5372V79.0935H88.0601V80.159ZM89.2518 87.2183V86.1527H91.0395L91.1719 87.2183H89.2518Z" fill="white"/>
<path d="M80.3114 91.1483H78.4576L77.3982 71.0361C77.0672 71.1693 76.8023 71.236 76.4713 71.236C76.1402 71.236 75.8092 71.1693 75.5443 71.0361L74.485 91.1483H72.6311C72.3 91.1483 72.0352 91.4147 72.0352 91.7477C72.0352 92.0807 72.3 92.3471 72.6311 92.3471H80.3777C80.7088 92.3471 80.9735 92.0807 80.9735 91.7477C80.9735 91.4147 80.6425 91.1483 80.3114 91.1483Z" fill="white"/>
<defs>
<filter id="filter0_d_1_16806" x="0.5" y="0.406738" width="146.187" height="146.186" filterUnits="userSpaceOnUse" color-interpolation-filters="sRGB">
<feFlood flood-opacity="0" result="BackgroundImageFix"/>
<feColorMatrix in="SourceAlpha" type="matrix" values="0 0 0 0 0 0 0 0 0 0 0 0 0 0 0 0 0 0 127 0" result="hardAlpha"/>
<feOffset/>
<feGaussianBlur stdDeviation="12.5"/>
<feComposite in2="hardAlpha" operator="out"/>
<feColorMatrix type="matrix" values="0 0 0 0 0 0 0 0 0 0 0 0 0 0 0 0 0 0 0.06 0"/>
<feBlend mode="normal" in2="BackgroundImageFix" result="effect1_dropShadow_1_16806"/>
<feBlend mode="normal" in="SourceGraphic" in2="effect1_dropShadow_1_16806" result="shape"/>
</filter>
</defs>
</svg>
