<svg width="148" height="147" viewBox="0 0 148 147" fill="none" xmlns="http://www.w3.org/2000/svg">
<g filter="url(#filter0_d_1_16793)">
<circle cx="74.0004" cy="73.4999" r="48.0931" fill="#FCFCFC"/>
</g>
<circle cx="74.0008" cy="73.4997" r="36.535" fill="#13A4ED"/>
<path d="M90.7047 57.9847C90.435 57.7143 90.0978 57.5791 89.6932 57.5791H66.6322C66.2276 57.5791 65.8904 57.7143 65.6207 57.9847C65.351 58.2551 65.2161 58.5931 65.2161 58.9988V63.3254H61.6424C61.2378 63.3254 60.7658 63.393 60.2938 63.5958C59.8217 63.7986 59.4172 64.0015 59.1474 64.3395L54.6971 68.8013C54.4948 69.0041 54.3599 69.2069 54.1576 69.4773C54.0228 69.7478 53.8879 69.9506 53.8205 70.1534C53.753 70.3562 53.6856 70.6266 53.6856 70.9646C53.6856 71.3027 53.6182 71.5731 53.6182 71.7759C53.6182 71.9111 53.6182 72.2491 53.6182 72.6547C53.6182 73.0604 53.6182 73.3308 53.6182 73.466V80.6996C53.2136 80.6996 52.8764 80.8348 52.6067 81.1052C52.337 81.3756 52.2021 81.7136 52.2021 82.1193C52.2021 82.3221 52.2021 82.5249 52.2696 82.7277C52.337 82.9305 52.4044 83.0657 52.6067 83.1333C52.7416 83.2685 52.8764 83.3361 53.0113 83.4037C53.1462 83.4713 53.281 83.5389 53.5507 83.5389C53.8205 83.5389 53.9553 83.6066 54.0902 83.6066C54.1576 83.6066 54.3599 83.6066 54.6971 83.6066C54.9668 83.6066 55.1691 83.6066 55.2365 83.6066H56.6525C56.6525 85.229 57.192 86.5811 58.3383 87.7304C59.4846 88.8796 60.8332 89.4205 62.3841 89.4205C64.0024 89.4205 65.351 88.8796 66.4299 87.7304C67.5762 86.5811 68.1156 85.229 68.1156 83.6066H76.7467C76.7467 85.229 77.2861 86.5811 78.4324 87.7304C79.5787 88.8796 80.9273 89.4205 82.4782 89.4205C84.0965 89.4205 85.4451 88.8796 86.524 87.7304C87.6703 86.5811 88.2098 85.229 88.2098 83.6066C88.2772 83.6066 88.4121 83.6066 88.7492 83.6066C89.0189 83.6066 89.2212 83.6066 89.3561 83.6066C89.4235 83.6066 89.6258 83.6065 89.8955 83.5389C90.1653 83.5389 90.3001 83.4713 90.435 83.4037C90.5698 83.3361 90.6373 83.2685 90.8396 83.1333C90.9744 82.9981 91.1093 82.8629 91.1767 82.7277C91.2441 82.5249 91.2441 82.3221 91.2441 82.1193V58.9312C91.1093 58.6608 90.9744 58.3227 90.7047 57.9847ZM64.3396 85.7699C63.8001 86.3107 63.1258 86.6487 62.3167 86.6487C61.5075 86.6487 60.8332 86.3783 60.2938 85.7699C59.7543 85.229 59.4172 84.4854 59.4172 83.7418C59.4172 82.9305 59.6869 82.2545 60.2938 81.7137C60.8332 81.1728 61.5075 80.8348 62.3167 80.8348C63.1258 80.8348 63.8001 81.1052 64.3396 81.7137C64.879 82.2545 65.2161 82.9981 65.2161 83.7418C65.1487 84.4854 64.879 85.1614 64.3396 85.7699ZM65.1487 72.1139H56.5177V71.4379C56.5177 71.2351 56.5851 71.0998 56.72 70.9646L61.1029 66.5704C61.2378 66.4352 61.3726 66.3676 61.5749 66.3676H65.1487V72.1139ZM84.5011 85.7699C83.9617 86.3107 83.2874 86.6487 82.4782 86.6487C81.6691 86.6487 80.9948 86.3783 80.4553 85.7699C79.9159 85.229 79.5787 84.4854 79.5787 83.7418C79.5787 82.9305 79.8485 82.2545 80.4553 81.7137C80.9948 81.1728 81.6691 80.8348 82.4782 80.8348C83.2874 80.8348 83.9617 81.1052 84.5011 81.7137C85.0406 82.2545 85.3777 82.9981 85.3777 83.7418C85.3777 84.4854 85.0406 85.1614 84.5011 85.7699Z" fill="white"/>
<defs>
<filter id="filter0_d_1_16793" x="0.907227" y="0.406738" width="146.187" height="146.186" filterUnits="userSpaceOnUse" color-interpolation-filters="sRGB">
<feFlood flood-opacity="0" result="BackgroundImageFix"/>
<feColorMatrix in="SourceAlpha" type="matrix" values="0 0 0 0 0 0 0 0 0 0 0 0 0 0 0 0 0 0 127 0" result="hardAlpha"/>
<feOffset/>
<feGaussianBlur stdDeviation="12.5"/>
<feComposite in2="hardAlpha" operator="out"/>
<feColorMatrix type="matrix" values="0 0 0 0 0 0 0 0 0 0 0 0 0 0 0 0 0 0 0.06 0"/>
<feBlend mode="normal" in2="BackgroundImageFix" result="effect1_dropShadow_1_16793"/>
<feBlend mode="normal" in="SourceGraphic" in2="effect1_dropShadow_1_16793" result="shape"/>
</filter>
</defs>
</svg>
