<svg width="147" height="147" viewBox="0 0 147 147" fill="none" xmlns="http://www.w3.org/2000/svg">
<g filter="url(#filter0_d_1_16799)">
<circle cx="73.5004" cy="73.4999" r="48.0931" fill="#FCFCFC"/>
</g>
<circle cx="73.4998" cy="73.4997" r="36.535" fill="#0DD793"/>
<path fill-rule="evenodd" clip-rule="evenodd" d="M94.2187 59.5344H94.1411V57.1162C94.1411 56.5128 93.6519 56.0237 93.0485 56.0237C92.4452 56.0237 91.956 56.5128 91.956 57.1162V59.5344H89.46V57.1162C89.46 56.5128 88.9708 56.0237 88.3674 56.0237C87.764 56.0237 87.2749 56.5128 87.2749 57.1162V59.5344H87.1972C86.5938 59.5344 86.1047 60.0236 86.1047 60.627V64.1378C86.1047 66.2996 87.603 68.1171 89.6155 68.609V84.0321C89.6155 84.7202 89.0556 85.2801 88.3674 85.2801C87.6793 85.2801 87.1195 84.7202 87.1195 84.0321V73.4998C87.1195 70.6898 85.1012 68.3435 82.4384 67.8313V58.8715C82.4385 56.6559 80.6359 54.8534 78.4203 54.8534H63.2069C60.9913 54.8534 59.1888 56.6559 59.1888 58.8715V89.961H59.1111C58.5077 89.961 58.0186 90.4502 58.0186 91.0536C58.0186 91.657 58.5077 92.1461 59.1111 92.1461H82.5162C83.1196 92.1461 83.6087 91.657 83.6087 91.0536C83.6087 90.4502 83.1196 89.961 82.5162 89.961H82.4384V70.0819C83.8844 70.5453 84.9344 71.9019 84.9344 73.4998V84.0321C84.9344 85.925 86.4745 87.4652 88.3674 87.4652C90.2605 87.4652 91.8006 85.925 91.8006 84.0321V68.609C93.813 68.1171 95.3113 66.2995 95.3113 64.1378V60.627C95.3113 60.0235 94.8221 59.5344 94.2187 59.5344ZM77.7575 69.989C77.7575 70.5924 77.2683 71.0816 76.6649 71.0816H64.9624C64.3591 71.0816 63.8699 70.5924 63.8699 69.989V60.627C63.8699 60.0236 64.3591 59.5344 64.9624 59.5344H76.6649C77.2683 59.5344 77.7575 60.0236 77.7575 60.627V69.989ZM67.4601 81.4037C67.2894 81.6729 67.4943 82.0161 67.8261 82.0161H69.7112L69.0259 86.8916C68.9946 87.1267 69.3247 87.2348 69.4533 87.0316L74.1666 80.9211C74.3374 80.6518 74.1325 80.3086 73.8006 80.3086H71.9155L72.6008 75.4332C72.6321 75.1981 72.302 75.0899 72.1734 75.2931L67.4601 81.4037Z" fill="white"/>
<defs>
<filter id="filter0_d_1_16799" x="0.407227" y="0.406738" width="146.187" height="146.186" filterUnits="userSpaceOnUse" color-interpolation-filters="sRGB">
<feFlood flood-opacity="0" result="BackgroundImageFix"/>
<feColorMatrix in="SourceAlpha" type="matrix" values="0 0 0 0 0 0 0 0 0 0 0 0 0 0 0 0 0 0 127 0" result="hardAlpha"/>
<feOffset/>
<feGaussianBlur stdDeviation="12.5"/>
<feComposite in2="hardAlpha" operator="out"/>
<feColorMatrix type="matrix" values="0 0 0 0 0 0 0 0 0 0 0 0 0 0 0 0 0 0 0.06 0"/>
<feBlend mode="normal" in2="BackgroundImageFix" result="effect1_dropShadow_1_16799"/>
<feBlend mode="normal" in="SourceGraphic" in2="effect1_dropShadow_1_16799" result="shape"/>
</filter>
</defs>
</svg>
