<svg width="44" height="18" viewBox="0 0 44 18" fill="none" xmlns="http://www.w3.org/2000/svg">
<g clip-path="url(#clip0_1_14947)">
<path d="M3.77953 17.6791H40.0473C41.808 17.6791 43.2029 16.2086 43.2029 14.3524V4.26973C43.2029 2.44992 41.808 0.942993 40.047 0.942993H3.78606C2.02497 0.942993 0.629395 2.44992 0.629395 4.26973V14.3524C0.629395 16.2086 2.02459 17.6791 3.78529 17.6791" fill="#2151A8"/>
<path fill-rule="evenodd" clip-rule="evenodd" d="M40.0475 15.5776C40.6787 15.5776 41.2112 15.0514 41.2112 14.3524V4.26973C41.2112 3.6039 40.6488 3.00971 40.0172 3.00971H3.78625C3.62817 3.00597 3.471 3.03597 3.3242 3.09792C3.17739 3.15987 3.044 3.25249 2.93202 3.3702C2.82005 3.4879 2.73182 3.62827 2.67263 3.78286C2.61345 3.93745 2.58453 4.10306 2.58763 4.26973L2.59031 14.3524C2.59031 15.0162 3.15469 15.5776 3.78587 15.5776H40.0475Z" fill="white"/>
<path d="M39.1325 8.75698H37.0885L37.5473 7.7896H39.5913L40.0489 6.86269H35.8902L33.5129 11.821H37.6701L38.0932 10.9293H36.0492L36.6654 9.64705H38.7094L39.1325 8.75657V8.75698ZM33.1068 11.821L32.4721 9.03505L35.5032 6.86269H33.3018L30.7986 8.66388L31.6624 6.86269H29.5493L27.1708 11.821H29.284L30.0756 10.1672L30.7114 9.8891L31.0819 11.821H33.1068ZM24.0679 11.1888C23.7335 11.1888 23.5581 11.1159 23.5581 10.9293C23.5581 10.7808 23.6464 10.5768 23.7516 10.3538L23.8053 10.2416H21.6369L21.4434 10.6509C21.3727 10.7982 21.3205 10.9463 21.3205 11.1159C21.3205 11.617 21.7071 12.0064 23.876 12.0064C25.8302 12.0064 26.3592 11.8955 26.6759 11.2455L27.0284 10.5213C27.1704 10.2416 27.2756 9.94576 27.2756 9.6851C27.2756 9.44305 27.1873 9.16498 26.6414 9.01602L25.0036 8.55298C24.8085 8.49752 24.7383 8.42183 24.7383 8.32833C24.7383 8.23686 24.7743 8.16238 24.8085 8.08791L24.8792 7.93936C25.0381 7.60421 25.179 7.53014 25.5664 7.53014C25.9365 7.53014 26.0789 7.62324 26.0789 7.80943C26.0789 7.9774 25.9906 8.18141 25.9004 8.36638L25.8659 8.44086H27.997L28.174 8.06929C28.2431 7.92033 28.2969 7.75276 28.2969 7.60421C28.2969 7.10312 28.0331 6.71252 25.8659 6.71252C23.909 6.71252 23.312 6.82464 22.9941 7.47469L22.5353 8.42183C22.4676 8.55967 22.4316 8.7123 22.4301 8.86748C22.4301 9.10952 22.571 9.3876 23.0302 9.51752L24.7548 10.0202C24.9314 10.0757 24.9498 10.1672 24.9498 10.2416C24.9498 10.3347 24.8972 10.4833 24.8446 10.5938L24.7548 10.7808C24.5974 11.1159 24.4561 11.1888 24.0675 11.1888H24.0679ZM19.1532 6.86269H17.1799L14.801 11.821H16.5633L17.5861 9.6851C17.6732 9.4985 17.7796 9.14757 17.7796 9.14757L18.1481 11.821H20.1745L22.5549 6.86269H20.7926L19.7337 9.12855C19.6466 9.31352 19.5402 9.64705 19.5402 9.64705L19.1532 6.86269ZM15.3831 8.75698H13.3387L13.7963 7.7896H15.8419L16.2991 6.86269H12.1419L9.76351 11.821H13.9207L14.3438 10.9293H12.2994L12.9159 9.64705H14.96L15.3831 8.75657V8.75698ZM6.92589 9.4985H7.71947C7.96672 9.4985 8.08804 9.3876 8.15869 9.23945L8.74072 8.05026C8.77681 7.97741 8.79332 7.92074 8.79332 7.86529C8.79332 7.77219 8.72268 7.69771 8.56527 7.69771H7.78973L6.92589 9.4985ZM6.08163 6.86269H10.1509C10.6623 6.86269 10.9441 7.08531 10.9441 7.41924C10.9441 7.60421 10.8723 7.78919 10.8032 7.93936L9.99195 9.62964C9.81649 10.0202 9.4986 10.3347 8.84784 10.3347H6.53966L5.81672 11.821H3.70166L6.08163 6.86269Z" fill="#231F20"/>
</g>
<defs>
<clipPath id="clip0_1_14947">
<rect width="43" height="17" fill="white" transform="translate(0.276367 0.69165)"/>
</clipPath>
</defs>
</svg>
