<svg width="19" height="18" viewBox="0 0 19 18" fill="none" xmlns="http://www.w3.org/2000/svg">
<path d="M9.27151 3.46027e-05C7.9476 3.46027e-05 6.68841 0.285059 5.55549 0.799254C5.4004 0.869667 5.33494 1.05487 5.41135 1.20708L5.94748 2.28112C6.01946 2.42535 6.19256 2.48693 6.33948 2.42056C7.235 2.02071 8.22618 1.80062 9.27151 1.80062C13.2515 1.80062 16.471 5.02005 16.471 9.00006C16.471 10.4973 16.0101 11.8808 15.2288 13.0331L14.2831 12.0868C14.2184 12.0221 14.1278 11.9904 14.037 12.0006C13.8854 12.0182 13.7711 12.1468 13.7715 12.2994V15.5995C13.7709 15.7651 13.9047 15.9 14.0704 15.9006H17.3698C17.6393 15.9029 17.7746 15.5759 17.5825 15.3868L16.519 14.3233C17.6162 12.8317 18.2715 10.9922 18.2715 9.00003C18.2715 4.03301 14.2385 3.46027e-05 9.27151 3.46027e-05ZM1.17032 2.09945C0.903521 2.09955 0.769553 2.42174 0.957619 2.61098L2.02169 3.67505C0.924343 5.16675 0.271484 7.00753 0.271484 9.00006C0.271484 13.9671 4.30449 18.0001 9.27151 18.0001C10.5954 18.0001 11.8546 17.7127 12.9875 17.1985C13.1424 17.1279 13.2076 16.9428 13.1311 16.7907L12.5932 15.7167C12.5213 15.5737 12.3498 15.5124 12.2036 15.5772C11.308 15.9771 10.3168 16.1995 9.27151 16.1995C5.2915 16.1995 2.07208 12.9801 2.07208 9.00006C2.07208 7.50339 2.5302 6.11816 3.31075 4.96587L4.25998 5.91274C4.44921 6.1008 4.77139 5.96685 4.7715 5.70007V2.40063C4.7721 2.23404 4.63692 2.09882 4.47033 2.09945H1.17032ZM9.85628 3.89945C9.75842 3.90399 9.66896 3.9567 9.61663 4.03949L6.01838 9.73953C5.89224 9.93871 6.03458 10.1989 6.27033 10.2001H8.6469L8.3721 13.7767C8.35005 14.0863 8.75516 14.2215 8.92347 13.9606L12.5247 8.26002C12.6515 8.05972 12.5069 7.79834 12.2698 7.79945H9.89378L10.1703 4.22288C10.1847 4.04239 10.0371 3.89012 9.85628 3.89945Z" fill="#169F24"/>
</svg>
