<svg width="433" height="239" viewBox="0 0 433 239" fill="none" xmlns="http://www.w3.org/2000/svg">
<g filter="url(#filter0_d_1_5147)">
<path d="M24.2715 28C24.2715 23.5817 27.8532 20 32.2715 20H400.271C404.69 20 408.271 23.5817 408.271 28V203C408.271 207.418 404.69 211 400.271 211H32.2715C27.8532 211 24.2715 207.418 24.2715 203V28Z" fill="#F8F8F8"/>
<path d="M24.7715 28C24.7715 23.8579 28.1293 20.5 32.2715 20.5H400.271C404.414 20.5 407.771 23.8579 407.771 28V203C407.771 207.142 404.414 210.5 400.271 210.5H32.2715C28.1293 210.5 24.7715 207.142 24.7715 203V28Z" stroke="#F8F8F8"/>
</g>
<defs>
<filter id="filter0_d_1_5147" x="0.271484" y="0" width="432" height="239" filterUnits="userSpaceOnUse" color-interpolation-filters="sRGB">
<feFlood flood-opacity="0" result="BackgroundImageFix"/>
<feColorMatrix in="SourceAlpha" type="matrix" values="0 0 0 0 0 0 0 0 0 0 0 0 0 0 0 0 0 0 127 0" result="hardAlpha"/>
<feOffset dy="4"/>
<feGaussianBlur stdDeviation="12"/>
<feComposite in2="hardAlpha" operator="out"/>
<feColorMatrix type="matrix" values="0 0 0 0 0 0 0 0 0 0 0 0 0 0 0 0 0 0 0.03 0"/>
<feBlend mode="normal" in2="BackgroundImageFix" result="effect1_dropShadow_1_5147"/>
<feBlend mode="normal" in="SourceGraphic" in2="effect1_dropShadow_1_5147" result="shape"/>
</filter>
</defs>
</svg>
