<svg width="133" height="105" viewBox="0 0 133 105" fill="none" xmlns="http://www.w3.org/2000/svg">
<g filter="url(#filter0_bd_1_4285)">
<path d="M35.1223 38.4097C35.1223 34.8696 37.9921 31.9998 41.5323 31.9998H92.0105C95.5506 31.9998 98.4205 34.8696 98.4205 38.4097V60.0432C98.4205 63.5833 95.5506 66.4532 92.0105 66.4532H41.5323C37.9921 66.4532 35.1223 63.5833 35.1223 60.0432V38.4097Z" fill="url(#paint0_linear_1_4285)" fill-opacity="0.1" shape-rendering="crispEdges"/>
<path d="M35.3353 38.4097C35.3353 34.9872 38.1098 32.2128 41.5323 32.2128H92.0105C95.433 32.2128 98.2074 34.9872 98.2074 38.4097V60.0432C98.2074 63.4657 95.433 66.2402 92.0105 66.2402H41.5323C38.1098 66.2402 35.3353 63.4657 35.3353 60.0432V38.4097Z" stroke="url(#paint1_linear_1_4285)" stroke-opacity="0.44" stroke-width="0.426008" shape-rendering="crispEdges"/>
</g>
<defs>
<filter id="filter0_bd_1_4285" x="0.6689" y="0.75131" width="132.205" height="103.36" filterUnits="userSpaceOnUse" color-interpolation-filters="sRGB">
<feFlood flood-opacity="0" result="BackgroundImageFix"/>
<feGaussianBlur in="BackgroundImageFix" stdDeviation="6.17712"/>
<feComposite in2="SourceAlpha" operator="in" result="effect1_backgroundBlur_1_4285"/>
<feColorMatrix in="SourceAlpha" type="matrix" values="0 0 0 0 0 0 0 0 0 0 0 0 0 0 0 0 0 0 127 0" result="hardAlpha"/>
<feOffset dy="3.20497"/>
<feGaussianBlur stdDeviation="17.2267"/>
<feComposite in2="hardAlpha" operator="out"/>
<feColorMatrix type="matrix" values="0 0 0 0 0 0 0 0 0 0 0 0 0 0 0 0 0 0 0.25 0"/>
<feBlend mode="normal" in2="effect1_backgroundBlur_1_4285" result="effect2_dropShadow_1_4285"/>
<feBlend mode="normal" in="SourceGraphic" in2="effect2_dropShadow_1_4285" result="shape"/>
</filter>
<linearGradient id="paint0_linear_1_4285" x1="35.1223" y1="31.9998" x2="89.485" y2="64.3547" gradientUnits="userSpaceOnUse">
<stop stop-color="white"/>
<stop offset="0.946487" stop-color="#FFFAFA" stop-opacity="0.3"/>
</linearGradient>
<linearGradient id="paint1_linear_1_4285" x1="35.513" y1="33.2664" x2="83.3075" y2="80.2251" gradientUnits="userSpaceOnUse">
<stop stop-color="white"/>
<stop offset="0.869817" stop-color="white" stop-opacity="0.01"/>
<stop offset="0.895833" stop-color="white" stop-opacity="0"/>
</linearGradient>
</defs>
</svg>
