<svg width="11" height="13" viewBox="0 0 11 13" fill="none" xmlns="http://www.w3.org/2000/svg">
<path d="M0.36163 5.77828C0.718946 4.30747 1.89061 3.4765 3.4279 3.4765C4.93194 3.4765 6.16178 4.29085 6.51909 5.77828H0.36163ZM9.18649 3.40172C8.30567 1.87274 6.84317 0.750933 5.13969 0.293902C3.43621 -0.16313 1.60808 0.0778515 0.0791016 0.958676L0.918377 2.41287C1.69118 2.014 2.55538 1.81457 3.4279 1.82288C6.36952 1.82288 8.39707 3.89199 8.39707 6.71727V7.37373H0.303463C0.569372 9.02736 1.80751 9.95804 3.4279 9.95804C4.6328 9.95804 5.48038 9.58411 6.02882 8.76976H8.00652C7.59935 9.75861 6.85148 10.5646 5.90418 11.0466L6.75176 12.5091C8.28074 11.6283 9.40254 10.1658 9.85957 8.4623C10.3166 6.75882 10.0673 4.939 9.18649 3.40172Z" fill="url(#paint0_linear_1_15056)"/>
<defs>
<linearGradient id="paint0_linear_1_15056" x1="7.7247" y1="13.3656" x2="0.963667" y2="1.65555" gradientUnits="userSpaceOnUse">
<stop offset="0.25" stop-color="#8026FF"/>
<stop offset="0.75" stop-color="#FF1A58"/>
</linearGradient>
</defs>
</svg>
