<svg width="37" height="10" viewBox="0 0 37 10" fill="none" xmlns="http://www.w3.org/2000/svg">
<path d="M25.4461 2.10422V3.04321C25.255 2.9518 25.0472 2.91025 24.8395 2.91025C24.4655 2.91025 23.3853 3.07645 23.3853 5.26189V7.19804H22.3881V2.12915H23.3853V2.91025C23.6013 2.33689 24.2079 1.99619 24.9143 1.99619C25.0971 1.99619 25.2799 2.02943 25.4461 2.10422ZM15.0839 6.10117L15.541 6.89058C15.1753 7.13987 14.7515 7.26452 14.3111 7.27283C13.2724 7.27283 12.7655 6.70777 12.7655 5.5278V3.01828H12.0093V2.12915H12.7655V0.533691H13.7544V2.12915H15.3664V3.01828H13.7544V5.56104C13.7544 6.10948 14.1366 6.30891 14.4607 6.30891C14.71 6.30891 14.951 6.17595 15.0839 6.10117ZM5.50288 5.02091H1.09045C1.23171 5.92666 1.91311 6.42524 2.79393 6.42524C3.45039 6.42524 3.91573 6.2175 4.20657 5.77709H5.28683C4.89627 6.72439 3.9739 7.32269 2.79393 7.32269C1.19016 7.32269 0.0683594 6.20088 0.0683594 4.65528C0.0683594 3.10969 1.19016 1.98788 2.79393 1.98788C4.39769 1.98788 5.50288 3.10969 5.50288 4.65528V5.02091ZM4.48079 4.1484C4.28967 3.33405 3.61659 2.89364 2.79393 2.89364C1.95465 2.89364 1.31481 3.34236 1.12369 4.1484H4.48079ZM21.4408 5.02091H17.0284C17.1696 5.92666 17.851 6.42524 18.7319 6.42524C19.3883 6.42524 19.8537 6.2175 20.1445 5.77709H21.2248C20.8342 6.72439 19.9118 7.32269 18.7319 7.32269C17.1281 7.32269 16.0063 6.20088 16.0063 4.65528C16.0063 3.10969 17.1281 1.98788 18.7319 1.98788C20.3356 1.98788 21.4408 3.10969 21.4408 4.65528V5.02091ZM20.4187 4.1484C20.2276 3.33405 19.5545 2.89364 18.7319 2.89364C17.8926 2.89364 17.2527 3.34236 17.0616 4.1484H20.4187ZM31.0966 4.69683V6.82411C31.0966 8.77688 29.9084 9.53306 28.4043 9.53306C27.1662 9.53306 26.1856 9.00955 25.8366 7.83789H26.8338C27.0665 8.41956 27.6648 8.67716 28.4043 8.67716C29.443 8.67716 30.1327 8.18689 30.1327 6.85734V6.23412C29.7837 6.89058 29.0774 7.28114 28.2215 7.28114C26.9086 7.28114 25.6538 6.37538 25.6538 4.65528C25.6538 3.11799 26.7756 1.98788 28.3877 1.98788C29.9998 1.98788 31.0966 3.06814 31.0966 4.69683ZM30.1327 4.65528C30.1327 3.62488 29.4347 2.89364 28.3877 2.89364C27.3407 2.89364 26.6344 3.63319 26.6344 4.65528C26.6344 5.68568 27.3324 6.36707 28.3794 6.36707C29.4264 6.36707 30.1327 5.68568 30.1327 4.65528ZM31.9775 7.83789H32.9497C33.1824 8.41125 33.6893 8.67716 34.4205 8.67716C35.3678 8.67716 35.9661 8.22844 35.9661 7.0734V6.3006C35.642 6.92382 35.0271 7.27283 34.2626 7.27283C32.9996 7.27283 31.9276 6.48341 31.9276 4.70514V2.10422H32.8998V4.71345C32.8998 5.81033 33.5064 6.36707 34.4288 6.36707C35.3346 6.36707 35.9578 5.79371 35.9578 4.71345V2.11253H36.9383V7.04847C36.9383 8.81012 35.8165 9.52475 34.4122 9.52475C33.2488 9.53306 32.2766 8.98462 31.9775 7.83789ZM7.40579 2.12915L7.39748 2.90195C7.71325 2.27872 8.32816 1.99619 9.09265 1.99619C10.3557 1.99619 11.4277 2.82716 11.4277 4.60543V7.20635H10.4471V4.60543C10.4471 3.50855 9.84052 2.9518 8.91815 2.9518C8.0124 2.9518 7.38917 3.52517 7.38917 4.60543V7.20635H6.41694V2.13746L7.40579 2.12915Z" fill="black"/>
</svg>
