<svg width="19" height="18" viewBox="0 0 19 18" fill="none" xmlns="http://www.w3.org/2000/svg">
<path fill-rule="evenodd" clip-rule="evenodd" d="M17.4707 3.59258C17.8074 4.1698 18.066 4.78919 18.2396 5.43449C18.2729 5.55173 18.2928 5.67244 18.2989 5.79421C18.3104 6.14396 18.2032 6.48732 17.9947 6.7684C17.7128 7.15212 17.2647 7.37817 16.7886 7.37681H13.1998C11.9398 7.37681 10.9183 6.35535 10.9183 5.09533V1.521C10.919 1.40575 10.9328 1.29093 10.9594 1.17878C10.9596 1.17778 10.9598 1.17647 10.9602 1.17484C10.9718 1.11765 11.0617 0.673836 11.5594 0.282155C11.9075 0.000188599 12.3472 3.57266e-05 12.4497 0H12.4499C12.4499 0 12.7359 0.0202838 12.8637 0.0547555C14.8036 0.584772 16.458 1.85516 17.4707 3.59258ZM10.9001 8.89778H14.4843C15.1956 8.90049 15.8664 9.22895 16.3049 9.78909C16.7261 10.3219 16.8759 11.0202 16.7102 11.6789C15.6265 15.9764 11.3791 18.6828 7.0261 17.8496C3.83962 17.2312 1.30119 14.8205 0.519172 11.6702C-0.590804 7.19886 2.13418 2.67429 6.60552 1.56435C7.26337 1.3993 7.96058 1.54938 8.49231 1.97045C9.05344 2.4039 9.38116 3.07365 9.37905 3.7827V7.37678C9.37905 8.21679 10.06 8.89778 10.9001 8.89778Z" fill="#7C7C7C"/>
</svg>
