<svg width="19" height="18" viewBox="0 0 19 18" fill="none" xmlns="http://www.w3.org/2000/svg">
<path fill-rule="evenodd" clip-rule="evenodd" d="M5.52147 0H3.27147C1.61463 0 0.271484 1.34314 0.271484 2.99999V5.24998C0.271484 6.90686 1.61463 8.25001 3.27147 8.24997H5.52147C7.17831 8.24997 8.52146 6.90683 8.52146 5.24998V2.99999C8.52146 1.34314 7.17831 0 5.52147 0ZM15.2715 0H13.0215C11.3646 0 10.0214 1.34314 10.0215 2.99999V5.24998C10.0215 6.90683 11.3646 8.24997 13.0215 8.24997H15.2715C16.9283 8.24997 18.2715 6.90683 18.2715 5.24998V2.99999C18.2715 1.34314 16.9283 0 15.2715 0ZM3.27147 9.74999H5.52147C7.17831 9.74999 8.52146 11.0931 8.52146 12.75V15C8.52146 16.6568 7.17831 18 5.52147 18H3.27147C1.61463 18 0.271484 16.6569 0.271484 15V12.75C0.271484 11.0931 1.61463 9.74999 3.27147 9.74999ZM15.2715 9.74999H13.0215C11.3646 9.74999 10.0214 11.0931 10.0215 12.75V15C10.0215 16.6569 11.3646 18 13.0215 18H15.2715C16.9283 18 18.2715 16.6569 18.2715 15V12.75C18.2715 11.0931 16.9283 9.74999 15.2715 9.74999Z" fill="#12641A"/>
</svg>
