<svg width="19" height="19" viewBox="0 0 19 19" fill="none" xmlns="http://www.w3.org/2000/svg">
<path d="M14.5546 2.23145H13.8029V1.47971C13.8029 1.06475 13.4661 0.727966 13.0511 0.727966C12.6362 0.727966 12.2994 1.06475 12.2994 1.47971V2.23145H6.28543V1.47971C6.28543 1.06475 5.94865 0.727966 5.53369 0.727966C5.11873 0.727966 4.78194 1.06475 4.78194 1.47971V2.23145H4.0302C1.95764 2.23145 0.271484 3.91761 0.271484 5.99017V15.0111C0.271484 17.0836 1.95764 18.7698 4.0302 18.7698H14.5546C16.6272 18.7698 18.3133 17.0836 18.3133 15.0111V5.99017C18.3133 3.91761 16.6272 2.23145 14.5546 2.23145ZM4.0302 3.73494H14.5546C15.798 3.73494 16.8098 4.74679 16.8098 5.99017V6.74191H1.77497V5.99017C1.77497 4.74679 2.78682 3.73494 4.0302 3.73494ZM14.5546 17.2663H4.0302C2.78682 17.2663 1.77497 16.2545 1.77497 15.0111V8.2454H16.8098V15.0111C16.8098 16.2545 15.798 17.2663 14.5546 17.2663ZM12.2994 12.7559C12.2994 13.1708 11.9626 13.5076 11.5476 13.5076H7.03717C6.62221 13.5076 6.28543 13.1708 6.28543 12.7559C6.28543 12.3409 6.62221 12.0041 7.03717 12.0041H11.5476C11.9626 12.0041 12.2994 12.3409 12.2994 12.7559Z" fill="#12741C"/>
</svg>
