<svg width="19" height="18" viewBox="0 0 19 18" fill="none" xmlns="http://www.w3.org/2000/svg">
<path d="M17.5215 1.5C17.3226 1.5 17.1318 1.57902 16.9912 1.71967C16.8505 1.86032 16.7715 2.05109 16.7715 2.25V3H15.2715V2.25C15.2715 2.05109 15.1925 1.86032 15.0518 1.71967C14.9112 1.57902 14.7204 1.5 14.5215 1.5C14.3226 1.5 14.1318 1.57902 13.9912 1.71967C13.8505 1.86032 13.7715 2.05109 13.7715 2.25V4.125C13.7714 4.55724 13.9207 4.97625 14.194 5.31109C14.4673 5.64593 14.848 5.87605 15.2715 5.9625V12.75C15.2715 13.1478 15.1134 13.5294 14.8321 13.8107C14.5508 14.092 14.1693 14.25 13.7715 14.25H12.2715V8.25H10.7715C10.5726 8.25 10.3818 8.17098 10.2412 8.03033C10.1005 7.88968 10.0215 7.69891 10.0215 7.5C10.0215 7.30109 10.1005 7.11032 10.2412 6.96967C10.3818 6.82902 10.5726 6.75 10.7715 6.75H12.2715V3.75C12.2703 2.7558 11.8748 1.80267 11.1718 1.09966C10.4688 0.396661 9.51568 0.00119089 8.52148 0L4.02148 0C3.02729 0.00119089 2.07415 0.396661 1.37115 1.09966C0.668146 1.80267 0.272675 2.7558 0.271484 3.75L0.271484 6.75H1.77148C1.9704 6.75 2.16116 6.82902 2.30181 6.96967C2.44247 7.11032 2.52148 7.30109 2.52148 7.5C2.52148 7.69891 2.44247 7.88968 2.30181 8.03033C2.16116 8.17098 1.9704 8.25 1.77148 8.25H0.271484V14.25C0.272675 15.2442 0.668146 16.1973 1.37115 16.9003C2.07415 17.6033 3.02729 17.9988 4.02148 18H8.52148C9.25091 17.9992 9.9643 17.7859 10.5746 17.3864C11.1848 16.9868 11.6655 16.4182 11.958 15.75H13.7715C14.5671 15.75 15.3302 15.4339 15.8928 14.8713C16.4554 14.3087 16.7715 13.5456 16.7715 12.75V5.9625C17.195 5.87605 17.5756 5.64593 17.849 5.31109C18.1223 4.97625 18.2716 4.55724 18.2715 4.125V2.25C18.2715 2.05109 18.1925 1.86032 18.0518 1.71967C17.9112 1.57902 17.7204 1.5 17.5215 1.5ZM8.32048 8.6175L6.90898 10.8953C6.80416 11.0643 6.63646 11.1848 6.44278 11.2303C6.2491 11.2757 6.04531 11.2423 5.87623 11.1375C5.70716 11.0327 5.58665 10.865 5.54122 10.6713C5.49579 10.4776 5.52916 10.2738 5.63398 10.1047L6.78373 8.25H5.23273C5.04364 8.25008 4.85716 8.20585 4.68824 8.12087C4.51931 8.03589 4.37265 7.91251 4.26 7.76064C4.14735 7.60876 4.07185 7.4326 4.03955 7.24629C4.00724 7.05998 4.01904 6.86868 4.07398 6.68775C4.09141 6.62629 4.11661 6.56732 4.14898 6.51225L5.63248 4.107C5.68119 4.01749 5.74763 3.93884 5.82775 3.87586C5.90786 3.81288 5.99997 3.76688 6.09845 3.74069C6.19693 3.71449 6.29972 3.70863 6.40054 3.72348C6.50136 3.73833 6.59809 3.77357 6.68484 3.82704C6.77159 3.88052 6.84653 3.95112 6.90509 4.03452C6.96364 4.11792 7.00459 4.21238 7.02542 4.31214C7.04626 4.41189 7.04655 4.51484 7.02627 4.61471C7.00599 4.71458 6.96557 4.80927 6.90748 4.893L5.76748 6.75H7.32148C7.53928 6.74913 7.7532 6.80755 7.94033 6.919C8.12745 7.03045 8.28071 7.19072 8.38368 7.38264C8.48666 7.57456 8.53545 7.79088 8.52485 8.00842C8.51425 8.22596 8.44464 8.43651 8.32348 8.6175H8.32048Z" fill="#CEE6ED"/>
</svg>
