<svg width="19" height="19" viewBox="0 0 19 19" fill="none" xmlns="http://www.w3.org/2000/svg">
<path d="M18.2715 15.0233C18.2715 15.5113 17.8758 15.907 17.3878 15.907H1.1552C0.667139 15.907 0.271484 15.5113 0.271484 15.0233C0.271484 14.5352 0.66714 14.1395 1.15521 14.1395H1.17148V7.98088C1.17148 3.57288 4.79848 0 9.27148 0C13.7445 0 17.3715 3.57288 17.3715 7.98088V14.1395H17.3878C17.8758 14.1395 18.2715 14.5352 18.2715 15.0233ZM2.97148 14.1395H15.5715V7.98088C15.5715 4.5494 12.7509 1.76744 9.27148 1.76744C5.79208 1.76744 2.97148 4.5494 2.97148 7.98088V14.1395ZM7.24753 17.7558C7.0027 17.2608 7.4692 16.7907 8.02148 16.7907H10.5215C11.0738 16.7907 11.5403 17.2608 11.2954 17.7558C11.187 17.9751 11.0413 18.1773 10.8625 18.3529C10.4405 18.7672 9.86822 19 9.27148 19C8.67475 19 8.10245 18.7672 7.68049 18.3529C7.50162 18.1773 7.35597 17.9751 7.24753 17.7558Z" fill="white"/>
</svg>
