<svg width="17" height="18" viewBox="0 0 17 18" fill="none" xmlns="http://www.w3.org/2000/svg">
<path d="M0.574622 13.5C1.19499 14.5767 2.57076 14.9466 3.64745 14.3262C3.64819 14.3258 3.6489 14.3254 3.64963 14.325L3.98337 14.1322C4.61337 14.6712 5.33752 15.0892 6.11936 15.3652V15.75C6.11936 16.9926 7.12673 18 8.36936 18C9.61199 18 10.6194 16.9926 10.6194 15.75V15.3652C11.4013 15.0888 12.1255 14.6703 12.7553 14.1307L13.0906 14.3242C14.1675 14.9456 15.5443 14.5762 16.1656 13.4992C16.7869 12.4223 16.4176 11.0455 15.3406 10.4242L15.0076 10.2322C15.1575 9.41657 15.1575 8.58041 15.0076 7.76472L15.3406 7.57273C16.4175 6.95141 16.7869 5.57469 16.1656 4.49771C15.5443 3.42077 14.1676 3.05139 13.0906 3.6727L12.7569 3.86546C12.1262 3.32712 11.4016 2.90988 10.6194 2.63475V2.25C10.6194 1.00737 9.61199 0 8.36936 0C7.12673 0 6.11936 1.00737 6.11936 2.25V2.63475C5.33742 2.91118 4.61323 3.32968 3.98337 3.86926L3.64812 3.67502C2.57115 3.05367 1.19443 3.42306 0.573111 4.5C-0.0482059 5.57694 0.321146 6.9537 1.39812 7.57501L1.73112 7.767C1.58122 8.58266 1.58122 9.41882 1.73112 10.2345L1.39812 10.4265C0.324134 11.0495 -0.0440223 12.4235 0.574622 13.5ZM8.36936 6.00001C10.0262 6.00001 11.3693 7.34316 11.3693 9C11.3693 10.6568 10.0262 12 8.36936 12C6.71252 12 5.36937 10.6568 5.36937 9C5.36937 7.34316 6.71252 6.00001 8.36936 6.00001Z" fill="#7C7C7C"/>
</svg>
